# 0CC-FamiTracker text export 0.3.13

# Song information
TITLE           "Nova the Squirrel"
AUTHOR          "Vuurniac Squarewave"
COPYRIGHT       "2018 Nova Storm"

# Song comment
COMMENT "auto dual drums"
COMMENT "tri sxx to cut"
COMMENT "ignore triangle 1"
COMMENT "ignore triangle 2"
COMMENT "ignore triangle 3"
COMMENT "ignore triangle 4"
COMMENT ""

# Global settings
MACHINE         0
FRAMERATE       0
EXPANSION       0
VIBRATO         1
SPLIT           32

# Macros
MACRO       0   0  -1  -1   0 : 15 15 15 15 15
MACRO       0   1  -1  -1   0 : 15 15 15 15
MACRO       0   2  -1  -1   0 : 15 15 15 15 15 15 15 15
MACRO       0   3  -1  -1   0 : 15 10 5 2 1 1 0
MACRO       0   4  -1  -1   0 : 2 5 6 3 2 1 0
MACRO       0   5  -1  -1   0 : 10 5 2 1 0
MACRO       0   6  -1  -1   0 : 8 7 6 4 4 4 4 3 3 3 3 2 2 2 2 1 1 1 1 0
MACRO       0   7  -1  -1   0 : 15 13 13 13 13 12 11 10 9 8 7 6 5 4 3 2 1 0 0 0 0
MACRO       0   8  -1  -1   0 : 15 14 12 10 8 6 5 4 3 2 1 0
MACRO       0  10  -1  -1   0 : 15 9 7 6 4 3 3 1 0
MACRO       0  11  -1  -1   0 : 4 8 7
MACRO       0  12  -1  -1   0 : 15
MACRO       0  13  -1  -1   0 : 2
MACRO       0  14  -1  -1   0 : 10 8 6 4 4 3 3
MACRO       0  16  -1  -1   0 : 10 4 2 1 0
MACRO       0  17  -1  -1   0 : 10 7 3 5 7 6 6 6 5 5 5 4 4 4 3 3 3 2 2 2 1 1 1 0
MACRO       0  18  -1  -1   0 : 9 5 2 1 0
MACRO       0  19  -1  -1   0 : 9 6 5 5 5 4 4 4 3 3 2 2 1 0
MACRO       0  20  -1  -1   0 : 15 15 10 6 4 3 2 2 1 1 0
MACRO       0  21  -1  -1   0 : 10 7 3 5 7 5 3 4 6 3 1 2 4 2 1 1 0
MACRO       0  22  -1  -1   0 : 12 6 4 2 1 0 0 3 2 1 1 0
MACRO       0  23  -1  -1   0 : 12 7 7 7 7 6 6 6 6 6 5 5 5 5 4 4 4 4 4 3 3 3 3 3 2 2 2 2 1 1 1 1 0
MACRO       0  24  -1  -1   0 : 15 13 13 13 12 10 10 9 9 8 8 7 7 6 6 5 5 4 4 3 3 2 2 1 1 0
MACRO       0  26  -1  -1   0 : 13 9 8 7 6 5 5 6 7 6 5 4 3 2 1 0
MACRO       0  27  -1  -1   0 : 9 6 3 2 4 7 6 4 2 3 4 5 4 3 2 1 2 3 2 1 0
MACRO       0  28  -1  -1   0 : 9 6 4 2 0 1 3 2 1 1 1 0
MACRO       0  29  -1  -1   0 : 15 15 15 15 0
MACRO       0  30  -1  -1   0 : 10 5 2 0 3 2 1 0
MACRO       0  31  -1  -1   0 : 10 5 2 0 3 2 1 0
MACRO       0  32  -1  -1   0 : 12 10 8 7 6 5 5 5 4 4 4 3 3 3 2 2 2 1 1 1 0
MACRO       0  33  -1  -1   0 : 2 3 5 7 8 9
MACRO       0  34  -1  -1   0 : 9 6 4 3 2 1 2 3 5 4 3 2 2 1 1 1 0
MACRO       0  35  -1  -1   0 : 15 12 10 9 8 8 7 7 6 6 6 5 5 5 4 4 3 3 3 2 2 1 1 0
MACRO       0  36  -1  -1   0 : 15 10 6 3 6 10
MACRO       0  37  -1  -1   0 : 15 13 11 8 4 1 3 7 6 5 4 4 3 3 3 2 2 2 2 1 1 1 1 1 1
MACRO       0  38  -1  -1   0 : 10 4 2 1 0 5 2 1 1 0
MACRO       0  39  -1  -1   0 : 15 15 10 6 4 6 6 4 3 2 2 1 1 1 1 0
MACRO       0  40  -1  -1   0 : 9 5 2 1 0 3 2 1 1 0
MACRO       0  42  -1  -1   0 : 12 9 9 8 7 6 5 4 3 2 1 0
MACRO       0  43  -1  -1   0 : 15 13 11 10 8 7 6 5 2 2 1 1
MACRO       0  45  -1  -1   0 : 5 6 7 7 8 8 7 7 6 6 5 5 4 4 3 3 2 2 1 1 0
MACRO       0  46  -1  -1   0 : 13 10 10 9 8 8 7 7 6 6 5 5 4 4 3 3 2 2 1 1 0
MACRO       0  47  -1  -1   0 : 15 0 0 15
MACRO       0  48  -1  -1   0 : 6 6 6 6 6 6 6 6
MACRO       1   4   3  -1   1 : 2 4 3 7
MACRO       1   5   2  -1   1 : 5 10 12
MACRO       1   6   1  -1   1 : 8 3
MACRO       1   7  -1  -1   0 : 0 19 1 0
MACRO       1   8  -1  -1   0 : 12 12 0
MACRO       1   9  -1  -1   0 : 12 12 0 0 12 12 0 0 12 12 0 0
MACRO       1  11   3  -1   1 : 1 7 8 7
MACRO       1  12  -1  -1   0 : 19 0 19 0 12 0 0
MACRO       1  13  -1  -1   1 : 40 36 33 31
MACRO       1  14  -1  -1   1 : 5 1 12 13
MACRO       1  15   2  -1   1 : 12 13 12
MACRO       1  16  -1  -1   1 : 48 36 43 42 41
MACRO       1  17   6  -1   1 : 4 0 7 8 8 7 7
MACRO       1  18   2  -1   1 : 10 12 9
MACRO       1  19  -1  -1   0 : 12 12 0 0
MACRO       1  20   6  -1   1 : 8 4 3 2 2 1 1
MACRO       1  21   6  -1   1 : 0 1 1 2 2 2 3
MACRO       1  23   4  -1   1 : 5 2 1 0 6
MACRO       1  24  -1  -1   0 : -5 0
MACRO       1  25  -1  -1   0 : 19 0
MACRO       1  26  -1  -1   0 : 12 0
MACRO       1  27  -1  -1   0 : 12 0 0 0
MACRO       1  28   0  -1   1 : 13
MACRO       1  29   0  -1   1 : 14
MACRO       1  30  -1  -1   0 : 12 12 12 12 12 0
MACRO       1  31  -1  -1   0 : 19 0 19 0 19 0 19 0 19 0 19 0 19 0 12 0
MACRO       1  32  -1  -1   0 : 24 12 0 0 0 24 12 0 0 0 24 12 0 0 0 24 12 0 0 0 24 12 0 0
MACRO       1  33  -1  -1   0 : 12 1 0 0 12 0 0 0 12 0 0 0 12 0 0 0 12 0 0 0 0 0 0 0 0
MACRO       1  34  -1  -1   1 : 5 1 12 13 0 5 1 12 13 0
MACRO       1  35  -1  -1   1 : 4 0 7 8 8 4 0 7 8 8 7 7 7 7 7 7
MACRO       1  36  -1  -1   1 : 12 13 12 12 12 12 13 12 12 12
MACRO       1  40  -1  -1   0 : 0 12 0 0 0
MACRO       1  42  -1  -1   0 : 24 12 0
MACRO       1  44  -1  -1   0 : 0 0 4 4 7 7 12 12
MACRO       1  45  -1  -1   0 : 0 12 24 4 16 28 7 19
MACRO       1  46  -1  -1   1 : 65
MACRO       4   0  -1  -1   0 : 1 2
MACRO       4   1  -1  -1   0 : 2 2 2 3
MACRO       4   2  -1  -1   0 : 2 1 2 1 0 1 0 1 0 0 0 0
MACRO       4   3  -1  -1   0 : 2 3
MACRO       4   4  -1  -1   0 : 2
MACRO       4   5  -1  -1   0 : 2 2 2 2 2 1 1
MACRO       4   6  -1  -1   0 : 2 2 2 2 2 3
MACRO       4   7  -1  -1   0 : 1
MACRO       4   8  -1  -1   0 : 0 0 0 0 0
MACRO       4   9  -1  -1   0 : 2 2 3 3 2
MACRO       4  10  -1  -1   0 : 2 0
MACRO       4  11  -1  -1   0 : 2 2 1 1 0
MACRO       4  12  -1  -1   0 : 2 1 1 1 1
MACRO       4  13  -1  -1   0 : 1
MACRO       4  14  -1  -1   0 : 1
MACRO       4  15  -1  -1   0 : 1
MACRO       4  16  -1  -1   0 : 0 0 0 1 1 1
MACRO       4  17  -1  -1   0 : 2 2 2 2 2 2 2 2 2 2 2 2 2 2 2 1
MACRO       4  18  -1  -1   0 : 2 1 0 1 2 3 2 1 0 1 2 3 2 1 0 2 3 2 1 0 2 3 2 1
MACRO       4  19  -1  -1   0 : 2 2 1 2 2 2
MACRO       4  20  -1  -1   0 : 1 1 1 1 1 0 0 0 0 0 1 1 1 1 1 0 0 0 0 0 3 3 3 3 1
MACRO       4  22  -1  -1   0 : 1 0
MACRO       4  24  -1  -1   0 : 2 1 2 3 2 2 2 1 1 1 0 0
MACRO       4  25  -1  -1   0 : 0 0 2
MACRO       4  26  -1  -1   0 : 2 2 3
MACRO       4  27  -1  -1   0 : 2 2 2 1 1 1 0 0

# DPCM samples

# Detune settings

# Grooves

# Tracks using default groove
# Instruments
INST2A03   0    12  -1  -1  -1   4 "Blank"
INST2A03   5     3   4  -1  -1  -1 "Tribal Noise 1 & 4"
INST2A03   6     4   5  -1  -1  -1 "Shaker"
INST2A03   7     5   6  -1  -1  -1 "Tribal Noise 2"
INST2A03   8     6   7  -1  -1   0 "Tribal Background"
INST2A03   9     7   8  -1  -1   1 "Tribal Bass"
INST2A03  10     8   9  -1  -1   2 "Tribal Hit"
INST2A03  12    10  11  -1  -1  -1 "Tribal Snare Noise"
INST2A03  13    11  -1  -1  -1   3 "Horn"
INST2A03  14    13  -1  -1  -1   4 "Distant Square Echo"
INST2A03  15    14  12  -1  -1   5 "Puzzle Effects"
INST2A03  16     1  13  -1  -1  -1 "Short Kick"
INST2A03  17    16  14  -1  -1  -1 "Short Kick Noise"
INST2A03  18    17  -1  -1  -1   6 "Puzzle Mellow Crazy"
INST2A03  19    18  15  -1  -1  -1 "Closed Hat"
INST2A03  20    19  15  -1  -1  -1 "Open Hat"
INST2A03  21     0  16  -1  -1  -1 "Puzzle Snare"
INST2A03  22    20  17  -1  -1  -1 "Puzzle Snare Noise"
INST2A03  23    21  -1  -1  -1   7 "Puzzle Pulsate"
INST2A03  24    22  -1  -1  -1   8 "Puzzle Fill"
INST2A03  25    23  18  -1  -1  -1 "Crash"
INST2A03  26    24  19  -1  -1   9 "Cave Bass"
INST2A03  28    26  24  -1  -1  10 "Cave Lead"
INST2A03  29    27  20  -1  -1  13 "Cave Drum 1"
INST2A03  30    27  21  -1  -1  -1 "Cave Drum 2"
INST2A03  31    27  23  -1  -1  -1 "Cave Drum 3"
INST2A03  32    -1  25  -1  -1  -1 "Boss Bass"
INST2A03  33    32  -1  -1  -1  11 "Boss Arp Hit"
INST2A03  34    28  26  -1  -1  12 "Pizzicato Strings"
INST2A03  35    29  27  -1  -1  -1 "Cave Triangle"
INST2A03  36    30  29  -1  -1  14 "Cave OrcTri1"
INST2A03  37    31  28  -1  -1  15 "Cave OrcTri2"
INST2A03  38    33  30  -1  -1  16 "Select Lead 1"
INST2A03  39    34  31  -1  -1  17 "Select Lead 2"
INST2A03  40    35  32  -1  -1  18 "Select Orc Hit"
INST2A03  41    36  -1  -1  -1  19 "Boss2Echo"
INST2A03  42    37  33  -1  -1  20 "Boss 2 Lead"
INST2A03  43    38  34  -1  -1  -1 "Short Kick Noise Echo"
INST2A03  44    39  35  -1  -1  -1 "Puzzle Snare Noise Echo"
INST2A03  45    40  36  -1  -1  -1 "Closed Hat Echo"
INST2A03  47    42  -1  -1  -1  22 "Banjo"
INST2A03  48    43  40  -1  -1  24 "Minor Boss Rhythm Guitar"
INST2A03  49    45  42  -1  -1  25 "Miniboss Flute"
INST2A03  50    46  -1  -1  -1  26 "Harp"
INST2A03  51     2  44  -1  -1  -1 "Triangle Choir"
INST2A03  52    47  -1  -1  -1  -1 "Triangle Short"
INST2A03  53    48  45  -1  -1  27 "Super Major Arp"
INST2A03  54    23  18  -1  -1  -1 "Crash w/o Tri"
INST2A03  55    -1  46  -1  -1  -1 "Woodblock Tri"

# Tracks

TRACK  64   8 150 "World 1A"
COLUMNS : 1 1 1 1 2

ORDER 00 : 00 00 00 00 00
ORDER 01 : 00 01 00 00 00
ORDER 02 : 01 02 00 01 00
ORDER 03 : 01 03 00 01 00
ORDER 04 : 04 04 00 03 00
ORDER 05 : 05 04 00 03 00
ORDER 06 : 04 07 00 02 00
ORDER 07 : 06 08 00 02 00
ORDER 08 : 07 09 00 04 00

PATTERN 00
ROW 00 : D-3 08 . ... : D-1 09 . ... : --- .. . ... : 2-# 05 . J01 : ... .. . ... ...
ROW 01 : ... .. . ... : ... .. . ... : ... .. . ... : E-# 06 . ... : ... .. . ... ...
ROW 02 : A-3 08 . ... : ... .. . ... : ... .. . ... : 3-# 07 . J02 : ... .. . ... ...
ROW 03 : ... .. . ... : ... .. . ... : ... .. . ... : 3-# 07 . J02 : ... .. . ... ...
ROW 04 : D-4 08 . ... : ... .. . ... : ... .. . ... : 2-# 05 . J01 : ... .. . ... ...
ROW 05 : ... .. . ... : ... .. . ... : ... .. . ... : E-# 06 . ... : ... .. . ... ...
ROW 06 : D-3 08 . ... : ... .. . ... : ... .. . ... : 3-# 07 . J02 : ... .. . ... ...
ROW 07 : A-3 08 . ... : ... .. . ... : ... .. . ... : E-# 06 . ... : ... .. . ... ...
ROW 08 : ... .. . ... : ... .. . ... : ... .. . ... : 2-# 05 . J01 : ... .. . ... ...
ROW 09 : D-4 08 . ... : ... .. . ... : ... .. . ... : 3-# 07 . J03 : ... .. . ... ...
ROW 0A : ... .. . ... : D-1 09 . ... : ... .. . ... : 3-# 07 . J02 : ... .. . ... ...
ROW 0B : D-3 08 . ... : ... .. . ... : ... .. . ... : 3-# 07 . J02 : ... .. . ... ...
ROW 0C : A-3 08 . ... : ... .. . ... : ... .. . ... : 2-# 05 . J01 : ... .. . ... ...
ROW 0D : ... .. . ... : ... .. . ... : ... .. . ... : 3-# 07 . J02 : ... .. . ... ...
ROW 0E : D-4 08 . ... : B-0 09 . ... : ... .. . ... : E-# 06 . ... : ... .. . ... ...
ROW 0F : ... .. . ... : ... .. . ... : ... .. . ... : 3-# 07 . J02 : ... .. . ... ...
ROW 10 : B-2 08 . ... : D-1 09 . ... : ... .. . ... : 2-# 05 . J01 : ... .. . ... ...
ROW 11 : ... .. . ... : ... .. . ... : ... .. . ... : E-# 06 . ... : ... .. . ... ...
ROW 12 : G-3 08 . ... : ... .. . ... : ... .. . ... : 3-# 07 . J02 : ... .. . ... ...
ROW 13 : ... .. . ... : ... .. . ... : ... .. . ... : 3-# 07 . J02 : ... .. . ... ...
ROW 14 : B-3 08 . ... : ... .. . ... : ... .. . ... : 2-# 05 . J01 : ... .. . ... ...
ROW 15 : ... .. . ... : ... .. . ... : ... .. . ... : E-# 06 . ... : ... .. . ... ...
ROW 16 : B-2 08 . ... : ... .. . ... : ... .. . ... : 3-# 07 . J02 : ... .. . ... ...
ROW 17 : G-3 08 . ... : ... .. . ... : ... .. . ... : E-# 06 . ... : ... .. . ... ...
ROW 18 : ... .. . ... : ... .. . ... : ... .. . ... : 2-# 05 . J01 : ... .. . ... ...
ROW 19 : B-3 08 . ... : ... .. . ... : ... .. . ... : 3-# 07 . J03 : ... .. . ... ...
ROW 1A : ... .. . ... : ... .. . ... : ... .. . ... : 3-# 07 . J02 : ... .. . ... ...
ROW 1B : B-2 08 . ... : ... .. . ... : ... .. . ... : 3-# 07 . J02 : ... .. . ... ...
ROW 1C : G-3 08 . ... : B-0 09 . ... : ... .. . ... : 2-# 05 . J04 : ... .. . ... ...
ROW 1D : ... .. . ... : ... .. . ... : ... .. . ... : 2-# 05 . J04 : ... .. . ... ...
ROW 1E : E-3 08 . ... : B-0 09 . ... : ... .. . ... : 2-# 05 . J01 : ... .. . ... ...
ROW 1F : ... .. . ... : ... .. . ... : ... .. . ... : 3-# 07 . J02 : ... .. . ... ...
ROW 20 : D-3 08 . ... : D-1 09 . ... : ... .. . ... : 2-# 05 . J01 : ... .. . ... ...
ROW 21 : ... .. . ... : ... .. . ... : ... .. . ... : E-# 06 . ... : ... .. . ... ...
ROW 22 : A-3 08 . ... : ... .. . ... : ... .. . ... : 3-# 07 . J02 : ... .. . ... ...
ROW 23 : ... .. . ... : ... .. . ... : ... .. . ... : 3-# 07 . J02 : ... .. . ... ...
ROW 24 : D-4 08 . ... : ... .. . ... : ... .. . ... : 2-# 05 . J01 : ... .. . ... ...
ROW 25 : ... .. . ... : ... .. . ... : ... .. . ... : E-# 06 . ... : ... .. . ... ...
ROW 26 : D-3 08 . ... : ... .. . ... : ... .. . ... : 3-# 07 . J02 : ... .. . ... ...
ROW 27 : A-3 08 . ... : ... .. . ... : ... .. . ... : E-# 06 . ... : ... .. . ... ...
ROW 28 : ... .. . ... : ... .. . ... : ... .. . ... : 2-# 05 . J01 : ... .. . ... ...
ROW 29 : D-4 08 . ... : ... .. . ... : ... .. . ... : 3-# 07 . J03 : ... .. . ... ...
ROW 2A : ... .. . ... : D-1 09 . ... : ... .. . ... : 3-# 07 . J02 : ... .. . ... ...
ROW 2B : D-3 08 . ... : ... .. . ... : ... .. . ... : 3-# 07 . J02 : ... .. . ... ...
ROW 2C : A-3 08 . ... : ... .. . ... : ... .. . ... : 2-# 05 . J01 : ... .. . ... ...
ROW 2D : ... .. . ... : ... .. . ... : ... .. . ... : 3-# 07 . J02 : ... .. . ... ...
ROW 2E : D-4 08 . ... : B-0 09 . ... : ... .. . ... : E-# 06 . ... : ... .. . ... ...
ROW 2F : ... .. . ... : ... .. . ... : ... .. . ... : 3-# 07 . J02 : ... .. . ... ...
ROW 30 : E-3 08 . ... : D-1 09 . ... : ... .. . ... : 2-# 05 . J01 : ... .. . ... ...
ROW 31 : ... .. . ... : ... .. . ... : ... .. . ... : E-# 06 . ... : ... .. . ... ...
ROW 32 : A-3 08 . ... : ... .. . ... : ... .. . ... : 3-# 07 . J02 : ... .. . ... ...
ROW 33 : ... .. . ... : ... .. . ... : ... .. . ... : 3-# 07 . J02 : ... .. . ... ...
ROW 34 : E-4 08 . ... : ... .. . ... : ... .. . ... : 2-# 05 . J01 : ... .. . ... ...
ROW 35 : ... .. . ... : ... .. . ... : ... .. . ... : E-# 06 . ... : ... .. . ... ...
ROW 36 : E-3 08 . ... : ... .. . ... : ... .. . ... : 3-# 07 . J02 : ... .. . ... ...
ROW 37 : A-3 08 . ... : ... .. . ... : ... .. . ... : E-# 06 . ... : ... .. . ... ...
ROW 38 : ... .. . ... : ... .. . ... : ... .. . ... : 2-# 05 . J01 : ... .. . ... ...
ROW 39 : E-4 08 . ... : ... .. . ... : ... .. . ... : 3-# 07 . J03 : ... .. . ... ...
ROW 3A : ... .. . ... : ... .. . ... : ... .. . ... : 3-# 07 . J02 : ... .. . ... ...
ROW 3B : E-3 08 . ... : ... .. . ... : ... .. . ... : 3-# 07 . J02 : ... .. . ... ...
ROW 3C : E-4 08 . ... : A-0 09 . ... : ... .. . ... : 2-# 05 . J04 : ... .. . ... ...
ROW 3D : ... .. . ... : ... .. . ... : ... .. . ... : 2-# 05 . J04 : ... .. . ... ...
ROW 3E : D-4 08 . ... : B-0 09 . ... : ... .. . ... : 2-# 05 . J01 : ... .. . ... ...
ROW 3F : ... .. . ... : ... .. . ... : ... .. . ... : 3-# 07 . J02 : ... .. . ... ...

PATTERN 01
ROW 00 : D-3 08 . ... : D-1 09 . ... : ... .. . ... : 2-# 05 . J01 : ... .. . ... ...
ROW 01 : ... .. . ... : ... .. . ... : ... .. . ... : E-# 06 . ... : ... .. . ... ...
ROW 02 : A-3 08 . ... : ... .. . ... : ... .. . ... : 3-# 07 . J02 : ... .. . ... ...
ROW 03 : ... .. . ... : D-4 0A . ... : ... .. . ... : 3-# 07 . J02 : ... .. . ... ...
ROW 04 : D-4 08 . ... : ... .. . ... : ... .. . ... : 1-# 0C . J0B : ... .. . ... ...
ROW 05 : ... .. . ... : ... .. . ... : ... .. . ... : E-# 06 . ... : ... .. . ... ...
ROW 06 : ... .. . ... : A-3 0A . ... : ... .. . ... : 3-# 07 . J02 : ... .. . ... ...
ROW 07 : D-3 08 . ... : ... .. . ... : ... .. . ... : 1-# 0C . J0B : ... .. . ... ...
ROW 08 : A-3 08 . ... : ... .. . ... : ... .. . ... : 2-# 05 . J01 : ... .. . ... ...
ROW 09 : ... .. . ... : ... .. . ... : ... .. . ... : 3-# 07 . J03 : ... .. . ... ...
ROW 0A : D-4 08 . ... : D-1 09 . ... : ... .. . ... : 3-# 07 . J02 : ... .. . ... ...
ROW 0B : D-3 08 . ... : ... .. . ... : ... .. . ... : 3-# 07 . J02 : ... .. . ... ...
ROW 0C : A-3 08 . ... : ... .. . ... : ... .. . ... : 2-# 05 . J01 : ... .. . ... ...
ROW 0D : ... .. . ... : ... .. . ... : ... .. . ... : 3-# 07 . J02 : ... .. . ... ...
ROW 0E : F#3 08 . ... : B-0 09 . ... : ... .. . ... : 1-# 0C . J0B : ... .. . ... ...
ROW 0F : ... .. . ... : ... .. . ... : ... .. . ... : 3-# 07 . J02 : ... .. . ... ...
ROW 10 : E-3 08 . ... : D-1 09 . ... : ... .. . ... : 2-# 05 . J01 : ... .. . ... ...
ROW 11 : ... .. . ... : ... .. . ... : ... .. . ... : E-# 06 . ... : ... .. . ... ...
ROW 12 : A-3 08 . ... : ... .. . ... : ... .. . ... : 3-# 07 . J02 : ... .. . ... ...
ROW 13 : ... .. . ... : A-3 0A . ... : ... .. . ... : 3-# 07 . J02 : ... .. . ... ...
ROW 14 : E-4 08 . ... : ... .. . ... : ... .. . ... : 1-# 0C . J0B : ... .. . ... ...
ROW 15 : ... .. . ... : ... .. . ... : ... .. . ... : E-# 06 . ... : ... .. . ... ...
ROW 16 : ... .. . ... : A-3 0A . ... : ... .. . ... : 3-# 07 . J02 : ... .. . ... ...
ROW 17 : A-3 08 . ... : ... .. . ... : ... .. . ... : 1-# 0C . J0B : ... .. . ... ...
ROW 18 : E-4 08 . ... : ... .. . ... : ... .. . ... : 2-# 05 . J01 : ... .. . ... ...
ROW 19 : ... .. . ... : ... .. . ... : ... .. . ... : 3-# 07 . J03 : ... .. . ... ...
ROW 1A : A-3 08 . ... : F#3 0A . ... : ... .. . ... : 3-# 07 . J02 : ... .. . ... ...
ROW 1B : E-3 08 . ... : ... .. . ... : ... .. . ... : 3-# 07 . J02 : ... .. . ... ...
ROW 1C : E-4 08 . ... : A-0 09 . ... : ... .. . ... : 2-# 05 . J04 : ... .. . ... ...
ROW 1D : ... .. . ... : ... .. . ... : ... .. . ... : 2-# 05 . J04 : ... .. . ... ...
ROW 1E : A-3 08 . ... : B-0 09 . ... : ... .. . ... : 1-# 0C . J0B : ... .. . ... ...
ROW 1F : ... .. . ... : ... .. . ... : ... .. . ... : 3-# 07 . J02 : ... .. . ... ...
ROW 20 : D-3 08 . ... : D-1 09 . ... : ... .. . ... : 2-# 05 . J01 : ... .. . ... ...
ROW 21 : ... .. . ... : ... .. . ... : ... .. . ... : E-# 06 . ... : ... .. . ... ...
ROW 22 : A-3 08 . ... : ... .. . ... : ... .. . ... : 3-# 07 . J02 : ... .. . ... ...
ROW 23 : ... .. . ... : D-4 0A . ... : ... .. . ... : 3-# 07 . J02 : ... .. . ... ...
ROW 24 : D-4 08 . ... : ... .. . ... : ... .. . ... : 1-# 0C . J0B : ... .. . ... ...
ROW 25 : ... .. . ... : ... .. . ... : ... .. . ... : E-# 06 . ... : ... .. . ... ...
ROW 26 : D-3 08 . ... : A-3 0A . ... : ... .. . ... : 3-# 07 . J02 : ... .. . ... ...
ROW 27 : A-3 08 . ... : ... .. . ... : ... .. . ... : 1-# 0C . J0B : ... .. . ... ...
ROW 28 : ... .. . ... : ... .. . ... : ... .. . ... : 2-# 05 . J01 : ... .. . ... ...
ROW 29 : D-4 08 . ... : ... .. . ... : ... .. . ... : 3-# 07 . J03 : ... .. . ... ...
ROW 2A : ... .. . ... : A-3 0A . ... : ... .. . ... : 3-# 07 . J02 : ... .. . ... ...
ROW 2B : D-3 08 . ... : ... .. . ... : ... .. . ... : 3-# 07 . J02 : ... .. . ... ...
ROW 2C : A-3 08 . ... : F#3 0A . ... : ... .. . ... : 2-# 05 . J01 : ... .. . ... ...
ROW 2D : ... .. . ... : ... .. . ... : ... .. . ... : 3-# 07 . J02 : ... .. . ... ...
ROW 2E : D-4 08 . ... : D-1 09 . ... : ... .. . ... : 1-# 0C . J0B : ... .. . ... ...
ROW 2F : ... .. . ... : ... .. . ... : ... .. . ... : 3-# 07 . J02 : ... .. . ... ...
ROW 30 : F#3 08 . ... : E-1 09 . ... : ... .. . ... : 2-# 05 . J01 : ... .. . ... ...
ROW 31 : ... .. . ... : ... .. . ... : ... .. . ... : E-# 06 . ... : ... .. . ... ...
ROW 32 : B-3 08 . ... : ... .. . ... : ... .. . ... : 3-# 07 . J02 : ... .. . ... ...
ROW 33 : ... .. . ... : ... .. . ... : ... .. . ... : 3-# 07 . J02 : ... .. . ... ...
ROW 34 : D-4 08 . ... : E-3 0A . ... : ... .. . ... : 1-# 0C . J0B : ... .. . ... ...
ROW 35 : ... .. . ... : ... .. . ... : ... .. . ... : E-# 06 . ... : ... .. . ... ...
ROW 36 : B-3 08 . ... : ... .. . ... : ... .. . ... : 3-# 07 . J02 : ... .. . ... ...
ROW 37 : F#3 08 . ... : E-3 0A . ... : ... .. . ... : 1-# 0C . J0B : ... .. . ... ...
ROW 38 : ... .. . ... : ... .. . ... : ... .. . ... : 2-# 05 . J01 : ... .. . ... ...
ROW 39 : B-3 08 . ... : ... .. . ... : ... .. . ... : 3-# 07 . J03 : ... .. . ... ...
ROW 3A : ... .. . ... : E-3 0A . ... : ... .. . ... : 3-# 07 . J02 : ... .. . ... ...
ROW 3B : F#3 08 . ... : ... .. . ... : ... .. . ... : 3-# 07 . J02 : ... .. . ... ...
ROW 3C : A-3 08 . ... : D-3 0A . ... : ... .. . ... : 2-# 05 . J04 : ... .. . ... ...
ROW 3D : ... .. . ... : ... .. . ... : ... .. . ... : 2-# 05 . J04 : ... .. . ... ...
ROW 3E : B-3 08 . ... : C#1 09 . ... : ... .. . ... : 1-# 0C . J0B : ... .. . ... ...
ROW 3F : ... .. . ... : ... .. . ... : ... .. . ... : 3-# 07 . J02 : ... .. . ... ...

PATTERN 02
ROW 00 : ... .. . ... : D-1 09 . ... : ... .. . ... : 2-# 05 . J01 : ... .. . ... ...
ROW 01 : ... .. . ... : ... .. . ... : ... .. . ... : E-# 06 . ... : ... .. . ... ...
ROW 02 : ... .. . ... : ... .. . ... : ... .. . ... : 3-# 07 . J02 : ... .. . ... ...
ROW 03 : ... .. . ... : D-4 0A . ... : ... .. . ... : 3-# 07 . J02 : ... .. . ... ...
ROW 04 : ... .. . ... : ... .. . ... : ... .. . ... : 2-# 05 . J04 : ... .. . ... ...
ROW 05 : ... .. . ... : ... .. . ... : ... .. . ... : 2-# 05 . J01 : ... .. . ... ...
ROW 06 : ... .. . ... : A-3 0A . ... : ... .. . ... : 2-# 05 . J01 : ... .. . ... ...
ROW 07 : ... .. . ... : ... .. . ... : ... .. . ... : E-# 06 . ... : ... .. . ... ...
ROW 08 : ... .. . ... : E-3 0A . ... : ... .. . ... : 2-# 05 . J01 : ... .. . ... ...
ROW 09 : ... .. . ... : ... .. . ... : ... .. . ... : 3-# 07 . J03 : ... .. . ... ...
ROW 0A : ... .. . ... : F#3 0A . ... : ... .. . ... : 3-# 07 . J02 : ... .. . ... ...
ROW 0B : ... .. . ... : ... .. . ... : ... .. . ... : 3-# 07 . J02 : ... .. . ... ...
ROW 0C : ... .. . ... : E-3 0A . ... : ... .. . ... : 2-# 05 . J01 : ... .. . ... ...
ROW 0D : ... .. . ... : ... .. . ... : ... .. . ... : 3-# 07 . J02 : ... .. . ... ...
ROW 0E : ... .. . ... : D-3 0A . ... : ... .. . ... : 2-# 05 . J04 : ... .. . ... ...
ROW 0F : ... .. . ... : ... .. . ... : ... .. . ... : 2-# 05 . J01 : ... .. . ... ...
ROW 10 : ... .. . ... : E-1 09 . ... : ... .. . ... : 2-# 05 . J01 : ... .. . ... ...
ROW 11 : ... .. . ... : ... .. . ... : ... .. . ... : E-# 06 . ... : ... .. . ... ...
ROW 12 : ... .. . ... : ... .. . ... : ... .. . ... : 3-# 07 . J02 : ... .. . ... ...
ROW 13 : ... .. . ... : E-4 0A . ... : ... .. . ... : 3-# 07 . J02 : ... .. . ... ...
ROW 14 : ... .. . ... : ... .. . ... : ... .. . ... : 2-# 05 . J04 : ... .. . ... ...
ROW 15 : ... .. . ... : ... .. . ... : ... .. . ... : 2-# 05 . J01 : ... .. . ... ...
ROW 16 : ... .. . ... : D-4 0A . ... : ... .. . ... : 2-# 05 . J01 : ... .. . ... ...
ROW 17 : ... .. . ... : ... .. . ... : ... .. . ... : E-# 06 . ... : ... .. . ... ...
ROW 18 : ... .. . ... : E-4 0A . ... : ... .. . ... : 2-# 05 . J01 : ... .. . ... ...
ROW 19 : ... .. . ... : ... .. . ... : ... .. . ... : 3-# 07 . J03 : ... .. . ... ...
ROW 1A : ... .. . ... : D-4 0A . ... : ... .. . ... : 3-# 07 . J02 : ... .. . ... ...
ROW 1B : ... .. . ... : ... .. . ... : ... .. . ... : 3-# 07 . J02 : ... .. . ... ...
ROW 1C : ... .. . ... : E-4 0A . ... : ... .. . ... : 2-# 05 . J01 : ... .. . ... ...
ROW 1D : ... .. . ... : ... .. . ... : ... .. . ... : 3-# 07 . J02 : ... .. . ... ...
ROW 1E : ... .. . ... : F#4 0A . ... : ... .. . ... : 2-# 05 . J04 : ... .. . ... ...
ROW 1F : ... .. . ... : ... .. . ... : ... .. . ... : 2-# 05 . J01 : ... .. . ... ...
ROW 20 : ... .. . ... : D-1 09 . ... : ... .. . ... : 2-# 05 . J01 : ... .. . ... ...
ROW 21 : ... .. . ... : ... .. . ... : ... .. . ... : E-# 06 . ... : ... .. . ... ...
ROW 22 : ... .. . ... : ... .. . ... : ... .. . ... : 3-# 07 . J02 : ... .. . ... ...
ROW 23 : ... .. . ... : D-4 0A . ... : ... .. . ... : 3-# 07 . J02 : ... .. . ... ...
ROW 24 : ... .. . ... : ... .. . ... : ... .. . ... : 2-# 05 . J04 : ... .. . ... ...
ROW 25 : ... .. . ... : ... .. . ... : ... .. . ... : 2-# 05 . J01 : ... .. . ... ...
ROW 26 : ... .. . ... : A-3 0A . ... : ... .. . ... : 2-# 05 . J01 : ... .. . ... ...
ROW 27 : ... .. . ... : ... .. . ... : ... .. . ... : E-# 06 . ... : ... .. . ... ...
ROW 28 : ... .. . ... : E-3 0A . ... : ... .. . ... : 2-# 05 . J01 : ... .. . ... ...
ROW 29 : ... .. . ... : ... .. . ... : ... .. . ... : 3-# 07 . J03 : ... .. . ... ...
ROW 2A : ... .. . ... : F#3 0A . ... : ... .. . ... : 3-# 07 . J02 : ... .. . ... ...
ROW 2B : ... .. . ... : ... .. . ... : ... .. . ... : 3-# 07 . J02 : ... .. . ... ...
ROW 2C : ... .. . ... : E-3 0A . ... : ... .. . ... : 2-# 05 . J01 : ... .. . ... ...
ROW 2D : ... .. . ... : ... .. . ... : ... .. . ... : 3-# 07 . J02 : ... .. . ... ...
ROW 2E : ... .. . ... : D-3 0A . ... : ... .. . ... : 2-# 05 . J04 : ... .. . ... ...
ROW 2F : ... .. . ... : ... .. . ... : ... .. . ... : 2-# 05 . J01 : ... .. . ... ...
ROW 30 : ... .. . ... : F#1 09 . ... : ... .. . ... : 2-# 05 . J01 : ... .. . ... ...
ROW 31 : ... .. . ... : ... .. . ... : ... .. . ... : E-# 06 . ... : ... .. . ... ...
ROW 32 : ... .. . ... : ... .. . ... : ... .. . ... : 3-# 07 . J02 : ... .. . ... ...
ROW 33 : ... .. . ... : F#3 0A . ... : ... .. . ... : 3-# 07 . J02 : ... .. . ... ...
ROW 34 : ... .. . ... : ... .. . ... : ... .. . ... : 2-# 05 . J04 : ... .. . ... ...
ROW 35 : ... .. . ... : ... .. . ... : ... .. . ... : 2-# 05 . J01 : ... .. . ... ...
ROW 36 : ... .. . ... : E-3 0A . ... : ... .. . ... : 2-# 05 . J01 : ... .. . ... ...
ROW 37 : ... .. . ... : ... .. . ... : ... .. . ... : E-# 06 . ... : ... .. . ... ...
ROW 38 : ... .. . ... : G-3 0A . ... : ... .. . ... : 2-# 05 . J01 : ... .. . ... ...
ROW 39 : ... .. . ... : ... .. . ... : ... .. . ... : 3-# 07 . J03 : ... .. . ... ...
ROW 3A : ... .. . ... : F#3 0A . ... : ... .. . ... : 3-# 07 . J02 : ... .. . ... ...
ROW 3B : ... .. . ... : ... .. . ... : ... .. . ... : 3-# 07 . J02 : ... .. . ... ...
ROW 3C : ... .. . ... : E-3 0A . ... : ... .. . ... : 2-# 05 . J01 : ... .. . ... ...
ROW 3D : ... .. . ... : ... .. . ... : ... .. . ... : 3-# 07 . J02 : ... .. . ... ...
ROW 3E : ... .. . ... : D-3 0A . ... : ... .. . ... : 2-# 05 . J04 : ... .. . ... ...
ROW 3F : ... .. . ... : ... .. . ... : ... .. . ... : 2-# 05 . J01 : ... .. . ... ...

PATTERN 03
ROW 00 : ... .. . ... : D-1 09 . ... : ... .. . ... : 2-# 05 . J01 : ... .. . ... ...
ROW 01 : ... .. . ... : ... .. . ... : ... .. . ... : ... .. . ... : ... .. . ... ...
ROW 02 : ... .. . ... : ... .. . ... : ... .. . ... : 3-# 07 . J02 : ... .. . ... ...
ROW 03 : ... .. . ... : D-4 0A . ... : ... .. . ... : ... .. . ... : ... .. . ... ...
ROW 04 : ... .. . ... : ... .. . ... : ... .. . ... : 2-# 05 . J04 : ... .. . ... ...
ROW 05 : ... .. . ... : ... .. . ... : ... .. . ... : 3-# 07 . J02 : ... .. . ... ...
ROW 06 : ... .. . ... : A-3 0A . ... : ... .. . ... : ... .. . ... : ... .. . ... ...
ROW 07 : ... .. . ... : ... .. . ... : ... .. . ... : E-# 06 . ... : ... .. . ... ...
ROW 08 : ... .. . ... : E-3 0A . ... : ... .. . ... : 2-# 05 . J01 : ... .. . ... ...
ROW 09 : ... .. . ... : ... .. . ... : ... .. . ... : 3-# 07 . J03 : ... .. . ... ...
ROW 0A : ... .. . ... : F#3 0A . ... : ... .. . ... : 3-# 07 . J02 : ... .. . ... ...
ROW 0B : ... .. . ... : ... .. . ... : ... .. . ... : 3-# 07 . J02 : ... .. . ... ...
ROW 0C : ... .. . ... : E-3 0A . ... : ... .. . ... : 2-# 05 . J04 : ... .. . ... ...
ROW 0D : ... .. . ... : ... .. . ... : ... .. . ... : ... .. . ... : ... .. . ... ...
ROW 0E : ... .. . ... : D-3 0A . ... : ... .. . ... : 3-# 07 . J03 : ... .. . ... ...
ROW 0F : ... .. . ... : ... .. . ... : ... .. . ... : ... .. . ... : ... .. . ... ...
ROW 10 : ... .. . ... : E-1 09 . ... : ... .. . ... : 2-# 05 . J01 : ... .. . ... ...
ROW 11 : ... .. . ... : ... .. . ... : ... .. . ... : ... .. . ... : ... .. . ... ...
ROW 12 : ... .. . ... : ... .. . ... : ... .. . ... : 3-# 07 . J02 : ... .. . ... ...
ROW 13 : ... .. . ... : E-4 0A . ... : ... .. . ... : ... .. . ... : ... .. . ... ...
ROW 14 : ... .. . ... : ... .. . ... : ... .. . ... : 2-# 05 . J04 : ... .. . ... ...
ROW 15 : ... .. . ... : ... .. . ... : ... .. . ... : 3-# 07 . J02 : ... .. . ... ...
ROW 16 : ... .. . ... : D-4 0A . ... : ... .. . ... : ... .. . ... : ... .. . ... ...
ROW 17 : ... .. . ... : ... .. . ... : ... .. . ... : E-# 06 . ... : ... .. . ... ...
ROW 18 : ... .. . ... : E-4 0A . ... : ... .. . ... : 2-# 05 . J01 : ... .. . ... ...
ROW 19 : ... .. . ... : ... .. . ... : ... .. . ... : 3-# 07 . J03 : ... .. . ... ...
ROW 1A : ... .. . ... : D-4 0A . ... : ... .. . ... : 3-# 07 . J02 : ... .. . ... ...
ROW 1B : ... .. . ... : ... .. . ... : ... .. . ... : 3-# 07 . J02 : ... .. . ... ...
ROW 1C : ... .. . ... : G-4 0A . ... : ... .. . ... : 2-# 05 . J04 : ... .. . ... ...
ROW 1D : ... .. . ... : ... .. . ... : ... .. . ... : ... .. . ... : ... .. . ... ...
ROW 1E : ... .. . ... : A-4 0A . ... : ... .. . ... : 3-# 07 . J03 : ... .. . ... ...
ROW 1F : ... .. . ... : ... .. . ... : ... .. . ... : ... .. . ... : ... .. . ... ...
ROW 20 : ... .. . ... : D-1 09 . ... : ... .. . ... : 2-# 05 . J01 : ... .. . ... ...
ROW 21 : ... .. . ... : ... .. . ... : ... .. . ... : ... .. . ... : ... .. . ... ...
ROW 22 : ... .. . ... : ... .. . ... : ... .. . ... : 3-# 07 . J02 : ... .. . ... ...
ROW 23 : ... .. . ... : A-4 0A . ... : ... .. . ... : ... .. . ... : ... .. . ... ...
ROW 24 : ... .. . ... : ... .. . ... : ... .. . ... : 2-# 05 . J04 : ... .. . ... ...
ROW 25 : ... .. . ... : ... .. . ... : ... .. . ... : 3-# 07 . J02 : ... .. . ... ...
ROW 26 : ... .. . ... : G-4 0A . ... : ... .. . ... : ... .. . ... : ... .. . ... ...
ROW 27 : ... .. . ... : ... .. . ... : ... .. . ... : E-# 06 . ... : ... .. . ... ...
ROW 28 : ... .. . ... : A-4 0A . ... : ... .. . ... : 2-# 05 . J01 : ... .. . ... ...
ROW 29 : ... .. . ... : ... .. . ... : ... .. . ... : 3-# 07 . J03 : ... .. . ... ...
ROW 2A : ... .. . ... : G-4 0A . ... : ... .. . ... : 3-# 07 . J02 : ... .. . ... ...
ROW 2B : ... .. . ... : ... .. . ... : ... .. . ... : 3-# 07 . J02 : ... .. . ... ...
ROW 2C : ... .. . ... : B-4 0A . ... : ... .. . ... : 2-# 05 . J04 : ... .. . ... ...
ROW 2D : ... .. . ... : ... .. . ... : ... .. . ... : ... .. . ... : ... .. . ... ...
ROW 2E : ... .. . ... : F#4 0A . ... : ... .. . ... : 3-# 07 . J03 : ... .. . ... ...
ROW 2F : ... .. . ... : ... .. . ... : ... .. . ... : ... .. . ... : ... .. . ... ...
ROW 30 : ... .. . ... : F#1 09 . ... : ... .. . ... : 2-# 05 . J01 : ... .. . ... ...
ROW 31 : ... .. . ... : ... .. . ... : ... .. . ... : ... .. . ... : ... .. . ... ...
ROW 32 : ... .. . ... : ... .. . ... : ... .. . ... : 3-# 07 . J02 : ... .. . ... ...
ROW 33 : ... .. . ... : B-4 0A . ... : ... .. . ... : ... .. . ... : ... .. . ... ...
ROW 34 : ... .. . ... : ... .. . ... : ... .. . ... : 2-# 05 . J04 : ... .. . ... ...
ROW 35 : ... .. . ... : ... .. . ... : ... .. . ... : 3-# 07 . J02 : ... .. . ... ...
ROW 36 : ... .. . ... : G-4 0A . ... : ... .. . ... : ... .. . ... : ... .. . ... ...
ROW 37 : ... .. . ... : ... .. . ... : ... .. . ... : E-# 06 . ... : ... .. . ... ...
ROW 38 : ... .. . ... : B-4 0A . ... : ... .. . ... : 2-# 05 . J01 : ... .. . ... ...
ROW 39 : ... .. . ... : ... .. . ... : ... .. . ... : 3-# 07 . J03 : ... .. . ... ...
ROW 3A : ... .. . ... : G-4 0A . ... : ... .. . ... : 3-# 07 . J02 : ... .. . ... ...
ROW 3B : ... .. . ... : ... .. . ... : ... .. . ... : 3-# 07 . J02 : ... .. . ... ...
ROW 3C : ... .. . ... : B-4 0A . ... : ... .. . ... : 2-# 05 . J04 : ... .. . ... ...
ROW 3D : ... .. . ... : ... .. . ... : ... .. . ... : ... .. . ... : ... .. . ... ...
ROW 3E : ... .. . ... : D-5 0A . ... : ... .. . ... : 3-# 07 . J03 : ... .. . ... ...
ROW 3F : ... .. . ... : ... .. . ... : ... .. . ... : ... .. . ... : ... .. . ... ...

PATTERN 04
ROW 00 : D-3 0D 6 455 : D-1 09 . ... : ... .. . ... : 2-# 05 . J01 : ... .. . ... ...
ROW 01 : ... .. . ... : ... .. . ... : ... .. . ... : ... .. . ... : ... .. . ... ...
ROW 02 : ... .. . ... : ... .. . ... : ... .. . ... : 3-# 07 . J02 : ... .. . ... ...
ROW 03 : ... .. . ... : B-0 09 . ... : ... .. . ... : 3-# 07 . J02 : ... .. . ... ...
ROW 04 : ... .. 9 ... : C#1 09 . ... : ... .. . ... : 2-# 05 . J01 : ... .. . ... ...
ROW 05 : ... .. . ... : ... .. . ... : ... .. . ... : ... .. . ... : ... .. . ... ...
ROW 06 : ... .. . ... : D-1 09 . ... : ... .. . ... : 3-# 07 . J02 : ... .. . ... ...
ROW 07 : ... .. . ... : ... .. . ... : ... .. . ... : ... .. . ... : ... .. . ... ...
ROW 08 : ... .. C ... : ... .. . ... : ... .. . ... : 2-# 05 . J01 : ... .. . ... ...
ROW 09 : ... .. . ... : ... .. . ... : ... .. . ... : 3-# 07 . J03 : ... .. . ... ...
ROW 0A : ... .. . ... : B-0 09 . ... : ... .. . ... : 3-# 07 . J02 : ... .. . ... ...
ROW 0B : ... .. . ... : ... .. . ... : ... .. . ... : 3-# 07 . J02 : ... .. . ... ...
ROW 0C : ... .. F ... : F#1 09 . ... : ... .. . ... : 2-# 05 . J01 : ... .. . ... ...
ROW 0D : ... .. . ... : ... .. . ... : ... .. . ... : 3-# 07 . J02 : ... .. . ... ...
ROW 0E : ... .. . ... : D-1 09 . ... : ... .. . ... : ... .. . ... : ... .. . ... ...
ROW 0F : ... .. . ... : ... .. . ... : ... .. . ... : 3-# 07 . J02 : ... .. . ... ...
ROW 10 : E-3 0D 6 ... : E-1 09 . ... : ... .. . ... : 2-# 05 . J01 : ... .. . ... ...
ROW 11 : ... .. . ... : ... .. . ... : ... .. . ... : ... .. . ... : ... .. . ... ...
ROW 12 : ... .. . ... : ... .. . ... : ... .. . ... : 3-# 07 . J02 : ... .. . ... ...
ROW 13 : ... .. . ... : E-1 09 . ... : ... .. . ... : 3-# 07 . J02 : ... .. . ... ...
ROW 14 : ... .. 9 ... : D-1 09 . ... : ... .. . ... : 2-# 05 . J01 : ... .. . ... ...
ROW 15 : ... .. . ... : ... .. . ... : ... .. . ... : ... .. . ... : ... .. . ... ...
ROW 16 : ... .. . ... : E-1 09 . ... : ... .. . ... : 3-# 07 . J02 : ... .. . ... ...
ROW 17 : ... .. . ... : ... .. . ... : ... .. . ... : ... .. . ... : ... .. . ... ...
ROW 18 : ... .. C ... : E-1 09 . ... : ... .. . ... : 2-# 05 . J01 : ... .. . ... ...
ROW 19 : ... .. . ... : ... .. . ... : ... .. . ... : 3-# 07 . J03 : ... .. . ... ...
ROW 1A : ... .. . ... : ... .. . ... : ... .. . ... : 3-# 07 . J02 : ... .. . ... ...
ROW 1B : ... .. . ... : ... .. . ... : ... .. . ... : 3-# 07 . J02 : ... .. . ... ...
ROW 1C : ... .. F ... : F#1 09 . ... : ... .. . ... : 2-# 05 . J04 : ... .. . ... ...
ROW 1D : ... .. . ... : ... .. . ... : ... .. . ... : 2-# 05 . J04 : ... .. . ... ...
ROW 1E : ... .. . ... : ... .. . ... : ... .. . ... : 2-# 05 . J01 : ... .. . ... ...
ROW 1F : ... .. . ... : ... .. . ... : ... .. . ... : 3-# 07 . J02 : ... .. . ... ...
ROW 20 : G-3 0D . ... : G-1 09 . ... : ... .. . ... : 2-# 05 . J01 : ... .. . ... ...
ROW 21 : ... .. . ... : ... .. . ... : ... .. . ... : ... .. . ... : ... .. . ... ...
ROW 22 : ... .. . ... : ... .. . ... : ... .. . ... : 3-# 07 . J02 : ... .. . ... ...
ROW 23 : ... .. . ... : G-1 09 . ... : ... .. . ... : 3-# 07 . J02 : ... .. . ... ...
ROW 24 : ... .. . ... : ... .. . ... : ... .. . ... : 2-# 05 . J01 : ... .. . ... ...
ROW 25 : ... .. . ... : ... .. . ... : ... .. . ... : ... .. . ... : ... .. . ... ...
ROW 26 : ... .. . ... : G-1 09 . ... : ... .. . ... : 3-# 07 . J02 : ... .. . ... ...
ROW 27 : ... .. . ... : ... .. . ... : ... .. . ... : ... .. . ... : ... .. . ... ...
ROW 28 : ... .. C ... : ... .. . ... : ... .. . ... : 2-# 05 . J01 : ... .. . ... ...
ROW 29 : ... .. . ... : ... .. . ... : ... .. . ... : 3-# 07 . J03 : ... .. . ... ...
ROW 2A : ... .. . ... : G-1 09 . ... : ... .. . ... : 3-# 07 . J02 : ... .. . ... ...
ROW 2B : ... .. . ... : ... .. . ... : ... .. . ... : 3-# 07 . J02 : ... .. . ... ...
ROW 2C : ... .. 9 ... : G-2 09 . ... : ... .. . ... : 2-# 05 . J01 : ... .. . ... ...
ROW 2D : ... .. . ... : ... .. . ... : ... .. . ... : 3-# 07 . J02 : ... .. . ... ...
ROW 2E : ... .. . ... : G-1 09 . ... : ... .. . ... : ... .. . ... : ... .. . ... ...
ROW 2F : ... .. . ... : ... .. . ... : ... .. . ... : 3-# 07 . J02 : ... .. . ... ...
ROW 30 : F#3 0D 6 ... : F#1 09 . ... : ... .. . ... : 2-# 05 . J01 : ... .. . ... ...
ROW 31 : ... .. . ... : ... .. . ... : ... .. . ... : ... .. . ... : ... .. . ... ...
ROW 32 : ... .. . ... : F#1 09 . ... : ... .. . ... : 3-# 07 . J02 : ... .. . ... ...
ROW 33 : ... .. . ... : ... .. . ... : ... .. . ... : 3-# 07 . J02 : ... .. . ... ...
ROW 34 : ... .. 9 ... : F#2 09 . ... : ... .. . ... : 2-# 05 . J01 : ... .. . ... ...
ROW 35 : ... .. . ... : ... .. . ... : ... .. . ... : ... .. . ... : ... .. . ... ...
ROW 36 : ... .. . ... : F#1 09 . ... : ... .. . ... : 3-# 07 . J02 : ... .. . ... ...
ROW 37 : ... .. . ... : ... .. . ... : ... .. . ... : ... .. . ... : ... .. . ... ...
ROW 38 : E-3 0D C ... : E-1 09 . ... : ... .. . ... : 2-# 05 . J01 : ... .. . ... ...
ROW 39 : ... .. . ... : ... .. . ... : ... .. . ... : 3-# 07 . J03 : ... .. . ... ...
ROW 3A : ... .. . ... : C#1 09 . ... : ... .. . ... : 3-# 07 . J02 : ... .. . ... ...
ROW 3B : ... .. . ... : ... .. . ... : ... .. . ... : 3-# 07 . J02 : ... .. . ... ...
ROW 3C : ... .. F ... : E-2 09 . ... : ... .. . ... : 2-# 05 . J04 : ... .. . ... ...
ROW 3D : ... .. . ... : ... .. . ... : ... .. . ... : 2-# 05 . J04 : ... .. . ... ...
ROW 3E : ... .. . ... : E-1 09 . ... : ... .. . ... : 2-# 05 . J01 : ... .. . ... ...
ROW 3F : ... .. . ... : ... .. . ... : ... .. . ... : 3-# 07 . J02 : ... .. . ... ...

PATTERN 05
ROW 00 : D-3 0D 6 455 : ... .. . ... : ... .. . ... : ... .. . ... : ... .. . ... ...
ROW 01 : ... .. . ... : ... .. . ... : ... .. . ... : ... .. . ... : ... .. . ... ...
ROW 02 : ... .. . ... : ... .. . ... : ... .. . ... : ... .. . ... : ... .. . ... ...
ROW 03 : ... .. . ... : ... .. . ... : ... .. . ... : ... .. . ... : ... .. . ... ...
ROW 04 : ... .. 9 ... : ... .. . ... : ... .. . ... : ... .. . ... : ... .. . ... ...
ROW 05 : ... .. . ... : ... .. . ... : ... .. . ... : ... .. . ... : ... .. . ... ...
ROW 06 : ... .. . ... : ... .. . ... : ... .. . ... : ... .. . ... : ... .. . ... ...
ROW 07 : ... .. . ... : ... .. . ... : ... .. . ... : ... .. . ... : ... .. . ... ...
ROW 08 : ... .. C ... : ... .. . ... : ... .. . ... : ... .. . ... : ... .. . ... ...
ROW 09 : ... .. . ... : ... .. . ... : ... .. . ... : ... .. . ... : ... .. . ... ...
ROW 0A : ... .. . ... : ... .. . ... : ... .. . ... : ... .. . ... : ... .. . ... ...
ROW 0B : ... .. . ... : ... .. . ... : ... .. . ... : ... .. . ... : ... .. . ... ...
ROW 0C : ... .. F ... : ... .. . ... : ... .. . ... : ... .. . ... : ... .. . ... ...
ROW 0D : ... .. . ... : ... .. . ... : ... .. . ... : ... .. . ... : ... .. . ... ...
ROW 0E : ... .. . ... : ... .. . ... : ... .. . ... : ... .. . ... : ... .. . ... ...
ROW 0F : ... .. . ... : ... .. . ... : ... .. . ... : ... .. . ... : ... .. . ... ...
ROW 10 : E-3 0D 6 ... : ... .. . ... : ... .. . ... : ... .. . ... : ... .. . ... ...
ROW 11 : ... .. . ... : ... .. . ... : ... .. . ... : ... .. . ... : ... .. . ... ...
ROW 12 : ... .. . ... : ... .. . ... : ... .. . ... : ... .. . ... : ... .. . ... ...
ROW 13 : ... .. . ... : ... .. . ... : ... .. . ... : ... .. . ... : ... .. . ... ...
ROW 14 : ... .. 9 ... : ... .. . ... : ... .. . ... : ... .. . ... : ... .. . ... ...
ROW 15 : ... .. . ... : ... .. . ... : ... .. . ... : ... .. . ... : ... .. . ... ...
ROW 16 : ... .. . ... : ... .. . ... : ... .. . ... : ... .. . ... : ... .. . ... ...
ROW 17 : ... .. . ... : ... .. . ... : ... .. . ... : ... .. . ... : ... .. . ... ...
ROW 18 : ... .. C ... : ... .. . ... : ... .. . ... : ... .. . ... : ... .. . ... ...
ROW 19 : ... .. . ... : ... .. . ... : ... .. . ... : ... .. . ... : ... .. . ... ...
ROW 1A : ... .. . ... : ... .. . ... : ... .. . ... : ... .. . ... : ... .. . ... ...
ROW 1B : ... .. . ... : ... .. . ... : ... .. . ... : ... .. . ... : ... .. . ... ...
ROW 1C : ... .. F ... : ... .. . ... : ... .. . ... : ... .. . ... : ... .. . ... ...
ROW 1D : ... .. . ... : ... .. . ... : ... .. . ... : ... .. . ... : ... .. . ... ...
ROW 1E : ... .. . ... : ... .. . ... : ... .. . ... : ... .. . ... : ... .. . ... ...
ROW 1F : ... .. . ... : ... .. . ... : ... .. . ... : ... .. . ... : ... .. . ... ...
ROW 20 : G-3 0D . ... : ... .. . ... : ... .. . ... : ... .. . ... : ... .. . ... ...
ROW 21 : ... .. . ... : ... .. . ... : ... .. . ... : ... .. . ... : ... .. . ... ...
ROW 22 : ... .. . ... : ... .. . ... : ... .. . ... : ... .. . ... : ... .. . ... ...
ROW 23 : ... .. . ... : ... .. . ... : ... .. . ... : ... .. . ... : ... .. . ... ...
ROW 24 : ... .. . ... : ... .. . ... : ... .. . ... : ... .. . ... : ... .. . ... ...
ROW 25 : ... .. . ... : ... .. . ... : ... .. . ... : ... .. . ... : ... .. . ... ...
ROW 26 : ... .. . ... : ... .. . ... : ... .. . ... : ... .. . ... : ... .. . ... ...
ROW 27 : ... .. . ... : ... .. . ... : ... .. . ... : ... .. . ... : ... .. . ... ...
ROW 28 : ... .. C ... : ... .. . ... : ... .. . ... : ... .. . ... : ... .. . ... ...
ROW 29 : ... .. . ... : ... .. . ... : ... .. . ... : ... .. . ... : ... .. . ... ...
ROW 2A : ... .. . ... : ... .. . ... : ... .. . ... : ... .. . ... : ... .. . ... ...
ROW 2B : ... .. . ... : ... .. . ... : ... .. . ... : ... .. . ... : ... .. . ... ...
ROW 2C : ... .. 9 ... : ... .. . ... : ... .. . ... : ... .. . ... : ... .. . ... ...
ROW 2D : ... .. . ... : ... .. . ... : ... .. . ... : ... .. . ... : ... .. . ... ...
ROW 2E : ... .. . ... : ... .. . ... : ... .. . ... : ... .. . ... : ... .. . ... ...
ROW 2F : ... .. . ... : ... .. . ... : ... .. . ... : ... .. . ... : ... .. . ... ...
ROW 30 : A-3 0D 6 ... : ... .. . ... : ... .. . ... : ... .. . ... : ... .. . ... ...
ROW 31 : ... .. . ... : ... .. . ... : ... .. . ... : ... .. . ... : ... .. . ... ...
ROW 32 : ... .. . ... : ... .. . ... : ... .. . ... : ... .. . ... : ... .. . ... ...
ROW 33 : ... .. . ... : ... .. . ... : ... .. . ... : ... .. . ... : ... .. . ... ...
ROW 34 : ... .. 9 ... : ... .. . ... : ... .. . ... : ... .. . ... : ... .. . ... ...
ROW 35 : ... .. . ... : ... .. . ... : ... .. . ... : ... .. . ... : ... .. . ... ...
ROW 36 : ... .. . ... : ... .. . ... : ... .. . ... : ... .. . ... : ... .. . ... ...
ROW 37 : ... .. . ... : ... .. . ... : ... .. . ... : ... .. . ... : ... .. . ... ...
ROW 38 : B-3 0D C ... : ... .. . ... : ... .. . ... : ... .. . ... : ... .. . ... ...
ROW 39 : ... .. . ... : ... .. . ... : ... .. . ... : ... .. . ... : ... .. . ... ...
ROW 3A : ... .. . ... : ... .. . ... : ... .. . ... : ... .. . ... : ... .. . ... ...
ROW 3B : ... .. . ... : ... .. . ... : ... .. . ... : ... .. . ... : ... .. . ... ...
ROW 3C : A-3 0D 9 ... : ... .. . ... : ... .. . ... : ... .. . ... : ... .. . ... ...
ROW 3D : ... .. . ... : ... .. . ... : ... .. . ... : ... .. . ... : ... .. . ... ...
ROW 3E : ... .. . ... : ... .. . ... : ... .. . ... : ... .. . ... : ... .. . ... ...
ROW 3F : ... .. . ... : ... .. . ... : ... .. . ... : ... .. . ... : ... .. . ... ...

PATTERN 06
ROW 00 : D-3 0D 6 455 : ... .. . ... : ... .. . ... : ... .. . ... : ... .. . ... ...
ROW 01 : ... .. . ... : ... .. . ... : ... .. . ... : ... .. . ... : ... .. . ... ...
ROW 02 : ... .. . ... : ... .. . ... : ... .. . ... : ... .. . ... : ... .. . ... ...
ROW 03 : ... .. . ... : ... .. . ... : ... .. . ... : ... .. . ... : ... .. . ... ...
ROW 04 : ... .. 9 ... : ... .. . ... : ... .. . ... : ... .. . ... : ... .. . ... ...
ROW 05 : ... .. . ... : ... .. . ... : ... .. . ... : ... .. . ... : ... .. . ... ...
ROW 06 : ... .. . ... : ... .. . ... : ... .. . ... : ... .. . ... : ... .. . ... ...
ROW 07 : ... .. . ... : ... .. . ... : ... .. . ... : ... .. . ... : ... .. . ... ...
ROW 08 : ... .. C ... : ... .. . ... : ... .. . ... : ... .. . ... : ... .. . ... ...
ROW 09 : ... .. . ... : ... .. . ... : ... .. . ... : ... .. . ... : ... .. . ... ...
ROW 0A : ... .. . ... : ... .. . ... : ... .. . ... : ... .. . ... : ... .. . ... ...
ROW 0B : ... .. . ... : ... .. . ... : ... .. . ... : ... .. . ... : ... .. . ... ...
ROW 0C : ... .. F ... : ... .. . ... : ... .. . ... : ... .. . ... : ... .. . ... ...
ROW 0D : ... .. . ... : ... .. . ... : ... .. . ... : ... .. . ... : ... .. . ... ...
ROW 0E : ... .. . ... : ... .. . ... : ... .. . ... : ... .. . ... : ... .. . ... ...
ROW 0F : ... .. . ... : ... .. . ... : ... .. . ... : ... .. . ... : ... .. . ... ...
ROW 10 : E-3 0D 6 ... : ... .. . ... : ... .. . ... : ... .. . ... : ... .. . ... ...
ROW 11 : ... .. . ... : ... .. . ... : ... .. . ... : ... .. . ... : ... .. . ... ...
ROW 12 : ... .. . ... : ... .. . ... : ... .. . ... : ... .. . ... : ... .. . ... ...
ROW 13 : ... .. . ... : ... .. . ... : ... .. . ... : ... .. . ... : ... .. . ... ...
ROW 14 : ... .. 9 ... : ... .. . ... : ... .. . ... : ... .. . ... : ... .. . ... ...
ROW 15 : ... .. . ... : ... .. . ... : ... .. . ... : ... .. . ... : ... .. . ... ...
ROW 16 : ... .. . ... : ... .. . ... : ... .. . ... : ... .. . ... : ... .. . ... ...
ROW 17 : ... .. . ... : ... .. . ... : ... .. . ... : ... .. . ... : ... .. . ... ...
ROW 18 : ... .. C ... : ... .. . ... : ... .. . ... : ... .. . ... : ... .. . ... ...
ROW 19 : ... .. . ... : ... .. . ... : ... .. . ... : ... .. . ... : ... .. . ... ...
ROW 1A : ... .. . ... : ... .. . ... : ... .. . ... : ... .. . ... : ... .. . ... ...
ROW 1B : ... .. . ... : ... .. . ... : ... .. . ... : ... .. . ... : ... .. . ... ...
ROW 1C : ... .. F ... : ... .. . ... : ... .. . ... : ... .. . ... : ... .. . ... ...
ROW 1D : ... .. . ... : ... .. . ... : ... .. . ... : ... .. . ... : ... .. . ... ...
ROW 1E : ... .. . ... : ... .. . ... : ... .. . ... : ... .. . ... : ... .. . ... ...
ROW 1F : ... .. . ... : ... .. . ... : ... .. . ... : ... .. . ... : ... .. . ... ...
ROW 20 : G-3 0D . ... : ... .. . ... : ... .. . ... : ... .. . ... : ... .. . ... ...
ROW 21 : ... .. . ... : ... .. . ... : ... .. . ... : ... .. . ... : ... .. . ... ...
ROW 22 : ... .. . ... : ... .. . ... : ... .. . ... : ... .. . ... : ... .. . ... ...
ROW 23 : ... .. . ... : ... .. . ... : ... .. . ... : ... .. . ... : ... .. . ... ...
ROW 24 : ... .. . ... : ... .. . ... : ... .. . ... : ... .. . ... : ... .. . ... ...
ROW 25 : ... .. . ... : ... .. . ... : ... .. . ... : ... .. . ... : ... .. . ... ...
ROW 26 : ... .. . ... : ... .. . ... : ... .. . ... : ... .. . ... : ... .. . ... ...
ROW 27 : ... .. . ... : ... .. . ... : ... .. . ... : ... .. . ... : ... .. . ... ...
ROW 28 : ... .. C ... : ... .. . ... : ... .. . ... : ... .. . ... : ... .. . ... ...
ROW 29 : ... .. . ... : ... .. . ... : ... .. . ... : ... .. . ... : ... .. . ... ...
ROW 2A : A-3 0D . ... : ... .. . ... : ... .. . ... : ... .. . ... : ... .. . ... ...
ROW 2B : ... .. . ... : ... .. . ... : ... .. . ... : ... .. . ... : ... .. . ... ...
ROW 2C : ... .. 9 ... : ... .. . ... : ... .. . ... : ... .. . ... : ... .. . ... ...
ROW 2D : ... .. . ... : ... .. . ... : ... .. . ... : ... .. . ... : ... .. . ... ...
ROW 2E : G-3 0D . ... : ... .. . ... : ... .. . ... : ... .. . ... : ... .. . ... ...
ROW 2F : ... .. . ... : ... .. . ... : ... .. . ... : ... .. . ... : ... .. . ... ...
ROW 30 : A-3 0D 6 ... : ... .. . ... : ... .. . ... : ... .. . ... : ... .. . ... ...
ROW 31 : ... .. . ... : ... .. . ... : ... .. . ... : ... .. . ... : ... .. . ... ...
ROW 32 : ... .. . ... : ... .. . ... : ... .. . ... : ... .. . ... : ... .. . ... ...
ROW 33 : ... .. . ... : ... .. . ... : ... .. . ... : ... .. . ... : ... .. . ... ...
ROW 34 : B-3 0D 9 ... : ... .. . ... : ... .. . ... : ... .. . ... : ... .. . ... ...
ROW 35 : ... .. . ... : ... .. . ... : ... .. . ... : ... .. . ... : ... .. . ... ...
ROW 36 : ... .. . ... : ... .. . ... : ... .. . ... : ... .. . ... : ... .. . ... ...
ROW 37 : ... .. . ... : ... .. . ... : ... .. . ... : ... .. . ... : ... .. . ... ...
ROW 38 : D-4 0D C ... : ... .. . ... : ... .. . ... : ... .. . ... : ... .. . ... ...
ROW 39 : ... .. . ... : ... .. . ... : ... .. . ... : ... .. . ... : ... .. . ... ...
ROW 3A : ... .. . ... : ... .. . ... : ... .. . ... : ... .. . ... : ... .. . ... ...
ROW 3B : ... .. . ... : ... .. . ... : ... .. . ... : ... .. . ... : ... .. . ... ...
ROW 3C : C#4 0D 9 ... : ... .. . ... : ... .. . ... : ... .. . ... : ... .. . ... ...
ROW 3D : ... .. . ... : ... .. . ... : ... .. . ... : ... .. . ... : ... .. . ... ...
ROW 3E : ... .. . ... : ... .. . ... : ... .. . ... : ... .. . ... : ... .. . ... ...
ROW 3F : ... .. . ... : ... .. . ... : ... .. . ... : ... .. . ... : ... .. . ... ...

PATTERN 07
ROW 00 : D-4 0A F 400 : D-1 09 . ... : ... .. . ... : ... .. . ... : ... .. . ... ...
ROW 01 : ... .. . ... : ... .. . ... : ... .. . ... : ... .. . ... : ... .. . ... ...
ROW 02 : A-3 08 . ... : D-3 0A . ... : ... .. . ... : ... .. . ... : ... .. . ... ...
ROW 03 : ... .. . ... : B-0 09 . ... : ... .. . ... : ... .. . ... : ... .. . ... ...
ROW 04 : D-4 08 . ... : C#1 09 . ... : ... .. . ... : ... .. . ... : ... .. . ... ...
ROW 05 : ... .. . ... : ... .. . ... : ... .. . ... : ... .. . ... : ... .. . ... ...
ROW 06 : D-3 08 . ... : D-1 09 . ... : ... .. . ... : ... .. . ... : ... .. . ... ...
ROW 07 : A-3 08 . ... : ... .. . ... : ... .. . ... : ... .. . ... : ... .. . ... ...
ROW 08 : ... .. . ... : D-3 0A . ... : ... .. . ... : ... .. . ... : ... .. . ... ...
ROW 09 : D-4 08 . ... : ... .. . ... : ... .. . ... : ... .. . ... : ... .. . ... ...
ROW 0A : ... .. . ... : B-0 09 . ... : ... .. . ... : ... .. . ... : ... .. . ... ...
ROW 0B : D-3 08 . ... : ... .. . ... : ... .. . ... : ... .. . ... : ... .. . ... ...
ROW 0C : A-3 08 . ... : F#1 09 . ... : ... .. . ... : ... .. . ... : ... .. . ... ...
ROW 0D : ... .. . ... : ... .. . ... : ... .. . ... : ... .. . ... : ... .. . ... ...
ROW 0E : D-4 08 . ... : D-3 0A . ... : ... .. . ... : ... .. . ... : ... .. . ... ...
ROW 0F : ... .. . ... : ... .. . ... : ... .. . ... : ... .. . ... : ... .. . ... ...
ROW 10 : B-2 08 . ... : E-1 09 . ... : ... .. . ... : ... .. . ... : ... .. . ... ...
ROW 11 : ... .. . ... : ... .. . ... : ... .. . ... : ... .. . ... : ... .. . ... ...
ROW 12 : G-3 08 . ... : E-3 0A . ... : ... .. . ... : ... .. . ... : ... .. . ... ...
ROW 13 : ... .. . ... : E-1 09 . ... : ... .. . ... : ... .. . ... : ... .. . ... ...
ROW 14 : B-3 08 . ... : D-1 09 . ... : ... .. . ... : ... .. . ... : ... .. . ... ...
ROW 15 : ... .. . ... : ... .. . ... : ... .. . ... : ... .. . ... : ... .. . ... ...
ROW 16 : B-2 08 . ... : E-1 09 . ... : ... .. . ... : ... .. . ... : ... .. . ... ...
ROW 17 : G-3 08 . ... : ... .. . ... : ... .. . ... : ... .. . ... : ... .. . ... ...
ROW 18 : ... .. . ... : E-3 0A . ... : ... .. . ... : ... .. . ... : ... .. . ... ...
ROW 19 : B-3 08 . ... : E-1 09 . ... : ... .. . ... : ... .. . ... : ... .. . ... ...
ROW 1A : ... .. . ... : ... .. . ... : ... .. . ... : ... .. . ... : ... .. . ... ...
ROW 1B : B-2 08 . ... : ... .. . ... : ... .. . ... : ... .. . ... : ... .. . ... ...
ROW 1C : G-3 08 . ... : F#1 09 . ... : ... .. . ... : ... .. . ... : ... .. . ... ...
ROW 1D : ... .. . ... : ... .. . ... : ... .. . ... : ... .. . ... : ... .. . ... ...
ROW 1E : E-3 08 . ... : G-3 0A . ... : ... .. . ... : ... .. . ... : ... .. . ... ...
ROW 1F : ... .. . ... : ... .. . ... : ... .. . ... : ... .. . ... : ... .. . ... ...
ROW 20 : D-3 08 . ... : G-1 09 . ... : ... .. . ... : ... .. . ... : ... .. . ... ...
ROW 21 : ... .. . ... : ... .. . ... : ... .. . ... : ... .. . ... : ... .. . ... ...
ROW 22 : A-3 08 . ... : F#3 0A . ... : ... .. . ... : ... .. . ... : ... .. . ... ...
ROW 23 : ... .. . ... : G-1 09 . ... : ... .. . ... : ... .. . ... : ... .. . ... ...
ROW 24 : D-4 08 . ... : ... .. . ... : ... .. . ... : ... .. . ... : ... .. . ... ...
ROW 25 : ... .. . ... : ... .. . ... : ... .. . ... : ... .. . ... : ... .. . ... ...
ROW 26 : D-3 08 . ... : G-1 09 . ... : ... .. . ... : ... .. . ... : ... .. . ... ...
ROW 27 : A-3 08 . ... : ... .. . ... : ... .. . ... : ... .. . ... : ... .. . ... ...
ROW 28 : ... .. . ... : F#3 0A . ... : ... .. . ... : ... .. . ... : ... .. . ... ...
ROW 29 : D-4 08 . ... : ... .. . ... : ... .. . ... : ... .. . ... : ... .. . ... ...
ROW 2A : ... .. . ... : G-1 09 . ... : ... .. . ... : ... .. . ... : ... .. . ... ...
ROW 2B : D-3 08 . ... : ... .. . ... : ... .. . ... : ... .. . ... : ... .. . ... ...
ROW 2C : A-3 08 . ... : G-2 09 . ... : ... .. . ... : ... .. . ... : ... .. . ... ...
ROW 2D : ... .. . ... : ... .. . ... : ... .. . ... : ... .. . ... : ... .. . ... ...
ROW 2E : D-4 08 . ... : F#3 0A . ... : ... .. . ... : ... .. . ... : ... .. . ... ...
ROW 2F : ... .. . ... : ... .. . ... : ... .. . ... : ... .. . ... : ... .. . ... ...
ROW 30 : E-3 08 . ... : F#1 09 . ... : ... .. . ... : ... .. . ... : ... .. . ... ...
ROW 31 : ... .. . ... : ... .. . ... : ... .. . ... : ... .. . ... : ... .. . ... ...
ROW 32 : A-3 08 . ... : F#3 0A . ... : ... .. . ... : ... .. . ... : ... .. . ... ...
ROW 33 : ... .. . ... : ... .. . ... : ... .. . ... : ... .. . ... : ... .. . ... ...
ROW 34 : E-4 08 . ... : F#2 09 . ... : ... .. . ... : ... .. . ... : ... .. . ... ...
ROW 35 : ... .. . ... : ... .. . ... : ... .. . ... : ... .. . ... : ... .. . ... ...
ROW 36 : E-3 08 . ... : F#3 0A . ... : ... .. . ... : ... .. . ... : ... .. . ... ...
ROW 37 : A-3 08 . ... : ... .. . ... : ... .. . ... : ... .. . ... : ... .. . ... ...
ROW 38 : ... .. . ... : E-1 09 . ... : ... .. . ... : ... .. . ... : ... .. . ... ...
ROW 39 : E-4 08 . ... : ... .. . ... : ... .. . ... : ... .. . ... : ... .. . ... ...
ROW 3A : ... .. . ... : D-3 0A . ... : ... .. . ... : ... .. . ... : ... .. . ... ...
ROW 3B : E-3 08 . ... : ... .. . ... : ... .. . ... : ... .. . ... : ... .. . ... ...
ROW 3C : E-4 08 . ... : E-3 0A . ... : ... .. . ... : ... .. . ... : ... .. . ... ...
ROW 3D : ... .. . ... : ... .. . ... : ... .. . ... : ... .. . ... : ... .. . ... ...
ROW 3E : D-4 08 . ... : E-1 09 . ... : ... .. . ... : ... .. . ... : ... .. . ... ...
ROW 3F : ... .. . ... : ... .. . ... : ... .. . ... : ... .. . ... : ... .. . ... ...

PATTERN 08
ROW 00 : ... .. . ... : D-1 09 . ... : ... .. . ... : ... .. . ... : ... .. . ... ...
ROW 01 : ... .. . ... : ... .. . ... : ... .. . ... : ... .. . ... : ... .. . ... ...
ROW 02 : ... .. . ... : D-3 0A . ... : ... .. . ... : ... .. . ... : ... .. . ... ...
ROW 03 : ... .. . ... : B-0 09 . ... : ... .. . ... : ... .. . ... : ... .. . ... ...
ROW 04 : ... .. . ... : C#1 09 . ... : ... .. . ... : ... .. . ... : ... .. . ... ...
ROW 05 : ... .. . ... : ... .. . ... : ... .. . ... : ... .. . ... : ... .. . ... ...
ROW 06 : ... .. . ... : D-1 09 . ... : ... .. . ... : ... .. . ... : ... .. . ... ...
ROW 07 : ... .. . ... : ... .. . ... : ... .. . ... : ... .. . ... : ... .. . ... ...
ROW 08 : ... .. . ... : D-3 0A . ... : ... .. . ... : ... .. . ... : ... .. . ... ...
ROW 09 : ... .. . ... : ... .. . ... : ... .. . ... : ... .. . ... : ... .. . ... ...
ROW 0A : ... .. . ... : B-0 09 . ... : ... .. . ... : ... .. . ... : ... .. . ... ...
ROW 0B : ... .. . ... : ... .. . ... : ... .. . ... : ... .. . ... : ... .. . ... ...
ROW 0C : ... .. . ... : F#3 0A . ... : ... .. . ... : ... .. . ... : ... .. . ... ...
ROW 0D : ... .. . ... : ... .. . ... : ... .. . ... : ... .. . ... : ... .. . ... ...
ROW 0E : ... .. . ... : D-3 0A . ... : ... .. . ... : ... .. . ... : ... .. . ... ...
ROW 0F : ... .. . ... : ... .. . ... : ... .. . ... : ... .. . ... : ... .. . ... ...
ROW 10 : ... .. . ... : E-1 09 . ... : ... .. . ... : ... .. . ... : ... .. . ... ...
ROW 11 : ... .. . ... : ... .. . ... : ... .. . ... : ... .. . ... : ... .. . ... ...
ROW 12 : ... .. . ... : E-3 0A . ... : ... .. . ... : ... .. . ... : ... .. . ... ...
ROW 13 : ... .. . ... : E-1 09 . ... : ... .. . ... : ... .. . ... : ... .. . ... ...
ROW 14 : ... .. . ... : D-1 09 . ... : ... .. . ... : ... .. . ... : ... .. . ... ...
ROW 15 : ... .. . ... : ... .. . ... : ... .. . ... : ... .. . ... : ... .. . ... ...
ROW 16 : ... .. . ... : E-1 09 . ... : ... .. . ... : ... .. . ... : ... .. . ... ...
ROW 17 : ... .. . ... : ... .. . ... : ... .. . ... : ... .. . ... : ... .. . ... ...
ROW 18 : ... .. . ... : E-3 0A . ... : ... .. . ... : ... .. . ... : ... .. . ... ...
ROW 19 : ... .. . ... : E-1 09 . ... : ... .. . ... : ... .. . ... : ... .. . ... ...
ROW 1A : ... .. . ... : ... .. . ... : ... .. . ... : ... .. . ... : ... .. . ... ...
ROW 1B : ... .. . ... : E-3 0A . ... : ... .. . ... : ... .. . ... : ... .. . ... ...
ROW 1C : ... .. . ... : F#1 09 . ... : ... .. . ... : ... .. . ... : ... .. . ... ...
ROW 1D : ... .. . ... : ... .. . ... : ... .. . ... : ... .. . ... : ... .. . ... ...
ROW 1E : ... .. . ... : E-3 0A . ... : ... .. . ... : ... .. . ... : ... .. . ... ...
ROW 1F : ... .. . ... : ... .. . ... : ... .. . ... : ... .. . ... : ... .. . ... ...
ROW 20 : ... .. . ... : G-1 09 . ... : ... .. . ... : ... .. . ... : ... .. . ... ...
ROW 21 : ... .. . ... : ... .. . ... : ... .. . ... : ... .. . ... : ... .. . ... ...
ROW 22 : ... .. . ... : G-3 0A . ... : ... .. . ... : ... .. . ... : ... .. . ... ...
ROW 23 : ... .. . ... : G-1 09 . ... : ... .. . ... : ... .. . ... : ... .. . ... ...
ROW 24 : ... .. . ... : ... .. . ... : ... .. . ... : ... .. . ... : ... .. . ... ...
ROW 25 : ... .. . ... : ... .. . ... : ... .. . ... : ... .. . ... : ... .. . ... ...
ROW 26 : ... .. . ... : G-1 09 . ... : ... .. . ... : ... .. . ... : ... .. . ... ...
ROW 27 : ... .. . ... : ... .. . ... : ... .. . ... : ... .. . ... : ... .. . ... ...
ROW 28 : ... .. . ... : G-3 0A . ... : ... .. . ... : ... .. . ... : ... .. . ... ...
ROW 29 : ... .. . ... : ... .. . ... : ... .. . ... : ... .. . ... : ... .. . ... ...
ROW 2A : ... .. . ... : G-1 09 . ... : ... .. . ... : ... .. . ... : ... .. . ... ...
ROW 2B : ... .. . ... : ... .. . ... : ... .. . ... : ... .. . ... : ... .. . ... ...
ROW 2C : ... .. . ... : G-3 0A . ... : ... .. . ... : ... .. . ... : ... .. . ... ...
ROW 2D : ... .. . ... : ... .. . ... : ... .. . ... : ... .. . ... : ... .. . ... ...
ROW 2E : ... .. . ... : F#3 0A . ... : ... .. . ... : ... .. . ... : ... .. . ... ...
ROW 2F : ... .. . ... : ... .. . ... : ... .. . ... : ... .. . ... : ... .. . ... ...
ROW 30 : ... .. . ... : F#1 09 . ... : ... .. . ... : ... .. . ... : ... .. . ... ...
ROW 31 : ... .. . ... : ... .. . ... : ... .. . ... : ... .. . ... : ... .. . ... ...
ROW 32 : ... .. . ... : A-3 0A . ... : ... .. . ... : ... .. . ... : ... .. . ... ...
ROW 33 : ... .. . ... : ... .. . ... : ... .. . ... : ... .. . ... : ... .. . ... ...
ROW 34 : ... .. . ... : F#2 09 . ... : ... .. . ... : ... .. . ... : ... .. . ... ...
ROW 35 : ... .. . ... : ... .. . ... : ... .. . ... : ... .. . ... : ... .. . ... ...
ROW 36 : ... .. . ... : A-3 0A . ... : ... .. . ... : ... .. . ... : ... .. . ... ...
ROW 37 : ... .. . ... : ... .. . ... : ... .. . ... : ... .. . ... : ... .. . ... ...
ROW 38 : ... .. . ... : A-1 09 . ... : ... .. . ... : ... .. . ... : ... .. . ... ...
ROW 39 : ... .. . ... : ... .. . ... : ... .. . ... : ... .. . ... : ... .. . ... ...
ROW 3A : ... .. . ... : D-4 0A . ... : ... .. . ... : ... .. . ... : ... .. . ... ...
ROW 3B : ... .. . ... : ... .. . ... : ... .. . ... : ... .. . ... : ... .. . ... ...
ROW 3C : ... .. . ... : G-1 09 . ... : ... .. . ... : ... .. . ... : ... .. . ... ...
ROW 3D : ... .. . ... : ... .. . ... : ... .. . ... : ... .. . ... : ... .. . ... ...
ROW 3E : ... .. . ... : C#4 0A . ... : ... .. . ... : ... .. . ... : ... .. . ... ...
ROW 3F : ... .. . ... : ... .. . ... : ... .. . ... : ... .. . ... : ... .. . ... ...

PATTERN 09
ROW 00 : ... .. . ... : D-4 0D C 455 : ... .. . ... : ... .. . ... : ... .. . ... ...
ROW 01 : ... .. . ... : ... .. . ... : ... .. . ... : ... .. . ... : ... .. . ... ...
ROW 02 : ... .. . ... : ... .. . ... : ... .. . ... : ... .. . ... : ... .. . ... ...
ROW 03 : ... .. . ... : ... .. 9 ... : ... .. . ... : ... .. . ... : ... .. . ... ...
ROW 04 : ... .. . ... : ... .. . ... : ... .. . ... : ... .. . ... : ... .. . ... ...
ROW 05 : ... .. . ... : ... .. . ... : ... .. . ... : ... .. . ... : ... .. . ... ...
ROW 06 : ... .. . ... : ... .. 6 ... : ... .. . ... : ... .. . ... : ... .. . ... ...
ROW 07 : ... .. . ... : ... .. . ... : ... .. . ... : ... .. . ... : ... .. . ... ...
ROW 08 : ... .. . ... : ... .. . ... : ... .. . ... : ... .. . ... : ... .. . ... ...
ROW 09 : ... .. . ... : ... .. . ... : ... .. . ... : ... .. . ... : ... .. . ... ...
ROW 0A : ... .. . ... : D-1 09 F 400 : ... .. . ... : ... .. . ... : ... .. . ... ...
ROW 0B : ... .. . ... : ... .. . ... : ... .. . ... : ... .. . ... : ... .. . ... ...
ROW 0C : ... .. . ... : ... .. . ... : ... .. . ... : ... .. . ... : ... .. . ... ...
ROW 0D : ... .. . ... : ... .. . ... : ... .. . ... : ... .. . ... : ... .. . ... ...
ROW 0E : ... .. . ... : B-0 09 . ... : ... .. . ... : ... .. . ... : ... .. . ... ...
ROW 0F : ... .. . ... : ... .. . ... : ... .. . ... : ... .. . ... : ... .. . ... ...
ROW 10 : ... .. . ... : D-1 09 . ... : ... .. . ... : ... .. . ... : ... .. . ... ...
ROW 11 : ... .. . ... : ... .. . ... : ... .. . ... : ... .. . ... : ... .. . ... ...
ROW 12 : ... .. . ... : ... .. . ... : ... .. . ... : ... .. . ... : ... .. . ... ...
ROW 13 : ... .. . ... : ... .. . ... : ... .. . ... : ... .. . ... : ... .. . ... ...
ROW 14 : ... .. . ... : ... .. . ... : ... .. . ... : ... .. . ... : ... .. . ... ...
ROW 15 : ... .. . ... : ... .. . ... : ... .. . ... : ... .. . ... : ... .. . ... ...
ROW 16 : ... .. . ... : ... .. . ... : ... .. . ... : ... .. . ... : ... .. . ... ...
ROW 17 : ... .. . ... : ... .. . ... : ... .. . ... : ... .. . ... : ... .. . ... ...
ROW 18 : ... .. . ... : ... .. . ... : ... .. . ... : ... .. . ... : ... .. . ... ...
ROW 19 : ... .. . ... : ... .. . ... : ... .. . ... : ... .. . ... : ... .. . ... ...
ROW 1A : ... .. . ... : ... .. . ... : ... .. . ... : ... .. . ... : ... .. . ... ...
ROW 1B : ... .. . ... : ... .. . ... : ... .. . ... : ... .. . ... : ... .. . ... ...
ROW 1C : ... .. . ... : B-0 09 . ... : ... .. . ... : ... .. . ... : ... .. . ... ...
ROW 1D : ... .. . ... : ... .. . ... : ... .. . ... : ... .. . ... : ... .. . ... ...
ROW 1E : ... .. . ... : B-0 09 . ... : ... .. . ... : ... .. . ... : ... .. . ... ...
ROW 1F : ... .. . ... : ... .. . ... : ... .. . ... : ... .. . ... : ... .. . ... ...
ROW 20 : ... .. . ... : D-1 09 . ... : ... .. . ... : ... .. . ... : ... .. . ... ...
ROW 21 : ... .. . ... : ... .. . ... : ... .. . ... : ... .. . ... : ... .. . ... ...
ROW 22 : ... .. . ... : ... .. . ... : ... .. . ... : ... .. . ... : ... .. . ... ...
ROW 23 : ... .. . ... : ... .. . ... : ... .. . ... : ... .. . ... : ... .. . ... ...
ROW 24 : ... .. . ... : ... .. . ... : ... .. . ... : ... .. . ... : ... .. . ... ...
ROW 25 : ... .. . ... : ... .. . ... : ... .. . ... : ... .. . ... : ... .. . ... ...
ROW 26 : ... .. . ... : ... .. . ... : ... .. . ... : ... .. . ... : ... .. . ... ...
ROW 27 : ... .. . ... : ... .. . ... : ... .. . ... : ... .. . ... : ... .. . ... ...
ROW 28 : ... .. . ... : ... .. . ... : ... .. . ... : ... .. . ... : ... .. . ... ...
ROW 29 : ... .. . ... : ... .. . ... : ... .. . ... : ... .. . ... : ... .. . ... ...
ROW 2A : ... .. . ... : D-1 09 . ... : ... .. . ... : ... .. . ... : ... .. . ... ...
ROW 2B : ... .. . ... : ... .. . ... : ... .. . ... : ... .. . ... : ... .. . ... ...
ROW 2C : ... .. . ... : ... .. . ... : ... .. . ... : ... .. . ... : ... .. . ... ...
ROW 2D : ... .. . ... : ... .. . ... : ... .. . ... : ... .. . ... : ... .. . ... ...
ROW 2E : ... .. . ... : B-0 09 . ... : ... .. . ... : ... .. . ... : ... .. . ... ...
ROW 2F : ... .. . ... : ... .. . ... : ... .. . ... : ... .. . ... : ... .. . ... ...
ROW 30 : ... .. . ... : D-1 09 . ... : ... .. . ... : ... .. . ... : ... .. . ... ...
ROW 31 : ... .. . ... : ... .. . ... : ... .. . ... : ... .. . ... : ... .. . ... ...
ROW 32 : ... .. . ... : ... .. . ... : ... .. . ... : ... .. . ... : ... .. . ... ...
ROW 33 : ... .. . ... : ... .. . ... : ... .. . ... : ... .. . ... : ... .. . ... ...
ROW 34 : ... .. . ... : ... .. . ... : ... .. . ... : ... .. . ... : ... .. . ... ...
ROW 35 : ... .. . ... : ... .. . ... : ... .. . ... : ... .. . ... : ... .. . ... ...
ROW 36 : ... .. . ... : ... .. . ... : ... .. . ... : ... .. . ... : ... .. . ... ...
ROW 37 : ... .. . ... : ... .. . ... : ... .. . ... : ... .. . ... : ... .. . ... ...
ROW 38 : ... .. . ... : ... .. . ... : ... .. . ... : ... .. . ... : ... .. . ... ...
ROW 39 : ... .. . ... : ... .. . ... : ... .. . ... : ... .. . ... : ... .. . ... ...
ROW 3A : ... .. . ... : ... .. . ... : ... .. . ... : ... .. . ... : ... .. . ... ...
ROW 3B : ... .. . ... : ... .. . ... : ... .. . ... : ... .. . ... : ... .. . ... ...
ROW 3C : ... .. . ... : A-0 09 . ... : ... .. . ... : ... .. . ... : ... .. . ... ...
ROW 3D : ... .. . ... : ... .. . ... : ... .. . ... : ... .. . ... : ... .. . ... ...
ROW 3E : ... .. . ... : B-0 09 . ... : ... .. . ... : ... .. . ... : ... .. . ... ...
ROW 3F : ... .. . ... : ... .. . ... : ... .. . ... : ... .. . ... : ... .. . ... ...

TRACK  48   7 150 "World 1B"
COLUMNS : 1 1 1 1 1

ORDER 00 : 00 00 00 00 00
ORDER 01 : 01 01 01 00 00
ORDER 02 : 02 02 02 00 00
ORDER 03 : 02 02 02 00 00
ORDER 04 : 03 02 03 01 00
ORDER 05 : 05 05 05 02 00
ORDER 06 : 04 04 04 02 00
ORDER 07 : 05 05 06 05 00
ORDER 08 : 06 06 07 05 00

PATTERN 00
ROW 00 : F-2 31 . 000 : F-5 12 C 000 : F-2 00 . ... : 0-# 11 . J10 : ... .. . ...
ROW 01 : ... .. . ... : ... .. . ... : ... .. . ... : ... .. . ... : ... .. . ...
ROW 02 : G-2 31 . ... : ... .. . ... : --- .. . ... : E-# 13 . ... : ... .. . ...
ROW 03 : ... .. . ... : C-3 12 . 047 : ... .. . ... : 2-# 07 . J37 : ... .. . ...
ROW 04 : ... .. . ... : ... .. . ... : ... .. . ... : ... .. . ... : ... .. . ...
ROW 05 : A-2 31 . ... : ... .. . ... : ... .. . ... : E-# 13 . ... : ... .. . ...
ROW 06 : C-3 31 . ... : G-5 12 . 000 : G-2 00 . ... : 1-# 16 . J15 : ... .. . ...
ROW 07 : ... .. . ... : ... .. . ... : ... .. . ... : ... .. . ... : ... .. . ...
ROW 08 : C-3 31 . ... : ... .. . ... : --- .. . ... : E-# 13 . ... : ... .. . ...
ROW 09 : A#2 31 . ... : A#2 12 . 047 : ... .. . ... : 2-# 07 . J37 : ... .. . ...
ROW 0A : ... .. . ... : ... .. . ... : ... .. . ... : ... .. . ... : ... .. . ...
ROW 0B : ... .. . ... : ... .. . ... : ... .. . ... : E-# 13 . ... : ... .. . ...
ROW 0C : A-2 31 . ... : F-5 12 . 000 : F-2 00 . ... : 0-# 11 . J10 : ... .. . ...
ROW 0D : ... .. . ... : ... .. . ... : ... .. . ... : ... .. . ... : ... .. . ...
ROW 0E : E-2 31 . ... : C-2 12 . ... : --- .. . ... : E-# 13 . ... : ... .. . ...
ROW 0F : ... .. . ... : ... .. . ... : ... .. . ... : 2-# 07 . J37 : ... .. . ...
ROW 10 : ... .. . ... : ... .. . ... : ... .. . ... : ... .. . ... : ... .. . ...
ROW 11 : D-2 31 . ... : A#1 12 . ... : ... .. . ... : E-# 13 . ... : ... .. . ...
ROW 12 : ... .. . ... : ... .. . ... : F-3 00 . ... : 1-# 16 . J15 : ... .. . ...
ROW 13 : ... .. . ... : ... .. . ... : --- .. . ... : ... .. . ... : ... .. . ...
ROW 14 : E-2 31 . ... : C-2 12 . ... : E-3 00 . ... : E-# 13 . ... : ... .. . ...
ROW 15 : G-2 31 . ... : E-2 12 . ... : C-3 00 . ... : 2-# 07 . J37 : ... .. . ...
ROW 16 : ... .. . ... : ... .. . ... : ... .. . ... : E-# 13 . ... : ... .. . ...
ROW 17 : ... .. . ... : ... .. . ... : A#2 00 . ... : E-# 13 . ... : ... .. . ...
ROW 18 : F-2 31 . ... : F-5 12 . 000 : F-2 00 . ... : 0-# 11 . J10 : ... .. . ...
ROW 19 : ... .. . ... : ... .. . ... : ... .. . ... : ... .. . ... : ... .. . ...
ROW 1A : G-2 31 . ... : ... .. . ... : --- .. . ... : E-# 13 . ... : ... .. . ...
ROW 1B : ... .. . ... : C-3 12 . 047 : ... .. . ... : 2-# 07 . J37 : ... .. . ...
ROW 1C : ... .. . ... : ... .. . ... : ... .. . ... : ... .. . ... : ... .. . ...
ROW 1D : A-2 31 . ... : ... .. . ... : ... .. . ... : E-# 13 . ... : ... .. . ...
ROW 1E : C-3 31 . ... : G-5 12 . 000 : G-2 00 . ... : 1-# 16 . J15 : ... .. . ...
ROW 1F : ... .. . ... : ... .. . ... : ... .. . ... : ... .. . ... : ... .. . ...
ROW 20 : C-3 31 . ... : ... .. . ... : --- .. . ... : E-# 13 . ... : ... .. . ...
ROW 21 : A#2 31 . ... : A#2 12 . 047 : ... .. . ... : 2-# 07 . J37 : ... .. . ...
ROW 22 : ... .. . ... : ... .. . ... : ... .. . ... : ... .. . ... : ... .. . ...
ROW 23 : A-2 31 . ... : ... .. . ... : ... .. . ... : E-# 13 . ... : ... .. . ...
ROW 24 : E-3 31 . ... : A-5 12 . 000 : E-2 00 . ... : 0-# 11 . J10 : ... .. . ...
ROW 25 : ... .. . ... : ... .. . ... : ... .. . ... : ... .. . ... : ... .. . ...
ROW 26 : C-3 31 . ... : A-2 12 . ... : --- .. . ... : E-# 13 . ... : ... .. . ...
ROW 27 : ... .. . ... : ... .. . ... : A-3 00 . ... : 2-# 07 . J37 : ... .. . ...
ROW 28 : ... .. . ... : ... .. . ... : --- .. . ... : ... .. . ... : ... .. . ...
ROW 29 : C-3 31 . ... : A-2 12 . ... : ... .. . ... : E-# 13 . ... : ... .. . ...
ROW 2A : ... .. . ... : ... .. . ... : A-3 00 . ... : 1-# 16 . J15 : ... .. . ...
ROW 2B : ... .. . ... : ... .. . ... : --- .. . ... : ... .. . ... : ... .. . ...
ROW 2C : C-3 31 . ... : A-2 12 . ... : A-2 00 . ... : E-# 13 . ... : ... .. . ...
ROW 2D : D-3 31 . ... : A#2 12 . ... : F-3 00 . ... : 2-# 07 . J37 : ... .. . ...
ROW 2E : ... .. . ... : ... .. . ... : ... .. . ... : E-# 13 . ... : ... .. . ...
ROW 2F : ... .. . ... : ... .. . ... : D-3 00 . ... : E-# 13 . ... : ... .. . ...

PATTERN 01
ROW 00 : F-2 31 . ... : F-5 12 . 000 : F-2 00 . ... : 0-# 11 . J10 : ... .. . ...
ROW 01 : ... .. . ... : ... .. . ... : ... .. . ... : ... .. . ... : ... .. . ...
ROW 02 : G-2 31 . ... : ... .. . ... : --- .. . ... : E-# 13 . ... : ... .. . ...
ROW 03 : ... .. . ... : C-3 12 . 047 : ... .. . ... : 2-# 07 . J37 : ... .. . ...
ROW 04 : ... .. . ... : ... .. . ... : ... .. . ... : ... .. . ... : ... .. . ...
ROW 05 : A-2 31 . ... : ... .. . ... : ... .. . ... : E-# 13 . ... : ... .. . ...
ROW 06 : C-3 31 . ... : G-5 12 . 000 : G-2 00 . ... : 1-# 16 . J15 : ... .. . ...
ROW 07 : ... .. . ... : ... .. . ... : ... .. . ... : ... .. . ... : ... .. . ...
ROW 08 : C-3 31 . ... : ... .. . ... : --- .. . ... : E-# 13 . ... : ... .. . ...
ROW 09 : A#2 31 . ... : A#2 12 . 047 : ... .. . ... : 2-# 07 . J37 : ... .. . ...
ROW 0A : G-2 31 . ... : ... .. . ... : ... .. . ... : ... .. . ... : ... .. . ...
ROW 0B : A#2 31 . ... : ... .. . ... : ... .. . ... : E-# 13 . ... : ... .. . ...
ROW 0C : A-2 31 . ... : E-5 12 . 000 : F-2 00 . ... : 0-# 11 . J10 : ... .. . ...
ROW 0D : ... .. . ... : ... .. . ... : ... .. . ... : ... .. . ... : ... .. . ...
ROW 0E : E-2 31 . ... : C-2 12 . ... : --- .. . ... : E-# 13 . ... : ... .. . ...
ROW 0F : ... .. . ... : ... .. . ... : ... .. . ... : 2-# 07 . J37 : ... .. . ...
ROW 10 : ... .. . ... : ... .. . ... : ... .. . ... : ... .. . ... : ... .. . ...
ROW 11 : D-2 31 . ... : A#1 12 . ... : ... .. . ... : E-# 13 . ... : ... .. . ...
ROW 12 : ... .. . ... : ... .. . ... : F-3 00 . ... : 1-# 16 . J15 : ... .. . ...
ROW 13 : ... .. . ... : ... .. . ... : --- .. . ... : ... .. . ... : ... .. . ...
ROW 14 : E-2 31 . ... : C-2 12 . ... : E-3 00 . ... : E-# 13 . ... : ... .. . ...
ROW 15 : G-2 31 . ... : E-2 12 . ... : C-3 00 . ... : 2-# 07 . J37 : ... .. . ...
ROW 16 : ... .. . ... : ... .. . ... : ... .. . ... : E-# 13 . ... : ... .. . ...
ROW 17 : E-2 31 . ... : ... .. . ... : A#2 00 . ... : E-# 13 . ... : ... .. . ...
ROW 18 : F-2 31 . ... : F-5 12 . 000 : F-2 00 . ... : 0-# 11 . J10 : ... .. . ...
ROW 19 : ... .. . ... : ... .. . ... : ... .. . ... : ... .. . ... : ... .. . ...
ROW 1A : G-2 31 . ... : ... .. . ... : --- .. . ... : E-# 13 . ... : ... .. . ...
ROW 1B : ... .. . ... : C-3 12 . 047 : ... .. . ... : 2-# 07 . J37 : ... .. . ...
ROW 1C : ... .. . ... : ... .. . ... : ... .. . ... : ... .. . ... : ... .. . ...
ROW 1D : A-2 31 . ... : ... .. . ... : ... .. . ... : E-# 13 . ... : ... .. . ...
ROW 1E : C-3 31 . ... : E-5 12 . 000 : G-2 00 . ... : 1-# 16 . J15 : ... .. . ...
ROW 1F : ... .. . ... : ... .. . ... : ... .. . ... : ... .. . ... : ... .. . ...
ROW 20 : C-3 31 . ... : ... .. . ... : --- .. . ... : E-# 13 . ... : ... .. . ...
ROW 21 : A#2 31 . ... : A#2 12 . 047 : ... .. . ... : 2-# 07 . J37 : ... .. . ...
ROW 22 : ... .. . ... : ... .. . ... : ... .. . ... : ... .. . ... : ... .. . ...
ROW 23 : A-2 31 . ... : ... .. . ... : ... .. . ... : E-# 13 . ... : ... .. . ...
ROW 24 : F-3 31 . ... : F-5 12 . 000 : F-3 00 . ... : 3-# 05 . J04 : ... .. . ...
ROW 25 : ... .. . ... : ... .. . ... : ... .. . ... : ... .. . ... : ... .. . ...
ROW 26 : G-3 31 . ... : E-3 12 . ... : --- .. . ... : ... .. . ... : ... .. . ...
ROW 27 : ... .. . ... : ... .. . ... : G-3 00 . ... : 3-# 05 . J04 : ... .. . ...
ROW 28 : ... .. . ... : ... .. . ... : --- .. . ... : ... .. . ... : ... .. . ...
ROW 29 : G-3 31 . ... : E-3 12 . ... : ... .. . ... : ... .. . ... : ... .. . ...
ROW 2A : ... .. . ... : ... .. . ... : G-3 00 . ... : 3-# 05 . J01 : ... .. . ...
ROW 2B : ... .. . ... : ... .. . ... : --- .. . ... : ... .. . ... : ... .. . ...
ROW 2C : E-3 31 . ... : C-3 12 . ... : G-3 00 . ... : ... .. . ... : ... .. . ...
ROW 2D : F-3 31 . ... : D-3 12 . ... : F-3 00 . ... : 3-# 05 . J01 : ... .. . ...
ROW 2E : ... .. . ... : ... .. . ... : ... .. . ... : ... .. . ... : ... .. . ...
ROW 2F : ... .. . ... : ... .. . ... : --- 00 . ... : ... .. . ... : ... .. . ...

PATTERN 02
ROW 00 : F-3 28 . ... : F-1 12 . 000 : F-2 00 . ... : 0-# 11 . J10 : ... .. . ...
ROW 01 : ... .. . ... : ... .. . ... : ... .. . ... : ... .. . ... : ... .. . ...
ROW 02 : ... .. . ... : ... .. . ... : ... .. . ... : E-# 13 . ... : ... .. . ...
ROW 03 : ... .. . ... : C-3 12 . 047 : F-3 00 . ... : 2-# 07 . J37 : ... .. . ...
ROW 04 : ... .. . ... : ... .. . ... : --- .. . ... : ... .. . ... : ... .. . ...
ROW 05 : ... .. . ... : ... .. . ... : ... .. . ... : ... .. . ... : ... .. . ...
ROW 06 : G-3 28 . ... : A#1 12 . 000 : G-2 00 . ... : 2-# 07 . J37 : ... .. . ...
ROW 07 : ... .. . ... : ... .. . ... : ... .. . ... : E-# 13 . ... : ... .. . ...
ROW 08 : ... .. . ... : ... .. . ... : --- .. . ... : E-# 13 . ... : ... .. . ...
ROW 09 : D-3 28 . ... : A#2 12 . 047 : A#2 00 . ... : 2-# 07 . J37 : ... .. . ...
ROW 0A : ... .. . ... : ... .. . ... : ... .. . ... : ... .. . ... : ... .. . ...
ROW 0B : ... .. . ... : ... .. . ... : --- .. . ... : ... .. . ... : ... .. . ...
ROW 0C : G-3 31 . ... : E-1 12 . 000 : E-2 00 . ... : 0-# 11 . J10 : ... .. . ...
ROW 0D : ... .. . ... : ... .. . ... : ... .. . ... : ... .. . ... : ... .. . ...
ROW 0E : F-3 31 . ... : A-2 12 . 037 : ... .. . ... : E-# 13 . ... : ... .. . ...
ROW 0F : E-3 31 . ... : E-1 12 . 000 : E-3 00 . ... : 2-# 07 . J37 : ... .. . ...
ROW 10 : ... .. . ... : ... .. . ... : --- .. . ... : ... .. . ... : ... .. . ...
ROW 11 : D-3 31 . ... : A-2 12 . 037 : ... .. . ... : ... .. . ... : ... .. . ...
ROW 12 : C-3 31 . ... : E-1 12 . 000 : C-3 00 . ... : 2-# 07 . J37 : ... .. . ...
ROW 13 : ... .. . ... : ... .. . ... : --- .. . ... : E-# 13 . ... : ... .. . ...
ROW 14 : ... .. . ... : ... .. . ... : ... .. . ... : E-# 13 . ... : ... .. . ...
ROW 15 : G-2 31 . ... : A#2 12 . 047 : G-2 00 . ... : 2-# 07 . J37 : ... .. . ...
ROW 16 : ... .. . ... : ... .. . ... : ... .. . ... : ... .. . ... : ... .. . ...
ROW 17 : ... .. . ... : ... .. . ... : ... .. . ... : ... .. . ... : ... .. . ...
ROW 18 : F-3 28 . ... : F-1 12 . 000 : F-2 00 . ... : 0-# 11 . J10 : ... .. . ...
ROW 19 : ... .. . ... : ... .. . ... : ... .. . ... : ... .. . ... : ... .. . ...
ROW 1A : ... .. . ... : ... .. . ... : ... .. . ... : E-# 13 . ... : ... .. . ...
ROW 1B : ... .. . ... : C-3 12 . 047 : F-3 00 . ... : 2-# 07 . J37 : ... .. . ...
ROW 1C : ... .. . ... : ... .. . ... : --- .. . ... : ... .. . ... : ... .. . ...
ROW 1D : ... .. . ... : ... .. . ... : ... .. . ... : ... .. . ... : ... .. . ...
ROW 1E : G-3 28 . ... : A#1 12 . 000 : G-2 00 . ... : 2-# 07 . J37 : ... .. . ...
ROW 1F : ... .. . ... : ... .. . ... : ... .. . ... : E-# 13 . ... : ... .. . ...
ROW 20 : ... .. . ... : ... .. . ... : --- .. . ... : E-# 13 . ... : ... .. . ...
ROW 21 : D-3 28 . ... : A#2 12 . 047 : A#2 00 . ... : 2-# 07 . J37 : ... .. . ...
ROW 22 : ... .. . ... : ... .. . ... : ... .. . ... : ... .. . ... : ... .. . ...
ROW 23 : ... .. . ... : ... .. . ... : --- .. . ... : ... .. . ... : ... .. . ...
ROW 24 : C-4 31 . ... : G-1 12 . 000 : G-2 00 . ... : 0-# 11 . J10 : ... .. . ...
ROW 25 : ... .. . ... : ... .. . ... : ... .. . ... : ... .. . ... : ... .. . ...
ROW 26 : C-4 31 . ... : C-3 12 . 047 : ... .. . ... : E-# 13 . ... : ... .. . ...
ROW 27 : C-4 31 . ... : G-1 12 . 000 : G-3 00 . ... : 2-# 07 . J37 : ... .. . ...
ROW 28 : ... .. . ... : ... .. . ... : --- .. . ... : ... .. . ... : ... .. . ...
ROW 29 : A#3 31 . ... : C-3 12 . 047 : ... .. . ... : ... .. . ... : ... .. . ...
ROW 2A : ... .. . ... : G-1 12 . 000 : A#2 00 . ... : 1-# 16 . J15 : ... .. . ...
ROW 2B : ... .. . ... : ... .. . ... : --- .. . ... : ... .. . ... : ... .. . ...
ROW 2C : G-3 31 . ... : ... .. . ... : ... .. . ... : E-# 13 . ... : ... .. . ...
ROW 2D : ... .. . ... : D-3 12 . 037 : G-2 00 . ... : 2-# 07 . J37 : ... .. . ...
ROW 2E : ... .. . ... : ... .. . ... : ... .. . ... : ... .. . ... : ... .. . ...
ROW 2F : F-3 31 . ... : ... .. . ... : ... .. . ... : ... .. . ... : ... .. . ...

PATTERN 03
ROW 00 : F-3 28 F ... : ... .. . ... : F-2 00 . ... : ... .. . ... : ... .. . ...
ROW 01 : ... .. 6 ... : ... .. . ... : ... .. . ... : ... .. . ... : ... .. . ...
ROW 02 : F-3 28 F ... : ... .. . ... : ... .. . ... : ... .. . ... : ... .. . ...
ROW 03 : ... .. 6 ... : ... .. . ... : F-3 00 . ... : ... .. . ... : ... .. . ...
ROW 04 : F-3 28 F ... : ... .. . ... : --- .. . ... : ... .. . ... : ... .. . ...
ROW 05 : ... .. . ... : ... .. . ... : ... .. . ... : ... .. . ... : ... .. . ...
ROW 06 : G-3 28 . ... : ... .. . ... : G-2 00 . ... : ... .. . ... : ... .. . ...
ROW 07 : ... .. . ... : ... .. . ... : ... .. . ... : ... .. . ... : ... .. . ...
ROW 08 : ... .. 6 ... : ... .. . ... : --- .. . ... : ... .. . ... : ... .. . ...
ROW 09 : A#3 28 F ... : ... .. . ... : A#2 00 . ... : ... .. . ... : ... .. . ...
ROW 0A : ... .. . ... : ... .. . ... : ... .. . ... : ... .. . ... : ... .. . ...
ROW 0B : ... .. 6 ... : ... .. . ... : --- .. . ... : ... .. . ... : ... .. . ...
ROW 0C : G-3 31 F ... : ... .. . ... : E-2 00 . ... : ... .. . ... : ... .. . ...
ROW 0D : ... .. . ... : ... .. . ... : ... .. . ... : ... .. . ... : ... .. . ...
ROW 0E : F-3 31 . ... : ... .. . ... : ... .. . ... : ... .. . ... : ... .. . ...
ROW 0F : G-3 31 . ... : ... .. . ... : E-3 00 . ... : ... .. . ... : ... .. . ...
ROW 10 : ... .. . ... : ... .. . ... : --- .. . ... : ... .. . ... : ... .. . ...
ROW 11 : A-3 31 . ... : ... .. . ... : ... .. . ... : ... .. . ... : ... .. . ...
ROW 12 : ... .. . ... : ... .. . ... : C-3 00 . ... : ... .. . ... : ... .. . ...
ROW 13 : ... .. . ... : ... .. . ... : --- .. . ... : ... .. . ... : ... .. . ...
ROW 14 : A#3 31 . ... : ... .. . ... : ... .. . ... : ... .. . ... : ... .. . ...
ROW 15 : D-3 31 . ... : ... .. . ... : G-2 00 . ... : ... .. . ... : ... .. . ...
ROW 16 : ... .. . ... : ... .. . ... : ... .. . ... : ... .. . ... : ... .. . ...
ROW 17 : ... .. . ... : ... .. . ... : ... .. . ... : ... .. . ... : ... .. . ...
ROW 18 : F-3 28 F ... : ... .. . ... : F-2 00 . ... : ... .. . ... : ... .. . ...
ROW 19 : ... .. 6 ... : ... .. . ... : ... .. . ... : ... .. . ... : ... .. . ...
ROW 1A : E-3 28 F ... : ... .. . ... : ... .. . ... : ... .. . ... : ... .. . ...
ROW 1B : ... .. 6 ... : ... .. . ... : F-3 00 . ... : ... .. . ... : ... .. . ...
ROW 1C : C-3 28 F ... : ... .. . ... : --- .. . ... : ... .. . ... : ... .. . ...
ROW 1D : ... .. 6 ... : ... .. . ... : ... .. . ... : ... .. . ... : ... .. . ...
ROW 1E : A#2 28 F ... : ... .. . ... : G-2 00 . ... : ... .. . ... : ... .. . ...
ROW 1F : ... .. . ... : ... .. . ... : ... .. . ... : ... .. . ... : ... .. . ...
ROW 20 : ... .. 6 ... : ... .. . ... : --- .. . ... : ... .. . ... : ... .. . ...
ROW 21 : F-2 28 F ... : ... .. . ... : A#2 00 . ... : ... .. . ... : ... .. . ...
ROW 22 : ... .. . ... : ... .. . ... : ... .. . ... : ... .. . ... : ... .. . ...
ROW 23 : ... .. 6 ... : ... .. . ... : --- .. . ... : ... .. . ... : ... .. . ...
ROW 24 : G-3 31 F ... : ... .. . ... : ... .. . ... : ... .. . ... : ... .. . ...
ROW 25 : ... .. . ... : ... .. . ... : ... .. . ... : ... .. . ... : ... .. . ...
ROW 26 : A-3 31 . ... : ... .. . ... : ... .. . ... : ... .. . ... : ... .. . ...
ROW 27 : A#3 31 . ... : ... .. . ... : ... .. . ... : ... .. . ... : ... .. . ...
ROW 28 : ... .. . ... : ... .. . ... : ... .. . ... : ... .. . ... : ... .. . ...
ROW 29 : C-4 31 . ... : ... .. . ... : ... .. . ... : ... .. . ... : ... .. . ...
ROW 2A : ... .. . ... : ... .. . ... : ... .. . ... : ... .. . ... : ... .. . ...
ROW 2B : ... .. . ... : ... .. . ... : ... .. . ... : ... .. . ... : ... .. . ...
ROW 2C : G-4 31 . ... : ... .. . ... : ... .. . ... : ... .. . ... : ... .. . ...
ROW 2D : F-4 31 . ... : ... .. . ... : ... .. . ... : ... .. . ... : ... .. . ...
ROW 2E : ... .. . ... : ... .. . ... : ... .. . ... : ... .. . ... : ... .. . ...
ROW 2F : ... .. . ... : ... .. . ... : ... .. . ... : ... .. . ... : ... .. . ...

PATTERN 04
ROW 00 : F-3 17 . 0CC : F-2 2F . ... : F-2 00 . ... : ... .. . ... : ... .. . ...
ROW 01 : ... .. . ... : ... .. . ... : ... .. . ... : ... .. . ... : ... .. . ...
ROW 02 : G-3 17 . ... : F-3 2F . ... : ... .. . ... : ... .. . ... : ... .. . ...
ROW 03 : ... .. . ... : F-4 2F . ... : --- 37 . ... : ... .. . ... : ... .. . ...
ROW 04 : ... .. . ... : ... .. . ... : ... .. . ... : ... .. . ... : ... .. . ...
ROW 05 : A-3 17 . ... : F-3 2F . ... : ... .. . ... : ... .. . ... : ... .. . ...
ROW 06 : C-4 17 . ... : C-2 2F . ... : ... .. . ... : ... .. . ... : ... .. . ...
ROW 07 : ... .. . ... : ... .. . ... : ... .. . ... : ... .. . ... : ... .. . ...
ROW 08 : C-4 17 . ... : C-3 2F . ... : ... .. . ... : ... .. . ... : ... .. . ...
ROW 09 : A#3 17 . ... : C-4 2F . ... : ... .. . ... : ... .. . ... : ... .. . ...
ROW 0A : ... .. . ... : ... .. . ... : ... .. . ... : ... .. . ... : ... .. . ...
ROW 0B : ... .. . ... : C-3 2F . ... : A-1 00 . ... : ... .. . ... : ... .. . ...
ROW 0C : E-3 17 . ... : E-1 2F . ... : E-2 00 . ... : ... .. . ... : ... .. . ...
ROW 0D : ... .. . ... : ... .. . ... : ... .. . ... : ... .. . ... : ... .. . ...
ROW 0E : F-3 17 . ... : F-2 2F . ... : F-2 00 . ... : ... .. . ... : ... .. . ...
ROW 0F : ... .. . ... : F-3 2F . ... : --- 37 . ... : ... .. . ... : ... .. . ...
ROW 10 : ... .. . ... : ... .. . ... : ... .. . ... : ... .. . ... : ... .. . ...
ROW 11 : F-3 17 . ... : F-2 2F . ... : ... .. . ... : ... .. . ... : ... .. . ...
ROW 12 : F-3 17 . ... : F-1 2F . ... : ... .. . ... : ... .. . ... : ... .. . ...
ROW 13 : ... .. . ... : ... .. . ... : ... .. . ... : ... .. . ... : ... .. . ...
ROW 14 : G-3 17 . ... : F-2 2F . ... : ... .. . ... : ... .. . ... : ... .. . ...
ROW 15 : F-3 17 . ... : F-3 2F . ... : C-2 00 . ... : ... .. . ... : ... .. . ...
ROW 16 : ... .. . ... : ... .. . ... : ... .. . ... : ... .. . ... : ... .. . ...
ROW 17 : ... .. . ... : F-2 2F . ... : ... .. . ... : ... .. . ... : ... .. . ...
ROW 18 : G-3 17 . 0CC : G-3 2F . ... : G-2 00 . ... : ... .. . ... : ... .. . ...
ROW 19 : ... .. . ... : ... .. . ... : ... .. . ... : ... .. . ... : ... .. . ...
ROW 1A : A-3 17 . ... : E-3 2F . ... : ... .. . ... : ... .. . ... : ... .. . ...
ROW 1B : ... .. . ... : C-3 2F . ... : --- 37 . ... : ... .. . ... : ... .. . ...
ROW 1C : ... .. . ... : ... .. . ... : ... .. . ... : ... .. . ... : ... .. . ...
ROW 1D : A#3 17 . ... : F-3 2F . ... : ... .. . ... : ... .. . ... : ... .. . ...
ROW 1E : C-4 17 . ... : G-3 2F . ... : ... .. . ... : ... .. . ... : ... .. . ...
ROW 1F : ... .. . ... : ... .. . ... : ... .. . ... : ... .. . ... : ... .. . ...
ROW 20 : C-4 17 . ... : F-3 2F . ... : ... .. . ... : ... .. . ... : ... .. . ...
ROW 21 : A#3 17 . ... : G-3 2F . ... : ... .. . ... : ... .. . ... : ... .. . ...
ROW 22 : ... .. . ... : ... .. . ... : ... .. . ... : ... .. . ... : ... .. . ...
ROW 23 : E-4 17 . ... : B-3 2F . ... : B-2 00 . ... : ... .. . ... : ... .. . ...
ROW 24 : F-4 17 . ... : C-4 2F . ... : C-3 00 . ... : ... .. . ... : ... .. . ...
ROW 25 : ... .. . ... : ... .. . ... : ... .. . ... : ... .. . ... : ... .. . ...
ROW 26 : F-4 17 . ... : A#3 2F . ... : --- .. . ... : ... .. . ... : ... .. . ...
ROW 27 : E-4 17 . ... : A-3 2F . ... : C-3 00 . ... : ... .. . ... : ... .. . ...
ROW 28 : ... .. . ... : ... .. . ... : ... .. . ... : ... .. . ... : ... .. . ...
ROW 29 : D-4 17 . ... : G-3 2F . ... : --- .. . ... : ... .. . ... : ... .. . ...
ROW 2A : C-4 17 . ... : F-3 2F . ... : C-3 00 . ... : ... .. . ... : ... .. . ...
ROW 2B : A#3 17 . ... : E-3 2F . ... : --- 3F . ... : ... .. . ... : ... .. . ...
ROW 2C : ... .. . ... : ... .. . ... : ... .. . ... : ... .. . ... : ... .. . ...
ROW 2D : A-3 17 . ... : D-3 2F . ... : A-2 00 . ... : ... .. . ... : ... .. . ...
ROW 2E : ... .. . ... : ... .. . ... : ... .. . ... : ... .. . ... : ... .. . ...
ROW 2F : G-3 17 . ... : C-3 2F . ... : G-2 00 . ... : ... .. . ... : ... .. . ...

PATTERN 05
ROW 00 : F-3 17 . 0CC : F-2 2F C 000 : F-2 00 . ... : 0-# 11 . J10 : ... .. . ...
ROW 01 : ... .. . ... : ... .. . ... : ... .. . ... : ... .. . ... : ... .. . ...
ROW 02 : G-3 17 . ... : F-3 2F . ... : ... .. . ... : ... .. . ... : ... .. . ...
ROW 03 : ... .. . ... : F-4 2F . ... : --- 37 . ... : D-# 14 . ... : ... .. . ...
ROW 04 : ... .. . ... : ... .. . ... : ... .. . ... : ... .. . ... : ... .. . ...
ROW 05 : A-3 17 . ... : F-3 2F . ... : ... .. . ... : ... .. . ... : ... .. . ...
ROW 06 : C-4 17 . ... : C-2 2F . ... : ... .. . ... : 1-# 16 . J15 : ... .. . ...
ROW 07 : ... .. . ... : ... .. . ... : ... .. . ... : ... .. . ... : ... .. . ...
ROW 08 : C-4 17 . ... : C-3 2F . ... : ... .. . ... : ... .. . ... : ... .. . ...
ROW 09 : A#3 17 . ... : C-4 2F . ... : ... .. . ... : D-# 14 . ... : ... .. . ...
ROW 0A : ... .. . ... : ... .. . ... : ... .. . ... : ... .. . ... : ... .. . ...
ROW 0B : ... .. . ... : C-3 2F . ... : A-1 00 . ... : ... .. . ... : ... .. . ...
ROW 0C : E-3 17 . ... : E-1 2F . ... : E-2 00 . ... : 0-# 11 . J10 : ... .. . ...
ROW 0D : ... .. . ... : ... .. . ... : ... .. . ... : ... .. . ... : ... .. . ...
ROW 0E : F-3 17 . ... : F-2 2F . ... : F-2 00 . ... : ... .. . ... : ... .. . ...
ROW 0F : ... .. . ... : F-3 2F . ... : --- .. . ... : D-# 14 . ... : ... .. . ...
ROW 10 : ... .. . ... : ... .. . ... : ... .. . ... : ... .. . ... : ... .. . ...
ROW 11 : F-3 17 . ... : F-2 2F . ... : ... .. . ... : ... .. . ... : ... .. . ...
ROW 12 : F-3 17 . ... : F-1 2F . ... : ... .. . ... : 1-# 16 . J15 : ... .. . ...
ROW 13 : ... .. . ... : ... .. . ... : ... .. . ... : ... .. . ... : ... .. . ...
ROW 14 : G-3 17 . ... : F-2 2F . ... : ... .. . ... : ... .. . ... : ... .. . ...
ROW 15 : F-3 17 . ... : F-3 2F . ... : C-2 00 . ... : D-# 14 . ... : ... .. . ...
ROW 16 : ... .. . ... : ... .. . ... : ... .. . ... : ... .. . ... : ... .. . ...
ROW 17 : ... .. . ... : F-2 2F . ... : ... .. . ... : 1-# 16 . J15 : ... .. . ...
ROW 18 : F-3 17 . ... : F-2 2F . ... : F-2 00 . ... : 0-# 11 . J10 : ... .. . ...
ROW 19 : ... .. . ... : ... .. . ... : ... .. . ... : ... .. . ... : ... .. . ...
ROW 1A : G-3 17 . ... : F-3 2F . ... : ... .. . ... : ... .. . ... : ... .. . ...
ROW 1B : ... .. . ... : F-4 2F . ... : --- 37 . ... : D-# 14 . ... : ... .. . ...
ROW 1C : ... .. . ... : ... .. . ... : ... .. . ... : ... .. . ... : ... .. . ...
ROW 1D : A-3 17 . ... : F-3 2F . ... : ... .. . ... : ... .. . ... : ... .. . ...
ROW 1E : C-4 17 . ... : C-2 2F . ... : ... .. . ... : 1-# 16 . J15 : ... .. . ...
ROW 1F : ... .. . ... : ... .. . ... : ... .. . ... : ... .. . ... : ... .. . ...
ROW 20 : C-4 17 . ... : C-3 2F . ... : ... .. . ... : ... .. . ... : ... .. . ...
ROW 21 : A#3 17 . ... : C-4 2F . ... : ... .. . ... : D-# 14 . ... : ... .. . ...
ROW 22 : ... .. . ... : ... .. . ... : ... .. . ... : ... .. . ... : ... .. . ...
ROW 23 : G-3 17 . ... : C-3 2F . ... : A-1 00 . ... : ... .. . ... : ... .. . ...
ROW 24 : E-3 17 . ... : E-2 2F . ... : E-2 00 . ... : 0-# 11 . J10 : ... .. . ...
ROW 25 : ... .. . ... : ... .. . ... : ... .. . ... : ... .. . ... : ... .. . ...
ROW 26 : E-3 17 . ... : E-3 2F . ... : C-2 00 . ... : ... .. . ... : ... .. . ...
ROW 27 : E-3 17 . ... : E-4 2F . ... : --- 00 . ... : D-# 14 . ... : ... .. . ...
ROW 28 : ... .. . ... : ... .. . ... : ... .. . ... : ... .. . ... : ... .. . ...
ROW 29 : E-3 17 . ... : E-3 2F . ... : ... .. . ... : ... .. . ... : ... .. . ...
ROW 2A : ... .. . ... : E-2 2F . ... : ... .. . ... : 1-# 16 . J15 : ... .. . ...
ROW 2B : ... .. . ... : ... .. . ... : ... .. . ... : ... .. . ... : ... .. . ...
ROW 2C : E-3 17 . ... : E-3 2F . ... : ... .. . ... : 1-# 16 . J15 : ... .. . ...
ROW 2D : F-3 17 . ... : F-4 2F . ... : ... .. . ... : 0-# 11 . J10 : ... .. . ...
ROW 2E : ... .. . ... : ... .. . ... : ... .. . ... : ... .. . ... : ... .. . ...
ROW 2F : ... .. . ... : C-4 2F . ... : ... .. . ... : 0-# 11 . J10 : ... .. . ...

PATTERN 06
ROW 00 : F-3 17 . 0CC : F-2 2F . ... : F-2 00 . ... : ... .. . ... : ... .. . ...
ROW 01 : ... .. . ... : ... .. . ... : ... .. . ... : ... .. . ... : ... .. . ...
ROW 02 : G-3 17 . ... : F-3 2F . ... : ... .. . ... : ... .. . ... : ... .. . ...
ROW 03 : ... .. . ... : F-4 2F . ... : ... .. . ... : ... .. . ... : ... .. . ...
ROW 04 : ... .. . ... : ... .. . ... : ... .. . ... : ... .. . ... : ... .. . ...
ROW 05 : A-3 17 . ... : F-3 2F . ... : ... .. . ... : ... .. . ... : ... .. . ...
ROW 06 : C-4 17 . ... : C-2 2F . ... : ... .. . ... : ... .. . ... : ... .. . ...
ROW 07 : ... .. . ... : ... .. . ... : ... .. . ... : ... .. . ... : ... .. . ...
ROW 08 : C-4 17 . ... : C-3 2F . ... : ... .. . ... : ... .. . ... : ... .. . ...
ROW 09 : A#3 17 . ... : C-4 2F . ... : ... .. . ... : ... .. . ... : ... .. . ...
ROW 0A : ... .. . ... : ... .. . ... : ... .. . ... : ... .. . ... : ... .. . ...
ROW 0B : ... .. . ... : C-3 2F . ... : ... .. . ... : ... .. . ... : ... .. . ...
ROW 0C : E-3 17 . ... : E-1 2F . ... : E-2 00 . ... : ... .. . ... : ... .. . ...
ROW 0D : ... .. . ... : ... .. . ... : ... .. . ... : ... .. . ... : ... .. . ...
ROW 0E : F-3 17 . ... : F-2 2F . ... : F-2 00 . ... : ... .. . ... : ... .. . ...
ROW 0F : ... .. . ... : F-3 2F . ... : ... .. . ... : ... .. . ... : ... .. . ...
ROW 10 : ... .. . ... : ... .. . ... : ... .. . ... : ... .. . ... : ... .. . ...
ROW 11 : F-3 17 . ... : F-2 2F . ... : ... .. . ... : ... .. . ... : ... .. . ...
ROW 12 : F-3 17 . ... : F-1 2F . ... : ... .. . ... : ... .. . ... : ... .. . ...
ROW 13 : ... .. . ... : ... .. . ... : ... .. . ... : ... .. . ... : ... .. . ...
ROW 14 : G-3 17 . ... : F-2 2F . ... : ... .. . ... : ... .. . ... : ... .. . ...
ROW 15 : F-3 17 . ... : F-3 2F . ... : C-3 00 . ... : ... .. . ... : ... .. . ...
ROW 16 : ... .. . ... : ... .. . ... : ... .. . ... : ... .. . ... : ... .. . ...
ROW 17 : ... .. . ... : F-2 2F . ... : ... .. . ... : ... .. . ... : ... .. . ...
ROW 18 : G-3 17 . ... : G-3 2F . ... : F-2 00 . ... : ... .. . ... : ... .. . ...
ROW 19 : ... .. . ... : ... .. . ... : ... .. . ... : ... .. . ... : ... .. . ...
ROW 1A : A-3 17 . ... : E-3 2F . ... : ... .. . ... : ... .. . ... : ... .. . ...
ROW 1B : ... .. . ... : C-3 2F . ... : ... .. . ... : ... .. . ... : ... .. . ...
ROW 1C : ... .. . ... : ... .. . ... : ... .. . ... : ... .. . ... : ... .. . ...
ROW 1D : A#3 17 . ... : F-3 2F . ... : ... .. . ... : ... .. . ... : ... .. . ...
ROW 1E : C-4 17 . ... : G-3 2F . ... : ... .. . ... : ... .. . ... : ... .. . ...
ROW 1F : ... .. . ... : ... .. . ... : ... .. . ... : ... .. . ... : ... .. . ...
ROW 20 : C-4 17 . ... : F-3 2F . ... : ... .. . ... : ... .. . ... : ... .. . ...
ROW 21 : A#3 17 . ... : G-3 2F . ... : ... .. . ... : ... .. . ... : ... .. . ...
ROW 22 : ... .. . ... : ... .. . ... : ... .. . ... : ... .. . ... : ... .. . ...
ROW 23 : E-4 17 . ... : B-3 2F . ... : ... .. . ... : ... .. . ... : ... .. . ...
ROW 24 : F-4 17 . ... : F-3 2F . ... : C-2 00 . ... : ... .. . ... : ... .. . ...
ROW 25 : ... .. . ... : ... .. . ... : ... .. . ... : ... .. . ... : ... .. . ...
ROW 26 : F-4 17 . ... : F-3 2F . ... : ... .. . ... : ... .. . ... : ... .. . ...
ROW 27 : F-4 17 . ... : F-3 2F . ... : ... .. . ... : ... .. . ... : ... .. . ...
ROW 28 : ... .. . ... : ... .. . ... : ... .. . ... : ... .. . ... : ... .. . ...
ROW 29 : F-4 17 . ... : F-3 2F . ... : ... .. . ... : ... .. . ... : ... .. . ...
ROW 2A : F-4 17 . ... : F-3 2F . ... : ... .. . ... : ... .. . ... : ... .. . ...
ROW 2B : ... .. . ... : ... .. . ... : ... .. . ... : ... .. . ... : ... .. . ...
ROW 2C : F-4 17 . ... : F-3 2F . ... : ... .. . ... : ... .. . ... : ... .. . ...
ROW 2D : F-4 17 . ... : F-3 2F . ... : ... .. . ... : ... .. . ... : ... .. . ...
ROW 2E : ... .. . ... : ... .. . ... : ... .. . ... : ... .. . ... : ... .. . ...
ROW 2F : ... .. . ... : ... .. . ... : ... .. . ... : ... .. . ... : ... .. . ...

PATTERN 07
ROW 00 : ... .. . ... : ... .. . ... : F-2 00 . ... : ... .. . ... : ... .. . ...
ROW 01 : ... .. . ... : ... .. . ... : ... .. . ... : ... .. . ... : ... .. . ...
ROW 02 : ... .. . ... : ... .. . ... : ... .. . ... : ... .. . ... : ... .. . ...
ROW 03 : ... .. . ... : ... .. . ... : ... .. . ... : ... .. . ... : ... .. . ...
ROW 04 : ... .. . ... : ... .. . ... : ... .. . ... : ... .. . ... : ... .. . ...
ROW 05 : ... .. . ... : ... .. . ... : ... .. . ... : ... .. . ... : ... .. . ...
ROW 06 : ... .. . ... : ... .. . ... : F-2 00 . ... : ... .. . ... : ... .. . ...
ROW 07 : ... .. . ... : ... .. . ... : ... .. . ... : ... .. . ... : ... .. . ...
ROW 08 : ... .. . ... : ... .. . ... : ... .. . ... : ... .. . ... : ... .. . ...
ROW 09 : ... .. . ... : ... .. . ... : ... .. . ... : ... .. . ... : ... .. . ...
ROW 0A : ... .. . ... : ... .. . ... : ... .. . ... : ... .. . ... : ... .. . ...
ROW 0B : ... .. . ... : ... .. . ... : ... .. . ... : ... .. . ... : ... .. . ...
ROW 0C : ... .. . ... : ... .. . ... : E-2 00 . ... : ... .. . ... : ... .. . ...
ROW 0D : ... .. . ... : ... .. . ... : ... .. . ... : ... .. . ... : ... .. . ...
ROW 0E : ... .. . ... : ... .. . ... : F-2 00 . ... : ... .. . ... : ... .. . ...
ROW 0F : ... .. . ... : ... .. . ... : ... .. . ... : ... .. . ... : ... .. . ...
ROW 10 : ... .. . ... : ... .. . ... : ... .. . ... : ... .. . ... : ... .. . ...
ROW 11 : ... .. . ... : ... .. . ... : ... .. . ... : ... .. . ... : ... .. . ...
ROW 12 : ... .. . ... : ... .. . ... : F-2 00 . ... : ... .. . ... : ... .. . ...
ROW 13 : ... .. . ... : ... .. . ... : ... .. . ... : ... .. . ... : ... .. . ...
ROW 14 : ... .. . ... : ... .. . ... : ... .. . ... : ... .. . ... : ... .. . ...
ROW 15 : ... .. . ... : ... .. . ... : C-3 00 . ... : ... .. . ... : ... .. . ...
ROW 16 : ... .. . ... : ... .. . ... : ... .. . ... : ... .. . ... : ... .. . ...
ROW 17 : ... .. . ... : ... .. . ... : ... .. . ... : ... .. . ... : ... .. . ...
ROW 18 : ... .. . ... : ... .. . ... : G-2 00 . ... : ... .. . ... : ... .. . ...
ROW 19 : ... .. . ... : ... .. . ... : ... .. . ... : ... .. . ... : ... .. . ...
ROW 1A : ... .. . ... : ... .. . ... : ... .. . ... : ... .. . ... : ... .. . ...
ROW 1B : ... .. . ... : ... .. . ... : ... .. . ... : ... .. . ... : ... .. . ...
ROW 1C : ... .. . ... : ... .. . ... : ... .. . ... : ... .. . ... : ... .. . ...
ROW 1D : ... .. . ... : ... .. . ... : ... .. . ... : ... .. . ... : ... .. . ...
ROW 1E : ... .. . ... : ... .. . ... : G-2 00 . ... : ... .. . ... : ... .. . ...
ROW 1F : ... .. . ... : ... .. . ... : ... .. . ... : ... .. . ... : ... .. . ...
ROW 20 : ... .. . ... : ... .. . ... : ... .. . ... : ... .. . ... : ... .. . ...
ROW 21 : ... .. . ... : ... .. . ... : ... .. . ... : ... .. . ... : ... .. . ...
ROW 22 : ... .. . ... : ... .. . ... : ... .. . ... : ... .. . ... : ... .. . ...
ROW 23 : ... .. . ... : ... .. . ... : ... .. . ... : ... .. . ... : ... .. . ...
ROW 24 : ... .. . ... : ... .. . ... : F-3 00 . ... : ... .. . ... : ... .. . ...
ROW 25 : ... .. . ... : ... .. . ... : ... .. . ... : ... .. . ... : ... .. . ...
ROW 26 : ... .. . ... : ... .. . ... : F-2 00 . ... : ... .. . ... : ... .. . ...
ROW 27 : ... .. . ... : ... .. . ... : F-3 00 . ... : ... .. . ... : ... .. . ...
ROW 28 : ... .. . ... : ... .. . ... : ... .. . ... : ... .. . ... : ... .. . ...
ROW 29 : ... .. . ... : ... .. . ... : F-2 00 . ... : ... .. . ... : ... .. . ...
ROW 2A : ... .. . ... : ... .. . ... : F-3 00 . ... : ... .. . ... : ... .. . ...
ROW 2B : ... .. . ... : ... .. . ... : ... .. . ... : ... .. . ... : ... .. . ...
ROW 2C : ... .. . ... : ... .. . ... : F-2 00 . ... : ... .. . ... : ... .. . ...
ROW 2D : ... .. . ... : ... .. . ... : F-3 00 . ... : ... .. . ... : ... .. . ...
ROW 2E : ... .. . ... : ... .. . ... : ... .. . ... : ... .. . ... : ... .. . ...
ROW 2F : ... .. . ... : ... .. . ... : F-2 00 . ... : ... .. . ... : ... .. . ...

TRACK  64   8 150 "World 3"
COLUMNS : 1 1 1 1 2

ORDER 00 : 00 00 00 00 00
ORDER 01 : 01 01 01 00 00
ORDER 02 : 01 02 02 00 00
ORDER 03 : 02 03 03 03 00
ORDER 04 : 03 04 04 03 00
ORDER 05 : 04 05 05 05 00
ORDER 06 : 04 06 06 06 00

PATTERN 00
ROW 00 : E-1 1A . 451 : --- .. . ... : --- .. . ... : 0-# 1D . ... : ... .. . ... ...
ROW 01 : ... .. . ... : ... .. . ... : ... .. . ... : ... .. . ... : ... .. . ... ...
ROW 02 : ... .. . ... : ... .. . ... : ... .. . ... : D-# 14 . ... : ... .. . ... ...
ROW 03 : ... .. . ... : ... .. . ... : ... .. . ... : ... .. . ... : ... .. . ... ...
ROW 04 : E-1 1A . ... : ... .. . ... : ... .. . ... : 0-# 1D . ... : ... .. . ... ...
ROW 05 : ... .. . ... : ... .. . ... : ... .. . ... : ... .. . ... : ... .. . ... ...
ROW 06 : E-2 1A . ... : ... .. . ... : ... .. . ... : 0-# 1D . ... : ... .. . ... ...
ROW 07 : ... .. . ... : ... .. . ... : ... .. . ... : ... .. . ... : ... .. . ... ...
ROW 08 : E-1 1A . ... : ... .. . ... : ... .. . ... : D-# 14 . ... : ... .. . ... ...
ROW 09 : ... .. . ... : ... .. . ... : ... .. . ... : ... .. . ... : ... .. . ... ...
ROW 0A : ... .. . ... : ... .. . ... : ... .. . ... : 0-# 1D . ... : ... .. . ... ...
ROW 0B : ... .. . ... : ... .. . ... : ... .. . ... : ... .. . ... : ... .. . ... ...
ROW 0C : E-1 1A . ... : ... .. . ... : ... .. . ... : 1-# 1E . ... : ... .. . ... ...
ROW 0D : ... .. . ... : ... .. . ... : ... .. . ... : ... .. . ... : ... .. . ... ...
ROW 0E : ... .. . ... : ... .. . ... : ... .. . ... : ... .. . ... : ... .. . ... ...
ROW 0F : ... .. . ... : ... .. . ... : ... .. . ... : ... .. . ... : ... .. . ... ...
ROW 10 : E-1 1A . ... : ... .. . ... : ... .. . ... : 0-# 1D . ... : ... .. . ... ...
ROW 11 : ... .. . ... : ... .. . ... : ... .. . ... : ... .. . ... : ... .. . ... ...
ROW 12 : ... .. . ... : ... .. . ... : ... .. . ... : D-# 14 . ... : ... .. . ... ...
ROW 13 : ... .. . ... : ... .. . ... : ... .. . ... : ... .. . ... : ... .. . ... ...
ROW 14 : E-1 1A . ... : ... .. . ... : ... .. . ... : 0-# 1D . ... : ... .. . ... ...
ROW 15 : ... .. . ... : ... .. . ... : ... .. . ... : ... .. . ... : ... .. . ... ...
ROW 16 : E-2 1A . ... : ... .. . ... : ... .. . ... : 0-# 1D . ... : ... .. . ... ...
ROW 17 : ... .. . ... : ... .. . ... : ... .. . ... : ... .. . ... : ... .. . ... ...
ROW 18 : E-1 1A . ... : ... .. . ... : ... .. . ... : D-# 14 . ... : ... .. . ... ...
ROW 19 : ... .. . ... : ... .. . ... : ... .. . ... : ... .. . ... : ... .. . ... ...
ROW 1A : E-2 1A . ... : ... .. . ... : ... .. . ... : 0-# 1D . ... : ... .. . ... ...
ROW 1B : ... .. . ... : ... .. . ... : ... .. . ... : ... .. . ... : ... .. . ... ...
ROW 1C : E-1 1A . ... : ... .. . ... : ... .. . ... : 1-# 1E . ... : ... .. . ... ...
ROW 1D : ... .. . ... : ... .. . ... : ... .. . ... : ... .. . ... : ... .. . ... ...
ROW 1E : B-1 1A . ... : ... .. . ... : ... .. . ... : 0-# 1D . ... : ... .. . ... ...
ROW 1F : ... .. . ... : ... .. . ... : ... .. . ... : ... .. . ... : ... .. . ... ...
ROW 20 : E-1 1A . ... : ... .. . ... : ... .. . ... : 0-# 1D . ... : ... .. . ... ...
ROW 21 : ... .. . ... : ... .. . ... : ... .. . ... : ... .. . ... : ... .. . ... ...
ROW 22 : ... .. . ... : ... .. . ... : ... .. . ... : D-# 14 . ... : ... .. . ... ...
ROW 23 : ... .. . ... : ... .. . ... : ... .. . ... : ... .. . ... : ... .. . ... ...
ROW 24 : E-1 1A . ... : ... .. . ... : ... .. . ... : 0-# 1D . ... : ... .. . ... ...
ROW 25 : ... .. . ... : ... .. . ... : ... .. . ... : ... .. . ... : ... .. . ... ...
ROW 26 : E-2 1A . ... : ... .. . ... : ... .. . ... : 0-# 1D . ... : ... .. . ... ...
ROW 27 : ... .. . ... : ... .. . ... : ... .. . ... : ... .. . ... : ... .. . ... ...
ROW 28 : E-1 1A . ... : ... .. . ... : ... .. . ... : D-# 14 . ... : ... .. . ... ...
ROW 29 : ... .. . ... : ... .. . ... : ... .. . ... : ... .. . ... : ... .. . ... ...
ROW 2A : ... .. . ... : ... .. . ... : ... .. . ... : 0-# 1D . ... : ... .. . ... ...
ROW 2B : ... .. . ... : ... .. . ... : ... .. . ... : ... .. . ... : ... .. . ... ...
ROW 2C : E-1 1A . ... : ... .. . ... : ... .. . ... : 1-# 1E . ... : ... .. . ... ...
ROW 2D : ... .. . ... : ... .. . ... : ... .. . ... : ... .. . ... : ... .. . ... ...
ROW 2E : ... .. . ... : ... .. . ... : ... .. . ... : ... .. . ... : ... .. . ... ...
ROW 2F : ... .. . ... : ... .. . ... : ... .. . ... : ... .. . ... : ... .. . ... ...
ROW 30 : E-1 1A . ... : ... .. . ... : ... .. . ... : 0-# 1D . ... : ... .. . ... ...
ROW 31 : ... .. . ... : ... .. . ... : ... .. . ... : ... .. . ... : ... .. . ... ...
ROW 32 : ... .. . ... : ... .. . ... : ... .. . ... : D-# 14 . ... : ... .. . ... ...
ROW 33 : ... .. . ... : ... .. . ... : ... .. . ... : ... .. . ... : ... .. . ... ...
ROW 34 : E-1 1A . ... : ... .. . ... : ... .. . ... : 0-# 1D . ... : ... .. . ... ...
ROW 35 : ... .. . ... : ... .. . ... : ... .. . ... : ... .. . ... : ... .. . ... ...
ROW 36 : E-2 1A . ... : ... .. . ... : ... .. . ... : 0-# 1D . ... : ... .. . ... ...
ROW 37 : ... .. . ... : ... .. . ... : ... .. . ... : ... .. . ... : ... .. . ... ...
ROW 38 : E-1 1A . ... : ... .. . ... : ... .. . ... : D-# 14 . ... : ... .. . ... ...
ROW 39 : ... .. . ... : ... .. . ... : ... .. . ... : ... .. . ... : ... .. . ... ...
ROW 3A : E-2 1A . ... : ... .. . ... : ... .. . ... : 0-# 1D . ... : ... .. . ... ...
ROW 3B : ... .. . ... : ... .. . ... : ... .. . ... : ... .. . ... : ... .. . ... ...
ROW 3C : A-1 1A . ... : ... .. . ... : ... .. . ... : 1-# 1E . ... : ... .. . ... ...
ROW 3D : ... .. . ... : ... .. . ... : ... .. . ... : ... .. . ... : ... .. . ... ...
ROW 3E : B-1 1A . ... : ... .. . ... : ... .. . ... : 2-# 1F . ... : ... .. . ... ...
ROW 3F : ... .. . ... : ... .. . ... : ... .. . ... : ... .. . ... : ... .. . ... ...

PATTERN 01
ROW 00 : E-1 1A . ... : --- .. . ... : E-4 00 . ... : ... .. . ... : ... .. . ... ...
ROW 01 : ... .. . ... : ... .. . ... : --- .. . ... : ... .. . ... : ... .. . ... ...
ROW 02 : ... .. . ... : E-3 0E F ... : B-4 00 . ... : ... .. . ... : ... .. . ... ...
ROW 03 : ... .. . ... : --- .. . ... : --- .. . ... : ... .. . ... : ... .. . ... ...
ROW 04 : E-1 1A . ... : B-3 0E . ... : G-4 00 . ... : ... .. . ... : ... .. . ... ...
ROW 05 : ... .. . ... : --- .. . ... : --- .. . ... : ... .. . ... : ... .. . ... ...
ROW 06 : E-2 1A . ... : G-3 0E . ... : A-4 00 . ... : ... .. . ... : ... .. . ... ...
ROW 07 : ... .. . ... : --- .. . ... : --- .. . ... : ... .. . ... : ... .. . ... ...
ROW 08 : E-1 1A . ... : A-3 0E . ... : E-4 00 . ... : ... .. . ... : ... .. . ... ...
ROW 09 : ... .. . ... : --- .. . ... : --- .. . ... : ... .. . ... : ... .. . ... ...
ROW 0A : ... .. . ... : E-3 0E . ... : G-4 00 . ... : ... .. . ... : ... .. . ... ...
ROW 0B : ... .. . ... : --- .. . ... : --- .. . ... : ... .. . ... : ... .. . ... ...
ROW 0C : E-1 1A . ... : G-3 0E . ... : E-4 00 . ... : ... .. . ... : ... .. . ... ...
ROW 0D : ... .. . ... : --- .. . ... : --- .. . ... : ... .. . ... : ... .. . ... ...
ROW 0E : ... .. . ... : E-3 0E . ... : D-4 00 . ... : ... .. . ... : ... .. . ... ...
ROW 0F : ... .. . ... : --- .. . ... : --- .. . ... : ... .. . ... : ... .. . ... ...
ROW 10 : E-1 1A . ... : D-3 0E . ... : E-4 00 . ... : ... .. . ... : ... .. . ... ...
ROW 11 : ... .. . ... : --- .. . ... : --- .. . ... : ... .. . ... : ... .. . ... ...
ROW 12 : ... .. . ... : E-3 0E . ... : ... .. . ... : ... .. . ... : ... .. . ... ...
ROW 13 : ... .. . ... : --- .. . ... : ... .. . ... : ... .. . ... : ... .. . ... ...
ROW 14 : E-1 1A . ... : ... .. . ... : ... .. . ... : ... .. . ... : ... .. . ... ...
ROW 15 : ... .. . ... : ... .. . ... : ... .. . ... : ... .. . ... : ... .. . ... ...
ROW 16 : E-2 1A . ... : ... .. . ... : ... .. . ... : ... .. . ... : ... .. . ... ...
ROW 17 : ... .. . ... : ... .. . ... : ... .. . ... : ... .. . ... : ... .. . ... ...
ROW 18 : E-1 1A . ... : ... .. . ... : ... .. . ... : ... .. . ... : ... .. . ... ...
ROW 19 : ... .. . ... : ... .. . ... : ... .. . ... : ... .. . ... : ... .. . ... ...
ROW 1A : E-2 1A . ... : ... .. . ... : ... .. . ... : ... .. . ... : ... .. . ... ...
ROW 1B : ... .. . ... : ... .. . ... : ... .. . ... : ... .. . ... : ... .. . ... ...
ROW 1C : A-1 1A . ... : ... .. . ... : ... .. . ... : ... .. . ... : ... .. . ... ...
ROW 1D : ... .. . ... : ... .. . ... : ... .. . ... : ... .. . ... : ... .. . ... ...
ROW 1E : B-1 1A . ... : ... .. . ... : ... .. . ... : ... .. . ... : ... .. . ... ...
ROW 1F : ... .. . ... : ... .. . ... : ... .. . ... : ... .. . ... : ... .. . ... ...
ROW 20 : E-1 1A . ... : ... .. . ... : E-4 00 . ... : ... .. . ... : ... .. . ... ...
ROW 21 : ... .. . ... : ... .. . ... : --- .. . ... : ... .. . ... : ... .. . ... ...
ROW 22 : ... .. . ... : E-3 0E . ... : B-4 00 . ... : ... .. . ... : ... .. . ... ...
ROW 23 : ... .. . ... : --- .. . ... : --- .. . ... : ... .. . ... : ... .. . ... ...
ROW 24 : E-1 1A . ... : B-3 0E . ... : G-4 00 . ... : ... .. . ... : ... .. . ... ...
ROW 25 : ... .. . ... : --- .. . ... : --- .. . ... : ... .. . ... : ... .. . ... ...
ROW 26 : E-2 1A . ... : G-3 0E . ... : A-4 00 . ... : ... .. . ... : ... .. . ... ...
ROW 27 : ... .. . ... : --- .. . ... : --- .. . ... : ... .. . ... : ... .. . ... ...
ROW 28 : E-1 1A . ... : A-3 0E . ... : E-4 00 . ... : ... .. . ... : ... .. . ... ...
ROW 29 : ... .. . ... : --- .. . ... : --- .. . ... : ... .. . ... : ... .. . ... ...
ROW 2A : ... .. . ... : E-3 0E . ... : D-4 00 . ... : ... .. . ... : ... .. . ... ...
ROW 2B : ... .. . ... : --- .. . ... : --- .. . ... : ... .. . ... : ... .. . ... ...
ROW 2C : E-1 1A . ... : D-3 0E . ... : E-4 0E . ... : ... .. . ... : ... .. . ... ...
ROW 2D : ... .. . ... : --- .. . ... : --- .. . ... : ... .. . ... : ... .. . ... ...
ROW 2E : ... .. . ... : E-3 0E . ... : G-4 0E . ... : ... .. . ... : ... .. . ... ...
ROW 2F : ... .. . ... : --- .. . ... : --- .. . ... : ... .. . ... : ... .. . ... ...
ROW 30 : A-1 1A . ... : G-3 0E . ... : A-4 00 . ... : ... .. . ... : ... .. . ... ...
ROW 31 : ... .. . ... : --- .. . ... : --- .. . ... : ... .. . ... : ... .. . ... ...
ROW 32 : ... .. . ... : A-3 0E . ... : ... .. . ... : ... .. . ... : ... .. . ... ...
ROW 33 : ... .. . ... : --- .. . ... : ... .. . ... : ... .. . ... : ... .. . ... ...
ROW 34 : A-1 1A . ... : ... .. . ... : ... .. . ... : ... .. . ... : ... .. . ... ...
ROW 35 : ... .. . ... : ... .. . ... : ... .. . ... : ... .. . ... : ... .. . ... ...
ROW 36 : A-2 1A . ... : ... .. . ... : ... .. . ... : ... .. . ... : ... .. . ... ...
ROW 37 : ... .. . ... : ... .. . ... : ... .. . ... : ... .. . ... : ... .. . ... ...
ROW 38 : A-1 1A . ... : ... .. . ... : ... .. . ... : ... .. . ... : ... .. . ... ...
ROW 39 : ... .. . ... : ... .. . ... : ... .. . ... : ... .. . ... : ... .. . ... ...
ROW 3A : A-2 1A . ... : ... .. . ... : ... .. . ... : ... .. . ... : ... .. . ... ...
ROW 3B : ... .. . ... : ... .. . ... : ... .. . ... : ... .. . ... : ... .. . ... ...
ROW 3C : A-1 1A . ... : ... .. . ... : ... .. . ... : ... .. . ... : ... .. . ... ...
ROW 3D : ... .. . ... : ... .. . ... : ... .. . ... : ... .. . ... : ... .. . ... ...
ROW 3E : G-1 1A . ... : ... .. . ... : ... .. . ... : ... .. . ... : ... .. . ... ...
ROW 3F : ... .. . ... : ... .. . ... : ... .. . ... : ... .. . ... : ... .. . ... ...

PATTERN 02
ROW 00 : E-1 1A . ... : --- .. . ... : E-4 00 . ... : ... .. . ... : ... .. . ... ...
ROW 01 : ... .. . ... : ... .. . ... : --- .. . ... : ... .. . ... : ... .. . ... ...
ROW 02 : ... .. . ... : E-3 0E F ... : B-4 00 . ... : ... .. . ... : ... .. . ... ...
ROW 03 : ... .. . ... : --- .. . ... : --- .. . ... : ... .. . ... : ... .. . ... ...
ROW 04 : E-1 1A . ... : B-3 0E . ... : G-4 00 . ... : ... .. . ... : ... .. . ... ...
ROW 05 : ... .. . ... : --- .. . ... : --- .. . ... : ... .. . ... : ... .. . ... ...
ROW 06 : E-2 1A . ... : G-3 0E . ... : A-4 00 . ... : ... .. . ... : ... .. . ... ...
ROW 07 : ... .. . ... : --- .. . ... : --- .. . ... : ... .. . ... : ... .. . ... ...
ROW 08 : E-1 1A . ... : A-3 0E . ... : E-4 00 . ... : ... .. . ... : ... .. . ... ...
ROW 09 : ... .. . ... : --- .. . ... : --- .. . ... : ... .. . ... : ... .. . ... ...
ROW 0A : ... .. . ... : E-3 0E . ... : G-4 00 . ... : ... .. . ... : ... .. . ... ...
ROW 0B : ... .. . ... : --- .. . ... : --- .. . ... : ... .. . ... : ... .. . ... ...
ROW 0C : E-1 1A . ... : G-3 0E . ... : E-4 00 . ... : ... .. . ... : ... .. . ... ...
ROW 0D : ... .. . ... : --- .. . ... : --- .. . ... : ... .. . ... : ... .. . ... ...
ROW 0E : ... .. . ... : E-3 0E . ... : D-4 00 . ... : ... .. . ... : ... .. . ... ...
ROW 0F : ... .. . ... : --- .. . ... : --- .. . ... : ... .. . ... : ... .. . ... ...
ROW 10 : D-1 1A . ... : D-3 0E . ... : E-4 00 . ... : ... .. . ... : ... .. . ... ...
ROW 11 : ... .. . ... : --- .. . ... : --- .. . ... : ... .. . ... : ... .. . ... ...
ROW 12 : ... .. . ... : E-3 0E . ... : ... .. . ... : ... .. . ... : ... .. . ... ...
ROW 13 : ... .. . ... : --- .. . ... : ... .. . ... : ... .. . ... : ... .. . ... ...
ROW 14 : D-1 1A . ... : ... .. . ... : ... .. . ... : ... .. . ... : ... .. . ... ...
ROW 15 : ... .. . ... : ... .. . ... : ... .. . ... : ... .. . ... : ... .. . ... ...
ROW 16 : D-2 1A . ... : ... .. . ... : ... .. . ... : ... .. . ... : ... .. . ... ...
ROW 17 : ... .. . ... : ... .. . ... : ... .. . ... : ... .. . ... : ... .. . ... ...
ROW 18 : E-1 1A . ... : ... .. . ... : ... .. . ... : ... .. . ... : ... .. . ... ...
ROW 19 : ... .. . ... : ... .. . ... : ... .. . ... : ... .. . ... : ... .. . ... ...
ROW 1A : E-2 1A . ... : ... .. . ... : ... .. . ... : ... .. . ... : ... .. . ... ...
ROW 1B : ... .. . ... : ... .. . ... : ... .. . ... : ... .. . ... : ... .. . ... ...
ROW 1C : A-1 1A . ... : ... .. . ... : ... .. . ... : ... .. . ... : ... .. . ... ...
ROW 1D : ... .. . ... : ... .. . ... : ... .. . ... : ... .. . ... : ... .. . ... ...
ROW 1E : B-1 1A . ... : ... .. . ... : ... .. . ... : ... .. . ... : ... .. . ... ...
ROW 1F : ... .. . ... : ... .. . ... : ... .. . ... : ... .. . ... : ... .. . ... ...
ROW 20 : E-1 1A . ... : ... .. . ... : E-4 00 . ... : ... .. . ... : ... .. . ... ...
ROW 21 : ... .. . ... : ... .. . ... : --- .. . ... : ... .. . ... : ... .. . ... ...
ROW 22 : ... .. . ... : E-3 0E . ... : B-4 00 . ... : ... .. . ... : ... .. . ... ...
ROW 23 : ... .. . ... : --- .. . ... : --- .. . ... : ... .. . ... : ... .. . ... ...
ROW 24 : E-1 1A . ... : B-3 0E . ... : G-4 00 . ... : ... .. . ... : ... .. . ... ...
ROW 25 : ... .. . ... : --- .. . ... : --- .. . ... : ... .. . ... : ... .. . ... ...
ROW 26 : E-2 1A . ... : G-3 0E . ... : E-4 00 . ... : ... .. . ... : ... .. . ... ...
ROW 27 : ... .. . ... : --- .. . ... : --- .. . ... : ... .. . ... : ... .. . ... ...
ROW 28 : E-1 1A . ... : E-3 0E . ... : G-4 00 . ... : ... .. . ... : ... .. . ... ...
ROW 29 : ... .. . ... : --- .. . ... : --- .. . ... : ... .. . ... : ... .. . ... ...
ROW 2A : ... .. . ... : G-3 0E . ... : A-4 00 . ... : ... .. . ... : ... .. . ... ...
ROW 2B : ... .. . ... : --- .. . ... : --- .. . ... : ... .. . ... : ... .. . ... ...
ROW 2C : E-1 1A . ... : A-3 0E . ... : B-4 00 . ... : ... .. . ... : ... .. . ... ...
ROW 2D : ... .. . ... : --- .. . ... : --- .. . ... : ... .. . ... : ... .. . ... ...
ROW 2E : ... .. . ... : B-3 0E . ... : G-4 00 . ... : ... .. . ... : ... .. . ... ...
ROW 2F : ... .. . ... : --- .. . ... : --- .. . ... : ... .. . ... : ... .. . ... ...
ROW 30 : D-1 1A . ... : G-3 0E . ... : E-5 00 . ... : ... .. . ... : ... .. . ... ...
ROW 31 : ... .. . ... : --- .. . ... : --- .. . ... : ... .. . ... : ... .. . ... ...
ROW 32 : ... .. . ... : E-4 0E . ... : G-4 00 . ... : ... .. . ... : ... .. . ... ...
ROW 33 : ... .. . ... : --- .. . ... : --- .. . ... : ... .. . ... : ... .. . ... ...
ROW 34 : D-1 1A . ... : G-3 0E . ... : B-4 00 . ... : ... .. . ... : ... .. . ... ...
ROW 35 : ... .. . ... : --- .. . ... : --- .. . ... : ... .. . ... : ... .. . ... ...
ROW 36 : D-2 1A . ... : C-4 0E . ... : G-4 00 . ... : ... .. . ... : ... .. . ... ...
ROW 37 : ... .. . ... : --- .. . ... : --- .. . ... : ... .. . ... : ... .. . ... ...
ROW 38 : E-1 1A . ... : G-3 0E . ... : A-4 00 . ... : ... .. . ... : ... .. . ... ...
ROW 39 : ... .. . ... : --- .. . ... : --- .. . ... : ... .. . ... : ... .. . ... ...
ROW 3A : E-2 1A . ... : A-3 0E . ... : E-4 00 . ... : ... .. . ... : ... .. . ... ...
ROW 3B : ... .. . ... : --- .. . ... : --- .. . ... : ... .. . ... : ... .. . ... ...
ROW 3C : A-1 1A . ... : E-3 0E . ... : G-4 00 . ... : ... .. . ... : ... .. . ... ...
ROW 3D : ... .. . ... : --- .. . ... : --- .. . ... : ... .. . ... : ... .. . ... ...
ROW 3E : B-1 1A . ... : G-3 0E . ... : A-4 00 . ... : ... .. . ... : ... .. . ... ...
ROW 3F : ... .. . ... : --- .. . ... : --- .. . ... : ... .. . ... : ... .. . ... ...

PATTERN 03
ROW 00 : E-1 1A . ... : E-4 1C F ... : E-4 00 . 451 : 0-# 11 . J10 : ... .. . ... ...
ROW 01 : ... .. . ... : ... .. . ... : ... .. . ... : ... .. . ... : ... .. . ... ...
ROW 02 : ... .. . ... : E-4 1C 6 ... : ... .. . ... : D-# 14 . ... : ... .. . ... ...
ROW 03 : ... .. . ... : D-4 1C F ... : ... .. . ... : ... .. . ... : ... .. . ... ...
ROW 04 : E-1 1A . ... : ... .. . ... : ... .. . ... : E-# 13 . ... : ... .. . ... ...
ROW 05 : ... .. . ... : D-4 1C 6 ... : ... .. . ... : E-# 13 . ... : ... .. . ... ...
ROW 06 : E-2 1A . ... : E-4 1C F ... : ... .. . ... : E-# 14 . ... : ... .. . ... ...
ROW 07 : ... .. . ... : ... .. . ... : ... .. . ... : ... .. . ... : ... .. . ... ...
ROW 08 : E-1 1A . ... : E-4 1C 6 ... : E-4 00 . ... : 0-# 11 . J10 : ... .. . ... ...
ROW 09 : ... .. . ... : ... .. . ... : ... .. . ... : ... .. . ... : ... .. . ... ...
ROW 0A : ... .. . ... : D-4 1C F ... : ... .. . ... : E-# 13 . ... : ... .. . ... ...
ROW 0B : ... .. . ... : ... .. . ... : ... .. . ... : E-# 13 . ... : ... .. . ... ...
ROW 0C : E-1 1A . ... : E-4 1C F ... : E-4 00 . ... : 1-# 16 . J15 : ... .. . ... ...
ROW 0D : ... .. . ... : E-4 1C 6 ... : ... .. . ... : ... .. . ... : ... .. . ... ...
ROW 0E : ... .. . ... : D-4 1C F ... : ... .. . ... : 2-# 1F . ... : ... .. . ... ...
ROW 0F : ... .. . ... : D-4 1C 6 ... : ... .. . ... : ... .. . ... : ... .. . ... ...
ROW 10 : D-1 1A . ... : A-3 1C F ... : D-4 00 . ... : 0-# 11 . J10 : ... .. . ... ...
ROW 11 : ... .. . ... : ... .. . ... : ... .. . ... : ... .. . ... : ... .. . ... ...
ROW 12 : ... .. . ... : A-3 1C 6 ... : ... .. . ... : D-# 14 . ... : ... .. . ... ...
ROW 13 : ... .. . ... : A-3 1C F ... : --- .. . ... : ... .. . ... : ... .. . ... ...
ROW 14 : D-1 1A . ... : ... .. . ... : D-4 00 . ... : E-# 13 . ... : ... .. . ... ...
ROW 15 : ... .. . ... : A-3 1C 6 ... : --- .. . ... : E-# 13 . ... : ... .. . ... ...
ROW 16 : D-2 1A . ... : B-3 1C F ... : E-4 00 . ... : E-# 14 . ... : ... .. . ... ...
ROW 17 : ... .. . ... : ... .. . ... : ... .. . ... : ... .. . ... : ... .. . ... ...
ROW 18 : E-1 1A . ... : B-3 1C 6 ... : E-4 00 . ... : 0-# 11 . J10 : ... .. . ... ...
ROW 19 : ... .. . ... : ... .. . ... : ... .. . ... : ... .. . ... : ... .. . ... ...
ROW 1A : E-2 1A . ... : D-4 1C F ... : ... .. . ... : 1-# 1E . ... : ... .. . ... ...
ROW 1B : ... .. . ... : ... .. . ... : ... .. . ... : ... .. . ... : ... .. . ... ...
ROW 1C : A-1 1A . ... : D-4 1C 6 ... : E-4 00 . ... : 1-# 16 . J15 : ... .. . ... ...
ROW 1D : ... .. . ... : ... .. . ... : ... .. . ... : ... .. . ... : ... .. . ... ...
ROW 1E : B-1 1A . ... : ... .. . ... : --- 15 . ... : 1-# 16 . J15 : ... .. . ... ...
ROW 1F : ... .. . ... : ... .. . ... : ... .. . ... : ... .. . ... : ... .. . ... ...
ROW 20 : B-0 1A . ... : E-4 1C F ... : E-4 00 . ... : 0-# 11 . J10 : ... .. . ... ...
ROW 21 : ... .. . ... : ... .. . ... : ... .. . ... : ... .. . ... : ... .. . ... ...
ROW 22 : ... .. . ... : E-4 1C 6 ... : ... .. . ... : D-# 14 . ... : ... .. . ... ...
ROW 23 : ... .. . ... : D-4 1C F ... : ... .. . ... : ... .. . ... : ... .. . ... ...
ROW 24 : B-0 1A . ... : ... .. . ... : ... .. . ... : E-# 13 . ... : ... .. . ... ...
ROW 25 : ... .. . ... : D-4 1C 6 ... : ... .. . ... : E-# 13 . ... : ... .. . ... ...
ROW 26 : B-1 1A . ... : E-4 1C F ... : ... .. . ... : E-# 14 . ... : ... .. . ... ...
ROW 27 : ... .. . ... : ... .. . ... : ... .. . ... : ... .. . ... : ... .. . ... ...
ROW 28 : B-0 1A . ... : E-4 1C 6 ... : E-4 00 . ... : 0-# 11 . J10 : ... .. . ... ...
ROW 29 : ... .. . ... : ... .. . ... : ... .. . ... : ... .. . ... : ... .. . ... ...
ROW 2A : ... .. . ... : D-4 1C F ... : ... .. . ... : E-# 13 . ... : ... .. . ... ...
ROW 2B : ... .. . ... : ... .. . ... : ... .. . ... : E-# 13 . ... : ... .. . ... ...
ROW 2C : B-0 1A . ... : E-4 1C F ... : E-4 00 . ... : 1-# 16 . J15 : ... .. . ... ...
ROW 2D : ... .. . ... : E-4 1C 6 ... : ... .. . ... : ... .. . ... : ... .. . ... ...
ROW 2E : ... .. . ... : D-4 1C F ... : --- .. . ... : 0-# 1D . ... : ... .. . ... ...
ROW 2F : ... .. . ... : D-4 1C 6 ... : ... .. . ... : ... .. . ... : ... .. . ... ...
ROW 30 : C-1 1A . ... : E-4 1C F ... : D-4 00 . ... : 0-# 11 . J10 : ... .. . ... ...
ROW 31 : ... .. . ... : E-4 1C 6 ... : ... .. . ... : ... .. . ... : ... .. . ... ...
ROW 32 : ... .. . ... : D-4 1C F ... : ... .. . ... : D-# 14 . ... : ... .. . ... ...
ROW 33 : ... .. . ... : D-4 1C 6 ... : --- .. . ... : ... .. . ... : ... .. . ... ...
ROW 34 : E-1 1A . ... : E-4 1C F ... : D-4 00 . ... : E-# 13 . ... : ... .. . ... ...
ROW 35 : ... .. . ... : E-4 1C 6 ... : --- .. . ... : E-# 13 . ... : ... .. . ... ...
ROW 36 : G-1 1A . ... : D-4 1C F ... : B-3 00 . ... : E-# 14 . ... : ... .. . ... ...
ROW 37 : ... .. . ... : D-4 1C 6 ... : ... .. . ... : ... .. . ... : ... .. . ... ...
ROW 38 : A-1 1A . ... : B-3 1C F ... : B-3 00 . ... : 0-# 11 . J10 : ... .. . ... ...
ROW 39 : ... .. . ... : B-3 1C 6 ... : ... .. . ... : ... .. . ... : ... .. . ... ...
ROW 3A : G-2 1A . ... : A-3 1C F ... : A-3 00 . ... : 1-# 1E . ... : ... .. . ... ...
ROW 3B : ... .. . ... : A-3 1C 6 ... : ... .. . ... : ... .. . ... : ... .. . ... ...
ROW 3C : E-1 1A . ... : B-3 1C F ... : A-3 00 . ... : 1-# 16 . J15 : ... .. . ... ...
ROW 3D : ... .. . ... : B-3 1C 6 ... : ... .. . ... : ... .. . ... : ... .. . ... ...
ROW 3E : G-1 1A . ... : D-4 1C F ... : E-3 00 . ... : 1-# 16 . J15 : ... .. . ... ...
ROW 3F : ... .. . ... : D-4 1C 6 ... : ... .. . ... : ... .. . ... : ... .. . ... ...

PATTERN 04
ROW 00 : E-1 1A . ... : E-4 1C F ... : E-4 00 . ... : ... .. . ... : ... .. . ... ...
ROW 01 : ... .. . ... : ... .. . ... : ... .. . ... : ... .. . ... : ... .. . ... ...
ROW 02 : ... .. . ... : E-4 1C 6 ... : ... .. . ... : ... .. . ... : ... .. . ... ...
ROW 03 : ... .. . ... : D-4 1C F ... : ... .. . ... : ... .. . ... : ... .. . ... ...
ROW 04 : E-2 1A . ... : ... .. . ... : ... .. . ... : ... .. . ... : ... .. . ... ...
ROW 05 : ... .. . ... : D-4 1C 6 ... : ... .. . ... : ... .. . ... : ... .. . ... ...
ROW 06 : ... .. . ... : E-4 1C F ... : ... .. . ... : ... .. . ... : ... .. . ... ...
ROW 07 : ... .. . ... : ... .. . ... : ... .. . ... : ... .. . ... : ... .. . ... ...
ROW 08 : E-1 1A . ... : E-4 1C 6 ... : ... .. . ... : ... .. . ... : ... .. . ... ...
ROW 09 : ... .. . ... : ... .. . ... : ... .. . ... : ... .. . ... : ... .. . ... ...
ROW 0A : E-2 1A . ... : D-4 1C F ... : ... .. . ... : ... .. . ... : ... .. . ... ...
ROW 0B : ... .. . ... : ... .. . ... : ... .. . ... : ... .. . ... : ... .. . ... ...
ROW 0C : B-1 1A . ... : E-4 1C F ... : ... .. . ... : ... .. . ... : ... .. . ... ...
ROW 0D : ... .. . ... : E-4 1C 6 ... : ... .. . ... : ... .. . ... : ... .. . ... ...
ROW 0E : D-2 1A . ... : D-4 1C F ... : ... .. . ... : ... .. . ... : ... .. . ... ...
ROW 0F : ... .. . ... : D-4 1C 6 ... : ... .. . ... : ... .. . ... : ... .. . ... ...
ROW 10 : D-1 1A . ... : A-3 1C F ... : D-4 00 . ... : ... .. . ... : ... .. . ... ...
ROW 11 : ... .. . ... : ... .. . ... : ... .. . ... : ... .. . ... : ... .. . ... ...
ROW 12 : ... .. . ... : A-3 1C 6 ... : ... .. . ... : ... .. . ... : ... .. . ... ...
ROW 13 : ... .. . ... : A-3 1C F ... : --- .. . ... : ... .. . ... : ... .. . ... ...
ROW 14 : D-2 1A . ... : ... .. . ... : D-4 00 . ... : ... .. . ... : ... .. . ... ...
ROW 15 : ... .. . ... : A-3 1C 6 ... : --- .. . ... : ... .. . ... : ... .. . ... ...
ROW 16 : ... .. . ... : B-3 1C F ... : E-4 00 . ... : ... .. . ... : ... .. . ... ...
ROW 17 : ... .. . ... : ... .. . ... : ... .. . ... : ... .. . ... : ... .. . ... ...
ROW 18 : B-1 1A . ... : B-3 1C 6 ... : ... .. . ... : ... .. . ... : ... .. . ... ...
ROW 19 : ... .. . ... : ... .. . ... : ... .. . ... : ... .. . ... : ... .. . ... ...
ROW 1A : A-2 1A . ... : D-4 1C F ... : ... .. . ... : ... .. . ... : ... .. . ... ...
ROW 1B : ... .. . ... : ... .. . ... : ... .. . ... : ... .. . ... : ... .. . ... ...
ROW 1C : B-1 1A . ... : D-4 1C 6 ... : ... .. . ... : ... .. . ... : ... .. . ... ...
ROW 1D : ... .. . ... : ... .. . ... : ... .. . ... : ... .. . ... : ... .. . ... ...
ROW 1E : A-1 1A . ... : ... .. . ... : --- .. . ... : ... .. . ... : ... .. . ... ...
ROW 1F : ... .. . ... : ... .. . ... : ... .. . ... : ... .. . ... : ... .. . ... ...
ROW 20 : E-1 1A . ... : D-4 1C F ... : D-4 00 . ... : ... .. . ... : ... .. . ... ...
ROW 21 : ... .. . ... : ... .. . ... : ... .. . ... : ... .. . ... : ... .. . ... ...
ROW 22 : ... .. . ... : D-4 1C 6 ... : ... .. . ... : ... .. . ... : ... .. . ... ...
ROW 23 : ... .. . ... : B-3 1C F ... : ... .. . ... : ... .. . ... : ... .. . ... ...
ROW 24 : E-2 1A . ... : ... .. . ... : ... .. . ... : ... .. . ... : ... .. . ... ...
ROW 25 : ... .. . ... : B-3 1C 6 ... : ... .. . ... : ... .. . ... : ... .. . ... ...
ROW 26 : ... .. . ... : D-4 1C F ... : ... .. . ... : ... .. . ... : ... .. . ... ...
ROW 27 : ... .. . ... : ... .. . ... : ... .. . ... : ... .. . ... : ... .. . ... ...
ROW 28 : E-1 1A . ... : D-4 1C 6 ... : ... .. . ... : ... .. . ... : ... .. . ... ...
ROW 29 : ... .. . ... : ... .. . ... : ... .. . ... : ... .. . ... : ... .. . ... ...
ROW 2A : E-2 1A . ... : B-3 1C F ... : ... .. . ... : ... .. . ... : ... .. . ... ...
ROW 2B : ... .. . ... : ... .. . ... : ... .. . ... : ... .. . ... : ... .. . ... ...
ROW 2C : B-1 1A . ... : D-4 1C F ... : ... .. . ... : ... .. . ... : ... .. . ... ...
ROW 2D : ... .. . ... : D-4 1C 6 ... : ... .. . ... : ... .. . ... : ... .. . ... ...
ROW 2E : D-2 1A . ... : B-3 1C F ... : --- .. . ... : ... .. . ... : ... .. . ... ...
ROW 2F : ... .. . ... : B-3 1C 6 ... : ... .. . ... : ... .. . ... : ... .. . ... ...
ROW 30 : B-1 1A . ... : A-3 1C F ... : C-4 00 . ... : ... .. . ... : ... .. . ... ...
ROW 31 : ... .. . ... : ... .. . ... : ... .. . ... : ... .. . ... : ... .. . ... ...
ROW 32 : A-1 1A . ... : A-3 1C 6 ... : ... .. . ... : ... .. . ... : ... .. . ... ...
ROW 33 : ... .. . ... : A-3 1C F ... : --- .. . ... : ... .. . ... : ... .. . ... ...
ROW 34 : B-1 1A . ... : ... .. . ... : C-4 00 . ... : ... .. . ... : ... .. . ... ...
ROW 35 : ... .. . ... : A-3 1C 6 ... : --- .. . ... : ... .. . ... : ... .. . ... ...
ROW 36 : A-1 1A . ... : G-3 1C F ... : A-3 00 . ... : ... .. . ... : ... .. . ... ...
ROW 37 : ... .. . ... : ... .. . ... : ... .. . ... : ... .. . ... : ... .. . ... ...
ROW 38 : G-1 1A . ... : G-3 1C 6 ... : ... .. . ... : ... .. . ... : ... .. . ... ...
ROW 39 : ... .. . ... : ... .. . ... : ... .. . ... : ... .. . ... : ... .. . ... ...
ROW 3A : E-1 1A . ... : E-3 1C F ... : G-3 00 . ... : ... .. . ... : ... .. . ... ...
ROW 3B : ... .. . ... : ... .. . ... : ... .. . ... : ... .. . ... : ... .. . ... ...
ROW 3C : G-1 1A . ... : E-3 1C 6 ... : ... .. . ... : ... .. . ... : ... .. . ... ...
ROW 3D : ... .. . ... : ... .. . ... : ... .. . ... : ... .. . ... : ... .. . ... ...
ROW 3E : E-1 1A . ... : ... .. . ... : E-3 00 . ... : ... .. . ... : ... .. . ... ...
ROW 3F : ... .. . ... : ... .. . ... : ... .. . ... : ... .. . ... : ... .. . ... ...

PATTERN 05
ROW 00 : ... .. . ... : E-5 22 F ... : E-3 23 . 400 : A-# 36 . ... : ... .. . ... ...
ROW 01 : ... .. . ... : ... .. . ... : ... .. . ... : ... .. . ... : ... .. . ... ...
ROW 02 : ... .. . ... : D-5 22 . ... : E-4 23 . ... : ... .. . ... : ... .. . ... ...
ROW 03 : ... .. . ... : ... .. . ... : ... .. . ... : ... .. . ... : ... .. . ... ...
ROW 04 : ... .. . ... : B-4 22 . ... : E-5 23 . ... : 4-# 25 . ... : ... .. . ... ...
ROW 05 : ... .. . ... : ... .. . ... : ... .. . ... : 5-# 24 . ... : ... .. . ... ...
ROW 06 : ... .. . ... : D-5 22 . ... : E-4 23 . ... : 5-# 24 . ... : ... .. . ... ...
ROW 07 : ... .. . ... : ... .. . ... : ... .. . ... : ... .. . ... : ... .. . ... ...
ROW 08 : ... .. . ... : ... .. . ... : E-3 23 . ... : 4-# 25 . ... : ... .. . ... ...
ROW 09 : ... .. . ... : ... .. . ... : ... .. . ... : 5-# 24 . ... : ... .. . ... ...
ROW 0A : ... .. . ... : A-3 0D C ... : E-4 23 . ... : 4-# 25 . ... : ... .. . ... ...
ROW 0B : ... .. . ... : ... .. . ... : ... .. . ... : 5-# 24 . ... : ... .. . ... ...
ROW 0C : ... .. . ... : B-3 0D . ... : E-5 23 . ... : 4-# 25 . ... : ... .. . ... ...
ROW 0D : ... .. . ... : ... .. . ... : ... .. . ... : ... .. . ... : ... .. . ... ...
ROW 0E : ... .. . ... : D-4 0D . ... : E-4 23 . ... : 5-# 24 . ... : ... .. . ... ...
ROW 0F : ... .. . ... : ... .. 6 ... : ... .. . ... : ... .. . ... : ... .. . ... ...
ROW 10 : ... .. . ... : E-5 22 F ... : D-3 23 . ... : A-# 36 . ... : ... .. . ... ...
ROW 11 : ... .. . ... : ... .. . ... : ... .. . ... : ... .. . ... : ... .. . ... ...
ROW 12 : ... .. . ... : D-5 22 . ... : D-4 23 . ... : ... .. . ... : ... .. . ... ...
ROW 13 : ... .. . ... : ... .. . ... : ... .. . ... : ... .. . ... : ... .. . ... ...
ROW 14 : ... .. . ... : B-4 22 . ... : D-5 23 . ... : 4-# 25 . ... : ... .. . ... ...
ROW 15 : ... .. . ... : ... .. . ... : ... .. . ... : 5-# 24 . ... : ... .. . ... ...
ROW 16 : ... .. . ... : D-5 22 . ... : D-4 23 . ... : 5-# 24 . ... : ... .. . ... ...
ROW 17 : ... .. . ... : ... .. . ... : ... .. . ... : ... .. . ... : ... .. . ... ...
ROW 18 : ... .. . ... : ... .. . ... : B-2 23 . ... : 4-# 25 . ... : ... .. . ... ...
ROW 19 : ... .. . ... : ... .. . ... : ... .. . ... : 5-# 24 . ... : ... .. . ... ...
ROW 1A : ... .. . ... : A-3 0D C ... : A-3 23 . ... : 4-# 25 . ... : ... .. . ... ...
ROW 1B : ... .. . ... : ... .. . ... : ... .. . ... : 5-# 24 . ... : ... .. . ... ...
ROW 1C : ... .. . ... : B-3 0D . ... : B-4 23 . ... : 4-# 25 . ... : ... .. . ... ...
ROW 1D : ... .. . ... : ... .. . ... : ... .. . ... : ... .. . ... : ... .. . ... ...
ROW 1E : ... .. . ... : G-3 0D . ... : A-4 23 . ... : 5-# 24 . ... : ... .. . ... ...
ROW 1F : ... .. . ... : ... .. 6 ... : ... .. . ... : ... .. . ... : ... .. . ... ...
ROW 20 : ... .. . ... : E-5 22 F ... : E-4 23 . ... : A-# 36 . ... : ... .. . ... ...
ROW 21 : ... .. . ... : ... .. . ... : ... .. . ... : ... .. . ... : ... .. . ... ...
ROW 22 : ... .. . ... : D-5 22 . ... : ... .. . ... : ... .. . ... : ... .. . ... ...
ROW 23 : ... .. . ... : ... .. . ... : E-4 23 . ... : ... .. . ... : ... .. . ... ...
ROW 24 : ... .. . ... : B-4 22 . ... : ... .. . ... : 4-# 25 . ... : ... .. . ... ...
ROW 25 : ... .. . ... : ... .. . ... : ... .. . ... : 5-# 24 . ... : ... .. . ... ...
ROW 26 : ... .. . ... : A-4 22 . ... : E-5 23 . ... : 5-# 24 . ... : ... .. . ... ...
ROW 27 : ... .. . ... : ... .. . ... : ... .. . ... : ... .. . ... : ... .. . ... ...
ROW 28 : ... .. . ... : ... .. . ... : E-4 23 . ... : 4-# 25 . ... : ... .. . ... ...
ROW 29 : ... .. . ... : ... .. . ... : ... .. . ... : 5-# 24 . ... : ... .. . ... ...
ROW 2A : ... .. . ... : A-3 0D C ... : E-4 23 . ... : 4-# 25 . ... : ... .. . ... ...
ROW 2B : ... .. . ... : ... .. . ... : ... .. . ... : 5-# 24 . ... : ... .. . ... ...
ROW 2C : ... .. . ... : B-3 0D . ... : E-5 23 . ... : 4-# 25 . ... : ... .. . ... ...
ROW 2D : ... .. . ... : ... .. . ... : ... .. . ... : ... .. . ... : ... .. . ... ...
ROW 2E : ... .. . ... : D-4 0D . ... : E-4 23 . ... : 5-# 24 . ... : ... .. . ... ...
ROW 2F : ... .. . ... : ... .. 6 ... : ... .. . ... : ... .. . ... : ... .. . ... ...
ROW 30 : ... .. . ... : E-5 22 F ... : B-3 23 . ... : A-# 36 . ... : ... .. . ... ...
ROW 31 : ... .. . ... : ... .. . ... : ... .. . ... : ... .. . ... : ... .. . ... ...
ROW 32 : ... .. . ... : D-5 22 . ... : ... .. . ... : ... .. . ... : ... .. . ... ...
ROW 33 : ... .. . ... : ... .. . ... : B-3 23 . ... : ... .. . ... : ... .. . ... ...
ROW 34 : ... .. . ... : B-4 22 . ... : ... .. . ... : 4-# 25 . ... : ... .. . ... ...
ROW 35 : ... .. . ... : ... .. . ... : ... .. . ... : 5-# 24 . ... : ... .. . ... ...
ROW 36 : ... .. . ... : E-4 22 . ... : B-4 23 . ... : 5-# 24 . ... : ... .. . ... ...
ROW 37 : ... .. . ... : ... .. . ... : ... .. . ... : ... .. . ... : ... .. . ... ...
ROW 38 : ... .. . ... : E-4 22 . ... : A-3 23 . ... : 4-# 25 . ... : ... .. . ... ...
ROW 39 : ... .. . ... : ... .. . ... : ... .. . ... : 5-# 24 . ... : ... .. . ... ...
ROW 3A : ... .. . ... : G-4 22 . ... : A-4 23 . ... : 4-# 25 . ... : ... .. . ... ...
ROW 3B : ... .. . ... : ... .. . ... : ... .. . ... : 5-# 24 . ... : ... .. . ... ...
ROW 3C : ... .. . ... : A-4 22 . ... : G-4 23 . ... : 4-# 25 . ... : ... .. . ... ...
ROW 3D : ... .. . ... : ... .. . ... : ... .. . ... : ... .. . ... : ... .. . ... ...
ROW 3E : ... .. . ... : B-4 22 . ... : B-4 23 . ... : 5-# 24 . ... : ... .. . ... ...
ROW 3F : ... .. . ... : ... .. . ... : ... .. . ... : ... .. . ... : ... .. . ... ...

PATTERN 06
ROW 00 : ... .. . ... : E-5 22 F ... : E-3 23 . ... : A-# 36 . ... : ... .. . ... ...
ROW 01 : ... .. . ... : ... .. . ... : ... .. . ... : ... .. . ... : ... .. . ... ...
ROW 02 : ... .. . ... : D-5 22 . ... : E-4 23 . ... : ... .. . ... : ... .. . ... ...
ROW 03 : ... .. . ... : ... .. . ... : ... .. . ... : ... .. . ... : ... .. . ... ...
ROW 04 : ... .. . ... : B-4 22 . ... : E-5 23 . ... : 4-# 25 . ... : ... .. . ... ...
ROW 05 : ... .. . ... : ... .. . ... : ... .. . ... : 5-# 24 . ... : ... .. . ... ...
ROW 06 : ... .. . ... : D-5 22 . ... : E-4 23 . ... : 5-# 24 . ... : ... .. . ... ...
ROW 07 : ... .. . ... : ... .. . ... : ... .. . ... : ... .. . ... : ... .. . ... ...
ROW 08 : ... .. . ... : ... .. . ... : E-3 23 . ... : 4-# 25 . ... : ... .. . ... ...
ROW 09 : ... .. . ... : ... .. . ... : ... .. . ... : 5-# 24 . ... : ... .. . ... ...
ROW 0A : ... .. . ... : A-3 0D C ... : E-4 23 . ... : 4-# 25 . ... : ... .. . ... ...
ROW 0B : ... .. . ... : ... .. . ... : ... .. . ... : 5-# 24 . ... : ... .. . ... ...
ROW 0C : ... .. . ... : B-3 0D . ... : E-5 23 . ... : 4-# 25 . ... : ... .. . ... ...
ROW 0D : ... .. . ... : ... .. . ... : ... .. . ... : ... .. . ... : ... .. . ... ...
ROW 0E : ... .. . ... : D-4 0D . ... : E-4 23 . ... : 5-# 24 . ... : ... .. . ... ...
ROW 0F : ... .. . ... : D-4 0D 6 ... : ... .. . ... : ... .. . ... : ... .. . ... ...
ROW 10 : ... .. . ... : E-5 22 F ... : D-3 23 . ... : A-# 36 . ... : ... .. . ... ...
ROW 11 : ... .. . ... : ... .. . ... : ... .. . ... : ... .. . ... : ... .. . ... ...
ROW 12 : ... .. . ... : D-5 22 . ... : D-4 23 . ... : ... .. . ... : ... .. . ... ...
ROW 13 : ... .. . ... : ... .. . ... : ... .. . ... : ... .. . ... : ... .. . ... ...
ROW 14 : ... .. . ... : B-4 22 . ... : D-5 23 . ... : 4-# 25 . ... : ... .. . ... ...
ROW 15 : ... .. . ... : ... .. . ... : ... .. . ... : 5-# 24 . ... : ... .. . ... ...
ROW 16 : ... .. . ... : D-5 22 . ... : D-4 23 . ... : 5-# 24 . ... : ... .. . ... ...
ROW 17 : ... .. . ... : ... .. . ... : ... .. . ... : ... .. . ... : ... .. . ... ...
ROW 18 : ... .. . ... : ... .. . ... : B-2 23 . ... : 4-# 25 . ... : ... .. . ... ...
ROW 19 : ... .. . ... : ... .. . ... : ... .. . ... : 5-# 24 . ... : ... .. . ... ...
ROW 1A : ... .. . ... : A-3 0D C ... : A-3 23 . ... : 4-# 25 . ... : ... .. . ... ...
ROW 1B : ... .. . ... : ... .. . ... : ... .. . ... : 5-# 24 . ... : ... .. . ... ...
ROW 1C : ... .. . ... : D-4 0D . ... : B-4 23 . ... : 4-# 25 . ... : ... .. . ... ...
ROW 1D : ... .. . ... : ... .. . ... : ... .. . ... : ... .. . ... : ... .. . ... ...
ROW 1E : ... .. . ... : B-3 0D . ... : A-4 23 . ... : 5-# 24 . ... : ... .. . ... ...
ROW 1F : ... .. . ... : ... .. 6 ... : ... .. . ... : ... .. . ... : ... .. . ... ...
ROW 20 : ... .. . ... : E-5 22 F ... : E-4 23 . ... : A-# 36 . ... : ... .. . ... ...
ROW 21 : ... .. . ... : ... .. . ... : ... .. . ... : ... .. . ... : ... .. . ... ...
ROW 22 : ... .. . ... : D-5 22 . ... : ... .. . ... : ... .. . ... : ... .. . ... ...
ROW 23 : ... .. . ... : ... .. . ... : E-4 23 . ... : ... .. . ... : ... .. . ... ...
ROW 24 : ... .. . ... : B-4 22 . ... : ... .. . ... : 4-# 25 . ... : ... .. . ... ...
ROW 25 : ... .. . ... : ... .. . ... : ... .. . ... : 5-# 24 . ... : ... .. . ... ...
ROW 26 : ... .. . ... : E-5 22 . ... : E-5 23 . ... : 5-# 24 . ... : ... .. . ... ...
ROW 27 : ... .. . ... : ... .. . ... : ... .. . ... : ... .. . ... : ... .. . ... ...
ROW 28 : ... .. . ... : ... .. . ... : E-4 23 . ... : 4-# 25 . ... : ... .. . ... ...
ROW 29 : ... .. . ... : ... .. . ... : ... .. . ... : 5-# 24 . ... : ... .. . ... ...
ROW 2A : ... .. . ... : E-4 0D C ... : E-4 23 . ... : 4-# 25 . ... : ... .. . ... ...
ROW 2B : ... .. . ... : ... .. . ... : ... .. . ... : 5-# 24 . ... : ... .. . ... ...
ROW 2C : ... .. . ... : D-4 0D . ... : E-5 23 . ... : 4-# 25 . ... : ... .. . ... ...
ROW 2D : ... .. . ... : ... .. . ... : ... .. . ... : ... .. . ... : ... .. . ... ...
ROW 2E : ... .. . ... : B-3 0D . ... : E-4 23 . ... : 5-# 24 . ... : ... .. . ... ...
ROW 2F : ... .. . ... : ... .. 6 ... : ... .. . ... : ... .. . ... : ... .. . ... ...
ROW 30 : ... .. . ... : E-5 22 F ... : B-3 23 . ... : A-# 36 . ... : ... .. . ... ...
ROW 31 : ... .. . ... : ... .. . ... : ... .. . ... : ... .. . ... : ... .. . ... ...
ROW 32 : ... .. . ... : D-5 22 . ... : ... .. . ... : ... .. . ... : ... .. . ... ...
ROW 33 : ... .. . ... : ... .. . ... : B-3 23 . ... : ... .. . ... : ... .. . ... ...
ROW 34 : ... .. . ... : E-5 22 . ... : ... .. . ... : 4-# 25 . ... : ... .. . ... ...
ROW 35 : ... .. . ... : ... .. . ... : ... .. . ... : 5-# 24 . ... : ... .. . ... ...
ROW 36 : ... .. . ... : D-5 22 . ... : B-4 23 . ... : 5-# 24 . ... : ... .. . ... ...
ROW 37 : ... .. . ... : ... .. . ... : ... .. . ... : ... .. . ... : ... .. . ... ...
ROW 38 : ... .. . ... : G-4 22 . ... : G-3 23 . ... : 8-# 1E . ... : ... .. . ... ...
ROW 39 : ... .. . ... : ... .. . ... : B-3 23 . ... : 8-# 1E . ... : ... .. . ... ...
ROW 3A : ... .. . ... : B-4 22 . ... : E-4 23 . ... : 8-# 1E . ... : ... .. . ... ...
ROW 3B : ... .. . ... : ... .. . ... : G-4 23 . ... : 8-# 1E . ... : ... .. . ... ...
ROW 3C : ... .. . ... : D-5 22 . ... : B-4 23 . ... : A-# 1D . ... : ... .. . ... ...
ROW 3D : ... .. . ... : ... .. . ... : D-5 23 . ... : A-# 1D . ... : ... .. . ... ...
ROW 3E : ... .. . ... : E-5 22 . ... : B-4 23 . ... : A-# 1F . ... : ... .. . ... ...
ROW 3F : ... .. . ... : ... .. . ... : E-5 23 . ... : A-# 1F . ... : ... .. . ... ...

TRACK  64   5 150 "World 2"
COLUMNS : 2 1 1 1 1

ORDER 00 : 01 01 02 02 00
ORDER 01 : 01 01 02 02 00
ORDER 02 : 01 00 00 04 00
ORDER 03 : 01 03 03 04 00
ORDER 04 : 02 00 00 00 00
ORDER 05 : 04 03 04 00 00
ORDER 06 : 02 05 00 00 00
ORDER 07 : 04 06 04 00 00
ORDER 08 : 06 07 00 00 00
ORDER 09 : 07 08 06 06 00
ORDER 0A : 01 09 07 01 00
ORDER 0B : 01 0A 07 03 00

PATTERN 00
ROW 00 : ... .. . ... ... : --- .. . ... : D-3 00 . ... : 0-# 11 . J10 : ... .. . ...
ROW 01 : ... .. . ... ... : D-2 0E F ... : ... .. . ... : ... .. . ... : ... .. . ...
ROW 02 : ... .. . ... ... : ... .. . ... : ... .. . ... : E-# 13 . ... : ... .. . ...
ROW 03 : ... .. . ... ... : ... .. . ... : --- .. . ... : ... .. . ... : ... .. . ...
ROW 04 : ... .. . ... ... : --- .. . ... : D-3 00 . ... : E-# 06 . ... : ... .. . ...
ROW 05 : ... .. . ... ... : D-2 0E . ... : ... .. . ... : ... .. . ... : ... .. . ...
ROW 06 : ... .. . ... ... : ... .. . ... : ... .. . ... : E-# 13 . ... : ... .. . ...
ROW 07 : ... .. . ... ... : ... .. . ... : --- .. . ... : ... .. . ... : ... .. . ...
ROW 08 : ... .. . ... ... : --- .. . ... : A-2 00 . ... : 1-# 16 . J15 : ... .. . ...
ROW 09 : ... .. . ... ... : A-1 0E . ... : ... .. . ... : ... .. . ... : ... .. . ...
ROW 0A : ... .. . ... ... : ... .. . ... : ... .. . ... : E-# 13 . ... : ... .. . ...
ROW 0B : ... .. . ... ... : ... .. . ... : --- .. . ... : ... .. . ... : ... .. . ...
ROW 0C : ... .. . ... ... : --- .. . ... : A-2 00 . ... : E-# 06 . ... : ... .. . ...
ROW 0D : ... .. . ... ... : A-1 0E . ... : ... .. . ... : ... .. . ... : ... .. . ...
ROW 0E : ... .. . ... ... : ... .. . ... : ... .. . ... : E-# 13 . ... : ... .. . ...
ROW 0F : ... .. . ... ... : ... .. . ... : --- .. . ... : ... .. . ... : ... .. . ...
ROW 10 : ... .. . ... ... : --- .. . ... : G#2 00 . ... : 0-# 11 . J10 : ... .. . ...
ROW 11 : ... .. . ... ... : G#1 0E . ... : ... .. . ... : ... .. . ... : ... .. . ...
ROW 12 : ... .. . ... ... : ... .. . ... : ... .. . ... : E-# 13 . ... : ... .. . ...
ROW 13 : ... .. . ... ... : ... .. . ... : --- .. . ... : ... .. . ... : ... .. . ...
ROW 14 : ... .. . ... ... : --- .. . ... : G#2 00 . ... : E-# 06 . ... : ... .. . ...
ROW 15 : ... .. . ... ... : G#1 0E . ... : ... .. . ... : ... .. . ... : ... .. . ...
ROW 16 : ... .. . ... ... : ... .. . ... : G-2 00 . ... : E-# 13 . ... : ... .. . ...
ROW 17 : ... .. . ... ... : G-1 0E . ... : --- .. . ... : ... .. . ... : ... .. . ...
ROW 18 : ... .. . ... ... : ... .. . ... : G-2 00 . ... : 1-# 16 . J15 : ... .. . ...
ROW 19 : ... .. . ... ... : ... .. . ... : ... .. . ... : ... .. . ... : ... .. . ...
ROW 1A : ... .. . ... ... : ... .. . ... : ... .. . ... : E-# 06 . ... : ... .. . ...
ROW 1B : ... .. . ... ... : ... .. . ... : --- .. . ... : ... .. . ... : ... .. . ...
ROW 1C : ... .. . ... ... : --- .. . ... : F-2 00 . ... : 0-# 11 . J10 : ... .. . ...
ROW 1D : ... .. . ... ... : F-1 0E . ... : ... .. . ... : ... .. . ... : ... .. . ...
ROW 1E : ... .. . ... ... : ... .. . ... : ... .. . ... : D-# 14 . ... : ... .. . ...
ROW 1F : ... .. . ... ... : ... .. . ... : --- .. . ... : ... .. . ... : ... .. . ...
ROW 20 : ... .. . ... ... : --- .. . ... : D-3 00 . ... : E-# 06 . ... : ... .. . ...
ROW 21 : ... .. . ... ... : D-2 0E . ... : ... .. . ... : ... .. . ... : ... .. . ...
ROW 22 : ... .. . ... ... : ... .. . ... : ... .. . ... : E-# 13 . ... : ... .. . ...
ROW 23 : ... .. . ... ... : ... .. . ... : --- .. . ... : ... .. . ... : ... .. . ...
ROW 24 : ... .. . ... ... : --- .. . ... : D-3 00 . ... : 0-# 11 . J10 : ... .. . ...
ROW 25 : ... .. . ... ... : D-2 0E . ... : ... .. . ... : ... .. . ... : ... .. . ...
ROW 26 : ... .. . ... ... : ... .. . ... : ... .. . ... : E-# 13 . ... : ... .. . ...
ROW 27 : ... .. . ... ... : ... .. . ... : --- .. . ... : ... .. . ... : ... .. . ...
ROW 28 : ... .. . ... ... : --- .. . ... : A-2 00 . ... : 1-# 16 . J15 : ... .. . ...
ROW 29 : ... .. . ... ... : A-1 0E . ... : ... .. . ... : ... .. . ... : ... .. . ...
ROW 2A : ... .. . ... ... : ... .. . ... : ... .. . ... : E-# 13 . ... : ... .. . ...
ROW 2B : ... .. . ... ... : ... .. . ... : --- .. . ... : ... .. . ... : ... .. . ...
ROW 2C : ... .. . ... ... : --- .. . ... : A-2 00 . ... : E-# 06 . ... : ... .. . ...
ROW 2D : ... .. . ... ... : A-1 0E . ... : ... .. . ... : ... .. . ... : ... .. . ...
ROW 2E : ... .. . ... ... : ... .. . ... : ... .. . ... : E-# 13 . ... : ... .. . ...
ROW 2F : ... .. . ... ... : ... .. . ... : --- .. . ... : ... .. . ... : ... .. . ...
ROW 30 : ... .. . ... ... : --- .. . ... : G#2 00 . ... : 0-# 11 . J10 : ... .. . ...
ROW 31 : ... .. . ... ... : G#1 0E . ... : ... .. . ... : ... .. . ... : ... .. . ...
ROW 32 : ... .. . ... ... : ... .. . ... : ... .. . ... : E-# 13 . ... : ... .. . ...
ROW 33 : ... .. . ... ... : ... .. . ... : --- .. . ... : ... .. . ... : ... .. . ...
ROW 34 : ... .. . ... ... : --- .. . ... : G#2 00 . ... : E-# 06 . ... : ... .. . ...
ROW 35 : ... .. . ... ... : G#1 0E . ... : ... .. . ... : ... .. . ... : ... .. . ...
ROW 36 : ... .. . ... ... : ... .. . ... : G-2 00 . ... : E-# 13 . ... : ... .. . ...
ROW 37 : ... .. . ... ... : G-1 0E . ... : --- .. . ... : ... .. . ... : ... .. . ...
ROW 38 : ... .. . ... ... : ... .. . ... : G-2 00 . ... : 0-# 11 . J10 : ... .. . ...
ROW 39 : ... .. . ... ... : ... .. . ... : --- .. . ... : ... .. . ... : ... .. . ...
ROW 3A : ... .. . ... ... : ... .. . ... : G-2 00 . ... : E-# 06 . ... : ... .. . ...
ROW 3B : ... .. . ... ... : ... .. . ... : --- .. . ... : ... .. . ... : ... .. . ...
ROW 3C : ... .. . ... ... : --- .. . ... : F-2 00 . ... : 1-# 16 . J15 : ... .. . ...
ROW 3D : ... .. . ... ... : F-1 0E . ... : ... .. . ... : ... .. . ... : ... .. . ...
ROW 3E : ... .. . ... ... : ... .. . ... : ... .. . ... : E-# 06 . ... : ... .. . ...
ROW 3F : ... .. . ... ... : ... .. . ... : --- .. . ... : ... .. . ... : ... .. . ...

PATTERN 01
ROW 00 : F-5 00 6 000 ... : --- .. . ... : D-3 00 . ... : A-# 19 . J10 : ... .. . ...
ROW 01 : ... .. . ... ... : ... .. . ... : ... .. . ... : ... .. . ... : ... .. . ...
ROW 02 : D-5 00 . ... ... : ... .. . ... : ... .. . ... : ... .. . ... : ... .. . ...
ROW 03 : ... .. . ... ... : ... .. . ... : --- .. . ... : ... .. . ... : ... .. . ...
ROW 04 : F-5 0E F ... ... : ... .. . ... : D-3 00 . ... : ... .. . ... : ... .. . ...
ROW 05 : ... .. . ... ... : ... .. . ... : ... .. . ... : ... .. . ... : ... .. . ...
ROW 06 : D-5 0E . ... ... : ... .. . ... : ... .. . ... : ... .. . ... : ... .. . ...
ROW 07 : ... .. . ... ... : ... .. . ... : --- .. . ... : ... .. . ... : ... .. . ...
ROW 08 : A-4 00 6 ... ... : ... .. . ... : A-2 00 . ... : ... .. . ... : ... .. . ...
ROW 09 : ... .. . ... ... : ... .. . ... : ... .. . ... : ... .. . ... : ... .. . ...
ROW 0A : F-4 00 . ... ... : ... .. . ... : ... .. . ... : ... .. . ... : ... .. . ...
ROW 0B : ... .. . ... ... : ... .. . ... : --- .. . ... : ... .. . ... : ... .. . ...
ROW 0C : A-4 0E F ... ... : ... .. . ... : A-2 00 . ... : ... .. . ... : ... .. . ...
ROW 0D : ... .. . ... ... : ... .. . ... : ... .. . ... : ... .. . ... : ... .. . ...
ROW 0E : F-4 0E . ... ... : ... .. . ... : ... .. . ... : ... .. . ... : ... .. . ...
ROW 0F : ... .. . ... ... : ... .. . ... : --- .. . ... : ... .. . ... : ... .. . ...
ROW 10 : G#4 00 6 ... ... : ... .. . ... : G#2 00 . ... : ... .. . ... : ... .. . ...
ROW 11 : ... .. . ... ... : ... .. . ... : ... .. . ... : ... .. . ... : ... .. . ...
ROW 12 : F-4 00 . ... ... : ... .. . ... : ... .. . ... : ... .. . ... : ... .. . ...
ROW 13 : ... .. . ... ... : ... .. . ... : --- .. . ... : ... .. . ... : ... .. . ...
ROW 14 : G#4 0E F ... ... : ... .. . ... : G#2 00 . ... : ... .. . ... : ... .. . ...
ROW 15 : ... .. . ... ... : ... .. . ... : ... .. . ... : ... .. . ... : ... .. . ...
ROW 16 : F-4 0E . ... ... : ... .. . ... : G-2 00 . ... : ... .. . ... : ... .. . ...
ROW 17 : ... .. . ... ... : ... .. . ... : --- .. . ... : ... .. . ... : ... .. . ...
ROW 18 : F-4 00 6 ... ... : ... .. . ... : G-2 00 . ... : ... .. . ... : ... .. . ...
ROW 19 : ... .. . ... ... : ... .. . ... : ... .. . ... : ... .. . ... : ... .. . ...
ROW 1A : D-4 00 . ... ... : ... .. . ... : ... .. . ... : ... .. . ... : ... .. . ...
ROW 1B : ... .. . ... ... : ... .. . ... : --- .. . ... : ... .. . ... : ... .. . ...
ROW 1C : F-4 0E F ... ... : ... .. . ... : F-2 00 . ... : ... .. . ... : ... .. . ...
ROW 1D : ... .. . ... ... : ... .. . ... : ... .. . ... : ... .. . ... : ... .. . ...
ROW 1E : D-4 0E . ... ... : ... .. . ... : ... .. . ... : ... .. . ... : ... .. . ...
ROW 1F : ... .. . ... ... : ... .. . ... : --- .. . ... : ... .. . ... : ... .. . ...
ROW 20 : F-5 00 6 ... ... : ... .. . ... : D-3 00 . ... : ... .. . ... : ... .. . ...
ROW 21 : ... .. . ... ... : ... .. . ... : ... .. . ... : ... .. . ... : ... .. . ...
ROW 22 : D-5 00 . ... ... : ... .. . ... : ... .. . ... : ... .. . ... : ... .. . ...
ROW 23 : ... .. . ... ... : ... .. . ... : --- .. . ... : ... .. . ... : ... .. . ...
ROW 24 : F-5 0E F ... ... : ... .. . ... : D-3 00 . ... : ... .. . ... : ... .. . ...
ROW 25 : ... .. . ... ... : ... .. . ... : ... .. . ... : ... .. . ... : ... .. . ...
ROW 26 : D-5 0E . ... ... : ... .. . ... : ... .. . ... : ... .. . ... : ... .. . ...
ROW 27 : ... .. . ... ... : ... .. . ... : --- .. . ... : ... .. . ... : ... .. . ...
ROW 28 : G-4 00 6 ... ... : ... .. . ... : A-2 00 . ... : ... .. . ... : ... .. . ...
ROW 29 : ... .. . ... ... : ... .. . ... : ... .. . ... : ... .. . ... : ... .. . ...
ROW 2A : D-4 00 . ... ... : ... .. . ... : ... .. . ... : ... .. . ... : ... .. . ...
ROW 2B : ... .. . ... ... : ... .. . ... : --- .. . ... : ... .. . ... : ... .. . ...
ROW 2C : G-4 0E F ... ... : ... .. . ... : A-2 00 . ... : ... .. . ... : ... .. . ...
ROW 2D : ... .. . ... ... : ... .. . ... : ... .. . ... : ... .. . ... : ... .. . ...
ROW 2E : D-4 0E . ... ... : ... .. . ... : ... .. . ... : ... .. . ... : ... .. . ...
ROW 2F : ... .. . ... ... : ... .. . ... : --- .. . ... : ... .. . ... : ... .. . ...
ROW 30 : G#4 00 6 ... ... : ... .. . ... : G#2 00 . ... : ... .. . ... : ... .. . ...
ROW 31 : ... .. . ... ... : ... .. . ... : ... .. . ... : ... .. . ... : ... .. . ...
ROW 32 : D-4 00 . ... ... : ... .. . ... : ... .. . ... : ... .. . ... : ... .. . ...
ROW 33 : ... .. . ... ... : ... .. . ... : --- .. . ... : ... .. . ... : ... .. . ...
ROW 34 : G#4 0E F ... ... : ... .. . ... : G#2 00 . ... : ... .. . ... : ... .. . ...
ROW 35 : ... .. . ... ... : ... .. . ... : ... .. . ... : ... .. . ... : ... .. . ...
ROW 36 : D-4 0E . ... ... : ... .. . ... : G-2 00 . ... : ... .. . ... : ... .. . ...
ROW 37 : ... .. . ... ... : ... .. . ... : --- .. . ... : ... .. . ... : ... .. . ...
ROW 38 : A-4 00 6 ... ... : ... .. . ... : G-2 00 . ... : ... .. . ... : ... .. . ...
ROW 39 : ... .. . ... ... : ... .. . ... : --- .. . ... : ... .. . ... : ... .. . ...
ROW 3A : C-5 00 . ... ... : ... .. . ... : G-2 00 . ... : ... .. . ... : ... .. . ...
ROW 3B : ... .. . ... ... : ... .. . ... : --- .. . ... : ... .. . ... : ... .. . ...
ROW 3C : D-5 0E F ... ... : ... .. . ... : F-2 00 . ... : ... .. . ... : ... .. . ...
ROW 3D : ... .. . ... ... : ... .. . ... : ... .. . ... : ... .. . ... : ... .. . ...
ROW 3E : C-5 0E . ... ... : ... .. . ... : ... .. . ... : ... .. . ... : ... .. . ...
ROW 3F : ... .. . ... ... : ... .. . ... : --- .. . ... : ... .. . ... : ... .. . ...

PATTERN 02
ROW 00 : F-3 12 F 453 ... : ... .. . ... : --- .. . ... : 0-# 11 . J04 : ... .. . ...
ROW 01 : ... .. . ... ... : ... .. . ... : ... .. . ... : ... .. . ... : ... .. . ...
ROW 02 : ... .. . ... ... : ... .. . ... : ... .. . ... : ... .. . ... : ... .. . ...
ROW 03 : ... .. . ... ... : ... .. . ... : ... .. . ... : ... .. . ... : ... .. . ...
ROW 04 : D-3 12 . ... ... : ... .. . ... : ... .. . ... : E-# 06 . ... : ... .. . ...
ROW 05 : ... .. . ... ... : ... .. . ... : ... .. . ... : ... .. . ... : ... .. . ...
ROW 06 : ... .. . ... ... : ... .. . ... : ... .. . ... : ... .. . ... : ... .. . ...
ROW 07 : ... .. . ... ... : ... .. . ... : ... .. . ... : ... .. . ... : ... .. . ...
ROW 08 : C-3 12 . ... ... : ... .. . ... : ... .. . ... : 0-# 11 . J04 : ... .. . ...
ROW 09 : ... .. . ... ... : ... .. . ... : ... .. . ... : ... .. . ... : ... .. . ...
ROW 0A : ... .. . ... ... : ... .. . ... : ... .. . ... : ... .. . ... : ... .. . ...
ROW 0B : ... .. . ... ... : ... .. . ... : ... .. . ... : ... .. . ... : ... .. . ...
ROW 0C : C#3 12 . ... ... : ... .. . ... : ... .. . ... : E-# 06 . ... : ... .. . ...
ROW 0D : ... .. . ... ... : ... .. . ... : ... .. . ... : ... .. . ... : ... .. . ...
ROW 0E : ... .. . ... ... : ... .. . ... : ... .. . ... : ... .. . ... : ... .. . ...
ROW 0F : D-3 12 . ... ... : ... .. . ... : ... .. . ... : ... .. . ... : ... .. . ...
ROW 10 : F-3 12 . ... ... : ... .. . ... : ... .. . ... : 0-# 11 . J04 : ... .. . ...
ROW 11 : ... .. . ... ... : ... .. . ... : ... .. . ... : ... .. . ... : ... .. . ...
ROW 12 : D-3 12 . ... ... : ... .. . ... : ... .. . ... : ... .. . ... : ... .. . ...
ROW 13 : ... .. . ... ... : ... .. . ... : ... .. . ... : ... .. . ... : ... .. . ...
ROW 14 : F-3 12 . ... ... : ... .. . ... : ... .. . ... : E-# 06 . ... : ... .. . ...
ROW 15 : ... .. . ... ... : ... .. . ... : ... .. . ... : ... .. . ... : ... .. . ...
ROW 16 : D-3 12 . ... ... : ... .. . ... : ... .. . ... : ... .. . ... : ... .. . ...
ROW 17 : ... .. . ... ... : ... .. . ... : ... .. . ... : ... .. . ... : ... .. . ...
ROW 18 : C-3 12 . ... ... : ... .. . ... : ... .. . ... : ... .. . ... : ... .. . ...
ROW 19 : ... .. . ... ... : ... .. . ... : ... .. . ... : ... .. . ... : ... .. . ...
ROW 1A : ... .. . ... ... : ... .. . ... : ... .. . ... : E-# 06 . ... : ... .. . ...
ROW 1B : ... .. . ... ... : ... .. . ... : ... .. . ... : ... .. . ... : ... .. . ...
ROW 1C : D-3 12 . ... ... : ... .. . ... : ... .. . ... : 0-# 11 . J04 : ... .. . ...
ROW 1D : ... .. . ... ... : ... .. . ... : ... .. . ... : ... .. . ... : ... .. . ...
ROW 1E : ... .. . ... ... : ... .. . ... : ... .. . ... : ... .. . ... : ... .. . ...
ROW 1F : ... .. . ... ... : ... .. . ... : ... .. . ... : ... .. . ... : ... .. . ...
ROW 20 : F-3 12 . ... ... : ... .. . ... : ... .. . ... : E-# 06 . ... : ... .. . ...
ROW 21 : ... .. . ... ... : ... .. . ... : ... .. . ... : ... .. . ... : ... .. . ...
ROW 22 : ... .. . ... ... : ... .. . ... : ... .. . ... : ... .. . ... : ... .. . ...
ROW 23 : ... .. . ... ... : ... .. . ... : ... .. . ... : ... .. . ... : ... .. . ...
ROW 24 : D-3 12 . ... ... : ... .. . ... : ... .. . ... : 0-# 11 . J04 : ... .. . ...
ROW 25 : ... .. . ... ... : ... .. . ... : ... .. . ... : ... .. . ... : ... .. . ...
ROW 26 : ... .. . ... ... : ... .. . ... : ... .. . ... : ... .. . ... : ... .. . ...
ROW 27 : ... .. . ... ... : ... .. . ... : ... .. . ... : ... .. . ... : ... .. . ...
ROW 28 : C-3 12 . ... ... : ... .. . ... : ... .. . ... : 0-# 11 . J04 : ... .. . ...
ROW 29 : ... .. . ... ... : ... .. . ... : ... .. . ... : ... .. . ... : ... .. . ...
ROW 2A : ... .. . ... ... : ... .. . ... : ... .. . ... : ... .. . ... : ... .. . ...
ROW 2B : ... .. . ... ... : ... .. . ... : ... .. . ... : ... .. . ... : ... .. . ...
ROW 2C : C#3 12 . ... ... : ... .. . ... : ... .. . ... : E-# 06 . ... : ... .. . ...
ROW 2D : ... .. . ... ... : ... .. . ... : ... .. . ... : ... .. . ... : ... .. . ...
ROW 2E : D-3 12 . ... ... : ... .. . ... : ... .. . ... : ... .. . ... : ... .. . ...
ROW 2F : ... .. . ... ... : ... .. . ... : ... .. . ... : ... .. . ... : ... .. . ...
ROW 30 : F-3 12 . ... ... : ... .. . ... : ... .. . ... : 0-# 11 . J04 : ... .. . ...
ROW 31 : ... .. . ... ... : ... .. . ... : ... .. . ... : ... .. . ... : ... .. . ...
ROW 32 : D-3 12 . ... ... : ... .. . ... : ... .. . ... : ... .. . ... : ... .. . ...
ROW 33 : ... .. . ... ... : ... .. . ... : ... .. . ... : ... .. . ... : ... .. . ...
ROW 34 : F-3 12 . ... ... : ... .. . ... : ... .. . ... : E-# 06 . ... : ... .. . ...
ROW 35 : ... .. . ... ... : ... .. . ... : ... .. . ... : ... .. . ... : ... .. . ...
ROW 36 : D-3 12 . ... ... : ... .. . ... : ... .. . ... : ... .. . ... : ... .. . ...
ROW 37 : ... .. . ... ... : ... .. . ... : ... .. . ... : ... .. . ... : ... .. . ...
ROW 38 : G#3 12 . ... ... : ... .. . ... : ... .. . ... : 0-# 11 . J04 : ... .. . ...
ROW 39 : ... .. . ... ... : ... .. . ... : ... .. . ... : ... .. . ... : ... .. . ...
ROW 3A : ... .. . ... ... : ... .. . ... : ... .. . ... : E-# 06 . ... : ... .. . ...
ROW 3B : ... .. . ... ... : ... .. . ... : ... .. . ... : ... .. . ... : ... .. . ...
ROW 3C : G-3 12 . ... ... : ... .. . ... : ... .. . ... : ... .. . ... : ... .. . ...
ROW 3D : ... .. . ... ... : ... .. . ... : ... .. . ... : ... .. . ... : ... .. . ...
ROW 3E : ... .. . ... ... : ... .. . ... : ... .. . ... : E-# 06 . ... : ... .. . ...
ROW 3F : ... .. . ... ... : ... .. . ... : ... .. . ... : ... .. . ... : ... .. . ...

PATTERN 03
ROW 00 : ... .. . ... ... : --- .. . ... : D-3 00 . ... : A-# 19 . J10 : ... .. . ...
ROW 01 : ... .. . ... ... : D-2 0E . ... : ... .. . ... : ... .. . ... : ... .. . ...
ROW 02 : ... .. . ... ... : ... .. . ... : ... .. . ... : ... .. . ... : ... .. . ...
ROW 03 : ... .. . ... ... : ... .. . ... : --- .. . ... : ... .. . ... : ... .. . ...
ROW 04 : ... .. . ... ... : --- .. . ... : D-3 00 . ... : ... .. . ... : ... .. . ...
ROW 05 : ... .. . ... ... : D-2 0E . ... : ... .. . ... : ... .. . ... : ... .. . ...
ROW 06 : ... .. . ... ... : ... .. . ... : ... .. . ... : ... .. . ... : ... .. . ...
ROW 07 : ... .. . ... ... : ... .. . ... : --- .. . ... : ... .. . ... : ... .. . ...
ROW 08 : ... .. . ... ... : --- .. . ... : A-2 00 . ... : 0-# 11 . J10 : ... .. . ...
ROW 09 : ... .. . ... ... : A-1 0E . ... : ... .. . ... : ... .. . ... : ... .. . ...
ROW 0A : ... .. . ... ... : ... .. . ... : ... .. . ... : ... .. . ... : ... .. . ...
ROW 0B : ... .. . ... ... : ... .. . ... : --- .. . ... : ... .. . ... : ... .. . ...
ROW 0C : ... .. . ... ... : --- .. . ... : A-2 00 . ... : ... .. . ... : ... .. . ...
ROW 0D : ... .. . ... ... : A-1 0E . ... : ... .. . ... : ... .. . ... : ... .. . ...
ROW 0E : ... .. . ... ... : ... .. . ... : ... .. . ... : ... .. . ... : ... .. . ...
ROW 0F : ... .. . ... ... : ... .. . ... : --- .. . ... : ... .. . ... : ... .. . ...
ROW 10 : ... .. . ... ... : --- .. . ... : G#2 00 . ... : 0-# 11 . J10 : ... .. . ...
ROW 11 : ... .. . ... ... : G#1 0E . ... : ... .. . ... : ... .. . ... : ... .. . ...
ROW 12 : ... .. . ... ... : ... .. . ... : ... .. . ... : ... .. . ... : ... .. . ...
ROW 13 : ... .. . ... ... : ... .. . ... : --- .. . ... : ... .. . ... : ... .. . ...
ROW 14 : ... .. . ... ... : --- .. . ... : G#2 00 . ... : ... .. . ... : ... .. . ...
ROW 15 : ... .. . ... ... : G#1 0E . ... : ... .. . ... : ... .. . ... : ... .. . ...
ROW 16 : ... .. . ... ... : ... .. . ... : G-2 00 . ... : ... .. . ... : ... .. . ...
ROW 17 : ... .. . ... ... : G-1 0E . ... : --- .. . ... : ... .. . ... : ... .. . ...
ROW 18 : ... .. . ... ... : ... .. . ... : G-2 00 . ... : 0-# 11 . J10 : ... .. . ...
ROW 19 : ... .. . ... ... : ... .. . ... : ... .. . ... : ... .. . ... : ... .. . ...
ROW 1A : ... .. . ... ... : ... .. . ... : ... .. . ... : ... .. . ... : ... .. . ...
ROW 1B : ... .. . ... ... : ... .. . ... : --- .. . ... : ... .. . ... : ... .. . ...
ROW 1C : ... .. . ... ... : --- .. . ... : F-2 00 . ... : ... .. . ... : ... .. . ...
ROW 1D : ... .. . ... ... : F-1 0E . ... : ... .. . ... : ... .. . ... : ... .. . ...
ROW 1E : ... .. . ... ... : ... .. . ... : ... .. . ... : ... .. . ... : ... .. . ...
ROW 1F : ... .. . ... ... : ... .. . ... : --- .. . ... : ... .. . ... : ... .. . ...
ROW 20 : ... .. . ... ... : --- .. . ... : D-3 00 . ... : 0-# 11 . J10 : ... .. . ...
ROW 21 : ... .. . ... ... : D-2 0E . ... : ... .. . ... : ... .. . ... : ... .. . ...
ROW 22 : ... .. . ... ... : ... .. . ... : ... .. . ... : ... .. . ... : ... .. . ...
ROW 23 : ... .. . ... ... : ... .. . ... : --- .. . ... : ... .. . ... : ... .. . ...
ROW 24 : ... .. . ... ... : --- .. . ... : D-3 00 . ... : ... .. . ... : ... .. . ...
ROW 25 : ... .. . ... ... : D-2 0E . ... : ... .. . ... : ... .. . ... : ... .. . ...
ROW 26 : ... .. . ... ... : ... .. . ... : ... .. . ... : ... .. . ... : ... .. . ...
ROW 27 : ... .. . ... ... : ... .. . ... : --- .. . ... : ... .. . ... : ... .. . ...
ROW 28 : ... .. . ... ... : --- .. . ... : A-2 00 . ... : 0-# 11 . J10 : ... .. . ...
ROW 29 : ... .. . ... ... : A-1 0E . ... : ... .. . ... : ... .. . ... : ... .. . ...
ROW 2A : ... .. . ... ... : ... .. . ... : ... .. . ... : ... .. . ... : ... .. . ...
ROW 2B : ... .. . ... ... : ... .. . ... : --- .. . ... : ... .. . ... : ... .. . ...
ROW 2C : ... .. . ... ... : --- .. . ... : A-2 00 . ... : ... .. . ... : ... .. . ...
ROW 2D : ... .. . ... ... : A-1 0E . ... : ... .. . ... : ... .. . ... : ... .. . ...
ROW 2E : ... .. . ... ... : ... .. . ... : ... .. . ... : ... .. . ... : ... .. . ...
ROW 2F : ... .. . ... ... : ... .. . ... : --- .. . ... : ... .. . ... : ... .. . ...
ROW 30 : ... .. . ... ... : --- .. . ... : D-3 00 . ... : 0-# 11 . J10 : ... .. . ...
ROW 31 : ... .. . ... ... : D-2 0E . ... : ... .. . ... : ... .. . ... : ... .. . ...
ROW 32 : ... .. . ... ... : ... .. . ... : ... .. . ... : 0-# 11 . J10 : ... .. . ...
ROW 33 : ... .. . ... ... : ... .. . ... : --- .. . ... : ... .. . ... : ... .. . ...
ROW 34 : ... .. . ... ... : --- .. . ... : A-2 00 . ... : ... .. . ... : ... .. . ...
ROW 35 : ... .. . ... ... : A-1 0E . ... : ... .. . ... : ... .. . ... : ... .. . ...
ROW 36 : ... .. . ... ... : ... .. . ... : C-3 00 . ... : ... .. . ... : ... .. . ...
ROW 37 : ... .. . ... ... : C-2 0E . ... : --- .. . ... : ... .. . ... : ... .. . ...
ROW 38 : ... .. . ... ... : ... .. . ... : C-3 00 . ... : 0-# 11 . J10 : ... .. . ...
ROW 39 : ... .. . ... ... : ... .. . ... : ... .. . ... : ... .. . ... : ... .. . ...
ROW 3A : ... .. . ... ... : ... .. . ... : ... .. . ... : ... .. . ... : ... .. . ...
ROW 3B : ... .. . ... ... : ... .. . ... : --- .. . ... : ... .. . ... : ... .. . ...
ROW 3C : ... .. . ... ... : --- .. . ... : D-3 00 . ... : D-# 14 . ... : ... .. . ...
ROW 3D : ... .. . ... ... : D-2 0E . ... : ... .. . ... : ... .. . ... : ... .. . ...
ROW 3E : ... .. . ... ... : ... .. . ... : ... .. . ... : ... .. . ... : ... .. . ...
ROW 3F : ... .. . ... ... : ... .. . ... : --- .. . ... : ... .. . ... : ... .. . ...

PATTERN 04
ROW 00 : F-3 12 . ... ... : ... .. . ... : D-3 00 . ... : 0-# 11 . J10 : ... .. . ...
ROW 01 : ... .. . ... ... : ... .. . ... : ... .. . ... : ... .. . ... : ... .. . ...
ROW 02 : ... .. . ... ... : ... .. . ... : ... .. . ... : E-# 13 . ... : ... .. . ...
ROW 03 : ... .. . ... ... : ... .. . ... : --- .. . ... : ... .. . ... : ... .. . ...
ROW 04 : D-3 12 . ... ... : ... .. . ... : D-3 00 . ... : E-# 06 . ... : ... .. . ...
ROW 05 : ... .. . ... ... : ... .. . ... : ... .. . ... : ... .. . ... : ... .. . ...
ROW 06 : ... .. . ... ... : ... .. . ... : ... .. . ... : E-# 13 . ... : ... .. . ...
ROW 07 : ... .. . ... ... : ... .. . ... : --- .. . ... : ... .. . ... : ... .. . ...
ROW 08 : C-3 12 . ... ... : ... .. . ... : A-2 00 . ... : 0-# 11 . J10 : ... .. . ...
ROW 09 : ... .. . ... ... : ... .. . ... : ... .. . ... : ... .. . ... : ... .. . ...
ROW 0A : ... .. . ... ... : ... .. . ... : ... .. . ... : E-# 13 . ... : ... .. . ...
ROW 0B : ... .. . ... ... : ... .. . ... : --- .. . ... : ... .. . ... : ... .. . ...
ROW 0C : A-2 12 . ... ... : ... .. . ... : A-2 00 . ... : E-# 06 . ... : ... .. . ...
ROW 0D : ... .. . ... ... : ... .. . ... : ... .. . ... : ... .. . ... : ... .. . ...
ROW 0E : ... .. . ... ... : ... .. . ... : ... .. . ... : E-# 13 . ... : ... .. . ...
ROW 0F : C-3 12 . ... ... : ... .. . ... : --- .. . ... : ... .. . ... : ... .. . ...
ROW 10 : F-3 12 . ... ... : ... .. . ... : G#2 00 . ... : 0-# 11 . J10 : ... .. . ...
ROW 11 : ... .. . ... ... : ... .. . ... : ... .. . ... : ... .. . ... : ... .. . ...
ROW 12 : D-3 12 . ... ... : ... .. . ... : ... .. . ... : E-# 13 . ... : ... .. . ...
ROW 13 : ... .. . ... ... : ... .. . ... : --- .. . ... : ... .. . ... : ... .. . ...
ROW 14 : F-3 12 . ... ... : ... .. . ... : G#2 00 . ... : E-# 06 . ... : ... .. . ...
ROW 15 : ... .. . ... ... : ... .. . ... : ... .. . ... : ... .. . ... : ... .. . ...
ROW 16 : D-3 12 . ... ... : ... .. . ... : G-2 00 . ... : E-# 13 . ... : ... .. . ...
ROW 17 : D-3 12 9 ... ... : ... .. . ... : --- .. . ... : ... .. . ... : ... .. . ...
ROW 18 : F-5 17 F 400 ... : ... .. . ... : G-2 00 . ... : E-# 13 . ... : ... .. . ...
ROW 19 : ... .. . ... ... : ... .. . ... : ... .. . ... : ... .. . ... : ... .. . ...
ROW 1A : D-5 17 . ... ... : ... .. . ... : ... .. . ... : E-# 06 . ... : ... .. . ...
ROW 1B : ... .. . ... ... : ... .. . ... : --- .. . ... : ... .. . ... : ... .. . ...
ROW 1C : C-5 17 . ... ... : ... .. . ... : F-2 00 . ... : 0-# 11 . J10 : ... .. . ...
ROW 1D : ... .. . ... ... : ... .. . ... : ... .. . ... : ... .. . ... : ... .. . ...
ROW 1E : D-5 17 F ... ... : ... .. . ... : ... .. . ... : D-# 14 . ... : ... .. . ...
ROW 1F : D-5 17 9 ... ... : ... .. . ... : --- .. . ... : ... .. . ... : ... .. . ...
ROW 20 : F-3 12 F 453 ... : ... .. . ... : D-3 00 . ... : E-# 06 . ... : ... .. . ...
ROW 21 : ... .. . ... ... : ... .. . ... : ... .. . ... : ... .. . ... : ... .. . ...
ROW 22 : ... .. . ... ... : ... .. . ... : ... .. . ... : E-# 13 . ... : ... .. . ...
ROW 23 : ... .. . ... ... : ... .. . ... : --- .. . ... : ... .. . ... : ... .. . ...
ROW 24 : D-3 12 . ... ... : ... .. . ... : D-3 00 . ... : 0-# 11 . J10 : ... .. . ...
ROW 25 : ... .. . ... ... : ... .. . ... : ... .. . ... : ... .. . ... : ... .. . ...
ROW 26 : ... .. . ... ... : ... .. . ... : ... .. . ... : E-# 13 . ... : ... .. . ...
ROW 27 : ... .. . ... ... : ... .. . ... : --- .. . ... : ... .. . ... : ... .. . ...
ROW 28 : C-3 12 . ... ... : ... .. . ... : A-2 00 . ... : 0-# 11 . J10 : ... .. . ...
ROW 29 : ... .. . ... ... : ... .. . ... : ... .. . ... : ... .. . ... : ... .. . ...
ROW 2A : ... .. . ... ... : ... .. . ... : ... .. . ... : E-# 13 . ... : ... .. . ...
ROW 2B : ... .. . ... ... : ... .. . ... : --- .. . ... : ... .. . ... : ... .. . ...
ROW 2C : C#3 12 . ... ... : ... .. . ... : A-2 00 . ... : E-# 06 . ... : ... .. . ...
ROW 2D : ... .. . ... ... : ... .. . ... : ... .. . ... : ... .. . ... : ... .. . ...
ROW 2E : D-3 12 . ... ... : ... .. . ... : ... .. . ... : E-# 13 . ... : ... .. . ...
ROW 2F : D-3 12 9 ... ... : ... .. . ... : --- .. . ... : ... .. . ... : ... .. . ...
ROW 30 : F-5 17 F 400 ... : ... .. . ... : D-3 00 . ... : 0-# 11 . J10 : ... .. . ...
ROW 31 : ... .. . ... ... : ... .. . ... : ... .. . ... : ... .. . ... : ... .. . ...
ROW 32 : D-5 17 . ... ... : ... .. . ... : ... .. . ... : E-# 13 . ... : ... .. . ...
ROW 33 : ... .. . ... ... : ... .. . ... : --- .. . ... : ... .. . ... : ... .. . ...
ROW 34 : F-5 17 . ... ... : ... .. . ... : A-2 00 . ... : E-# 06 . ... : ... .. . ...
ROW 35 : ... .. . ... ... : ... .. . ... : ... .. . ... : ... .. . ... : ... .. . ...
ROW 36 : D-5 17 . ... ... : ... .. . ... : C-3 00 . ... : E-# 13 . ... : ... .. . ...
ROW 37 : ... .. . ... ... : ... .. . ... : --- .. . ... : ... .. . ... : ... .. . ...
ROW 38 : G#5 17 . ... ... : ... .. . ... : C-3 00 . ... : 0-# 11 . J10 : ... .. . ...
ROW 39 : ... .. . ... ... : ... .. . ... : --- .. . ... : ... .. . ... : ... .. . ...
ROW 3A : G-5 17 . ... ... : ... .. . ... : C-3 00 . ... : E-# 06 . ... : ... .. . ...
ROW 3B : ... .. . ... ... : ... .. . ... : --- .. . ... : ... .. . ... : ... .. . ...
ROW 3C : F-5 17 . ... ... : ... .. . ... : D-3 00 . ... : D-# 14 . ... : ... .. . ...
ROW 3D : ... .. . ... ... : ... .. . ... : ... .. . ... : ... .. . ... : ... .. . ...
ROW 3E : D-5 17 . ... ... : ... .. . ... : ... .. . ... : E-# 06 . ... : ... .. . ...
ROW 3F : D-5 17 9 ... ... : ... .. . ... : --- .. . ... : ... .. . ... : ... .. . ...

PATTERN 05
ROW 00 : ... .. . ... ... : D-5 18 . 00C : ... .. . ... : ... .. . ... : ... .. . ...
ROW 01 : ... .. . ... ... : ... .. . ... : ... .. . ... : ... .. . ... : ... .. . ...
ROW 02 : ... .. . ... ... : D-4 18 . ... : ... .. . ... : ... .. . ... : ... .. . ...
ROW 03 : ... .. . ... ... : ... .. . ... : ... .. . ... : ... .. . ... : ... .. . ...
ROW 04 : ... .. . ... ... : D-5 18 . ... : ... .. . ... : ... .. . ... : ... .. . ...
ROW 05 : ... .. . ... ... : ... .. . ... : ... .. . ... : ... .. . ... : ... .. . ...
ROW 06 : ... .. . ... ... : D-4 18 . ... : ... .. . ... : ... .. . ... : ... .. . ...
ROW 07 : ... .. . ... ... : ... .. . ... : ... .. . ... : ... .. . ... : ... .. . ...
ROW 08 : ... .. . ... ... : C-5 18 . ... : ... .. . ... : ... .. . ... : ... .. . ...
ROW 09 : ... .. . ... ... : ... .. . ... : ... .. . ... : ... .. . ... : ... .. . ...
ROW 0A : ... .. . ... ... : D-5 18 . ... : ... .. . ... : ... .. . ... : ... .. . ...
ROW 0B : ... .. . ... ... : ... .. . ... : ... .. . ... : ... .. . ... : ... .. . ...
ROW 0C : ... .. . ... ... : A-4 18 . ... : ... .. . ... : ... .. . ... : ... .. . ...
ROW 0D : ... .. . ... ... : ... .. . ... : ... .. . ... : ... .. . ... : ... .. . ...
ROW 0E : ... .. . ... ... : F-4 18 . ... : ... .. . ... : ... .. . ... : ... .. . ...
ROW 0F : ... .. . ... ... : ... .. . ... : ... .. . ... : ... .. . ... : ... .. . ...
ROW 10 : ... .. . ... ... : D-4 18 . ... : ... .. . ... : ... .. . ... : ... .. . ...
ROW 11 : ... .. . ... ... : ... .. . ... : ... .. . ... : ... .. . ... : ... .. . ...
ROW 12 : ... .. . ... ... : F-4 18 . ... : ... .. . ... : ... .. . ... : ... .. . ...
ROW 13 : ... .. . ... ... : ... .. . ... : ... .. . ... : ... .. . ... : ... .. . ...
ROW 14 : ... .. . ... ... : D-4 18 . ... : ... .. . ... : ... .. . ... : ... .. . ...
ROW 15 : ... .. . ... ... : ... .. . ... : ... .. . ... : ... .. . ... : ... .. . ...
ROW 16 : ... .. . ... ... : F-4 18 . ... : ... .. . ... : ... .. . ... : ... .. . ...
ROW 17 : ... .. . ... ... : ... .. . ... : ... .. . ... : ... .. . ... : ... .. . ...
ROW 18 : ... .. . ... ... : D-4 18 . ... : ... .. . ... : ... .. . ... : ... .. . ...
ROW 19 : ... .. . ... ... : ... .. . ... : ... .. . ... : ... .. . ... : ... .. . ...
ROW 1A : ... .. . ... ... : F-4 18 . ... : ... .. . ... : ... .. . ... : ... .. . ...
ROW 1B : ... .. . ... ... : ... .. . ... : ... .. . ... : ... .. . ... : ... .. . ...
ROW 1C : ... .. . ... ... : G-4 18 . ... : ... .. . ... : ... .. . ... : ... .. . ...
ROW 1D : ... .. . ... ... : ... .. . ... : ... .. . ... : ... .. . ... : ... .. . ...
ROW 1E : ... .. . ... ... : A-4 18 . ... : ... .. . ... : ... .. . ... : ... .. . ...
ROW 1F : ... .. . ... ... : ... .. . ... : ... .. . ... : ... .. . ... : ... .. . ...
ROW 20 : ... .. . ... ... : D-5 18 . ... : ... .. . ... : ... .. . ... : ... .. . ...
ROW 21 : ... .. . ... ... : ... .. . ... : ... .. . ... : ... .. . ... : ... .. . ...
ROW 22 : ... .. . ... ... : C-5 18 . ... : ... .. . ... : ... .. . ... : ... .. . ...
ROW 23 : ... .. . ... ... : ... .. . ... : ... .. . ... : ... .. . ... : ... .. . ...
ROW 24 : ... .. . ... ... : D-5 18 . ... : ... .. . ... : ... .. . ... : ... .. . ...
ROW 25 : ... .. . ... ... : ... .. . ... : ... .. . ... : ... .. . ... : ... .. . ...
ROW 26 : ... .. . ... ... : C-5 18 . ... : ... .. . ... : ... .. . ... : ... .. . ...
ROW 27 : ... .. . ... ... : ... .. . ... : ... .. . ... : ... .. . ... : ... .. . ...
ROW 28 : ... .. . ... ... : D-5 18 . ... : ... .. . ... : ... .. . ... : ... .. . ...
ROW 29 : ... .. . ... ... : ... .. . ... : ... .. . ... : ... .. . ... : ... .. . ...
ROW 2A : ... .. . ... ... : C-5 18 . ... : ... .. . ... : ... .. . ... : ... .. . ...
ROW 2B : ... .. . ... ... : ... .. . ... : ... .. . ... : ... .. . ... : ... .. . ...
ROW 2C : ... .. . ... ... : C#5 18 . ... : ... .. . ... : ... .. . ... : ... .. . ...
ROW 2D : ... .. . ... ... : ... .. . ... : ... .. . ... : ... .. . ... : ... .. . ...
ROW 2E : ... .. . ... ... : D-5 18 . ... : ... .. . ... : ... .. . ... : ... .. . ...
ROW 2F : ... .. . ... ... : ... .. . ... : ... .. . ... : ... .. . ... : ... .. . ...
ROW 30 : ... .. . ... ... : C-5 18 . ... : ... .. . ... : ... .. . ... : ... .. . ...
ROW 31 : ... .. . ... ... : ... .. . ... : ... .. . ... : ... .. . ... : ... .. . ...
ROW 32 : ... .. . ... ... : D-5 18 . ... : ... .. . ... : ... .. . ... : ... .. . ...
ROW 33 : ... .. . ... ... : ... .. . ... : ... .. . ... : ... .. . ... : ... .. . ...
ROW 34 : ... .. . ... ... : C-5 18 . ... : ... .. . ... : ... .. . ... : ... .. . ...
ROW 35 : ... .. . ... ... : ... .. . ... : ... .. . ... : ... .. . ... : ... .. . ...
ROW 36 : ... .. . ... ... : D-5 18 . ... : ... .. . ... : ... .. . ... : ... .. . ...
ROW 37 : ... .. . ... ... : ... .. . ... : ... .. . ... : ... .. . ... : ... .. . ...
ROW 38 : ... .. . ... ... : G#4 18 . ... : ... .. . ... : ... .. . ... : ... .. . ...
ROW 39 : ... .. . ... ... : ... .. . ... : ... .. . ... : ... .. . ... : ... .. . ...
ROW 3A : ... .. . ... ... : A-4 18 . ... : ... .. . ... : ... .. . ... : ... .. . ...
ROW 3B : ... .. . ... ... : ... .. . ... : ... .. . ... : ... .. . ... : ... .. . ...
ROW 3C : ... .. . ... ... : G-4 18 . ... : ... .. . ... : ... .. . ... : ... .. . ...
ROW 3D : ... .. . ... ... : ... .. . ... : ... .. . ... : ... .. . ... : ... .. . ...
ROW 3E : ... .. . ... ... : F-4 18 . ... : ... .. . ... : ... .. . ... : ... .. . ...
ROW 3F : ... .. . ... ... : ... .. . ... : ... .. . ... : ... .. . ... : ... .. . ...

PATTERN 06
ROW 00 : F-3 0D F 000 ... : D-5 18 . ... : D-3 00 . ... : 0-# 11 . J10 : ... .. . ...
ROW 01 : ... .. . ... ... : ... .. . ... : ... .. . ... : ... .. . ... : ... .. . ...
ROW 02 : F-3 0D 6 ... ... : D-4 18 . ... : ... .. . ... : E-# 13 . ... : ... .. . ...
ROW 03 : ... .. . ... ... : ... .. . ... : --- .. . ... : ... .. . ... : ... .. . ...
ROW 04 : C-3 0D F ... ... : D-5 18 . ... : D-3 00 . ... : E-# 06 . ... : ... .. . ...
ROW 05 : ... .. . ... ... : ... .. . ... : ... .. . ... : ... .. . ... : ... .. . ...
ROW 06 : C-3 0D 6 ... ... : D-4 18 . ... : ... .. . ... : E-# 13 . ... : ... .. . ...
ROW 07 : ... .. . ... ... : ... .. . ... : --- .. . ... : ... .. . ... : ... .. . ...
ROW 08 : D-3 0D F ... ... : C-5 18 . ... : A-2 00 . ... : 1-# 16 . J15 : ... .. . ...
ROW 09 : ... .. . ... ... : ... .. . ... : ... .. . ... : ... .. . ... : ... .. . ...
ROW 0A : D-3 0D 6 ... ... : C-5 18 . ... : ... .. . ... : E-# 13 . ... : ... .. . ...
ROW 0B : ... .. . ... ... : ... .. . ... : --- .. . ... : ... .. . ... : ... .. . ...
ROW 0C : F-3 0D F ... ... : D-5 18 . ... : A-2 00 . ... : E-# 06 . ... : ... .. . ...
ROW 0D : F-3 0D 6 ... ... : ... .. . ... : ... .. . ... : ... .. . ... : ... .. . ...
ROW 0E : D-3 0D F ... ... : C-5 18 . ... : ... .. . ... : E-# 13 . ... : ... .. . ...
ROW 0F : ... .. . ... ... : ... .. . ... : --- .. . ... : ... .. . ... : ... .. . ...
ROW 10 : D-3 0D 6 ... ... : D-4 18 . ... : G#2 00 . ... : 0-# 11 . J10 : ... .. . ...
ROW 11 : ... .. . ... ... : ... .. . ... : ... .. . ... : ... .. . ... : ... .. . ...
ROW 12 : --- .. . ... ... : F-4 18 . ... : ... .. . ... : E-# 13 . ... : ... .. . ...
ROW 13 : ... .. . ... ... : ... .. . ... : --- .. . ... : ... .. . ... : ... .. . ...
ROW 14 : G#4 17 F 0CC ... : D-4 18 . ... : G#2 00 . ... : E-# 06 . ... : ... .. . ...
ROW 15 : ... .. . ... ... : ... .. . ... : ... .. . ... : ... .. . ... : ... .. . ...
ROW 16 : ... .. . ... ... : F-4 18 . ... : G-2 00 . ... : E-# 13 . ... : ... .. . ...
ROW 17 : ... .. . ... ... : ... .. . ... : --- .. . ... : ... .. . ... : ... .. . ...
ROW 18 : G-4 17 . ... ... : A-4 18 . ... : G-2 00 . ... : 1-# 16 . J15 : ... .. . ...
ROW 19 : ... .. . ... ... : ... .. . ... : ... .. . ... : ... .. . ... : ... .. . ...
ROW 1A : ... .. . ... ... : A-4 18 . ... : ... .. . ... : E-# 06 . ... : ... .. . ...
ROW 1B : ... .. . ... ... : ... .. . ... : --- .. . ... : ... .. . ... : ... .. . ...
ROW 1C : F-4 17 . ... ... : C-5 18 . ... : F-2 00 . ... : 0-# 11 . J10 : ... .. . ...
ROW 1D : ... .. . ... ... : ... .. . ... : ... .. . ... : ... .. . ... : ... .. . ...
ROW 1E : ... .. . ... ... : A-4 18 . ... : ... .. . ... : D-# 14 . ... : ... .. . ...
ROW 1F : ... .. . ... ... : ... .. . ... : --- .. . ... : ... .. . ... : ... .. . ...
ROW 20 : F-3 0D F 000 ... : D-5 18 . ... : D-3 00 . ... : E-# 06 . ... : ... .. . ...
ROW 21 : ... .. . ... ... : ... .. . ... : ... .. . ... : ... .. . ... : ... .. . ...
ROW 22 : F-3 0D 6 ... ... : C-5 18 . ... : ... .. . ... : E-# 13 . ... : ... .. . ...
ROW 23 : ... .. . ... ... : ... .. . ... : --- .. . ... : ... .. . ... : ... .. . ...
ROW 24 : C-3 0D F ... ... : D-5 18 . ... : D-3 00 . ... : 0-# 11 . J10 : ... .. . ...
ROW 25 : ... .. . ... ... : ... .. . ... : ... .. . ... : ... .. . ... : ... .. . ...
ROW 26 : C-3 0D 6 ... ... : C-5 18 . ... : ... .. . ... : E-# 13 . ... : ... .. . ...
ROW 27 : ... .. . ... ... : ... .. . ... : --- .. . ... : ... .. . ... : ... .. . ...
ROW 28 : D-3 0D F ... ... : D-5 18 . ... : A-2 00 . ... : 1-# 16 . J15 : ... .. . ...
ROW 29 : ... .. . ... ... : ... .. . ... : ... .. . ... : ... .. . ... : ... .. . ...
ROW 2A : D-3 0D 6 ... ... : C-5 18 . ... : ... .. . ... : E-# 13 . ... : ... .. . ...
ROW 2B : ... .. . ... ... : ... .. . ... : --- .. . ... : ... .. . ... : ... .. . ...
ROW 2C : F-3 0D F ... ... : C#5 18 . ... : A-2 00 . ... : E-# 06 . ... : ... .. . ...
ROW 2D : F-3 0D 6 ... ... : ... .. . ... : ... .. . ... : ... .. . ... : ... .. . ...
ROW 2E : D-3 0D F ... ... : D-5 18 . ... : ... .. . ... : E-# 13 . ... : ... .. . ...
ROW 2F : ... .. . ... ... : ... .. . ... : --- .. . ... : ... .. . ... : ... .. . ...
ROW 30 : D-3 0D 6 ... ... : F-5 18 . ... : D-3 00 . ... : 1-# 16 . J15 : ... .. . ...
ROW 31 : ... .. . ... ... : ... .. . ... : ... .. . ... : ... .. . ... : ... .. . ...
ROW 32 : --- .. . ... ... : D-5 18 . ... : D-3 00 . ... : 0-# 11 . J10 : ... .. . ...
ROW 33 : ... .. . ... ... : ... .. . ... : --- .. . ... : ... .. . ... : ... .. . ...
ROW 34 : C-4 17 F 0CC ... : F-5 18 . ... : A-2 00 . ... : 1-# 16 . J15 : ... .. . ...
ROW 35 : ... .. . ... ... : ... .. . ... : ... .. . ... : ... .. . ... : ... .. . ...
ROW 36 : ... .. . ... ... : D-5 18 . ... : C-3 00 . ... : 0-# 11 . J10 : ... .. . ...
ROW 37 : ... .. . ... ... : ... .. . ... : --- .. . ... : ... .. . ... : ... .. . ...
ROW 38 : C-4 17 . ... ... : G#4 18 . ... : C-3 00 . ... : 1-# 16 . J15 : ... .. . ...
ROW 39 : ... .. . ... ... : ... .. . ... : --- .. . ... : ... .. . ... : ... .. . ...
ROW 3A : ... .. . ... ... : G-4 18 . ... : C-3 00 . ... : 1-# 16 . J15 : ... .. . ...
ROW 3B : ... .. . ... ... : ... .. . ... : --- .. . ... : ... .. . ... : ... .. . ...
ROW 3C : D-4 17 . ... ... : F-4 18 . ... : D-3 00 . ... : 1-# 16 . J15 : ... .. . ...
ROW 3D : ... .. . ... ... : ... .. . ... : ... .. . ... : ... .. . ... : ... .. . ...
ROW 3E : ... .. . ... ... : D-4 18 . ... : D-3 00 . ... : 1-# 16 . J15 : ... .. . ...
ROW 3F : ... .. . ... ... : ... .. . ... : --- .. . ... : ... .. . ... : ... .. . ...

PATTERN 07
ROW 00 : F-3 0D F 000 ... : D-4 0F . 000 : D-4 00 . ... : ... .. . ... : ... .. . ...
ROW 01 : ... .. . ... ... : ... .. . ... : ... .. . ... : ... .. . ... : ... .. . ...
ROW 02 : F-3 0D 6 ... ... : D-3 0F . ... : C-4 00 . ... : ... .. . ... : ... .. . ...
ROW 03 : ... .. . ... ... : ... .. . ... : --- .. . ... : ... .. . ... : ... .. . ...
ROW 04 : C-3 0D F ... ... : D-4 0F . ... : D-4 00 . ... : ... .. . ... : ... .. . ...
ROW 05 : ... .. . ... ... : ... .. . ... : ... .. . ... : ... .. . ... : ... .. . ...
ROW 06 : C-3 0D 6 ... ... : D-3 0F . ... : C-4 00 . ... : ... .. . ... : ... .. . ...
ROW 07 : ... .. . ... ... : ... .. . ... : --- .. . ... : ... .. . ... : ... .. . ...
ROW 08 : D-3 0D F ... ... : A-3 0F . ... : A-3 00 . ... : ... .. . ... : ... .. . ...
ROW 09 : ... .. . ... ... : ... .. . ... : ... .. . ... : ... .. . ... : ... .. . ...
ROW 0A : D-3 0D 6 ... ... : C-4 0F . ... : G-3 00 . ... : ... .. . ... : ... .. . ...
ROW 0B : ... .. . ... ... : ... .. . ... : --- .. . ... : ... .. . ... : ... .. . ...
ROW 0C : F-3 0D F ... ... : A-3 0F . ... : A-3 00 . ... : ... .. . ... : ... .. . ...
ROW 0D : F-3 0D 6 ... ... : ... .. . ... : ... .. . ... : ... .. . ... : ... .. . ...
ROW 0E : D-3 0D F ... ... : F-3 0F . ... : G-3 00 . ... : ... .. . ... : ... .. . ...
ROW 0F : ... .. . ... ... : ... .. . ... : --- .. . ... : ... .. . ... : ... .. . ...
ROW 10 : D-3 0D 6 ... ... : G#3 0F . ... : G#3 00 . ... : ... .. . ... : ... .. . ...
ROW 11 : ... .. . ... ... : ... .. . ... : ... .. . ... : ... .. . ... : ... .. . ...
ROW 12 : --- .. . ... ... : G-3 0F . ... : F-3 00 . ... : ... .. . ... : ... .. . ...
ROW 13 : ... .. . ... ... : ... .. . ... : --- .. . ... : ... .. . ... : ... .. . ...
ROW 14 : G#4 17 F 0CC ... : G#3 0F . ... : G#3 00 . ... : ... .. . ... : ... .. . ...
ROW 15 : ... .. . ... ... : ... .. . ... : ... .. . ... : ... .. . ... : ... .. . ...
ROW 16 : ... .. . ... ... : G-3 0F . ... : G-3 00 . ... : ... .. . ... : ... .. . ...
ROW 17 : ... .. . ... ... : ... .. . ... : ... .. . ... : ... .. . ... : ... .. . ...
ROW 18 : G-4 17 . ... ... : G-4 0F . ... : ... .. . ... : ... .. . ... : ... .. . ...
ROW 19 : ... .. . ... ... : ... .. . ... : ... .. . ... : ... .. . ... : ... .. . ...
ROW 1A : ... .. . ... ... : G-3 0F . ... : ... .. . ... : ... .. . ... : ... .. . ...
ROW 1B : ... .. . ... ... : ... .. . ... : --- .. . ... : ... .. . ... : ... .. . ...
ROW 1C : F-4 17 . ... ... : F-4 0F . ... : F-3 00 . ... : ... .. . ... : ... .. . ...
ROW 1D : ... .. . ... ... : ... .. . ... : ... .. . ... : ... .. . ... : ... .. . ...
ROW 1E : ... .. . ... ... : F-3 0F . ... : D-3 00 . ... : ... .. . ... : ... .. . ...
ROW 1F : ... .. . ... ... : ... .. . ... : --- .. . ... : ... .. . ... : ... .. . ...
ROW 20 : F-3 0D F 000 ... : D-4 0F . ... : D-4 00 . ... : ... .. . ... : ... .. . ...
ROW 21 : ... .. . ... ... : ... .. . ... : ... .. . ... : ... .. . ... : ... .. . ...
ROW 22 : F-3 0D 6 ... ... : D-3 0F . ... : ... .. . ... : ... .. . ... : ... .. . ...
ROW 23 : ... .. . ... ... : ... .. . ... : --- .. . ... : ... .. . ... : ... .. . ...
ROW 24 : C-3 0D F ... ... : D-4 0F . ... : D-4 00 . ... : ... .. . ... : ... .. . ...
ROW 25 : ... .. . ... ... : ... .. . ... : ... .. . ... : ... .. . ... : ... .. . ...
ROW 26 : C-3 0D 6 ... ... : D-3 0F . ... : ... .. . ... : ... .. . ... : ... .. . ...
ROW 27 : ... .. . ... ... : ... .. . ... : --- .. . ... : ... .. . ... : ... .. . ...
ROW 28 : D-3 0D F ... ... : A-3 0F . ... : A-3 00 . ... : ... .. . ... : ... .. . ...
ROW 29 : ... .. . ... ... : ... .. . ... : ... .. . ... : ... .. . ... : ... .. . ...
ROW 2A : D-3 0D 6 ... ... : C-4 0F . ... : ... .. . ... : ... .. . ... : ... .. . ...
ROW 2B : ... .. . ... ... : ... .. . ... : --- .. . ... : ... .. . ... : ... .. . ...
ROW 2C : C-4 0D F ... ... : A-3 0F . ... : A-3 00 . ... : ... .. . ... : ... .. . ...
ROW 2D : C-4 0D 6 ... ... : ... .. . ... : ... .. . ... : ... .. . ... : ... .. . ...
ROW 2E : D-4 0D F ... ... : F-3 0F . ... : ... .. . ... : ... .. . ... : ... .. . ...
ROW 2F : ... .. . ... ... : ... .. . ... : --- .. . ... : ... .. . ... : ... .. . ...
ROW 30 : D-4 0D 6 ... ... : G#3 0F . ... : G#3 00 . ... : ... .. . ... : ... .. . ...
ROW 31 : ... .. . ... ... : ... .. . ... : ... .. . ... : ... .. . ... : ... .. . ...
ROW 32 : --- .. . ... ... : G-3 0F . ... : F-3 00 . ... : ... .. . ... : ... .. . ...
ROW 33 : ... .. . ... ... : ... .. . ... : --- .. . ... : ... .. . ... : ... .. . ...
ROW 34 : C-4 17 F 0CC ... : G#3 0F . ... : G#3 00 . ... : ... .. . ... : ... .. . ...
ROW 35 : ... .. . ... ... : ... .. . ... : ... .. . ... : ... .. . ... : ... .. . ...
ROW 36 : ... .. . ... ... : G-3 0F . ... : A-3 00 . ... : ... .. . ... : ... .. . ...
ROW 37 : ... .. . ... ... : ... .. . ... : ... .. . ... : ... .. . ... : ... .. . ...
ROW 38 : C-4 17 . ... ... : G-4 0F . ... : ... .. . ... : ... .. . ... : ... .. . ...
ROW 39 : ... .. . ... ... : ... .. . ... : ... .. . ... : ... .. . ... : ... .. . ...
ROW 3A : ... .. . ... ... : G-3 0F . ... : ... .. . ... : ... .. . ... : ... .. . ...
ROW 3B : ... .. . ... ... : ... .. . ... : --- .. . ... : ... .. . ... : ... .. . ...
ROW 3C : D-4 17 . ... ... : A-4 0F . ... : C-4 00 . ... : ... .. . ... : ... .. . ...
ROW 3D : ... .. . ... ... : ... .. . ... : ... .. . ... : ... .. . ... : ... .. . ...
ROW 3E : ... .. . ... ... : C-5 0F . ... : ... .. . ... : ... .. . ... : ... .. . ...
ROW 3F : ... .. . ... ... : ... .. . ... : ... .. . ... : ... .. . ... : ... .. . ...

PATTERN 08
ROW 00 : ... .. . ... ... : D-4 0F . ... : D-4 00 . ... : ... .. . ... : ... .. . ...
ROW 01 : ... .. . ... ... : ... .. . ... : ... .. . ... : ... .. . ... : ... .. . ...
ROW 02 : ... .. . ... ... : D-3 0F . ... : C-4 00 . ... : ... .. . ... : ... .. . ...
ROW 03 : ... .. . ... ... : ... .. . ... : --- .. . ... : ... .. . ... : ... .. . ...
ROW 04 : ... .. . ... ... : D-4 0F . ... : D-4 00 . ... : ... .. . ... : ... .. . ...
ROW 05 : ... .. . ... ... : ... .. . ... : ... .. . ... : ... .. . ... : ... .. . ...
ROW 06 : ... .. . ... ... : D-3 0F . ... : C-4 00 . ... : ... .. . ... : ... .. . ...
ROW 07 : ... .. . ... ... : ... .. . ... : --- .. . ... : ... .. . ... : ... .. . ...
ROW 08 : ... .. . ... ... : A-3 0F . ... : A-3 00 . ... : ... .. . ... : ... .. . ...
ROW 09 : ... .. . ... ... : ... .. . ... : ... .. . ... : ... .. . ... : ... .. . ...
ROW 0A : ... .. . ... ... : C-4 0F . ... : G-3 00 . ... : ... .. . ... : ... .. . ...
ROW 0B : ... .. . ... ... : ... .. . ... : --- .. . ... : ... .. . ... : ... .. . ...
ROW 0C : ... .. . ... ... : A-3 0F . ... : A-3 00 . ... : ... .. . ... : ... .. . ...
ROW 0D : ... .. . ... ... : ... .. . ... : ... .. . ... : ... .. . ... : ... .. . ...
ROW 0E : ... .. . ... ... : F-3 0F . ... : G-3 00 . ... : ... .. . ... : ... .. . ...
ROW 0F : ... .. . ... ... : ... .. . ... : --- .. . ... : ... .. . ... : ... .. . ...
ROW 10 : ... .. . ... ... : G#3 0F . ... : G#3 00 . ... : ... .. . ... : ... .. . ...
ROW 11 : ... .. . ... ... : ... .. . ... : ... .. . ... : ... .. . ... : ... .. . ...
ROW 12 : ... .. . ... ... : G-3 0F . ... : F-3 00 . ... : ... .. . ... : ... .. . ...
ROW 13 : ... .. . ... ... : ... .. . ... : --- .. . ... : ... .. . ... : ... .. . ...
ROW 14 : ... .. . ... ... : G#3 0F . ... : G#3 00 . ... : ... .. . ... : ... .. . ...
ROW 15 : ... .. . ... ... : ... .. . ... : ... .. . ... : ... .. . ... : ... .. . ...
ROW 16 : ... .. . ... ... : G-3 0F . ... : G-3 00 . ... : ... .. . ... : ... .. . ...
ROW 17 : ... .. . ... ... : ... .. . ... : ... .. . ... : ... .. . ... : ... .. . ...
ROW 18 : ... .. . ... ... : G-4 0F . ... : ... .. . ... : ... .. . ... : ... .. . ...
ROW 19 : ... .. . ... ... : ... .. . ... : ... .. . ... : ... .. . ... : ... .. . ...
ROW 1A : ... .. . ... ... : G-3 0F . ... : ... .. . ... : ... .. . ... : ... .. . ...
ROW 1B : ... .. . ... ... : ... .. . ... : --- .. . ... : ... .. . ... : ... .. . ...
ROW 1C : ... .. . ... ... : F-4 0F . ... : F-3 00 . ... : ... .. . ... : ... .. . ...
ROW 1D : ... .. . ... ... : ... .. . ... : ... .. . ... : ... .. . ... : ... .. . ...
ROW 1E : ... .. . ... ... : F-3 0F . ... : D-3 00 . ... : ... .. . ... : ... .. . ...
ROW 1F : ... .. . ... ... : ... .. . ... : --- .. . ... : ... .. . ... : ... .. . ...
ROW 20 : ... .. . ... ... : D-4 0F . ... : D-4 00 . ... : ... .. . ... : ... .. . ...
ROW 21 : ... .. . ... ... : ... .. . ... : ... .. . ... : ... .. . ... : ... .. . ...
ROW 22 : ... .. . ... ... : D-3 0F . ... : ... .. . ... : ... .. . ... : ... .. . ...
ROW 23 : ... .. . ... ... : ... .. . ... : --- .. . ... : ... .. . ... : ... .. . ...
ROW 24 : ... .. . ... ... : D-4 0F . ... : D-4 00 . ... : ... .. . ... : ... .. . ...
ROW 25 : ... .. . ... ... : ... .. . ... : ... .. . ... : ... .. . ... : ... .. . ...
ROW 26 : ... .. . ... ... : D-3 0F . ... : ... .. . ... : ... .. . ... : ... .. . ...
ROW 27 : ... .. . ... ... : ... .. . ... : --- .. . ... : ... .. . ... : ... .. . ...
ROW 28 : ... .. . ... ... : A-3 0F . ... : A-3 00 . ... : ... .. . ... : ... .. . ...
ROW 29 : ... .. . ... ... : ... .. . ... : ... .. . ... : ... .. . ... : ... .. . ...
ROW 2A : ... .. . ... ... : C-4 0F . ... : ... .. . ... : ... .. . ... : ... .. . ...
ROW 2B : ... .. . ... ... : ... .. . ... : --- .. . ... : ... .. . ... : ... .. . ...
ROW 2C : ... .. . ... ... : A-3 0F . ... : A-3 00 . ... : ... .. . ... : ... .. . ...
ROW 2D : ... .. . ... ... : ... .. . ... : ... .. . ... : ... .. . ... : ... .. . ...
ROW 2E : ... .. . ... ... : F-3 0F . ... : ... .. . ... : ... .. . ... : ... .. . ...
ROW 2F : ... .. . ... ... : ... .. . ... : --- .. . ... : ... .. . ... : ... .. . ...
ROW 30 : ... .. . ... ... : G#3 0F . ... : G#3 00 . ... : ... .. . ... : ... .. . ...
ROW 31 : ... .. . ... ... : ... .. . ... : ... .. . ... : ... .. . ... : ... .. . ...
ROW 32 : ... .. . ... ... : G-3 0F . ... : F-3 00 . ... : ... .. . ... : ... .. . ...
ROW 33 : ... .. . ... ... : ... .. . ... : --- .. . ... : ... .. . ... : ... .. . ...
ROW 34 : ... .. . ... ... : G#3 0F . ... : G#3 00 . ... : ... .. . ... : ... .. . ...
ROW 35 : ... .. . ... ... : ... .. . ... : ... .. . ... : ... .. . ... : ... .. . ...
ROW 36 : ... .. . ... ... : G-3 0F . ... : A-3 00 . ... : ... .. . ... : ... .. . ...
ROW 37 : ... .. . ... ... : ... .. . ... : ... .. . ... : ... .. . ... : ... .. . ...
ROW 38 : ... .. . ... ... : G-4 0F . ... : ... .. . ... : ... .. . ... : ... .. . ...
ROW 39 : ... .. . ... ... : ... .. . ... : ... .. . ... : ... .. . ... : ... .. . ...
ROW 3A : ... .. . ... ... : G-3 0F . ... : ... .. . ... : ... .. . ... : ... .. . ...
ROW 3B : ... .. . ... ... : ... .. . ... : --- .. . ... : ... .. . ... : ... .. . ...
ROW 3C : ... .. . ... ... : A-4 0F . ... : C-4 00 . ... : ... .. . ... : ... .. . ...
ROW 3D : ... .. . ... ... : ... .. . ... : ... .. . ... : ... .. . ... : ... .. . ...
ROW 3E : ... .. . ... ... : C-5 0F . ... : ... .. . ... : ... .. . ... : ... .. . ...
ROW 3F : ... .. . ... ... : ... .. . ... : ... .. . ... : ... .. . ... : ... .. . ...

PATTERN 09
ROW 00 : ... .. . ... ... : ... .. . ... : ... .. . ... : ... .. . ... : ... .. . ...
ROW 01 : ... .. . ... ... : D-3 0E F ... : ... .. . ... : ... .. . ... : ... .. . ...
ROW 02 : ... .. . ... ... : ... .. . ... : ... .. . ... : ... .. . ... : ... .. . ...
ROW 03 : ... .. . ... ... : C-3 0E . ... : ... .. . ... : ... .. . ... : ... .. . ...
ROW 04 : ... .. . ... ... : --- .. . ... : ... .. . ... : ... .. . ... : ... .. . ...
ROW 05 : ... .. . ... ... : D-3 0E . ... : ... .. . ... : ... .. . ... : ... .. . ...
ROW 06 : ... .. . ... ... : ... .. . ... : ... .. . ... : ... .. . ... : ... .. . ...
ROW 07 : ... .. . ... ... : C-3 0E . ... : ... .. . ... : ... .. . ... : ... .. . ...
ROW 08 : ... .. . ... ... : --- .. . ... : ... .. . ... : ... .. . ... : ... .. . ...
ROW 09 : ... .. . ... ... : A-2 0E . ... : ... .. . ... : ... .. . ... : ... .. . ...
ROW 0A : ... .. . ... ... : ... .. . ... : ... .. . ... : ... .. . ... : ... .. . ...
ROW 0B : ... .. . ... ... : G-2 0E . ... : ... .. . ... : ... .. . ... : ... .. . ...
ROW 0C : ... .. . ... ... : --- .. . ... : ... .. . ... : ... .. . ... : ... .. . ...
ROW 0D : ... .. . ... ... : A-2 0E . ... : ... .. . ... : ... .. . ... : ... .. . ...
ROW 0E : ... .. . ... ... : ... .. . ... : ... .. . ... : ... .. . ... : ... .. . ...
ROW 0F : ... .. . ... ... : G-2 0E . ... : ... .. . ... : ... .. . ... : ... .. . ...
ROW 10 : ... .. . ... ... : --- .. . ... : ... .. . ... : ... .. . ... : ... .. . ...
ROW 11 : ... .. . ... ... : G#2 0E . ... : ... .. . ... : ... .. . ... : ... .. . ...
ROW 12 : ... .. . ... ... : ... .. . ... : ... .. . ... : ... .. . ... : ... .. . ...
ROW 13 : ... .. . ... ... : F-2 0E . ... : ... .. . ... : ... .. . ... : ... .. . ...
ROW 14 : ... .. . ... ... : --- .. . ... : ... .. . ... : ... .. . ... : ... .. . ...
ROW 15 : ... .. . ... ... : G#2 0E . ... : ... .. . ... : ... .. . ... : ... .. . ...
ROW 16 : ... .. . ... ... : ... .. . ... : ... .. . ... : ... .. . ... : ... .. . ...
ROW 17 : ... .. . ... ... : G-2 0E . ... : ... .. . ... : ... .. . ... : ... .. . ...
ROW 18 : ... .. . ... ... : ... .. . ... : ... .. . ... : ... .. . ... : ... .. . ...
ROW 19 : ... .. . ... ... : ... .. . ... : ... .. . ... : ... .. . ... : ... .. . ...
ROW 1A : ... .. . ... ... : ... .. . ... : ... .. . ... : ... .. . ... : ... .. . ...
ROW 1B : ... .. . ... ... : ... .. . ... : ... .. . ... : ... .. . ... : ... .. . ...
ROW 1C : ... .. . ... ... : --- .. . ... : ... .. . ... : ... .. . ... : ... .. . ...
ROW 1D : ... .. . ... ... : F-2 0E . ... : ... .. . ... : ... .. . ... : ... .. . ...
ROW 1E : ... .. . ... ... : ... .. . ... : ... .. . ... : ... .. . ... : ... .. . ...
ROW 1F : ... .. . ... ... : D-2 0E . ... : ... .. . ... : ... .. . ... : ... .. . ...
ROW 20 : ... .. . ... ... : --- .. . ... : ... .. . ... : ... .. . ... : ... .. . ...
ROW 21 : ... .. . ... ... : D-3 0E . ... : ... .. . ... : ... .. . ... : ... .. . ...
ROW 22 : ... .. . ... ... : ... .. . ... : ... .. . ... : ... .. . ... : ... .. . ...
ROW 23 : ... .. . ... ... : ... .. . ... : ... .. . ... : ... .. . ... : ... .. . ...
ROW 24 : ... .. . ... ... : --- .. . ... : ... .. . ... : ... .. . ... : ... .. . ...
ROW 25 : ... .. . ... ... : D-3 0E . ... : ... .. . ... : ... .. . ... : ... .. . ...
ROW 26 : ... .. . ... ... : ... .. . ... : ... .. . ... : ... .. . ... : ... .. . ...
ROW 27 : ... .. . ... ... : ... .. . ... : ... .. . ... : ... .. . ... : ... .. . ...
ROW 28 : ... .. . ... ... : --- .. . ... : ... .. . ... : ... .. . ... : ... .. . ...
ROW 29 : ... .. . ... ... : A-2 0E . ... : ... .. . ... : ... .. . ... : ... .. . ...
ROW 2A : ... .. . ... ... : ... .. . ... : ... .. . ... : ... .. . ... : ... .. . ...
ROW 2B : ... .. . ... ... : ... .. . ... : ... .. . ... : ... .. . ... : ... .. . ...
ROW 2C : ... .. . ... ... : --- .. . ... : ... .. . ... : ... .. . ... : ... .. . ...
ROW 2D : ... .. . ... ... : A-2 0E . ... : ... .. . ... : ... .. . ... : ... .. . ...
ROW 2E : ... .. . ... ... : ... .. . ... : ... .. . ... : ... .. . ... : ... .. . ...
ROW 2F : ... .. . ... ... : ... .. . ... : ... .. . ... : ... .. . ... : ... .. . ...
ROW 30 : ... .. . ... ... : --- .. . ... : ... .. . ... : ... .. . ... : ... .. . ...
ROW 31 : ... .. . ... ... : G#2 0E . ... : ... .. . ... : ... .. . ... : ... .. . ...
ROW 32 : ... .. . ... ... : ... .. . ... : ... .. . ... : ... .. . ... : ... .. . ...
ROW 33 : ... .. . ... ... : F-2 0E . ... : ... .. . ... : ... .. . ... : ... .. . ...
ROW 34 : ... .. . ... ... : --- .. . ... : ... .. . ... : ... .. . ... : ... .. . ...
ROW 35 : ... .. . ... ... : G#2 0E . ... : ... .. . ... : ... .. . ... : ... .. . ...
ROW 36 : ... .. . ... ... : ... .. . ... : ... .. . ... : ... .. . ... : ... .. . ...
ROW 37 : ... .. . ... ... : A-2 0E . ... : ... .. . ... : ... .. . ... : ... .. . ...
ROW 38 : ... .. . ... ... : ... .. . ... : ... .. . ... : ... .. . ... : ... .. . ...
ROW 39 : ... .. . ... ... : ... .. . ... : ... .. . ... : ... .. . ... : ... .. . ...
ROW 3A : ... .. . ... ... : ... .. . ... : ... .. . ... : ... .. . ... : ... .. . ...
ROW 3B : ... .. . ... ... : ... .. . ... : ... .. . ... : ... .. . ... : ... .. . ...
ROW 3C : ... .. . ... ... : --- .. . ... : ... .. . ... : ... .. . ... : ... .. . ...
ROW 3D : ... .. . ... ... : C-3 0E . ... : ... .. . ... : ... .. . ... : ... .. . ...
ROW 3E : ... .. . ... ... : ... .. . ... : ... .. . ... : ... .. . ... : ... .. . ...
ROW 3F : ... .. . ... ... : ... .. . ... : ... .. . ... : ... .. . ... : ... .. . ...

PATTERN 0A
ROW 00 : ... .. . ... ... : ... .. . ... : ... .. . ... : ... .. . ... : ... .. . ...
ROW 01 : ... .. . ... ... : D-3 0E . ... : ... .. . ... : ... .. . ... : ... .. . ...
ROW 02 : ... .. . ... ... : ... .. . ... : ... .. . ... : ... .. . ... : ... .. . ...
ROW 03 : ... .. . ... ... : C-3 0E . ... : ... .. . ... : ... .. . ... : ... .. . ...
ROW 04 : ... .. . ... ... : --- .. . ... : ... .. . ... : ... .. . ... : ... .. . ...
ROW 05 : ... .. . ... ... : D-3 0E . ... : ... .. . ... : ... .. . ... : ... .. . ...
ROW 06 : ... .. . ... ... : ... .. . ... : ... .. . ... : ... .. . ... : ... .. . ...
ROW 07 : ... .. . ... ... : C-3 0E . ... : ... .. . ... : ... .. . ... : ... .. . ...
ROW 08 : ... .. . ... ... : --- .. . ... : ... .. . ... : ... .. . ... : ... .. . ...
ROW 09 : ... .. . ... ... : A-2 0E . ... : ... .. . ... : ... .. . ... : ... .. . ...
ROW 0A : ... .. . ... ... : ... .. . ... : ... .. . ... : ... .. . ... : ... .. . ...
ROW 0B : ... .. . ... ... : G-2 0E . ... : ... .. . ... : ... .. . ... : ... .. . ...
ROW 0C : ... .. . ... ... : --- .. . ... : ... .. . ... : ... .. . ... : ... .. . ...
ROW 0D : ... .. . ... ... : A-2 0E . ... : ... .. . ... : ... .. . ... : ... .. . ...
ROW 0E : ... .. . ... ... : ... .. . ... : ... .. . ... : ... .. . ... : ... .. . ...
ROW 0F : ... .. . ... ... : G-2 0E . ... : ... .. . ... : ... .. . ... : ... .. . ...
ROW 10 : ... .. . ... ... : --- .. . ... : ... .. . ... : ... .. . ... : ... .. . ...
ROW 11 : ... .. . ... ... : G#2 0E . ... : ... .. . ... : ... .. . ... : ... .. . ...
ROW 12 : ... .. . ... ... : ... .. . ... : ... .. . ... : ... .. . ... : ... .. . ...
ROW 13 : ... .. . ... ... : F-2 0E . ... : ... .. . ... : ... .. . ... : ... .. . ...
ROW 14 : ... .. . ... ... : --- .. . ... : ... .. . ... : ... .. . ... : ... .. . ...
ROW 15 : ... .. . ... ... : G#2 0E . ... : ... .. . ... : ... .. . ... : ... .. . ...
ROW 16 : ... .. . ... ... : ... .. . ... : ... .. . ... : ... .. . ... : ... .. . ...
ROW 17 : ... .. . ... ... : G-2 0E . ... : ... .. . ... : ... .. . ... : ... .. . ...
ROW 18 : ... .. . ... ... : ... .. . ... : ... .. . ... : ... .. . ... : ... .. . ...
ROW 19 : ... .. . ... ... : ... .. . ... : ... .. . ... : ... .. . ... : ... .. . ...
ROW 1A : ... .. . ... ... : ... .. . ... : ... .. . ... : ... .. . ... : ... .. . ...
ROW 1B : ... .. . ... ... : ... .. . ... : ... .. . ... : ... .. . ... : ... .. . ...
ROW 1C : ... .. . ... ... : --- .. . ... : ... .. . ... : ... .. . ... : ... .. . ...
ROW 1D : ... .. . ... ... : F-2 0E . ... : ... .. . ... : ... .. . ... : ... .. . ...
ROW 1E : ... .. . ... ... : ... .. . ... : ... .. . ... : ... .. . ... : ... .. . ...
ROW 1F : ... .. . ... ... : D-2 0E . ... : ... .. . ... : ... .. . ... : ... .. . ...
ROW 20 : ... .. . ... ... : --- .. . ... : ... .. . ... : ... .. . ... : ... .. . ...
ROW 21 : ... .. . ... ... : D-3 0E . ... : ... .. . ... : ... .. . ... : ... .. . ...
ROW 22 : ... .. . ... ... : ... .. . ... : ... .. . ... : ... .. . ... : ... .. . ...
ROW 23 : ... .. . ... ... : ... .. . ... : ... .. . ... : ... .. . ... : ... .. . ...
ROW 24 : ... .. . ... ... : --- .. . ... : ... .. . ... : ... .. . ... : ... .. . ...
ROW 25 : ... .. . ... ... : D-3 0E . ... : ... .. . ... : ... .. . ... : ... .. . ...
ROW 26 : ... .. . ... ... : ... .. . ... : ... .. . ... : ... .. . ... : ... .. . ...
ROW 27 : ... .. . ... ... : ... .. . ... : ... .. . ... : ... .. . ... : ... .. . ...
ROW 28 : ... .. . ... ... : --- .. . ... : ... .. . ... : ... .. . ... : ... .. . ...
ROW 29 : ... .. . ... ... : A-2 0E . ... : ... .. . ... : ... .. . ... : ... .. . ...
ROW 2A : ... .. . ... ... : ... .. . ... : ... .. . ... : ... .. . ... : ... .. . ...
ROW 2B : ... .. . ... ... : ... .. . ... : ... .. . ... : ... .. . ... : ... .. . ...
ROW 2C : ... .. . ... ... : --- .. . ... : ... .. . ... : ... .. . ... : ... .. . ...
ROW 2D : ... .. . ... ... : A-2 0E . ... : ... .. . ... : ... .. . ... : ... .. . ...
ROW 2E : ... .. . ... ... : ... .. . ... : ... .. . ... : ... .. . ... : ... .. . ...
ROW 2F : ... .. . ... ... : ... .. . ... : ... .. . ... : ... .. . ... : ... .. . ...
ROW 30 : ... .. . ... ... : --- .. . ... : ... .. . ... : ... .. . ... : ... .. . ...
ROW 31 : ... .. . ... ... : G#2 0E . ... : ... .. . ... : ... .. . ... : ... .. . ...
ROW 32 : ... .. . ... ... : ... .. . ... : ... .. . ... : ... .. . ... : ... .. . ...
ROW 33 : ... .. . ... ... : F-2 0E . ... : ... .. . ... : ... .. . ... : ... .. . ...
ROW 34 : ... .. . ... ... : --- .. . ... : ... .. . ... : ... .. . ... : ... .. . ...
ROW 35 : ... .. . ... ... : G#2 0E . ... : ... .. . ... : ... .. . ... : ... .. . ...
ROW 36 : ... .. . ... ... : ... .. . ... : ... .. . ... : ... .. . ... : ... .. . ...
ROW 37 : ... .. . ... ... : A-2 0E . ... : ... .. . ... : ... .. . ... : ... .. . ...
ROW 38 : ... .. . ... ... : ... .. . ... : ... .. . ... : ... .. . ... : ... .. . ...
ROW 39 : ... .. . ... ... : ... .. . ... : ... .. . ... : ... .. . ... : ... .. . ...
ROW 3A : ... .. . ... ... : ... .. . ... : ... .. . ... : ... .. . ... : ... .. . ...
ROW 3B : ... .. . ... ... : ... .. . ... : ... .. . ... : ... .. . ... : ... .. . ...
ROW 3C : ... .. . ... ... : --- .. . ... : ... .. . ... : ... .. . ... : ... .. . ...
ROW 3D : ... .. . ... ... : C-3 0E . ... : ... .. . ... : ... .. . ... : ... .. . ...
ROW 3E : ... .. . ... ... : ... .. . ... : ... .. . ... : ... .. . ... : ... .. . ...
ROW 3F : ... .. . ... ... : ... .. . B02 : ... .. . ... : ... .. . ... : ... .. . ...

TRACK  64   4 150 "World 5"
COLUMNS : 1 1 1 1 2

ORDER 00 : 00 00 00 00 00
ORDER 01 : 01 01 01 01 00
ORDER 02 : 02 02 02 00 00
ORDER 03 : 03 03 03 00 00
ORDER 04 : 00 00 04 00 00
ORDER 05 : 01 01 05 05 00
ORDER 06 : 01 01 07 05 00
ORDER 07 : 02 02 08 05 00
ORDER 08 : 03 03 09 09 00
ORDER 09 : 0A 0A 05 05 00
ORDER 0A : 0B 0B 07 0B 00
ORDER 0B : 0C 0C 0C 0B 00
ORDER 0C : 0B 0D 07 0B 00
ORDER 0D : 0D 0E 0D 0B 00
ORDER 0E : 0E 0F 0E 01 00
ORDER 0F : 0F 10 0F 01 00
ORDER 10 : 10 11 10 0F 00

PATTERN 00
ROW 00 : A-2 32 C 451 : --- .. . ... : --- .. . ... : --- .. . ... : ... .. . ... ...
ROW 01 : ... .. . ... : ... .. . ... : ... .. . ... : ... .. . ... : ... .. . ... ...
ROW 02 : ... .. . ... : C#3 32 C 451 : ... .. . ... : ... .. . ... : ... .. . ... ...
ROW 03 : ... .. . ... : ... .. . ... : ... .. . ... : ... .. . ... : ... .. . ... ...
ROW 04 : E-3 32 . ... : ... .. . ... : ... .. . ... : ... .. . ... : ... .. . ... ...
ROW 05 : ... .. . ... : ... .. . ... : ... .. . ... : ... .. . ... : ... .. . ... ...
ROW 06 : ... .. . ... : A-2 32 . ... : ... .. . ... : ... .. . ... : ... .. . ... ...
ROW 07 : ... .. . ... : ... .. . ... : ... .. . ... : ... .. . ... : ... .. . ... ...
ROW 08 : C#3 32 . ... : ... .. . ... : ... .. . ... : ... .. . ... : ... .. . ... ...
ROW 09 : ... .. . ... : ... .. . ... : ... .. . ... : ... .. . ... : ... .. . ... ...
ROW 0A : ... .. . ... : E-3 32 . ... : ... .. . ... : ... .. . ... : ... .. . ... ...
ROW 0B : ... .. . ... : ... .. . ... : ... .. . ... : ... .. . ... : ... .. . ... ...
ROW 0C : G#3 32 . ... : ... .. . ... : ... .. . ... : ... .. . ... : ... .. . ... ...
ROW 0D : ... .. . ... : ... .. . ... : ... .. . ... : ... .. . ... : ... .. . ... ...
ROW 0E : ... .. . ... : A-3 32 . ... : ... .. . ... : ... .. . ... : ... .. . ... ...
ROW 0F : ... .. . ... : ... .. . ... : ... .. . ... : ... .. . ... : ... .. . ... ...
ROW 10 : A-2 32 . ... : ... .. . ... : ... .. . ... : ... .. . ... : ... .. . ... ...
ROW 11 : ... .. . ... : ... .. . ... : ... .. . ... : ... .. . ... : ... .. . ... ...
ROW 12 : ... .. . ... : C#3 32 . ... : ... .. . ... : ... .. . ... : ... .. . ... ...
ROW 13 : ... .. . ... : ... .. . ... : ... .. . ... : ... .. . ... : ... .. . ... ...
ROW 14 : E-3 32 . ... : ... .. . ... : ... .. . ... : ... .. . ... : ... .. . ... ...
ROW 15 : ... .. . ... : ... .. . ... : ... .. . ... : ... .. . ... : ... .. . ... ...
ROW 16 : ... .. . ... : A-2 32 . ... : ... .. . ... : ... .. . ... : ... .. . ... ...
ROW 17 : ... .. . ... : ... .. . ... : ... .. . ... : ... .. . ... : ... .. . ... ...
ROW 18 : C#3 32 . ... : ... .. . ... : ... .. . ... : ... .. . ... : ... .. . ... ...
ROW 19 : ... .. . ... : ... .. . ... : ... .. . ... : ... .. . ... : ... .. . ... ...
ROW 1A : ... .. . ... : E-3 32 . ... : ... .. . ... : ... .. . ... : ... .. . ... ...
ROW 1B : ... .. . ... : ... .. . ... : ... .. . ... : ... .. . ... : ... .. . ... ...
ROW 1C : F#3 32 . ... : ... .. . ... : ... .. . ... : ... .. . ... : ... .. . ... ...
ROW 1D : ... .. . ... : ... .. . ... : ... .. . ... : ... .. . ... : ... .. . ... ...
ROW 1E : ... .. . ... : C#3 32 . ... : ... .. . ... : ... .. . ... : ... .. . ... ...
ROW 1F : ... .. . ... : ... .. . ... : ... .. . ... : ... .. . ... : ... .. . ... ...
ROW 20 : A-2 32 . ... : ... .. . ... : ... .. . ... : ... .. . ... : ... .. . ... ...
ROW 21 : ... .. . ... : ... .. . ... : ... .. . ... : ... .. . ... : ... .. . ... ...
ROW 22 : ... .. . ... : C#3 32 . ... : ... .. . ... : ... .. . ... : ... .. . ... ...
ROW 23 : ... .. . ... : ... .. . ... : ... .. . ... : ... .. . ... : ... .. . ... ...
ROW 24 : E-3 32 . ... : ... .. . ... : ... .. . ... : ... .. . ... : ... .. . ... ...
ROW 25 : ... .. . ... : ... .. . ... : ... .. . ... : ... .. . ... : ... .. . ... ...
ROW 26 : ... .. . ... : A-2 32 . ... : ... .. . ... : ... .. . ... : ... .. . ... ...
ROW 27 : ... .. . ... : ... .. . ... : ... .. . ... : ... .. . ... : ... .. . ... ...
ROW 28 : C#3 32 . ... : ... .. . ... : ... .. . ... : ... .. . ... : ... .. . ... ...
ROW 29 : ... .. . ... : ... .. . ... : ... .. . ... : ... .. . ... : ... .. . ... ...
ROW 2A : ... .. . ... : E-3 32 . ... : ... .. . ... : ... .. . ... : ... .. . ... ...
ROW 2B : ... .. . ... : ... .. . ... : ... .. . ... : ... .. . ... : ... .. . ... ...
ROW 2C : G#3 32 . ... : ... .. . ... : ... .. . ... : ... .. . ... : ... .. . ... ...
ROW 2D : ... .. . ... : ... .. . ... : ... .. . ... : ... .. . ... : ... .. . ... ...
ROW 2E : ... .. . ... : A-3 32 . ... : ... .. . ... : ... .. . ... : ... .. . ... ...
ROW 2F : ... .. . ... : ... .. . ... : ... .. . ... : ... .. . ... : ... .. . ... ...
ROW 30 : A-2 32 . ... : ... .. . ... : ... .. . ... : ... .. . ... : ... .. . ... ...
ROW 31 : ... .. . ... : ... .. . ... : ... .. . ... : ... .. . ... : ... .. . ... ...
ROW 32 : ... .. . ... : C#3 32 . ... : ... .. . ... : ... .. . ... : ... .. . ... ...
ROW 33 : ... .. . ... : ... .. . ... : ... .. . ... : ... .. . ... : ... .. . ... ...
ROW 34 : E-3 32 . ... : ... .. . ... : ... .. . ... : ... .. . ... : ... .. . ... ...
ROW 35 : ... .. . ... : ... .. . ... : ... .. . ... : ... .. . ... : ... .. . ... ...
ROW 36 : ... .. . ... : A-2 32 . ... : ... .. . ... : ... .. . ... : ... .. . ... ...
ROW 37 : ... .. . ... : ... .. . ... : ... .. . ... : ... .. . ... : ... .. . ... ...
ROW 38 : C#3 32 . ... : ... .. . ... : ... .. . ... : ... .. . ... : ... .. . ... ...
ROW 39 : ... .. . ... : ... .. . ... : ... .. . ... : ... .. . ... : ... .. . ... ...
ROW 3A : ... .. . ... : E-3 32 . ... : ... .. . ... : ... .. . ... : ... .. . ... ...
ROW 3B : ... .. . ... : ... .. . ... : ... .. . ... : ... .. . ... : ... .. . ... ...
ROW 3C : F#3 32 . ... : ... .. . ... : ... .. . ... : ... .. . ... : ... .. . ... ...
ROW 3D : ... .. . ... : ... .. . ... : ... .. . ... : ... .. . ... : ... .. . ... ...
ROW 3E : ... .. . ... : C#3 32 . ... : ... .. . ... : ... .. . ... : ... .. . ... ...
ROW 3F : ... .. . ... : ... .. . ... : ... .. . ... : ... .. . ... : ... .. . ... ...

PATTERN 01
ROW 00 : A-2 32 . ... : ... .. . ... : A-3 33 . ... : A-# 36 . ... : ... .. . ... ...
ROW 01 : ... .. . ... : ... .. . ... : ... .. . ... : ... .. . ... : ... .. . ... ...
ROW 02 : ... .. . ... : C#3 32 . ... : A-3 33 . ... : ... .. . ... : ... .. . ... ...
ROW 03 : ... .. . ... : ... .. . ... : ... .. . ... : ... .. . ... : ... .. . ... ...
ROW 04 : E-3 32 . ... : ... .. . ... : A-3 33 . ... : ... .. . ... : ... .. . ... ...
ROW 05 : ... .. . ... : ... .. . ... : ... .. . ... : ... .. . ... : ... .. . ... ...
ROW 06 : ... .. . ... : A-2 32 . ... : A-3 33 . ... : ... .. . ... : ... .. . ... ...
ROW 07 : ... .. . ... : ... .. . ... : ... .. . ... : ... .. . ... : ... .. . ... ...
ROW 08 : C#3 32 . ... : ... .. . ... : A-3 33 . ... : ... .. . ... : ... .. . ... ...
ROW 09 : ... .. . ... : ... .. . ... : ... .. . ... : ... .. . ... : ... .. . ... ...
ROW 0A : ... .. . ... : E-3 32 . ... : A-3 33 . ... : ... .. . ... : ... .. . ... ...
ROW 0B : ... .. . ... : ... .. . ... : ... .. . ... : ... .. . ... : ... .. . ... ...
ROW 0C : G#3 32 . ... : ... .. . ... : A-3 33 . ... : ... .. . ... : ... .. . ... ...
ROW 0D : ... .. . ... : ... .. . ... : ... .. . ... : ... .. . ... : ... .. . ... ...
ROW 0E : ... .. . ... : A-3 32 . ... : A-3 33 . ... : ... .. . ... : ... .. . ... ...
ROW 0F : ... .. . ... : ... .. . ... : ... .. . ... : ... .. . ... : ... .. . ... ...
ROW 10 : A-2 32 . ... : ... .. . ... : A-3 33 . ... : ... .. . ... : ... .. . ... ...
ROW 11 : ... .. . ... : ... .. . ... : ... .. . ... : ... .. . ... : ... .. . ... ...
ROW 12 : ... .. . ... : C#3 32 . ... : A-3 33 . ... : ... .. . ... : ... .. . ... ...
ROW 13 : ... .. . ... : ... .. . ... : ... .. . ... : ... .. . ... : ... .. . ... ...
ROW 14 : E-3 32 . ... : ... .. . ... : A-3 33 . ... : ... .. . ... : ... .. . ... ...
ROW 15 : ... .. . ... : ... .. . ... : ... .. . ... : ... .. . ... : ... .. . ... ...
ROW 16 : ... .. . ... : A-2 32 . ... : A-3 33 . ... : ... .. . ... : ... .. . ... ...
ROW 17 : ... .. . ... : ... .. . ... : ... .. . ... : ... .. . ... : ... .. . ... ...
ROW 18 : C#3 32 . ... : ... .. . ... : A-3 33 . ... : ... .. . ... : ... .. . ... ...
ROW 19 : ... .. . ... : ... .. . ... : ... .. . ... : ... .. . ... : ... .. . ... ...
ROW 1A : ... .. . ... : E-3 32 . ... : A-3 33 . ... : ... .. . ... : ... .. . ... ...
ROW 1B : ... .. . ... : ... .. . ... : ... .. . ... : ... .. . ... : ... .. . ... ...
ROW 1C : F#3 32 . ... : ... .. . ... : A-3 33 . ... : ... .. . ... : ... .. . ... ...
ROW 1D : ... .. . ... : ... .. . ... : ... .. . ... : ... .. . ... : ... .. . ... ...
ROW 1E : ... .. . ... : C#3 32 . ... : A-3 33 . ... : ... .. . ... : ... .. . ... ...
ROW 1F : ... .. . ... : ... .. . ... : ... .. . ... : ... .. . ... : ... .. . ... ...
ROW 20 : A-2 32 . ... : ... .. . ... : A-3 33 . ... : ... .. . ... : ... .. . ... ...
ROW 21 : ... .. . ... : ... .. . ... : ... .. . ... : ... .. . ... : ... .. . ... ...
ROW 22 : ... .. . ... : C#3 32 . ... : A-3 33 . ... : ... .. . ... : ... .. . ... ...
ROW 23 : ... .. . ... : ... .. . ... : ... .. . ... : ... .. . ... : ... .. . ... ...
ROW 24 : E-3 32 . ... : ... .. . ... : A-3 33 . ... : ... .. . ... : ... .. . ... ...
ROW 25 : ... .. . ... : ... .. . ... : ... .. . ... : ... .. . ... : ... .. . ... ...
ROW 26 : ... .. . ... : A-2 32 . ... : A-3 33 . ... : ... .. . ... : ... .. . ... ...
ROW 27 : ... .. . ... : ... .. . ... : ... .. . ... : ... .. . ... : ... .. . ... ...
ROW 28 : C#3 32 . ... : ... .. . ... : A-3 33 . ... : ... .. . ... : ... .. . ... ...
ROW 29 : ... .. . ... : ... .. . ... : ... .. . ... : ... .. . ... : ... .. . ... ...
ROW 2A : ... .. . ... : E-3 32 . ... : A-3 33 . ... : ... .. . ... : ... .. . ... ...
ROW 2B : ... .. . ... : ... .. . ... : ... .. . ... : ... .. . ... : ... .. . ... ...
ROW 2C : G#3 32 . ... : ... .. . ... : A-3 33 . ... : ... .. . ... : ... .. . ... ...
ROW 2D : ... .. . ... : ... .. . ... : ... .. . ... : ... .. . ... : ... .. . ... ...
ROW 2E : ... .. . ... : A-3 32 . ... : A-3 33 . ... : ... .. . ... : ... .. . ... ...
ROW 2F : ... .. . ... : ... .. . ... : ... .. . ... : ... .. . ... : ... .. . ... ...
ROW 30 : A-2 32 . ... : ... .. . ... : A-3 33 . ... : ... .. . ... : ... .. . ... ...
ROW 31 : ... .. . ... : ... .. . ... : ... .. . ... : ... .. . ... : ... .. . ... ...
ROW 32 : ... .. . ... : C#3 32 . ... : A-3 33 . ... : ... .. . ... : ... .. . ... ...
ROW 33 : ... .. . ... : ... .. . ... : ... .. . ... : ... .. . ... : ... .. . ... ...
ROW 34 : E-3 32 . ... : ... .. . ... : A-3 33 . ... : ... .. . ... : ... .. . ... ...
ROW 35 : ... .. . ... : ... .. . ... : ... .. . ... : ... .. . ... : ... .. . ... ...
ROW 36 : ... .. . ... : A-2 32 . ... : A-3 33 . ... : ... .. . ... : ... .. . ... ...
ROW 37 : ... .. . ... : ... .. . ... : ... .. . ... : ... .. . ... : ... .. . ... ...
ROW 38 : C#3 32 . ... : ... .. . ... : A-3 33 . ... : ... .. . ... : ... .. . ... ...
ROW 39 : ... .. . ... : ... .. . ... : ... .. . ... : ... .. . ... : ... .. . ... ...
ROW 3A : ... .. . ... : E-3 32 . ... : G#3 33 . ... : ... .. . ... : ... .. . ... ...
ROW 3B : ... .. . ... : ... .. . ... : ... .. . ... : ... .. . ... : ... .. . ... ...
ROW 3C : C#3 32 . ... : ... .. . ... : G-3 33 . ... : ... .. . ... : ... .. . ... ...
ROW 3D : ... .. . ... : ... .. . ... : ... .. . ... : ... .. . ... : ... .. . ... ...
ROW 3E : ... .. . ... : A-2 32 . ... : F#3 33 . ... : ... .. . ... : ... .. . ... ...
ROW 3F : ... .. . ... : ... .. . ... : ... .. . ... : ... .. . ... : ... .. . ... ...

PATTERN 02
ROW 00 : F-2 32 . ... : ... .. . ... : F-3 33 . ... : ... .. . ... : ... .. . ... ...
ROW 01 : ... .. . ... : ... .. . ... : ... .. . ... : ... .. . ... : ... .. . ... ...
ROW 02 : ... .. . ... : A-2 32 . ... : F-3 33 . ... : ... .. . ... : ... .. . ... ...
ROW 03 : ... .. . ... : ... .. . ... : ... .. . ... : ... .. . ... : ... .. . ... ...
ROW 04 : C-3 32 . ... : ... .. . ... : F-3 33 . ... : ... .. . ... : ... .. . ... ...
ROW 05 : ... .. . ... : ... .. . ... : ... .. . ... : ... .. . ... : ... .. . ... ...
ROW 06 : ... .. . ... : F-2 32 . ... : F-3 33 . ... : ... .. . ... : ... .. . ... ...
ROW 07 : ... .. . ... : ... .. . ... : ... .. . ... : ... .. . ... : ... .. . ... ...
ROW 08 : A-2 32 . ... : ... .. . ... : F-3 33 . ... : ... .. . ... : ... .. . ... ...
ROW 09 : ... .. . ... : ... .. . ... : ... .. . ... : ... .. . ... : ... .. . ... ...
ROW 0A : ... .. . ... : C-3 32 . ... : F-3 33 . ... : ... .. . ... : ... .. . ... ...
ROW 0B : ... .. . ... : ... .. . ... : ... .. . ... : ... .. . ... : ... .. . ... ...
ROW 0C : E-3 32 . ... : ... .. . ... : F-3 33 . ... : ... .. . ... : ... .. . ... ...
ROW 0D : ... .. . ... : ... .. . ... : ... .. . ... : ... .. . ... : ... .. . ... ...
ROW 0E : ... .. . ... : F-3 32 . ... : F-3 33 . ... : ... .. . ... : ... .. . ... ...
ROW 0F : ... .. . ... : ... .. . ... : ... .. . ... : ... .. . ... : ... .. . ... ...
ROW 10 : F-2 32 . ... : ... .. . ... : F-3 33 . ... : ... .. . ... : ... .. . ... ...
ROW 11 : ... .. . ... : ... .. . ... : ... .. . ... : ... .. . ... : ... .. . ... ...
ROW 12 : ... .. . ... : A-2 32 . ... : F-3 33 . ... : ... .. . ... : ... .. . ... ...
ROW 13 : ... .. . ... : ... .. . ... : ... .. . ... : ... .. . ... : ... .. . ... ...
ROW 14 : C-3 32 . ... : ... .. . ... : F-3 33 . ... : ... .. . ... : ... .. . ... ...
ROW 15 : ... .. . ... : ... .. . ... : ... .. . ... : ... .. . ... : ... .. . ... ...
ROW 16 : ... .. . ... : F-2 32 . ... : F-3 33 . ... : ... .. . ... : ... .. . ... ...
ROW 17 : ... .. . ... : ... .. . ... : ... .. . ... : ... .. . ... : ... .. . ... ...
ROW 18 : A-2 32 . ... : ... .. . ... : F-3 33 . ... : ... .. . ... : ... .. . ... ...
ROW 19 : ... .. . ... : ... .. . ... : ... .. . ... : ... .. . ... : ... .. . ... ...
ROW 1A : ... .. . ... : C-3 32 . ... : F-3 33 . ... : ... .. . ... : ... .. . ... ...
ROW 1B : ... .. . ... : ... .. . ... : ... .. . ... : ... .. . ... : ... .. . ... ...
ROW 1C : D-3 32 . ... : ... .. . ... : F-3 33 . ... : ... .. . ... : ... .. . ... ...
ROW 1D : ... .. . ... : ... .. . ... : ... .. . ... : ... .. . ... : ... .. . ... ...
ROW 1E : ... .. . ... : A-2 32 . ... : F-3 33 . ... : ... .. . ... : ... .. . ... ...
ROW 1F : ... .. . ... : ... .. . ... : ... .. . ... : ... .. . ... : ... .. . ... ...
ROW 20 : F-2 32 . ... : ... .. . ... : F-3 33 . ... : ... .. . ... : ... .. . ... ...
ROW 21 : ... .. . ... : ... .. . ... : ... .. . ... : ... .. . ... : ... .. . ... ...
ROW 22 : ... .. . ... : A-2 32 . ... : F-3 33 . ... : ... .. . ... : ... .. . ... ...
ROW 23 : ... .. . ... : ... .. . ... : ... .. . ... : ... .. . ... : ... .. . ... ...
ROW 24 : C-3 32 . ... : ... .. . ... : F-3 33 . ... : ... .. . ... : ... .. . ... ...
ROW 25 : ... .. . ... : ... .. . ... : ... .. . ... : ... .. . ... : ... .. . ... ...
ROW 26 : ... .. . ... : F-2 32 . ... : F-3 33 . ... : ... .. . ... : ... .. . ... ...
ROW 27 : ... .. . ... : ... .. . ... : ... .. . ... : ... .. . ... : ... .. . ... ...
ROW 28 : A-2 32 . ... : ... .. . ... : F-3 33 . ... : ... .. . ... : ... .. . ... ...
ROW 29 : ... .. . ... : ... .. . ... : ... .. . ... : ... .. . ... : ... .. . ... ...
ROW 2A : ... .. . ... : C-3 32 . ... : F-3 33 . ... : ... .. . ... : ... .. . ... ...
ROW 2B : ... .. . ... : ... .. . ... : ... .. . ... : ... .. . ... : ... .. . ... ...
ROW 2C : E-3 32 . ... : ... .. . ... : F-3 33 . ... : ... .. . ... : ... .. . ... ...
ROW 2D : ... .. . ... : ... .. . ... : ... .. . ... : ... .. . ... : ... .. . ... ...
ROW 2E : ... .. . ... : F-3 32 . ... : F-3 33 . ... : ... .. . ... : ... .. . ... ...
ROW 2F : ... .. . ... : ... .. . ... : ... .. . ... : ... .. . ... : ... .. . ... ...
ROW 30 : F-2 32 . ... : ... .. . ... : F-3 33 . ... : ... .. . ... : ... .. . ... ...
ROW 31 : ... .. . ... : ... .. . ... : ... .. . ... : ... .. . ... : ... .. . ... ...
ROW 32 : ... .. . ... : A-2 32 . ... : F-3 33 . ... : ... .. . ... : ... .. . ... ...
ROW 33 : ... .. . ... : ... .. . ... : ... .. . ... : ... .. . ... : ... .. . ... ...
ROW 34 : C-3 32 . ... : ... .. . ... : F-3 33 . ... : ... .. . ... : ... .. . ... ...
ROW 35 : ... .. . ... : ... .. . ... : ... .. . ... : ... .. . ... : ... .. . ... ...
ROW 36 : ... .. . ... : F-2 32 . ... : F-3 33 . ... : ... .. . ... : ... .. . ... ...
ROW 37 : ... .. . ... : ... .. . ... : ... .. . ... : ... .. . ... : ... .. . ... ...
ROW 38 : A-2 32 . ... : ... .. . ... : F-3 33 . ... : ... .. . ... : ... .. . ... ...
ROW 39 : ... .. . ... : ... .. . ... : ... .. . ... : ... .. . ... : ... .. . ... ...
ROW 3A : ... .. . ... : C-3 32 . ... : F-3 33 . ... : ... .. . ... : ... .. . ... ...
ROW 3B : ... .. . ... : ... .. . ... : ... .. . ... : ... .. . ... : ... .. . ... ...
ROW 3C : A-2 32 . ... : ... .. . ... : F-3 33 . ... : ... .. . ... : ... .. . ... ...
ROW 3D : ... .. . ... : ... .. . ... : ... .. . ... : ... .. . ... : ... .. . ... ...
ROW 3E : ... .. . ... : F-2 32 . ... : F-3 33 . ... : ... .. . ... : ... .. . ... ...
ROW 3F : ... .. . ... : ... .. . ... : ... .. . ... : ... .. . ... : ... .. . ... ...

PATTERN 03
ROW 00 : G-2 32 . ... : ... .. . ... : G-3 33 . ... : ... .. . ... : ... .. . ... ...
ROW 01 : ... .. . ... : ... .. . ... : ... .. . ... : ... .. . ... : ... .. . ... ...
ROW 02 : ... .. . ... : B-2 32 . ... : G-3 33 . ... : ... .. . ... : ... .. . ... ...
ROW 03 : ... .. . ... : ... .. . ... : ... .. . ... : ... .. . ... : ... .. . ... ...
ROW 04 : D-3 32 . ... : ... .. . ... : G-3 33 . ... : ... .. . ... : ... .. . ... ...
ROW 05 : ... .. . ... : ... .. . ... : ... .. . ... : ... .. . ... : ... .. . ... ...
ROW 06 : ... .. . ... : G-2 32 . ... : G-3 33 . ... : ... .. . ... : ... .. . ... ...
ROW 07 : ... .. . ... : ... .. . ... : ... .. . ... : ... .. . ... : ... .. . ... ...
ROW 08 : B-2 32 . ... : ... .. . ... : G-3 33 . ... : ... .. . ... : ... .. . ... ...
ROW 09 : ... .. . ... : ... .. . ... : ... .. . ... : ... .. . ... : ... .. . ... ...
ROW 0A : ... .. . ... : D-3 32 . ... : G-3 33 . ... : ... .. . ... : ... .. . ... ...
ROW 0B : ... .. . ... : ... .. . ... : ... .. . ... : ... .. . ... : ... .. . ... ...
ROW 0C : F#3 32 . ... : ... .. . ... : G-3 33 . ... : ... .. . ... : ... .. . ... ...
ROW 0D : ... .. . ... : ... .. . ... : ... .. . ... : ... .. . ... : ... .. . ... ...
ROW 0E : ... .. . ... : G-3 32 . ... : G-3 33 . ... : ... .. . ... : ... .. . ... ...
ROW 0F : ... .. . ... : ... .. . ... : ... .. . ... : ... .. . ... : ... .. . ... ...
ROW 10 : G-2 32 . ... : ... .. . ... : G-3 33 . ... : ... .. . ... : ... .. . ... ...
ROW 11 : ... .. . ... : ... .. . ... : ... .. . ... : ... .. . ... : ... .. . ... ...
ROW 12 : ... .. . ... : B-2 32 . ... : G-3 33 . ... : ... .. . ... : ... .. . ... ...
ROW 13 : ... .. . ... : ... .. . ... : ... .. . ... : ... .. . ... : ... .. . ... ...
ROW 14 : D-3 32 . ... : ... .. . ... : G-3 33 . ... : ... .. . ... : ... .. . ... ...
ROW 15 : ... .. . ... : ... .. . ... : ... .. . ... : ... .. . ... : ... .. . ... ...
ROW 16 : ... .. . ... : G-2 32 . ... : G-3 33 . ... : ... .. . ... : ... .. . ... ...
ROW 17 : ... .. . ... : ... .. . ... : ... .. . ... : ... .. . ... : ... .. . ... ...
ROW 18 : B-2 32 . ... : ... .. . ... : G-3 33 . ... : ... .. . ... : ... .. . ... ...
ROW 19 : ... .. . ... : ... .. . ... : ... .. . ... : ... .. . ... : ... .. . ... ...
ROW 1A : ... .. . ... : D-3 32 . ... : G-3 33 . ... : ... .. . ... : ... .. . ... ...
ROW 1B : ... .. . ... : ... .. . ... : ... .. . ... : ... .. . ... : ... .. . ... ...
ROW 1C : E-3 32 . ... : ... .. . ... : G-3 33 . ... : ... .. . ... : ... .. . ... ...
ROW 1D : ... .. . ... : ... .. . ... : ... .. . ... : ... .. . ... : ... .. . ... ...
ROW 1E : ... .. . ... : B-2 32 . ... : G-3 33 . ... : ... .. . ... : ... .. . ... ...
ROW 1F : ... .. . ... : ... .. . ... : ... .. . ... : ... .. . ... : ... .. . ... ...
ROW 20 : G-2 32 . ... : ... .. . ... : G-3 33 . ... : ... .. . ... : ... .. . ... ...
ROW 21 : ... .. . ... : ... .. . ... : ... .. . ... : ... .. . ... : ... .. . ... ...
ROW 22 : ... .. . ... : B-2 32 . ... : G-3 33 . ... : ... .. . ... : ... .. . ... ...
ROW 23 : ... .. . ... : ... .. . ... : ... .. . ... : ... .. . ... : ... .. . ... ...
ROW 24 : D-3 32 . ... : ... .. . ... : G-3 33 . ... : ... .. . ... : ... .. . ... ...
ROW 25 : ... .. . ... : ... .. . ... : ... .. . ... : ... .. . ... : ... .. . ... ...
ROW 26 : ... .. . ... : G-2 32 . ... : G-3 33 . ... : ... .. . ... : ... .. . ... ...
ROW 27 : ... .. . ... : ... .. . ... : ... .. . ... : ... .. . ... : ... .. . ... ...
ROW 28 : B-2 32 . ... : ... .. . ... : G-3 33 . ... : ... .. . ... : ... .. . ... ...
ROW 29 : ... .. . ... : ... .. . ... : ... .. . ... : ... .. . ... : ... .. . ... ...
ROW 2A : ... .. . ... : D-3 32 . ... : G-3 33 . ... : ... .. . ... : ... .. . ... ...
ROW 2B : ... .. . ... : ... .. . ... : ... .. . ... : ... .. . ... : ... .. . ... ...
ROW 2C : F#3 32 . ... : ... .. . ... : G-3 33 . ... : ... .. . ... : ... .. . ... ...
ROW 2D : ... .. . ... : ... .. . ... : ... .. . ... : ... .. . ... : ... .. . ... ...
ROW 2E : ... .. . ... : G-3 32 . ... : G-3 33 . ... : ... .. . ... : ... .. . ... ...
ROW 2F : ... .. . ... : ... .. . ... : ... .. . ... : ... .. . ... : ... .. . ... ...
ROW 30 : G-2 32 . ... : ... .. . ... : G-3 33 . ... : ... .. . ... : ... .. . ... ...
ROW 31 : ... .. . ... : ... .. . ... : ... .. . ... : ... .. . ... : ... .. . ... ...
ROW 32 : ... .. . ... : B-2 32 . ... : G-3 33 . ... : ... .. . ... : ... .. . ... ...
ROW 33 : ... .. . ... : ... .. . ... : ... .. . ... : ... .. . ... : ... .. . ... ...
ROW 34 : D-3 32 . ... : ... .. . ... : G-3 33 . ... : ... .. . ... : ... .. . ... ...
ROW 35 : ... .. . ... : ... .. . ... : ... .. . ... : ... .. . ... : ... .. . ... ...
ROW 36 : ... .. . ... : G-2 32 . ... : G-3 33 . ... : ... .. . ... : ... .. . ... ...
ROW 37 : ... .. . ... : ... .. . ... : ... .. . ... : ... .. . ... : ... .. . ... ...
ROW 38 : B-2 32 . ... : ... .. . ... : G-3 33 . ... : ... .. . ... : ... .. . ... ...
ROW 39 : ... .. . ... : ... .. . ... : ... .. . ... : ... .. . ... : ... .. . ... ...
ROW 3A : ... .. . ... : D-3 32 . ... : G-3 33 . ... : ... .. . ... : ... .. . ... ...
ROW 3B : ... .. . ... : ... .. . ... : ... .. . ... : ... .. . ... : ... .. . ... ...
ROW 3C : B-2 32 . ... : ... .. . ... : G-3 33 . ... : ... .. . ... : ... .. . ... ...
ROW 3D : ... .. . ... : ... .. . ... : ... .. . ... : ... .. . ... : ... .. . ... ...
ROW 3E : ... .. . ... : G-2 32 . ... : G-3 33 . ... : ... .. . ... : ... .. . ... ...
ROW 3F : ... .. . ... : ... .. . ... : ... .. . ... : ... .. . ... : ... .. . ... ...

PATTERN 04
ROW 00 : ... .. . ... : ... .. . ... : A-3 33 . ... : ... .. . ... : ... .. . ... ...
ROW 01 : ... .. . ... : ... .. . ... : ... .. . ... : ... .. . ... : ... .. . ... ...
ROW 02 : ... .. . ... : ... .. . ... : A-3 33 . ... : ... .. . ... : ... .. . ... ...
ROW 03 : ... .. . ... : ... .. . ... : ... .. . ... : ... .. . ... : ... .. . ... ...
ROW 04 : ... .. . ... : ... .. . ... : A-3 33 . ... : ... .. . ... : ... .. . ... ...
ROW 05 : ... .. . ... : ... .. . ... : ... .. . ... : ... .. . ... : ... .. . ... ...
ROW 06 : ... .. . ... : ... .. . ... : A-3 33 . ... : ... .. . ... : ... .. . ... ...
ROW 07 : ... .. . ... : ... .. . ... : ... .. . ... : ... .. . ... : ... .. . ... ...
ROW 08 : ... .. . ... : ... .. . ... : A-3 33 . ... : ... .. . ... : ... .. . ... ...
ROW 09 : ... .. . ... : ... .. . ... : ... .. . ... : ... .. . ... : ... .. . ... ...
ROW 0A : ... .. . ... : ... .. . ... : A-3 33 . ... : ... .. . ... : ... .. . ... ...
ROW 0B : ... .. . ... : ... .. . ... : ... .. . ... : ... .. . ... : ... .. . ... ...
ROW 0C : ... .. . ... : ... .. . ... : A-3 33 . ... : ... .. . ... : ... .. . ... ...
ROW 0D : ... .. . ... : ... .. . ... : ... .. . ... : ... .. . ... : ... .. . ... ...
ROW 0E : ... .. . ... : ... .. . ... : A-3 33 . ... : ... .. . ... : ... .. . ... ...
ROW 0F : ... .. . ... : ... .. . ... : ... .. . ... : ... .. . ... : ... .. . ... ...
ROW 10 : ... .. . ... : ... .. . ... : A-3 33 . ... : ... .. . ... : ... .. . ... ...
ROW 11 : ... .. . ... : ... .. . ... : ... .. . ... : ... .. . ... : ... .. . ... ...
ROW 12 : ... .. . ... : ... .. . ... : A-3 33 . ... : ... .. . ... : ... .. . ... ...
ROW 13 : ... .. . ... : ... .. . ... : ... .. . ... : ... .. . ... : ... .. . ... ...
ROW 14 : ... .. . ... : ... .. . ... : A-3 33 . ... : ... .. . ... : ... .. . ... ...
ROW 15 : ... .. . ... : ... .. . ... : ... .. . ... : ... .. . ... : ... .. . ... ...
ROW 16 : ... .. . ... : ... .. . ... : A-3 33 . ... : ... .. . ... : ... .. . ... ...
ROW 17 : ... .. . ... : ... .. . ... : ... .. . ... : ... .. . ... : ... .. . ... ...
ROW 18 : ... .. . ... : ... .. . ... : A-3 33 . ... : ... .. . ... : ... .. . ... ...
ROW 19 : ... .. . ... : ... .. . ... : ... .. . ... : ... .. . ... : ... .. . ... ...
ROW 1A : ... .. . ... : ... .. . ... : A-3 33 . ... : ... .. . ... : ... .. . ... ...
ROW 1B : ... .. . ... : ... .. . ... : ... .. . ... : ... .. . ... : ... .. . ... ...
ROW 1C : ... .. . ... : ... .. . ... : A-3 33 . ... : ... .. . ... : ... .. . ... ...
ROW 1D : ... .. . ... : ... .. . ... : ... .. . ... : ... .. . ... : ... .. . ... ...
ROW 1E : ... .. . ... : ... .. . ... : A-3 33 . ... : ... .. . ... : ... .. . ... ...
ROW 1F : ... .. . ... : ... .. . ... : ... .. . ... : ... .. . ... : ... .. . ... ...
ROW 20 : ... .. . ... : ... .. . ... : A-3 33 . ... : ... .. . ... : ... .. . ... ...
ROW 21 : ... .. . ... : ... .. . ... : ... .. . ... : ... .. . ... : ... .. . ... ...
ROW 22 : ... .. . ... : ... .. . ... : A-3 33 . ... : ... .. . ... : ... .. . ... ...
ROW 23 : ... .. . ... : ... .. . ... : ... .. . ... : ... .. . ... : ... .. . ... ...
ROW 24 : ... .. . ... : ... .. . ... : A-3 33 . ... : ... .. . ... : ... .. . ... ...
ROW 25 : ... .. . ... : ... .. . ... : ... .. . ... : ... .. . ... : ... .. . ... ...
ROW 26 : ... .. . ... : ... .. . ... : A-3 33 . ... : ... .. . ... : ... .. . ... ...
ROW 27 : ... .. . ... : ... .. . ... : ... .. . ... : ... .. . ... : ... .. . ... ...
ROW 28 : ... .. . ... : ... .. . ... : A-3 33 . ... : ... .. . ... : ... .. . ... ...
ROW 29 : ... .. . ... : ... .. . ... : ... .. . ... : ... .. . ... : ... .. . ... ...
ROW 2A : ... .. . ... : ... .. . ... : A-3 33 . ... : ... .. . ... : ... .. . ... ...
ROW 2B : ... .. . ... : ... .. . ... : ... .. . ... : ... .. . ... : ... .. . ... ...
ROW 2C : ... .. . ... : ... .. . ... : A-3 33 . ... : ... .. . ... : ... .. . ... ...
ROW 2D : ... .. . ... : ... .. . ... : ... .. . ... : ... .. . ... : ... .. . ... ...
ROW 2E : ... .. . ... : ... .. . ... : A-3 33 . ... : ... .. . ... : ... .. . ... ...
ROW 2F : ... .. . ... : ... .. . ... : ... .. . ... : ... .. . ... : ... .. . ... ...
ROW 30 : ... .. . ... : ... .. . ... : A-3 33 . ... : ... .. . ... : ... .. . ... ...
ROW 31 : ... .. . ... : ... .. . ... : ... .. . ... : ... .. . ... : ... .. . ... ...
ROW 32 : ... .. . ... : ... .. . ... : A-3 33 . ... : ... .. . ... : ... .. . ... ...
ROW 33 : ... .. . ... : ... .. . ... : ... .. . ... : ... .. . ... : ... .. . ... ...
ROW 34 : ... .. . ... : ... .. . ... : A-3 33 . ... : ... .. . ... : ... .. . ... ...
ROW 35 : ... .. . ... : ... .. . ... : ... .. . ... : ... .. . ... : ... .. . ... ...
ROW 36 : ... .. . ... : ... .. . ... : A-3 33 . ... : ... .. . ... : ... .. . ... ...
ROW 37 : ... .. . ... : ... .. . ... : ... .. . ... : ... .. . ... : ... .. . ... ...
ROW 38 : ... .. . ... : ... .. . ... : A-3 33 . ... : ... .. . ... : ... .. . ... ...
ROW 39 : ... .. . ... : ... .. . ... : ... .. . ... : ... .. . ... : ... .. . ... ...
ROW 3A : ... .. . ... : ... .. . ... : A-3 33 . ... : ... .. . ... : ... .. . ... ...
ROW 3B : ... .. . ... : ... .. . ... : ... .. . ... : ... .. . ... : ... .. . ... ...
ROW 3C : ... .. . ... : ... .. . ... : E-3 33 . ... : ... .. . ... : ... .. . ... ...
ROW 3D : ... .. . ... : ... .. . ... : ... .. . ... : ... .. . ... : ... .. . ... ...
ROW 3E : ... .. . ... : ... .. . ... : C#3 33 . ... : ... .. . ... : ... .. . ... ...
ROW 3F : ... .. . ... : ... .. . ... : ... .. . ... : ... .. . ... : ... .. . ... ...

PATTERN 05
ROW 00 : ... .. . ... : ... .. . ... : A-2 00 . ... : 0-# 11 . J10 : ... .. . ... ...
ROW 01 : ... .. . ... : ... .. . ... : ... .. . ... : ... .. . ... : ... .. . ... ...
ROW 02 : ... .. . ... : ... .. . ... : ... .. . ... : E-# 13 . ... : ... .. . ... ...
ROW 03 : ... .. . ... : ... .. . ... : ... .. . ... : ... .. . ... : ... .. . ... ...
ROW 04 : ... .. . ... : ... .. . ... : A-4 00 . ... : D-# 14 . ... : ... .. . ... ...
ROW 05 : ... .. . ... : ... .. . ... : --- 33 . ... : ... .. . ... : ... .. . ... ...
ROW 06 : ... .. . ... : ... .. . ... : A-4 00 . ... : E-# 13 . ... : ... .. . ... ...
ROW 07 : ... .. . ... : ... .. . ... : --- .. . ... : ... .. . ... : ... .. . ... ...
ROW 08 : ... .. . ... : ... .. . ... : E-2 00 . ... : 0-# 11 . J10 : ... .. . ... ...
ROW 09 : ... .. . ... : ... .. . ... : ... .. . ... : ... .. . ... : ... .. . ... ...
ROW 0A : ... .. . ... : ... .. . ... : ... .. . ... : E-# 13 . ... : ... .. . ... ...
ROW 0B : ... .. . ... : ... .. . ... : ... .. . ... : ... .. . ... : ... .. . ... ...
ROW 0C : ... .. . ... : ... .. . ... : E-4 00 . ... : D-# 14 . ... : ... .. . ... ...
ROW 0D : ... .. . ... : ... .. . ... : --- .. . ... : ... .. . ... : ... .. . ... ...
ROW 0E : ... .. . ... : ... .. . ... : E-4 00 . ... : E-# 13 . ... : ... .. . ... ...
ROW 0F : ... .. . ... : ... .. . ... : --- .. . ... : ... .. . ... : ... .. . ... ...
ROW 10 : ... .. . ... : ... .. . ... : C#2 00 . ... : 0-# 11 . J10 : ... .. . ... ...
ROW 11 : ... .. . ... : ... .. . ... : ... .. . ... : ... .. . ... : ... .. . ... ...
ROW 12 : ... .. . ... : ... .. . ... : ... .. . ... : E-# 13 . ... : ... .. . ... ...
ROW 13 : ... .. . ... : ... .. . ... : ... .. . ... : ... .. . ... : ... .. . ... ...
ROW 14 : ... .. . ... : ... .. . ... : E-4 00 . ... : D-# 14 . ... : ... .. . ... ...
ROW 15 : ... .. . ... : ... .. . ... : --- 33 . ... : ... .. . ... : ... .. . ... ...
ROW 16 : ... .. . ... : ... .. . ... : A-4 00 . ... : E-# 13 . ... : ... .. . ... ...
ROW 17 : ... .. . ... : ... .. . ... : --- .. . ... : ... .. . ... : ... .. . ... ...
ROW 18 : ... .. . ... : ... .. . ... : A-1 00 . ... : 0-# 11 . J10 : ... .. . ... ...
ROW 19 : ... .. . ... : ... .. . ... : ... .. . ... : ... .. . ... : ... .. . ... ...
ROW 1A : ... .. . ... : ... .. . ... : ... .. . ... : E-# 13 . ... : ... .. . ... ...
ROW 1B : ... .. . ... : ... .. . ... : ... .. . ... : ... .. . ... : ... .. . ... ...
ROW 1C : ... .. . ... : ... .. . ... : A-3 00 . ... : D-# 14 . ... : ... .. . ... ...
ROW 1D : ... .. . ... : ... .. . ... : --- .. . ... : ... .. . ... : ... .. . ... ...
ROW 1E : ... .. . ... : ... .. . ... : A-3 00 . ... : E-# 13 . ... : ... .. . ... ...
ROW 1F : ... .. . ... : ... .. . ... : --- .. . ... : ... .. . ... : ... .. . ... ...
ROW 20 : ... .. . ... : ... .. . ... : ... .. . ... : 0-# 11 . J10 : ... .. . ... ...
ROW 21 : ... .. . ... : ... .. . ... : ... .. . ... : ... .. . ... : ... .. . ... ...
ROW 22 : ... .. . ... : ... .. . ... : ... .. . ... : E-# 13 . ... : ... .. . ... ...
ROW 23 : ... .. . ... : ... .. . ... : ... .. . ... : ... .. . ... : ... .. . ... ...
ROW 24 : ... .. . ... : ... .. . ... : A-2 00 . ... : D-# 14 . ... : ... .. . ... ...
ROW 25 : ... .. . ... : ... .. . ... : ... .. . ... : ... .. . ... : ... .. . ... ...
ROW 26 : ... .. . ... : ... .. . ... : ... .. . ... : E-# 13 . ... : ... .. . ... ...
ROW 27 : ... .. . ... : ... .. . ... : ... .. . ... : ... .. . ... : ... .. . ... ...
ROW 28 : ... .. . ... : ... .. . ... : --- 10 . ... : 0-# 11 . J10 : ... .. . ... ...
ROW 29 : ... .. . ... : ... .. . ... : ... .. . ... : ... .. . ... : ... .. . ... ...
ROW 2A : ... .. . ... : ... .. . ... : ... .. . ... : E-# 13 . ... : ... .. . ... ...
ROW 2B : ... .. . ... : ... .. . ... : ... .. . ... : ... .. . ... : ... .. . ... ...
ROW 2C : ... .. . ... : ... .. . ... : E-2 00 . ... : D-# 14 . ... : ... .. . ... ...
ROW 2D : ... .. . ... : ... .. . ... : ... .. . ... : ... .. . ... : ... .. . ... ...
ROW 2E : ... .. . ... : ... .. . ... : ... .. . ... : E-# 13 . ... : ... .. . ... ...
ROW 2F : ... .. . ... : ... .. . ... : ... .. . ... : ... .. . ... : ... .. . ... ...
ROW 30 : ... .. . ... : ... .. . ... : --- 10 . ... : 0-# 11 . J10 : ... .. . ... ...
ROW 31 : ... .. . ... : ... .. . ... : ... .. . ... : ... .. . ... : ... .. . ... ...
ROW 32 : ... .. . ... : ... .. . ... : ... .. . ... : E-# 13 . ... : ... .. . ... ...
ROW 33 : ... .. . ... : ... .. . ... : ... .. . ... : ... .. . ... : ... .. . ... ...
ROW 34 : ... .. . ... : ... .. . ... : C#2 00 . ... : D-# 14 . ... : ... .. . ... ...
ROW 35 : ... .. . ... : ... .. . ... : ... .. . ... : ... .. . ... : ... .. . ... ...
ROW 36 : ... .. . ... : ... .. . ... : ... .. . ... : E-# 13 . ... : ... .. . ... ...
ROW 37 : ... .. . ... : ... .. . ... : ... .. . ... : ... .. . ... : ... .. . ... ...
ROW 38 : ... .. . ... : ... .. . ... : C#2 00 . ... : 0-# 11 . J10 : ... .. . ... ...
ROW 39 : ... .. . ... : ... .. . ... : ... .. . ... : ... .. . ... : ... .. . ... ...
ROW 3A : ... .. . ... : ... .. . ... : A-2 00 . ... : E-# 13 . ... : ... .. . ... ...
ROW 3B : ... .. . ... : ... .. . ... : ... .. . ... : ... .. . ... : ... .. . ... ...
ROW 3C : ... .. . ... : ... .. . ... : E-2 00 . ... : 0-# 11 . J10 : ... .. . ... ...
ROW 3D : ... .. . ... : ... .. . ... : ... .. . ... : ... .. . ... : ... .. . ... ...
ROW 3E : ... .. . ... : ... .. . ... : C#2 00 . ... : E-# 13 . ... : ... .. . ... ...
ROW 3F : ... .. . ... : ... .. . ... : ... .. . ... : ... .. . ... : ... .. . ... ...

PATTERN 07
ROW 00 : ... .. . ... : ... .. . ... : A-2 00 . ... : ... .. . ... : ... .. . ... ...
ROW 01 : ... .. . ... : ... .. . ... : ... .. . ... : ... .. . ... : ... .. . ... ...
ROW 02 : ... .. . ... : ... .. . ... : ... .. . ... : ... .. . ... : ... .. . ... ...
ROW 03 : ... .. . ... : ... .. . ... : ... .. . ... : ... .. . ... : ... .. . ... ...
ROW 04 : ... .. . ... : ... .. . ... : A-4 00 . ... : ... .. . ... : ... .. . ... ...
ROW 05 : ... .. . ... : ... .. . ... : --- 33 . ... : ... .. . ... : ... .. . ... ...
ROW 06 : ... .. . ... : ... .. . ... : A-4 00 . ... : ... .. . ... : ... .. . ... ...
ROW 07 : ... .. . ... : ... .. . ... : --- .. . ... : ... .. . ... : ... .. . ... ...
ROW 08 : ... .. . ... : ... .. . ... : E-2 00 . ... : ... .. . ... : ... .. . ... ...
ROW 09 : ... .. . ... : ... .. . ... : ... .. . ... : ... .. . ... : ... .. . ... ...
ROW 0A : ... .. . ... : ... .. . ... : ... .. . ... : ... .. . ... : ... .. . ... ...
ROW 0B : ... .. . ... : ... .. . ... : ... .. . ... : ... .. . ... : ... .. . ... ...
ROW 0C : ... .. . ... : ... .. . ... : E-4 00 . ... : ... .. . ... : ... .. . ... ...
ROW 0D : ... .. . ... : ... .. . ... : --- .. . ... : ... .. . ... : ... .. . ... ...
ROW 0E : ... .. . ... : ... .. . ... : E-4 00 . ... : ... .. . ... : ... .. . ... ...
ROW 0F : ... .. . ... : ... .. . ... : --- .. . ... : ... .. . ... : ... .. . ... ...
ROW 10 : ... .. . ... : ... .. . ... : C#2 00 . ... : ... .. . ... : ... .. . ... ...
ROW 11 : ... .. . ... : ... .. . ... : ... .. . ... : ... .. . ... : ... .. . ... ...
ROW 12 : ... .. . ... : ... .. . ... : ... .. . ... : ... .. . ... : ... .. . ... ...
ROW 13 : ... .. . ... : ... .. . ... : ... .. . ... : ... .. . ... : ... .. . ... ...
ROW 14 : ... .. . ... : ... .. . ... : E-4 00 . ... : ... .. . ... : ... .. . ... ...
ROW 15 : ... .. . ... : ... .. . ... : --- 33 . ... : ... .. . ... : ... .. . ... ...
ROW 16 : ... .. . ... : ... .. . ... : A-4 00 . ... : ... .. . ... : ... .. . ... ...
ROW 17 : ... .. . ... : ... .. . ... : --- .. . ... : ... .. . ... : ... .. . ... ...
ROW 18 : ... .. . ... : ... .. . ... : A-1 00 . ... : ... .. . ... : ... .. . ... ...
ROW 19 : ... .. . ... : ... .. . ... : ... .. . ... : ... .. . ... : ... .. . ... ...
ROW 1A : ... .. . ... : ... .. . ... : ... .. . ... : ... .. . ... : ... .. . ... ...
ROW 1B : ... .. . ... : ... .. . ... : ... .. . ... : ... .. . ... : ... .. . ... ...
ROW 1C : ... .. . ... : ... .. . ... : A-3 00 . ... : ... .. . ... : ... .. . ... ...
ROW 1D : ... .. . ... : ... .. . ... : --- .. . ... : ... .. . ... : ... .. . ... ...
ROW 1E : ... .. . ... : ... .. . ... : A-3 00 . ... : ... .. . ... : ... .. . ... ...
ROW 1F : ... .. . ... : ... .. . ... : --- .. . ... : ... .. . ... : ... .. . ... ...
ROW 20 : ... .. . ... : ... .. . ... : ... .. . ... : ... .. . ... : ... .. . ... ...
ROW 21 : ... .. . ... : ... .. . ... : ... .. . ... : ... .. . ... : ... .. . ... ...
ROW 22 : ... .. . ... : ... .. . ... : ... .. . ... : ... .. . ... : ... .. . ... ...
ROW 23 : ... .. . ... : ... .. . ... : ... .. . ... : ... .. . ... : ... .. . ... ...
ROW 24 : ... .. . ... : ... .. . ... : A-2 00 . ... : ... .. . ... : ... .. . ... ...
ROW 25 : ... .. . ... : ... .. . ... : ... .. . ... : ... .. . ... : ... .. . ... ...
ROW 26 : ... .. . ... : ... .. . ... : ... .. . ... : ... .. . ... : ... .. . ... ...
ROW 27 : ... .. . ... : ... .. . ... : ... .. . ... : ... .. . ... : ... .. . ... ...
ROW 28 : ... .. . ... : ... .. . ... : --- 10 . ... : ... .. . ... : ... .. . ... ...
ROW 29 : ... .. . ... : ... .. . ... : ... .. . ... : ... .. . ... : ... .. . ... ...
ROW 2A : ... .. . ... : ... .. . ... : ... .. . ... : ... .. . ... : ... .. . ... ...
ROW 2B : ... .. . ... : ... .. . ... : ... .. . ... : ... .. . ... : ... .. . ... ...
ROW 2C : ... .. . ... : ... .. . ... : E-2 00 . ... : ... .. . ... : ... .. . ... ...
ROW 2D : ... .. . ... : ... .. . ... : ... .. . ... : ... .. . ... : ... .. . ... ...
ROW 2E : ... .. . ... : ... .. . ... : ... .. . ... : ... .. . ... : ... .. . ... ...
ROW 2F : ... .. . ... : ... .. . ... : ... .. . ... : ... .. . ... : ... .. . ... ...
ROW 30 : ... .. . ... : ... .. . ... : --- 10 . ... : ... .. . ... : ... .. . ... ...
ROW 31 : ... .. . ... : ... .. . ... : ... .. . ... : ... .. . ... : ... .. . ... ...
ROW 32 : ... .. . ... : ... .. . ... : ... .. . ... : ... .. . ... : ... .. . ... ...
ROW 33 : ... .. . ... : ... .. . ... : ... .. . ... : ... .. . ... : ... .. . ... ...
ROW 34 : ... .. . ... : ... .. . ... : C#2 00 . ... : ... .. . ... : ... .. . ... ...
ROW 35 : ... .. . ... : ... .. . ... : ... .. . ... : ... .. . ... : ... .. . ... ...
ROW 36 : ... .. . ... : ... .. . ... : ... .. . ... : ... .. . ... : ... .. . ... ...
ROW 37 : ... .. . ... : ... .. . ... : ... .. . ... : ... .. . ... : ... .. . ... ...
ROW 38 : ... .. . ... : ... .. . ... : E-2 00 . ... : ... .. . ... : ... .. . ... ...
ROW 39 : ... .. . ... : ... .. . ... : ... .. . ... : ... .. . ... : ... .. . ... ...
ROW 3A : ... .. . ... : ... .. . ... : A-2 00 . ... : ... .. . ... : ... .. . ... ...
ROW 3B : ... .. . ... : ... .. . ... : ... .. . ... : ... .. . ... : ... .. . ... ...
ROW 3C : ... .. . ... : ... .. . ... : E-2 00 . ... : ... .. . ... : ... .. . ... ...
ROW 3D : ... .. . ... : ... .. . ... : ... .. . ... : ... .. . ... : ... .. . ... ...
ROW 3E : ... .. . ... : ... .. . ... : C#2 00 . ... : ... .. . ... : ... .. . ... ...
ROW 3F : ... .. . ... : ... .. . ... : ... .. . ... : ... .. . ... : ... .. . ... ...

PATTERN 08
ROW 00 : ... .. . ... : ... .. . ... : F-2 00 . ... : ... .. . ... : ... .. . ... ...
ROW 01 : ... .. . ... : ... .. . ... : ... .. . ... : ... .. . ... : ... .. . ... ...
ROW 02 : ... .. . ... : ... .. . ... : ... .. . ... : ... .. . ... : ... .. . ... ...
ROW 03 : ... .. . ... : ... .. . ... : ... .. . ... : ... .. . ... : ... .. . ... ...
ROW 04 : ... .. . ... : ... .. . ... : F-4 00 . ... : ... .. . ... : ... .. . ... ...
ROW 05 : ... .. . ... : ... .. . ... : --- 33 . ... : ... .. . ... : ... .. . ... ...
ROW 06 : ... .. . ... : ... .. . ... : F-4 00 . ... : ... .. . ... : ... .. . ... ...
ROW 07 : ... .. . ... : ... .. . ... : --- .. . ... : ... .. . ... : ... .. . ... ...
ROW 08 : ... .. . ... : ... .. . ... : C-2 00 . ... : ... .. . ... : ... .. . ... ...
ROW 09 : ... .. . ... : ... .. . ... : ... .. . ... : ... .. . ... : ... .. . ... ...
ROW 0A : ... .. . ... : ... .. . ... : ... .. . ... : ... .. . ... : ... .. . ... ...
ROW 0B : ... .. . ... : ... .. . ... : ... .. . ... : ... .. . ... : ... .. . ... ...
ROW 0C : ... .. . ... : ... .. . ... : C-4 00 . ... : ... .. . ... : ... .. . ... ...
ROW 0D : ... .. . ... : ... .. . ... : --- .. . ... : ... .. . ... : ... .. . ... ...
ROW 0E : ... .. . ... : ... .. . ... : C-4 00 . ... : ... .. . ... : ... .. . ... ...
ROW 0F : ... .. . ... : ... .. . ... : --- .. . ... : ... .. . ... : ... .. . ... ...
ROW 10 : ... .. . ... : ... .. . ... : A-1 00 . ... : ... .. . ... : ... .. . ... ...
ROW 11 : ... .. . ... : ... .. . ... : ... .. . ... : ... .. . ... : ... .. . ... ...
ROW 12 : ... .. . ... : ... .. . ... : F-4 00 . ... : ... .. . ... : ... .. . ... ...
ROW 13 : ... .. . ... : ... .. . ... : --- .. . ... : ... .. . ... : ... .. . ... ...
ROW 14 : ... .. . ... : ... .. . ... : F-4 00 . ... : ... .. . ... : ... .. . ... ...
ROW 15 : ... .. . ... : ... .. . ... : --- 33 . ... : ... .. . ... : ... .. . ... ...
ROW 16 : ... .. . ... : ... .. . ... : F-4 00 . ... : ... .. . ... : ... .. . ... ...
ROW 17 : ... .. . ... : ... .. . ... : --- .. . ... : ... .. . ... : ... .. . ... ...
ROW 18 : ... .. . ... : ... .. . ... : F-1 00 . ... : ... .. . ... : ... .. . ... ...
ROW 19 : ... .. . ... : ... .. . ... : ... .. . ... : ... .. . ... : ... .. . ... ...
ROW 1A : ... .. . ... : ... .. . ... : ... .. . ... : ... .. . ... : ... .. . ... ...
ROW 1B : ... .. . ... : ... .. . ... : ... .. . ... : ... .. . ... : ... .. . ... ...
ROW 1C : ... .. . ... : ... .. . ... : F-3 00 . ... : ... .. . ... : ... .. . ... ...
ROW 1D : ... .. . ... : ... .. . ... : --- .. . ... : ... .. . ... : ... .. . ... ...
ROW 1E : ... .. . ... : ... .. . ... : F-3 00 . ... : ... .. . ... : ... .. . ... ...
ROW 1F : ... .. . ... : ... .. . ... : --- .. . ... : ... .. . ... : ... .. . ... ...
ROW 20 : ... .. . ... : ... .. . ... : F-2 00 . ... : ... .. . ... : ... .. . ... ...
ROW 21 : ... .. . ... : ... .. . ... : ... .. . ... : ... .. . ... : ... .. . ... ...
ROW 22 : ... .. . ... : ... .. . ... : ... .. . ... : ... .. . ... : ... .. . ... ...
ROW 23 : ... .. . ... : ... .. . ... : ... .. . ... : ... .. . ... : ... .. . ... ...
ROW 24 : ... .. . ... : ... .. . ... : F-4 00 . ... : ... .. . ... : ... .. . ... ...
ROW 25 : ... .. . ... : ... .. . ... : --- 33 . ... : ... .. . ... : ... .. . ... ...
ROW 26 : ... .. . ... : ... .. . ... : F-4 00 . ... : ... .. . ... : ... .. . ... ...
ROW 27 : ... .. . ... : ... .. . ... : --- .. . ... : ... .. . ... : ... .. . ... ...
ROW 28 : ... .. . ... : ... .. . ... : C-2 00 . ... : ... .. . ... : ... .. . ... ...
ROW 29 : ... .. . ... : ... .. . ... : ... .. . ... : ... .. . ... : ... .. . ... ...
ROW 2A : ... .. . ... : ... .. . ... : ... .. . ... : ... .. . ... : ... .. . ... ...
ROW 2B : ... .. . ... : ... .. . ... : ... .. . ... : ... .. . ... : ... .. . ... ...
ROW 2C : ... .. . ... : ... .. . ... : C-4 00 . ... : ... .. . ... : ... .. . ... ...
ROW 2D : ... .. . ... : ... .. . ... : --- .. . ... : ... .. . ... : ... .. . ... ...
ROW 2E : ... .. . ... : ... .. . ... : C-4 00 . ... : ... .. . ... : ... .. . ... ...
ROW 2F : ... .. . ... : ... .. . ... : --- .. . ... : ... .. . ... : ... .. . ... ...
ROW 30 : ... .. . ... : ... .. . ... : A-1 00 . ... : ... .. . ... : ... .. . ... ...
ROW 31 : ... .. . ... : ... .. . ... : ... .. . ... : ... .. . ... : ... .. . ... ...
ROW 32 : ... .. . ... : ... .. . ... : F-4 00 . ... : ... .. . ... : ... .. . ... ...
ROW 33 : ... .. . ... : ... .. . ... : --- .. . ... : ... .. . ... : ... .. . ... ...
ROW 34 : ... .. . ... : ... .. . ... : F-4 00 . ... : ... .. . ... : ... .. . ... ...
ROW 35 : ... .. . ... : ... .. . ... : --- 33 . ... : ... .. . ... : ... .. . ... ...
ROW 36 : ... .. . ... : ... .. . ... : F-4 00 . ... : ... .. . ... : ... .. . ... ...
ROW 37 : ... .. . ... : ... .. . ... : --- .. . ... : ... .. . ... : ... .. . ... ...
ROW 38 : ... .. . ... : ... .. . ... : F-1 00 . ... : ... .. . ... : ... .. . ... ...
ROW 39 : ... .. . ... : ... .. . ... : ... .. . ... : ... .. . ... : ... .. . ... ...
ROW 3A : ... .. . ... : ... .. . ... : ... .. . ... : ... .. . ... : ... .. . ... ...
ROW 3B : ... .. . ... : ... .. . ... : ... .. . ... : ... .. . ... : ... .. . ... ...
ROW 3C : ... .. . ... : ... .. . ... : F-3 00 . ... : ... .. . ... : ... .. . ... ...
ROW 3D : ... .. . ... : ... .. . ... : --- .. . ... : ... .. . ... : ... .. . ... ...
ROW 3E : ... .. . ... : ... .. . ... : F-3 00 . ... : ... .. . ... : ... .. . ... ...
ROW 3F : ... .. . ... : ... .. . ... : --- .. . ... : ... .. . ... : ... .. . ... ...

PATTERN 09
ROW 00 : ... .. . ... : ... .. . ... : G-2 00 . ... : 0-# 11 . J10 : ... .. . ... ...
ROW 01 : ... .. . ... : ... .. . ... : ... .. . ... : ... .. . ... : ... .. . ... ...
ROW 02 : ... .. . ... : ... .. . ... : ... .. . ... : E-# 13 . ... : ... .. . ... ...
ROW 03 : ... .. . ... : ... .. . ... : ... .. . ... : ... .. . ... : ... .. . ... ...
ROW 04 : ... .. . ... : ... .. . ... : G-4 00 . ... : D-# 14 . ... : ... .. . ... ...
ROW 05 : ... .. . ... : ... .. . ... : --- 33 . ... : ... .. . ... : ... .. . ... ...
ROW 06 : ... .. . ... : ... .. . ... : G-4 00 . ... : E-# 13 . ... : ... .. . ... ...
ROW 07 : ... .. . ... : ... .. . ... : --- .. . ... : ... .. . ... : ... .. . ... ...
ROW 08 : ... .. . ... : ... .. . ... : D-2 00 . ... : 0-# 11 . J10 : ... .. . ... ...
ROW 09 : ... .. . ... : ... .. . ... : ... .. . ... : ... .. . ... : ... .. . ... ...
ROW 0A : ... .. . ... : ... .. . ... : ... .. . ... : E-# 13 . ... : ... .. . ... ...
ROW 0B : ... .. . ... : ... .. . ... : ... .. . ... : ... .. . ... : ... .. . ... ...
ROW 0C : ... .. . ... : ... .. . ... : D-4 00 . ... : D-# 14 . ... : ... .. . ... ...
ROW 0D : ... .. . ... : ... .. . ... : --- .. . ... : ... .. . ... : ... .. . ... ...
ROW 0E : ... .. . ... : ... .. . ... : D-4 00 . ... : E-# 13 . ... : ... .. . ... ...
ROW 0F : ... .. . ... : ... .. . ... : --- .. . ... : ... .. . ... : ... .. . ... ...
ROW 10 : ... .. . ... : ... .. . ... : B-1 00 . ... : 0-# 11 . J10 : ... .. . ... ...
ROW 11 : ... .. . ... : ... .. . ... : ... .. . ... : ... .. . ... : ... .. . ... ...
ROW 12 : ... .. . ... : ... .. . ... : G-4 00 . ... : E-# 13 . ... : ... .. . ... ...
ROW 13 : ... .. . ... : ... .. . ... : --- .. . ... : ... .. . ... : ... .. . ... ...
ROW 14 : ... .. . ... : ... .. . ... : G-4 00 . ... : D-# 14 . ... : ... .. . ... ...
ROW 15 : ... .. . ... : ... .. . ... : --- 33 . ... : ... .. . ... : ... .. . ... ...
ROW 16 : ... .. . ... : ... .. . ... : G-4 00 . ... : E-# 13 . ... : ... .. . ... ...
ROW 17 : ... .. . ... : ... .. . ... : --- .. . ... : ... .. . ... : ... .. . ... ...
ROW 18 : ... .. . ... : ... .. . ... : G-1 00 . ... : 0-# 11 . J10 : ... .. . ... ...
ROW 19 : ... .. . ... : ... .. . ... : ... .. . ... : ... .. . ... : ... .. . ... ...
ROW 1A : ... .. . ... : ... .. . ... : ... .. . ... : E-# 13 . ... : ... .. . ... ...
ROW 1B : ... .. . ... : ... .. . ... : ... .. . ... : ... .. . ... : ... .. . ... ...
ROW 1C : ... .. . ... : ... .. . ... : G-3 00 . ... : D-# 14 . ... : ... .. . ... ...
ROW 1D : ... .. . ... : ... .. . ... : --- .. . ... : ... .. . ... : ... .. . ... ...
ROW 1E : ... .. . ... : ... .. . ... : G-3 00 . ... : E-# 13 . ... : ... .. . ... ...
ROW 1F : ... .. . ... : ... .. . ... : --- .. . ... : ... .. . ... : ... .. . ... ...
ROW 20 : ... .. . ... : ... .. . ... : G-1 34 . ... : E-# 13 . ... : ... .. . ... ...
ROW 21 : ... .. . ... : ... .. . ... : B-1 34 . ... : ... .. . ... : ... .. . ... ...
ROW 22 : ... .. . ... : ... .. . ... : D-2 34 . ... : E-# 13 . ... : ... .. . ... ...
ROW 23 : ... .. . ... : ... .. . ... : G-2 34 . ... : ... .. . ... : ... .. . ... ...
ROW 24 : ... .. . ... : ... .. . ... : B-1 34 . ... : D-# 14 . ... : ... .. . ... ...
ROW 25 : ... .. . ... : ... .. . ... : D-2 34 . ... : ... .. . ... : ... .. . ... ...
ROW 26 : ... .. . ... : ... .. . ... : G-2 34 . ... : ... .. . ... : ... .. . ... ...
ROW 27 : ... .. . ... : ... .. . ... : B-2 34 . ... : ... .. . ... : ... .. . ... ...
ROW 28 : ... .. . ... : ... .. . ... : D-2 34 . ... : E-# 13 . ... : ... .. . ... ...
ROW 29 : ... .. . ... : ... .. . ... : G-2 34 . ... : ... .. . ... : ... .. . ... ...
ROW 2A : ... .. . ... : ... .. . ... : B-2 34 . ... : E-# 13 . ... : ... .. . ... ...
ROW 2B : ... .. . ... : ... .. . ... : D-3 34 . ... : ... .. . ... : ... .. . ... ...
ROW 2C : ... .. . ... : ... .. . ... : G-3 34 . ... : D-# 14 . ... : ... .. . ... ...
ROW 2D : ... .. . ... : ... .. . ... : B-3 34 . ... : ... .. . ... : ... .. . ... ...
ROW 2E : ... .. . ... : ... .. . ... : D-4 34 . ... : ... .. . ... : ... .. . ... ...
ROW 2F : ... .. . ... : ... .. . ... : G-4 34 . ... : ... .. . ... : ... .. . ... ...
ROW 30 : ... .. . ... : ... .. . ... : B-3 34 . ... : E-# 13 . ... : ... .. . ... ...
ROW 31 : ... .. . ... : ... .. . ... : D-4 34 . ... : ... .. . ... : ... .. . ... ...
ROW 32 : ... .. . ... : ... .. . ... : G-4 34 . ... : E-# 13 . ... : ... .. . ... ...
ROW 33 : ... .. . ... : ... .. . ... : B-4 34 . ... : ... .. . ... : ... .. . ... ...
ROW 34 : ... .. . ... : ... .. . ... : D-4 34 . ... : D-# 14 . ... : ... .. . ... ...
ROW 35 : ... .. . ... : ... .. . ... : G-4 34 . ... : ... .. . ... : ... .. . ... ...
ROW 36 : ... .. . ... : ... .. . ... : B-4 34 . ... : ... .. . ... : ... .. . ... ...
ROW 37 : ... .. . ... : ... .. . ... : D-5 34 . ... : ... .. . ... : ... .. . ... ...
ROW 38 : ... .. . ... : ... .. . ... : G-5 34 . ... : A-# 36 . ... : ... .. . ... ...
ROW 39 : ... .. . ... : ... .. . ... : D-5 34 . ... : ... .. . ... : ... .. . ... ...
ROW 3A : ... .. . ... : ... .. . ... : B-4 34 . ... : ... .. . ... : ... .. . ... ...
ROW 3B : ... .. . ... : ... .. . ... : G-4 34 . ... : ... .. . ... : ... .. . ... ...
ROW 3C : ... .. . ... : ... .. . ... : D-5 34 . ... : D-# 14 . ... : ... .. . ... ...
ROW 3D : ... .. . ... : ... .. . ... : B-4 34 . ... : ... .. . ... : ... .. . ... ...
ROW 3E : ... .. . ... : ... .. . ... : G-4 34 . ... : E-# 13 . ... : ... .. . ... ...
ROW 3F : ... .. . ... : ... .. . ... : D-4 34 . ... : ... .. . ... : ... .. . ... ...

PATTERN 0A
ROW 00 : A-2 32 . ... : ... .. . ... : ... .. . ... : ... .. . ... : ... .. . ... ...
ROW 01 : ... .. . ... : ... .. . ... : ... .. . ... : ... .. . ... : ... .. . ... ...
ROW 02 : ... .. . ... : C#3 32 . ... : ... .. . ... : ... .. . ... : ... .. . ... ...
ROW 03 : ... .. . ... : ... .. . ... : ... .. . ... : ... .. . ... : ... .. . ... ...
ROW 04 : E-3 32 . ... : ... .. . ... : ... .. . ... : ... .. . ... : ... .. . ... ...
ROW 05 : ... .. . ... : ... .. . ... : ... .. . ... : ... .. . ... : ... .. . ... ...
ROW 06 : ... .. . ... : A-2 32 . ... : ... .. . ... : ... .. . ... : ... .. . ... ...
ROW 07 : ... .. . ... : ... .. . ... : ... .. . ... : ... .. . ... : ... .. . ... ...
ROW 08 : C#3 32 . ... : ... .. . ... : ... .. . ... : ... .. . ... : ... .. . ... ...
ROW 09 : ... .. . ... : ... .. . ... : ... .. . ... : ... .. . ... : ... .. . ... ...
ROW 0A : ... .. . ... : E-3 32 . ... : ... .. . ... : ... .. . ... : ... .. . ... ...
ROW 0B : ... .. . ... : ... .. . ... : ... .. . ... : ... .. . ... : ... .. . ... ...
ROW 0C : G#3 32 . ... : ... .. . ... : ... .. . ... : ... .. . ... : ... .. . ... ...
ROW 0D : ... .. . ... : ... .. . ... : ... .. . ... : ... .. . ... : ... .. . ... ...
ROW 0E : ... .. . ... : A-3 32 . ... : ... .. . ... : ... .. . ... : ... .. . ... ...
ROW 0F : ... .. . ... : ... .. . ... : ... .. . ... : ... .. . ... : ... .. . ... ...
ROW 10 : A-2 32 . ... : ... .. . ... : ... .. . ... : ... .. . ... : ... .. . ... ...
ROW 11 : ... .. . ... : ... .. . ... : ... .. . ... : ... .. . ... : ... .. . ... ...
ROW 12 : ... .. . ... : C#3 32 . ... : ... .. . ... : ... .. . ... : ... .. . ... ...
ROW 13 : ... .. . ... : ... .. . ... : ... .. . ... : ... .. . ... : ... .. . ... ...
ROW 14 : E-3 32 . ... : ... .. . ... : ... .. . ... : ... .. . ... : ... .. . ... ...
ROW 15 : ... .. . ... : ... .. . ... : ... .. . ... : ... .. . ... : ... .. . ... ...
ROW 16 : ... .. . ... : A-2 32 . ... : ... .. . ... : ... .. . ... : ... .. . ... ...
ROW 17 : ... .. . ... : ... .. . ... : ... .. . ... : ... .. . ... : ... .. . ... ...
ROW 18 : C#3 32 . ... : ... .. . ... : ... .. . ... : ... .. . ... : ... .. . ... ...
ROW 19 : ... .. . ... : ... .. . ... : ... .. . ... : ... .. . ... : ... .. . ... ...
ROW 1A : ... .. . ... : E-3 32 . ... : ... .. . ... : ... .. . ... : ... .. . ... ...
ROW 1B : ... .. . ... : ... .. . ... : ... .. . ... : ... .. . ... : ... .. . ... ...
ROW 1C : F#3 32 . ... : ... .. . ... : ... .. . ... : ... .. . ... : ... .. . ... ...
ROW 1D : ... .. . ... : ... .. . ... : ... .. . ... : ... .. . ... : ... .. . ... ...
ROW 1E : ... .. . ... : C#3 32 . ... : ... .. . ... : ... .. . ... : ... .. . ... ...
ROW 1F : ... .. . ... : ... .. . ... : ... .. . ... : ... .. . ... : ... .. . ... ...
ROW 20 : A-2 32 . ... : ... .. . ... : ... .. . ... : ... .. . ... : ... .. . ... ...
ROW 21 : ... .. . ... : ... .. . ... : ... .. . ... : ... .. . ... : ... .. . ... ...
ROW 22 : ... .. . ... : C#3 32 . ... : ... .. . ... : ... .. . ... : ... .. . ... ...
ROW 23 : ... .. . ... : ... .. . ... : ... .. . ... : ... .. . ... : ... .. . ... ...
ROW 24 : E-3 32 . ... : ... .. . ... : ... .. . ... : ... .. . ... : ... .. . ... ...
ROW 25 : ... .. . ... : ... .. . ... : ... .. . ... : ... .. . ... : ... .. . ... ...
ROW 26 : ... .. . ... : A-2 32 . ... : ... .. . ... : ... .. . ... : ... .. . ... ...
ROW 27 : ... .. . ... : ... .. . ... : ... .. . ... : ... .. . ... : ... .. . ... ...
ROW 28 : C#3 32 . ... : ... .. . ... : ... .. . ... : ... .. . ... : ... .. . ... ...
ROW 29 : ... .. . ... : ... .. . ... : ... .. . ... : ... .. . ... : ... .. . ... ...
ROW 2A : ... .. . ... : E-3 32 . ... : ... .. . ... : ... .. . ... : ... .. . ... ...
ROW 2B : ... .. . ... : ... .. . ... : ... .. . ... : ... .. . ... : ... .. . ... ...
ROW 2C : G#3 32 . ... : ... .. . ... : ... .. . ... : ... .. . ... : ... .. . ... ...
ROW 2D : ... .. . ... : ... .. . ... : ... .. . ... : ... .. . ... : ... .. . ... ...
ROW 2E : ... .. . ... : A-3 32 . ... : ... .. . ... : ... .. . ... : ... .. . ... ...
ROW 2F : ... .. . ... : ... .. . ... : ... .. . ... : ... .. . ... : ... .. . ... ...
ROW 30 : C#4 32 . ... : ... .. . ... : ... .. . ... : ... .. . ... : ... .. . ... ...
ROW 31 : ... .. . ... : ... .. . ... : ... .. . ... : ... .. . ... : ... .. . ... ...
ROW 32 : ... .. . ... : A-3 32 . ... : ... .. . ... : ... .. . ... : ... .. . ... ...
ROW 33 : ... .. . ... : ... .. . ... : ... .. . ... : ... .. . ... : ... .. . ... ...
ROW 34 : G#3 32 . ... : ... .. . ... : ... .. . ... : ... .. . ... : ... .. . ... ...
ROW 35 : ... .. . ... : ... .. . ... : ... .. . ... : ... .. . ... : ... .. . ... ...
ROW 36 : ... .. . ... : E-3 32 . ... : ... .. . ... : ... .. . ... : ... .. . ... ...
ROW 37 : ... .. . ... : ... .. . ... : ... .. . ... : ... .. . ... : ... .. . ... ...
ROW 38 : C#3 32 . ... : ... .. . ... : ... .. . ... : ... .. . ... : ... .. . ... ...
ROW 39 : ... .. . ... : ... .. . ... : ... .. . ... : ... .. . ... : ... .. . ... ...
ROW 3A : ... .. . ... : A-2 32 . ... : ... .. . ... : ... .. . ... : ... .. . ... ...
ROW 3B : ... .. . ... : ... .. . ... : ... .. . ... : ... .. . ... : ... .. . ... ...
ROW 3C : F#2 32 . ... : ... .. . ... : ... .. . ... : ... .. . ... : ... .. . ... ...
ROW 3D : ... .. . ... : ... .. . ... : ... .. . ... : ... .. . ... : ... .. . ... ...
ROW 3E : ... .. . ... : E-2 32 . ... : ... .. . ... : ... .. . ... : ... .. . ... ...
ROW 3F : ... .. . ... : ... .. . ... : ... .. . ... : ... .. . ... : ... .. . ... ...

PATTERN 0B
ROW 00 : A-2 2F C 400 : F#3 31 F 451 : ... .. . ... : A-# 19 . J10 : ... .. . ... ...
ROW 01 : A-2 2F 6 ... : ... .. . ... : ... .. . ... : ... .. . ... : ... .. . ... ...
ROW 02 : C#3 2F C ... : ... .. . ... : ... .. . ... : ... .. . ... : ... .. . ... ...
ROW 03 : A-2 2F 6 ... : ... .. . ... : ... .. . ... : ... .. . ... : ... .. . ... ...
ROW 04 : E-3 2F C ... : ... .. . ... : ... .. . ... : ... .. . ... : ... .. . ... ...
ROW 05 : C#3 2F 6 ... : ... .. . ... : ... .. . ... : ... .. . ... : ... .. . ... ...
ROW 06 : A-2 2F C ... : E-3 31 . ... : ... .. . ... : E-# 13 . ... : ... .. . ... ...
ROW 07 : E-3 2F 6 ... : ... .. . ... : ... .. . ... : ... .. . ... : ... .. . ... ...
ROW 08 : C#3 2F C ... : ... .. . ... : ... .. . ... : 0-# 11 . J10 : ... .. . ... ...
ROW 09 : A-2 2F 6 ... : ... .. . ... : ... .. . ... : ... .. . ... : ... .. . ... ...
ROW 0A : E-3 2F C ... : ... .. . ... : ... .. . ... : E-# 13 . ... : ... .. . ... ...
ROW 0B : C#3 2F 6 ... : ... .. . ... : ... .. . ... : ... .. . ... : ... .. . ... ...
ROW 0C : G#3 2F C ... : C#3 31 . ... : ... .. . ... : D-# 14 . ... : ... .. . ... ...
ROW 0D : E-3 2F 6 ... : ... .. . ... : ... .. . ... : ... .. . ... : ... .. . ... ...
ROW 0E : A-3 2F C ... : ... .. . ... : ... .. . ... : E-# 13 . ... : ... .. . ... ...
ROW 0F : G#3 2F 6 ... : ... .. . ... : ... .. . ... : ... .. . ... : ... .. . ... ...
ROW 10 : A-2 2F C ... : A-2 31 . ... : ... .. . ... : 0-# 11 . J10 : ... .. . ... ...
ROW 11 : A-3 2F 6 ... : ... .. . ... : ... .. . ... : ... .. . ... : ... .. . ... ...
ROW 12 : C#3 2F C ... : ... .. . ... : ... .. . ... : E-# 13 . ... : ... .. . ... ...
ROW 13 : A-2 2F 6 ... : ... .. . ... : ... .. . ... : ... .. . ... : ... .. . ... ...
ROW 14 : E-3 2F C ... : ... .. . ... : ... .. . ... : D-# 14 . ... : ... .. . ... ...
ROW 15 : C#3 2F 6 ... : ... .. . ... : ... .. . ... : ... .. . ... : ... .. . ... ...
ROW 16 : A-2 2F C ... : B-2 31 . ... : ... .. . ... : E-# 13 . ... : ... .. . ... ...
ROW 17 : E-3 2F 6 ... : ... .. . ... : ... .. . ... : ... .. . ... : ... .. . ... ...
ROW 18 : C#3 2F C ... : ... .. . ... : ... .. . ... : 0-# 11 . J10 : ... .. . ... ...
ROW 19 : A-2 2F 6 ... : ... .. . ... : ... .. . ... : ... .. . ... : ... .. . ... ...
ROW 1A : E-3 2F C ... : ... .. . ... : ... .. . ... : E-# 13 . ... : ... .. . ... ...
ROW 1B : C#3 2F 6 ... : ... .. . ... : ... .. . ... : ... .. . ... : ... .. . ... ...
ROW 1C : F#3 2F C ... : A-2 31 . ... : ... .. . ... : D-# 14 . ... : ... .. . ... ...
ROW 1D : E-3 2F 6 ... : ... .. . ... : ... .. . ... : ... .. . ... : ... .. . ... ...
ROW 1E : C#3 2F C ... : ... .. . ... : ... .. . ... : E-# 13 . ... : ... .. . ... ...
ROW 1F : F#3 2F 6 ... : ... .. . ... : ... .. . ... : ... .. . ... : ... .. . ... ...
ROW 20 : A-2 2F C ... : F#3 31 . ... : ... .. . ... : 0-# 11 . J10 : ... .. . ... ...
ROW 21 : C#3 2F 6 ... : ... .. . ... : ... .. . ... : ... .. . ... : ... .. . ... ...
ROW 22 : C#3 2F C ... : ... .. . ... : ... .. . ... : E-# 13 . ... : ... .. . ... ...
ROW 23 : A-2 2F 6 ... : ... .. . ... : ... .. . ... : ... .. . ... : ... .. . ... ...
ROW 24 : E-3 2F C ... : ... .. . ... : ... .. . ... : D-# 14 . ... : ... .. . ... ...
ROW 25 : C#3 2F 6 ... : ... .. . ... : ... .. . ... : ... .. . ... : ... .. . ... ...
ROW 26 : A-2 2F C ... : E-3 31 . ... : ... .. . ... : E-# 13 . ... : ... .. . ... ...
ROW 27 : E-3 2F 6 ... : ... .. . ... : ... .. . ... : ... .. . ... : ... .. . ... ...
ROW 28 : C#3 2F C ... : ... .. . ... : ... .. . ... : 0-# 11 . J10 : ... .. . ... ...
ROW 29 : A-2 2F 6 ... : ... .. . ... : ... .. . ... : ... .. . ... : ... .. . ... ...
ROW 2A : E-3 2F C ... : ... .. . ... : ... .. . ... : E-# 13 . ... : ... .. . ... ...
ROW 2B : C#3 2F 6 ... : ... .. . ... : ... .. . ... : ... .. . ... : ... .. . ... ...
ROW 2C : G#3 2F C ... : C#3 31 . ... : ... .. . ... : D-# 14 . ... : ... .. . ... ...
ROW 2D : E-3 2F 6 ... : ... .. . ... : ... .. . ... : ... .. . ... : ... .. . ... ...
ROW 2E : A-3 2F C ... : ... .. . ... : ... .. . ... : E-# 13 . ... : ... .. . ... ...
ROW 2F : G#3 2F 6 ... : ... .. . ... : ... .. . ... : ... .. . ... : ... .. . ... ...
ROW 30 : A-2 2F C ... : A-2 31 . ... : ... .. . ... : 0-# 11 . J10 : ... .. . ... ...
ROW 31 : A-3 2F 6 ... : ... .. . ... : ... .. . ... : ... .. . ... : ... .. . ... ...
ROW 32 : C#3 2F C ... : ... .. . ... : ... .. . ... : E-# 13 . ... : ... .. . ... ...
ROW 33 : A-2 2F 6 ... : ... .. . ... : ... .. . ... : ... .. . ... : ... .. . ... ...
ROW 34 : E-3 2F C ... : A-2 31 . ... : ... .. . ... : D-# 14 . ... : ... .. . ... ...
ROW 35 : C#3 2F 6 ... : ... .. . ... : ... .. . ... : ... .. . ... : ... .. . ... ...
ROW 36 : A-2 2F C ... : ... .. . ... : ... .. . ... : E-# 13 . ... : ... .. . ... ...
ROW 37 : E-3 2F 6 ... : ... .. . ... : ... .. . ... : ... .. . ... : ... .. . ... ...
ROW 38 : C#3 2F C ... : B-2 31 . ... : ... .. . ... : 0-# 11 . J10 : ... .. . ... ...
ROW 39 : A-2 2F 6 ... : ... .. . ... : ... .. . ... : ... .. . ... : ... .. . ... ...
ROW 3A : E-3 2F C ... : ... .. . ... : ... .. . ... : E-# 13 . ... : ... .. . ... ...
ROW 3B : C#3 2F 6 ... : ... .. . ... : ... .. . ... : ... .. . ... : ... .. . ... ...
ROW 3C : C#3 2F C ... : C#3 31 . ... : ... .. . ... : 0-# 11 . J10 : ... .. . ... ...
ROW 3D : E-3 2F 6 ... : ... .. . ... : ... .. . ... : ... .. . ... : ... .. . ... ...
ROW 3E : A-2 2F C ... : ... .. . ... : ... .. . ... : E-# 13 . ... : ... .. . ... ...
ROW 3F : C#3 2F 6 ... : ... .. . ... : ... .. . ... : ... .. . ... : ... .. . ... ...

PATTERN 0C
ROW 00 : F-2 2F C ... : D-3 31 . ... : F-2 00 . ... : ... .. . ... : ... .. . ... ...
ROW 01 : F-2 2F 6 ... : ... .. . ... : ... .. . ... : ... .. . ... : ... .. . ... ...
ROW 02 : A-2 2F C ... : ... .. . ... : ... .. . ... : ... .. . ... : ... .. . ... ...
ROW 03 : F-2 2F 6 ... : ... .. . ... : ... .. . ... : ... .. . ... : ... .. . ... ...
ROW 04 : C-3 2F C ... : ... .. . ... : F-4 00 . ... : ... .. . ... : ... .. . ... ...
ROW 05 : A-2 2F 6 ... : ... .. . ... : --- 33 . ... : ... .. . ... : ... .. . ... ...
ROW 06 : F-2 2F C ... : C-3 31 . ... : F-4 00 . ... : ... .. . ... : ... .. . ... ...
ROW 07 : C-3 2F 6 ... : ... .. . ... : --- .. . ... : ... .. . ... : ... .. . ... ...
ROW 08 : A-2 2F C ... : ... .. . ... : C-2 00 . ... : ... .. . ... : ... .. . ... ...
ROW 09 : F-2 2F 6 ... : ... .. . ... : ... .. . ... : ... .. . ... : ... .. . ... ...
ROW 0A : C-3 2F C ... : ... .. . ... : ... .. . ... : ... .. . ... : ... .. . ... ...
ROW 0B : A-2 2F 6 ... : ... .. . ... : ... .. . ... : ... .. . ... : ... .. . ... ...
ROW 0C : E-3 2F C ... : A-2 31 . ... : C-4 00 . ... : ... .. . ... : ... .. . ... ...
ROW 0D : C-3 2F 6 ... : ... .. . ... : --- .. . ... : ... .. . ... : ... .. . ... ...
ROW 0E : F-3 2F C ... : ... .. . ... : C-4 00 . ... : ... .. . ... : ... .. . ... ...
ROW 0F : E-3 2F 6 ... : ... .. . ... : --- .. . ... : ... .. . ... : ... .. . ... ...
ROW 10 : F-2 2F C ... : D-3 31 . ... : A-1 00 . ... : ... .. . ... : ... .. . ... ...
ROW 11 : F-3 2F 6 ... : ... .. . ... : ... .. . ... : ... .. . ... : ... .. . ... ...
ROW 12 : A-2 2F C ... : ... .. . ... : ... .. . ... : ... .. . ... : ... .. . ... ...
ROW 13 : F-2 2F 6 ... : ... .. . ... : ... .. . ... : ... .. . ... : ... .. . ... ...
ROW 14 : C-3 2F C ... : ... .. . ... : C-4 00 . ... : ... .. . ... : ... .. . ... ...
ROW 15 : A-2 2F 6 ... : ... .. . ... : --- 33 . ... : ... .. . ... : ... .. . ... ...
ROW 16 : F-2 2F C ... : C-3 31 . ... : F-4 00 . ... : ... .. . ... : ... .. . ... ...
ROW 17 : C-3 2F 6 ... : ... .. . ... : --- .. . ... : ... .. . ... : ... .. . ... ...
ROW 18 : A-2 2F C ... : ... .. . ... : F-1 00 . ... : ... .. . ... : ... .. . ... ...
ROW 19 : F-2 2F 6 ... : ... .. . ... : ... .. . ... : ... .. . ... : ... .. . ... ...
ROW 1A : C-3 2F C ... : ... .. . ... : ... .. . ... : ... .. . ... : ... .. . ... ...
ROW 1B : A-2 2F 6 ... : ... .. . ... : ... .. . ... : ... .. . ... : ... .. . ... ...
ROW 1C : D-3 2F C ... : A-2 31 . ... : F-3 00 . ... : ... .. . ... : ... .. . ... ...
ROW 1D : C-3 2F 6 ... : ... .. . ... : --- .. . ... : ... .. . ... : ... .. . ... ...
ROW 1E : A-2 2F C ... : ... .. . ... : F-3 00 . ... : ... .. . ... : ... .. . ... ...
ROW 1F : D-3 2F 6 ... : ... .. . ... : --- .. . ... : ... .. . ... : ... .. . ... ...
ROW 20 : F-2 2F C ... : D-3 31 . ... : ... .. . ... : ... .. . ... : ... .. . ... ...
ROW 21 : A-2 2F 6 ... : ... .. . ... : ... .. . ... : ... .. . ... : ... .. . ... ...
ROW 22 : A-2 2F C ... : ... .. . ... : ... .. . ... : ... .. . ... : ... .. . ... ...
ROW 23 : F-2 2F 6 ... : ... .. . ... : ... .. . ... : ... .. . ... : ... .. . ... ...
ROW 24 : C-3 2F C ... : ... .. . ... : F-2 00 . ... : ... .. . ... : ... .. . ... ...
ROW 25 : A-2 2F 6 ... : ... .. . ... : ... .. . ... : ... .. . ... : ... .. . ... ...
ROW 26 : F-2 2F C ... : C-3 31 . ... : ... .. . ... : ... .. . ... : ... .. . ... ...
ROW 27 : C-3 2F 6 ... : ... .. . ... : ... .. . ... : ... .. . ... : ... .. . ... ...
ROW 28 : A-2 2F C ... : ... .. . ... : --- 10 . ... : ... .. . ... : ... .. . ... ...
ROW 29 : F-2 2F 6 ... : ... .. . ... : ... .. . ... : ... .. . ... : ... .. . ... ...
ROW 2A : C-3 2F C ... : ... .. . ... : ... .. . ... : ... .. . ... : ... .. . ... ...
ROW 2B : A-2 2F 6 ... : ... .. . ... : ... .. . ... : ... .. . ... : ... .. . ... ...
ROW 2C : E-3 2F C ... : A-2 31 . ... : C-2 00 . ... : ... .. . ... : ... .. . ... ...
ROW 2D : C-3 2F 6 ... : ... .. . ... : ... .. . ... : ... .. . ... : ... .. . ... ...
ROW 2E : F-3 2F C ... : ... .. . ... : ... .. . ... : ... .. . ... : ... .. . ... ...
ROW 2F : E-3 2F 6 ... : ... .. . ... : ... .. . ... : ... .. . ... : ... .. . ... ...
ROW 30 : F-2 2F C ... : D-3 31 . ... : --- 10 . ... : ... .. . ... : ... .. . ... ...
ROW 31 : F-3 2F 6 ... : ... .. . ... : ... .. . ... : ... .. . ... : ... .. . ... ...
ROW 32 : A-2 2F C ... : ... .. . ... : ... .. . ... : ... .. . ... : ... .. . ... ...
ROW 33 : F-2 2F 6 ... : ... .. . ... : ... .. . ... : ... .. . ... : ... .. . ... ...
ROW 34 : C-3 2F C ... : A-2 31 . ... : A-1 00 . ... : ... .. . ... : ... .. . ... ...
ROW 35 : A-2 2F 6 ... : ... .. . ... : ... .. . ... : ... .. . ... : ... .. . ... ...
ROW 36 : F-2 2F C ... : ... .. . ... : ... .. . ... : ... .. . ... : ... .. . ... ...
ROW 37 : C-3 2F 6 ... : ... .. . ... : ... .. . ... : ... .. . ... : ... .. . ... ...
ROW 38 : A-2 2F C ... : C-3 31 . ... : C-2 00 . ... : ... .. . ... : ... .. . ... ...
ROW 39 : F-2 2F 6 ... : ... .. . ... : ... .. . ... : ... .. . ... : ... .. . ... ...
ROW 3A : C-3 2F C ... : ... .. . ... : F-2 00 . ... : ... .. . ... : ... .. . ... ...
ROW 3B : A-2 2F 6 ... : ... .. . ... : ... .. . ... : ... .. . ... : ... .. . ... ...
ROW 3C : A-2 2F C ... : D-3 31 . ... : C-2 00 . ... : ... .. . ... : ... .. . ... ...
ROW 3D : C-3 2F 6 ... : ... .. . ... : ... .. . ... : ... .. . ... : ... .. . ... ...
ROW 3E : F-2 2F C ... : ... .. . ... : A-1 00 . ... : ... .. . ... : ... .. . ... ...
ROW 3F : A-2 2F 6 ... : ... .. . ... : ... .. . ... : ... .. . ... : ... .. . ... ...

PATTERN 0D
ROW 00 : F-2 2F C ... : F#3 31 . ... : F-2 00 . ... : ... .. . ... : ... .. . ... ...
ROW 01 : F-2 2F 6 ... : ... .. . ... : ... .. . ... : ... .. . ... : ... .. . ... ...
ROW 02 : A-2 2F C ... : ... .. . ... : ... .. . ... : ... .. . ... : ... .. . ... ...
ROW 03 : F-2 2F 6 ... : ... .. . ... : ... .. . ... : ... .. . ... : ... .. . ... ...
ROW 04 : C-3 2F C ... : C#3 31 . ... : F-4 00 . ... : ... .. . ... : ... .. . ... ...
ROW 05 : A-2 2F 6 ... : ... .. . ... : --- 33 . ... : ... .. . ... : ... .. . ... ...
ROW 06 : F-2 2F C ... : E-3 31 . ... : F-4 00 . ... : ... .. . ... : ... .. . ... ...
ROW 07 : C-3 2F 6 ... : ... .. . ... : --- .. . ... : ... .. . ... : ... .. . ... ...
ROW 08 : A-2 2F C ... : ... .. . ... : C-2 00 . ... : ... .. . ... : ... .. . ... ...
ROW 09 : F-2 2F 6 ... : ... .. . ... : ... .. . ... : ... .. . ... : ... .. . ... ...
ROW 0A : C-3 2F C ... : ... .. . ... : ... .. . ... : ... .. . ... : ... .. . ... ...
ROW 0B : A-2 2F 6 ... : ... .. . ... : ... .. . ... : ... .. . ... : ... .. . ... ...
ROW 0C : E-3 2F C ... : C#3 31 . ... : C-4 00 . ... : ... .. . ... : ... .. . ... ...
ROW 0D : C-3 2F 6 ... : ... .. . ... : --- .. . ... : ... .. . ... : ... .. . ... ...
ROW 0E : F-3 2F C ... : B-2 31 . ... : C-4 00 . ... : ... .. . ... : ... .. . ... ...
ROW 0F : E-3 2F 6 ... : ... .. . ... : --- .. . ... : ... .. . ... : ... .. . ... ...
ROW 10 : F-2 2F C ... : A-2 31 . ... : A-1 00 . ... : ... .. . ... : ... .. . ... ...
ROW 11 : F-3 2F 6 ... : ... .. . ... : ... .. . ... : ... .. . ... : ... .. . ... ...
ROW 12 : A-2 2F C ... : ... .. . ... : ... .. . ... : ... .. . ... : ... .. . ... ...
ROW 13 : F-2 2F 6 ... : ... .. . ... : ... .. . ... : ... .. . ... : ... .. . ... ...
ROW 14 : C-3 2F C ... : A-2 31 . ... : C-4 00 . ... : ... .. . ... : ... .. . ... ...
ROW 15 : A-2 2F 6 ... : ... .. . ... : --- 33 . ... : ... .. . ... : ... .. . ... ...
ROW 16 : F-2 2F C ... : ... .. . ... : F-4 00 . ... : ... .. . ... : ... .. . ... ...
ROW 17 : C-3 2F 6 ... : ... .. . ... : --- .. . ... : ... .. . ... : ... .. . ... ...
ROW 18 : A-2 2F C ... : B-2 31 . ... : F-1 00 . ... : ... .. . ... : ... .. . ... ...
ROW 19 : F-2 2F 6 ... : ... .. . ... : ... .. . ... : ... .. . ... : ... .. . ... ...
ROW 1A : C-3 2F C ... : ... .. . ... : ... .. . ... : ... .. . ... : ... .. . ... ...
ROW 1B : A-2 2F 6 ... : ... .. . ... : ... .. . ... : ... .. . ... : ... .. . ... ...
ROW 1C : D-3 2F C ... : A-2 31 . ... : F-3 00 . ... : ... .. . ... : ... .. . ... ...
ROW 1D : C-3 2F 6 ... : ... .. . ... : --- .. . ... : ... .. . ... : ... .. . ... ...
ROW 1E : A-2 2F C ... : ... .. . ... : F-3 00 . ... : ... .. . ... : ... .. . ... ...
ROW 1F : D-3 2F 6 ... : ... .. . ... : --- .. . ... : ... .. . ... : ... .. . ... ...
ROW 20 : G-2 2F C ... : F#3 31 . ... : ... .. . ... : ... .. . ... : ... .. . ... ...
ROW 21 : B-2 2F 6 ... : ... .. . ... : ... .. . ... : ... .. . ... : ... .. . ... ...
ROW 22 : B-2 2F C ... : ... .. . ... : ... .. . ... : ... .. . ... : ... .. . ... ...
ROW 23 : G-2 2F 6 ... : ... .. . ... : ... .. . ... : ... .. . ... : ... .. . ... ...
ROW 24 : D-3 2F C ... : ... .. . ... : G-2 00 . ... : ... .. . ... : ... .. . ... ...
ROW 25 : B-2 2F 6 ... : ... .. . ... : ... .. . ... : ... .. . ... : ... .. . ... ...
ROW 26 : G-2 2F C ... : E-3 31 . ... : ... .. . ... : ... .. . ... : ... .. . ... ...
ROW 27 : D-3 2F 6 ... : ... .. . ... : ... .. . ... : ... .. . ... : ... .. . ... ...
ROW 28 : B-2 2F C ... : ... .. . ... : --- 00 . ... : ... .. . ... : ... .. . ... ...
ROW 29 : G-2 2F 6 ... : ... .. . ... : ... .. . ... : ... .. . ... : ... .. . ... ...
ROW 2A : D-3 2F C ... : ... .. . ... : ... .. . ... : ... .. . ... : ... .. . ... ...
ROW 2B : B-2 2F 6 ... : ... .. . ... : ... .. . ... : ... .. . ... : ... .. . ... ...
ROW 2C : F#3 2F C ... : C#3 31 . ... : D-2 00 . ... : ... .. . ... : ... .. . ... ...
ROW 2D : D-3 2F 6 ... : ... .. . ... : ... .. . ... : ... .. . ... : ... .. . ... ...
ROW 2E : G-3 2F C ... : ... .. . ... : ... .. . ... : ... .. . ... : ... .. . ... ...
ROW 2F : F#3 2F 6 ... : ... .. . ... : ... .. . ... : ... .. . ... : ... .. . ... ...
ROW 30 : A-2 2F C ... : B-2 31 . ... : --- 10 . ... : ... .. . ... : ... .. . ... ...
ROW 31 : A-3 2F 6 ... : ... .. . ... : ... .. . ... : ... .. . ... : ... .. . ... ...
ROW 32 : C#3 2F C ... : A-2 31 . ... : ... .. . ... : ... .. . ... : ... .. . ... ...
ROW 33 : A-2 2F 6 ... : ... .. . ... : ... .. . ... : ... .. . ... : ... .. . ... ...
ROW 34 : E-3 2F C ... : C#3 31 . ... : C#2 00 . ... : ... .. . ... : ... .. . ... ...
ROW 35 : C#3 2F 6 ... : ... .. . ... : ... .. . ... : ... .. . ... : ... .. . ... ...
ROW 36 : A-2 2F C ... : ... .. . ... : ... .. . ... : ... .. . ... : ... .. . ... ...
ROW 37 : E-3 2F 6 ... : ... .. . ... : ... .. . ... : ... .. . ... : ... .. . ... ...
ROW 38 : C#3 2F C ... : B-2 31 . ... : E-2 00 . ... : ... .. . ... : ... .. . ... ...
ROW 39 : A-2 2F 6 ... : ... .. . ... : ... .. . ... : ... .. . ... : ... .. . ... ...
ROW 3A : E-3 2F C ... : ... .. . ... : A-2 00 . ... : ... .. . ... : ... .. . ... ...
ROW 3B : C#3 2F 6 ... : ... .. . ... : ... .. . ... : ... .. . ... : ... .. . ... ...
ROW 3C : C#3 2F C ... : C#3 31 . ... : E-2 00 . ... : ... .. . ... : ... .. . ... ...
ROW 3D : E-3 2F 6 ... : ... .. . ... : ... .. . ... : ... .. . ... : ... .. . ... ...
ROW 3E : A-2 2F C ... : ... .. . ... : C#2 00 . ... : ... .. . ... : ... .. . ... ...
ROW 3F : C#3 2F 6 ... : ... .. . ... : ... .. . ... : ... .. . ... : ... .. . ... ...

PATTERN 0E
ROW 00 : --- .. . ... : D-3 31 . ... : A-3 00 . ... : ... .. . ... : ... .. . ... ...
ROW 01 : A-2 0E C ... : ... .. . ... : --- .. . ... : ... .. . ... : ... .. . ... ...
ROW 02 : --- .. . ... : ... .. . ... : C#4 00 . ... : ... .. . ... : ... .. . ... ...
ROW 03 : A-2 0E . ... : ... .. . ... : --- .. . ... : ... .. . ... : ... .. . ... ...
ROW 04 : --- .. . ... : ... .. . ... : E-4 00 . ... : ... .. . ... : ... .. . ... ...
ROW 05 : C#3 0E . ... : ... .. . ... : --- .. . ... : ... .. . ... : ... .. . ... ...
ROW 06 : --- .. . ... : C-3 31 . ... : A-3 00 . ... : ... .. . ... : ... .. . ... ...
ROW 07 : E-3 0E . ... : ... .. . ... : --- .. . ... : ... .. . ... : ... .. . ... ...
ROW 08 : --- .. . ... : ... .. . ... : C#4 00 . ... : ... .. . ... : ... .. . ... ...
ROW 09 : A-2 0E . ... : ... .. . ... : --- .. . ... : ... .. . ... : ... .. . ... ...
ROW 0A : --- .. . ... : ... .. . ... : E-4 00 . ... : ... .. . ... : ... .. . ... ...
ROW 0B : C#3 0E . ... : ... .. . ... : --- .. . ... : ... .. . ... : ... .. . ... ...
ROW 0C : --- .. . ... : A-2 31 . ... : G#4 00 . ... : ... .. . ... : ... .. . ... ...
ROW 0D : E-3 0E . ... : ... .. . ... : --- .. . ... : ... .. . ... : ... .. . ... ...
ROW 0E : --- .. . ... : ... .. . ... : A-4 00 . ... : ... .. . ... : ... .. . ... ...
ROW 0F : G#3 0E . ... : ... .. . ... : --- .. . ... : ... .. . ... : ... .. . ... ...
ROW 10 : --- .. . ... : D-3 31 . ... : A-3 00 . ... : ... .. . ... : ... .. . ... ...
ROW 11 : A-3 0E . ... : ... .. . ... : --- .. . ... : ... .. . ... : ... .. . ... ...
ROW 12 : --- .. . ... : ... .. . ... : C#4 00 . ... : ... .. . ... : ... .. . ... ...
ROW 13 : A-2 0E . ... : ... .. . ... : --- .. . ... : ... .. . ... : ... .. . ... ...
ROW 14 : --- .. . ... : ... .. . ... : E-4 00 . ... : ... .. . ... : ... .. . ... ...
ROW 15 : C#3 0E . ... : ... .. . ... : --- .. . ... : ... .. . ... : ... .. . ... ...
ROW 16 : --- .. . ... : C-3 31 . ... : A-3 00 . ... : ... .. . ... : ... .. . ... ...
ROW 17 : E-3 0E . ... : ... .. . ... : --- .. . ... : ... .. . ... : ... .. . ... ...
ROW 18 : --- .. . ... : ... .. . ... : C#4 00 . ... : ... .. . ... : ... .. . ... ...
ROW 19 : A-2 0E . ... : ... .. . ... : --- .. . ... : ... .. . ... : ... .. . ... ...
ROW 1A : --- .. . ... : ... .. . ... : E-4 00 . ... : ... .. . ... : ... .. . ... ...
ROW 1B : C#3 0E . ... : ... .. . ... : --- .. . ... : ... .. . ... : ... .. . ... ...
ROW 1C : --- .. . ... : A-2 31 . ... : F#4 00 . ... : ... .. . ... : ... .. . ... ...
ROW 1D : E-3 0E . ... : ... .. . ... : --- .. . ... : ... .. . ... : ... .. . ... ...
ROW 1E : --- .. . ... : ... .. . ... : C#4 00 . ... : ... .. . ... : ... .. . ... ...
ROW 1F : F#3 0E . ... : ... .. . ... : --- .. . ... : ... .. . ... : ... .. . ... ...
ROW 20 : --- .. . ... : E-3 31 . ... : A-3 00 . ... : ... .. . ... : ... .. . ... ...
ROW 21 : C#3 0E . ... : ... .. . ... : --- .. . ... : ... .. . ... : ... .. . ... ...
ROW 22 : --- .. . ... : ... .. . ... : C#4 00 . ... : ... .. . ... : ... .. . ... ...
ROW 23 : A-2 0E . ... : ... .. . ... : --- .. . ... : ... .. . ... : ... .. . ... ...
ROW 24 : --- .. . ... : ... .. . ... : E-4 00 . ... : ... .. . ... : ... .. . ... ...
ROW 25 : C#3 0E . ... : ... .. . ... : --- .. . ... : ... .. . ... : ... .. . ... ...
ROW 26 : --- .. . ... : D-3 31 . ... : A-3 00 . ... : ... .. . ... : ... .. . ... ...
ROW 27 : E-3 0E . ... : ... .. . ... : --- .. . ... : ... .. . ... : ... .. . ... ...
ROW 28 : --- .. . ... : ... .. . ... : C#4 00 . ... : ... .. . ... : ... .. . ... ...
ROW 29 : A-2 0E . ... : ... .. . ... : --- .. . ... : ... .. . ... : ... .. . ... ...
ROW 2A : --- .. . ... : ... .. . ... : E-4 00 . ... : ... .. . ... : ... .. . ... ...
ROW 2B : C#3 0E . ... : ... .. . ... : --- .. . ... : ... .. . ... : ... .. . ... ...
ROW 2C : --- .. . ... : B-2 31 . ... : G#4 00 . ... : ... .. . ... : ... .. . ... ...
ROW 2D : E-3 0E . ... : ... .. . ... : --- .. . ... : ... .. . ... : ... .. . ... ...
ROW 2E : --- .. . ... : ... .. . ... : A-4 00 . ... : ... .. . ... : ... .. . ... ...
ROW 2F : G#3 0E . ... : ... .. . ... : --- .. . ... : ... .. . ... : ... .. . ... ...
ROW 30 : --- .. . ... : A-2 31 . ... : A-3 00 . ... : ... .. . ... : ... .. . ... ...
ROW 31 : A-3 0E . ... : ... .. . ... : --- .. . ... : ... .. . ... : ... .. . ... ...
ROW 32 : --- .. . ... : C#3 31 . ... : C#4 00 . ... : ... .. . ... : ... .. . ... ...
ROW 33 : A-2 0E . ... : ... .. . ... : --- .. . ... : ... .. . ... : ... .. . ... ...
ROW 34 : --- .. . ... : E-3 31 . ... : E-4 00 . ... : ... .. . ... : ... .. . ... ...
ROW 35 : C#3 0E . ... : ... .. . ... : --- .. . ... : ... .. . ... : ... .. . ... ...
ROW 36 : --- .. . ... : ... .. . ... : A-3 00 . ... : ... .. . ... : ... .. . ... ...
ROW 37 : E-3 0E . ... : ... .. . ... : --- .. . ... : ... .. . ... : ... .. . ... ...
ROW 38 : --- .. . ... : C#3 31 . ... : C#4 00 . ... : ... .. . ... : ... .. . ... ...
ROW 39 : A-2 0E . ... : ... .. . ... : --- .. . ... : ... .. . ... : ... .. . ... ...
ROW 3A : --- .. . ... : ... .. . ... : E-4 00 . ... : ... .. . ... : ... .. . ... ...
ROW 3B : C#3 0E . ... : ... .. . ... : --- .. . ... : ... .. . ... : ... .. . ... ...
ROW 3C : --- .. . ... : A-3 31 . ... : C#4 00 . ... : ... .. . ... : ... .. . ... ...
ROW 3D : E-3 0E . ... : ... .. . ... : --- .. . ... : ... .. . ... : ... .. . ... ...
ROW 3E : --- .. . ... : ... .. . ... : A-3 00 . ... : ... .. . ... : ... .. . ... ...
ROW 3F : C#3 0E . ... : ... .. . ... : --- .. . ... : ... .. . ... : ... .. . ... ...

PATTERN 0F
ROW 00 : --- .. . ... : --- .. . ... : C-4 00 . ... : A-# 19 . J10 : ... .. . ... ...
ROW 01 : C-3 0E . ... : A-2 0E 6 400 : --- .. . ... : ... .. . ... : ... .. . ... ...
ROW 02 : --- .. . ... : --- .. . ... : E-4 00 . ... : ... .. . ... : ... .. . ... ...
ROW 03 : C-3 0E . ... : C#3 0E . ... : --- .. . ... : ... .. . ... : ... .. . ... ...
ROW 04 : --- .. . ... : --- .. . ... : G-4 00 . ... : ... .. . ... : ... .. . ... ...
ROW 05 : E-3 0E . ... : E-3 0E . ... : --- .. . ... : ... .. . ... : ... .. . ... ...
ROW 06 : --- .. . ... : --- .. . ... : C-4 00 . ... : ... .. . ... : ... .. . ... ...
ROW 07 : G-3 0E . ... : A-2 0E . ... : --- .. . ... : ... .. . ... : ... .. . ... ...
ROW 08 : --- .. . ... : --- .. . ... : E-4 00 . ... : ... .. . ... : ... .. . ... ...
ROW 09 : C-3 0E . ... : C#3 0E . ... : --- .. . ... : ... .. . ... : ... .. . ... ...
ROW 0A : --- .. . ... : --- .. . ... : G-4 00 . ... : ... .. . ... : ... .. . ... ...
ROW 0B : E-3 0E . ... : E-3 0E . ... : --- .. . ... : ... .. . ... : ... .. . ... ...
ROW 0C : --- .. . ... : --- .. . ... : B-4 00 . ... : ... .. . ... : ... .. . ... ...
ROW 0D : G-3 0E . ... : G#3 0E . ... : --- .. . ... : ... .. . ... : ... .. . ... ...
ROW 0E : --- .. . ... : --- .. . ... : C-5 00 . ... : ... .. . ... : ... .. . ... ...
ROW 0F : B-3 0E . ... : A-3 0E . ... : --- .. . ... : ... .. . ... : ... .. . ... ...
ROW 10 : --- .. . ... : --- .. . ... : C-4 00 . ... : ... .. . ... : ... .. . ... ...
ROW 11 : C-4 0E . ... : A-2 0E . ... : --- .. . ... : ... .. . ... : ... .. . ... ...
ROW 12 : --- .. . ... : --- .. . ... : E-4 00 . ... : ... .. . ... : ... .. . ... ...
ROW 13 : C-3 0E . ... : C#3 0E . ... : --- .. . ... : ... .. . ... : ... .. . ... ...
ROW 14 : --- .. . ... : --- .. . ... : G-4 00 . ... : ... .. . ... : ... .. . ... ...
ROW 15 : E-3 0E . ... : E-3 0E . ... : --- .. . ... : ... .. . ... : ... .. . ... ...
ROW 16 : --- .. . ... : --- .. . ... : C-4 00 . ... : ... .. . ... : ... .. . ... ...
ROW 17 : G-3 0E . ... : A-2 0E . ... : --- .. . ... : ... .. . ... : ... .. . ... ...
ROW 18 : --- .. . ... : --- .. . ... : E-4 00 . ... : ... .. . ... : ... .. . ... ...
ROW 19 : C-3 0E . ... : C#3 0E . ... : --- .. . ... : ... .. . ... : ... .. . ... ...
ROW 1A : --- .. . ... : --- .. . ... : G-4 00 . ... : ... .. . ... : ... .. . ... ...
ROW 1B : E-3 0E . ... : E-3 0E . ... : --- .. . ... : ... .. . ... : ... .. . ... ...
ROW 1C : --- .. . ... : --- .. . ... : A-4 00 . ... : ... .. . ... : ... .. . ... ...
ROW 1D : G-3 0E . ... : F#3 0E . ... : --- .. . ... : ... .. . ... : ... .. . ... ...
ROW 1E : --- .. . ... : --- .. . ... : E-4 00 . ... : ... .. . ... : ... .. . ... ...
ROW 1F : A-3 0E . ... : C#3 0E . ... : --- .. . ... : ... .. . ... : ... .. . ... ...
ROW 20 : --- .. . ... : --- .. . ... : C-4 00 . ... : A-# 19 . J10 : ... .. . ... ...
ROW 21 : E-3 0E . ... : A-2 0E . ... : --- .. . ... : ... .. . ... : ... .. . ... ...
ROW 22 : --- .. . ... : --- .. . ... : E-4 00 . ... : ... .. . ... : ... .. . ... ...
ROW 23 : C-3 0E . ... : C#3 0E . ... : --- .. . ... : ... .. . ... : ... .. . ... ...
ROW 24 : --- .. . ... : --- .. . ... : G-4 00 . ... : ... .. . ... : ... .. . ... ...
ROW 25 : E-3 0E . ... : E-3 0E . ... : --- .. . ... : ... .. . ... : ... .. . ... ...
ROW 26 : --- .. . ... : --- .. . ... : C-4 00 . ... : ... .. . ... : ... .. . ... ...
ROW 27 : G-3 0E . ... : A-2 0E . ... : --- .. . ... : ... .. . ... : ... .. . ... ...
ROW 28 : --- .. . ... : --- .. . ... : E-4 00 . ... : ... .. . ... : ... .. . ... ...
ROW 29 : C-3 0E . ... : C#3 0E . ... : --- .. . ... : ... .. . ... : ... .. . ... ...
ROW 2A : --- .. . ... : --- .. . ... : G-4 00 . ... : ... .. . ... : ... .. . ... ...
ROW 2B : E-3 0E . ... : E-3 0E . ... : --- .. . ... : ... .. . ... : ... .. . ... ...
ROW 2C : --- .. . ... : --- .. . ... : B-4 00 . ... : ... .. . ... : ... .. . ... ...
ROW 2D : G-3 0E . ... : G#3 0E . ... : --- .. . ... : ... .. . ... : ... .. . ... ...
ROW 2E : --- .. . ... : --- .. . ... : C-5 00 . ... : ... .. . ... : ... .. . ... ...
ROW 2F : B-3 0E . ... : A-3 0E . ... : --- .. . ... : ... .. . ... : ... .. . ... ...
ROW 30 : --- .. . ... : --- .. . ... : C-4 00 . ... : A-# 19 . J10 : ... .. . ... ...
ROW 31 : C-4 0E . ... : A-2 0E . ... : --- .. . ... : ... .. . ... : ... .. . ... ...
ROW 32 : --- .. . ... : --- .. . ... : E-4 00 . ... : ... .. . ... : ... .. . ... ...
ROW 33 : C-3 0E . ... : C#3 0E . ... : --- .. . ... : ... .. . ... : ... .. . ... ...
ROW 34 : --- .. . ... : --- .. . ... : G-4 00 . ... : ... .. . ... : ... .. . ... ...
ROW 35 : E-3 0E . ... : E-3 0E . ... : --- .. . ... : ... .. . ... : ... .. . ... ...
ROW 36 : --- .. . ... : --- .. . ... : C-4 00 . ... : ... .. . ... : ... .. . ... ...
ROW 37 : G-3 0E . ... : A-2 0E . ... : --- .. . ... : ... .. . ... : ... .. . ... ...
ROW 38 : --- .. . ... : --- .. . ... : E-4 00 . ... : ... .. . ... : ... .. . ... ...
ROW 39 : C-3 0E . ... : C#3 0E . ... : --- .. . ... : ... .. . ... : ... .. . ... ...
ROW 3A : --- .. . ... : --- .. . ... : G-4 00 . ... : ... .. . ... : ... .. . ... ...
ROW 3B : E-3 0E . ... : E-3 0E . ... : --- .. . ... : ... .. . ... : ... .. . ... ...
ROW 3C : --- .. . ... : --- .. . ... : E-4 00 . ... : ... .. . ... : ... .. . ... ...
ROW 3D : G-3 0E . ... : C#3 0E . ... : --- .. . ... : ... .. . ... : ... .. . ... ...
ROW 3E : --- .. . ... : --- .. . ... : C-4 00 . ... : ... .. . ... : ... .. . ... ...
ROW 3F : E-3 0E . ... : A-2 0E . ... : --- .. . ... : ... .. . ... : ... .. . ... ...

PATTERN 10
ROW 00 : --- .. . ... : C-3 35 6 ... : A-3 00 . ... : ... .. . ... : ... .. . ... ...
ROW 01 : A-2 0E . ... : ... .. . ... : --- .. . ... : ... .. . ... : ... .. . ... ...
ROW 02 : --- .. . ... : C-3 35 . ... : C#4 00 . ... : ... .. . ... : ... .. . ... ...
ROW 03 : A-2 0E . ... : ... .. . ... : --- .. . ... : ... .. . ... : ... .. . ... ...
ROW 04 : --- .. . ... : C-3 35 . ... : E-4 00 . ... : ... .. . ... : ... .. . ... ...
ROW 05 : C#3 0E . ... : ... .. . ... : --- .. . ... : ... .. . ... : ... .. . ... ...
ROW 06 : --- .. . ... : C-3 35 . ... : A-3 00 . ... : ... .. . ... : ... .. . ... ...
ROW 07 : E-3 0E . ... : ... .. . ... : --- .. . ... : ... .. . ... : ... .. . ... ...
ROW 08 : --- .. . ... : C-3 35 . ... : C#4 00 . ... : ... .. . ... : ... .. . ... ...
ROW 09 : A-2 0E . ... : ... .. . ... : --- .. . ... : ... .. . ... : ... .. . ... ...
ROW 0A : --- .. . ... : C-3 35 . ... : E-4 00 . ... : ... .. . ... : ... .. . ... ...
ROW 0B : C#3 0E . ... : ... .. . ... : --- .. . ... : ... .. . ... : ... .. . ... ...
ROW 0C : --- .. . ... : C-3 35 . ... : G#4 00 . ... : ... .. . ... : ... .. . ... ...
ROW 0D : E-3 0E . ... : ... .. . ... : --- .. . ... : ... .. . ... : ... .. . ... ...
ROW 0E : --- .. . ... : C-3 35 . ... : A-4 00 . ... : ... .. . ... : ... .. . ... ...
ROW 0F : G#3 0E . ... : ... .. . ... : --- .. . ... : ... .. . ... : ... .. . ... ...
ROW 10 : --- .. . ... : C-3 35 9 ... : A-3 00 . ... : ... .. . ... : ... .. . ... ...
ROW 11 : A-3 0E . ... : ... .. . ... : --- .. . ... : ... .. . ... : ... .. . ... ...
ROW 12 : --- .. . ... : C-3 35 . ... : C#4 00 . ... : ... .. . ... : ... .. . ... ...
ROW 13 : A-2 0E . ... : ... .. . ... : --- .. . ... : ... .. . ... : ... .. . ... ...
ROW 14 : --- .. . ... : C-3 35 . ... : E-4 00 . ... : ... .. . ... : ... .. . ... ...
ROW 15 : C#3 0E . ... : ... .. . ... : --- .. . ... : ... .. . ... : ... .. . ... ...
ROW 16 : --- .. . ... : C-3 35 . ... : A-3 00 . ... : ... .. . ... : ... .. . ... ...
ROW 17 : E-3 0E . ... : ... .. . ... : --- .. . ... : ... .. . ... : ... .. . ... ...
ROW 18 : --- .. . ... : C-3 35 . ... : C#4 00 . ... : ... .. . ... : ... .. . ... ...
ROW 19 : A-2 0E . ... : ... .. . ... : --- .. . ... : ... .. . ... : ... .. . ... ...
ROW 1A : --- .. . ... : C-3 35 . ... : E-4 00 . ... : ... .. . ... : ... .. . ... ...
ROW 1B : C#3 0E . ... : ... .. . ... : --- .. . ... : ... .. . ... : ... .. . ... ...
ROW 1C : --- .. . ... : C-3 35 . ... : F#4 00 . ... : ... .. . ... : ... .. . ... ...
ROW 1D : E-3 0E . ... : ... .. . ... : --- .. . ... : ... .. . ... : ... .. . ... ...
ROW 1E : --- .. . ... : C-3 35 . ... : C#4 00 . ... : ... .. . ... : ... .. . ... ...
ROW 1F : F#3 0E . ... : ... .. . ... : --- .. . ... : ... .. . ... : ... .. . ... ...
ROW 20 : --- .. . ... : C-3 35 C ... : G-3 00 . ... : ... .. . ... : ... .. . ... ...
ROW 21 : G-2 0E . ... : ... .. . ... : --- .. . ... : ... .. . ... : ... .. . ... ...
ROW 22 : --- .. . ... : C-3 35 . ... : B-3 00 . ... : ... .. . ... : ... .. . ... ...
ROW 23 : G-2 0E . ... : ... .. . ... : --- .. . ... : ... .. . ... : ... .. . ... ...
ROW 24 : --- .. . ... : C-3 35 . ... : D-4 00 . ... : ... .. . ... : ... .. . ... ...
ROW 25 : B-2 0E . ... : ... .. . ... : --- .. . ... : ... .. . ... : ... .. . ... ...
ROW 26 : --- .. . ... : C-3 35 . ... : G-3 00 . ... : ... .. . ... : ... .. . ... ...
ROW 27 : D-3 0E . ... : ... .. . ... : --- .. . ... : ... .. . ... : ... .. . ... ...
ROW 28 : --- .. . ... : C-3 35 . ... : B-3 00 . ... : ... .. . ... : ... .. . ... ...
ROW 29 : G-2 0E . ... : ... .. . ... : --- .. . ... : ... .. . ... : ... .. . ... ...
ROW 2A : --- .. . ... : C-3 35 . ... : D-4 00 . ... : ... .. . ... : ... .. . ... ...
ROW 2B : B-2 0E . ... : ... .. . ... : --- .. . ... : ... .. . ... : ... .. . ... ...
ROW 2C : --- .. . ... : C-3 35 . ... : F#4 00 . ... : ... .. . ... : ... .. . ... ...
ROW 2D : D-3 0E . ... : ... .. . ... : --- .. . ... : ... .. . ... : ... .. . ... ...
ROW 2E : --- .. . ... : C-3 35 . ... : G-4 00 . ... : ... .. . ... : ... .. . ... ...
ROW 2F : F#3 0E . ... : ... .. . ... : --- .. . ... : ... .. . ... : ... .. . ... ...
ROW 30 : --- .. . ... : C-3 35 9 ... : F-3 00 . ... : ... .. . ... : ... .. . ... ...
ROW 31 : F-2 0E . ... : ... .. . ... : --- .. . ... : ... .. . ... : ... .. . ... ...
ROW 32 : --- .. . ... : C-3 35 . ... : A-3 00 . ... : ... .. . ... : ... .. . ... ...
ROW 33 : F-2 0E . ... : ... .. . ... : --- .. . ... : ... .. . ... : ... .. . ... ...
ROW 34 : --- .. . ... : C-3 35 . ... : C-4 00 . ... : ... .. . ... : ... .. . ... ...
ROW 35 : A-2 0E . ... : ... .. . ... : --- .. . ... : ... .. . ... : ... .. . ... ...
ROW 36 : --- .. . ... : C-3 35 . ... : F-3 00 . ... : ... .. . ... : ... .. . ... ...
ROW 37 : C-3 0E . ... : ... .. . ... : --- .. . ... : ... .. . ... : ... .. . ... ...
ROW 38 : A-2 32 6 ... : C-3 35 6 ... : A-3 00 . ... : ... .. . ... : ... .. . ... ...
ROW 39 : ... .. . ... : ... .. . ... : --- .. . ... : ... .. . ... : ... .. . ... ...
ROW 3A : C-3 32 9 ... : C-3 35 . ... : C-4 00 . ... : ... .. . ... : ... .. . ... ...
ROW 3B : ... .. . ... : ... .. . ... : --- .. . ... : ... .. . ... : ... .. . ... ...
ROW 3C : E-3 32 C ... : C-3 35 . ... : E-4 00 . ... : ... .. . ... : ... .. . ... ...
ROW 3D : ... .. . ... : ... .. . ... : --- .. . ... : ... .. . ... : ... .. . ... ...
ROW 3E : F-2 32 F ... : C-3 35 . ... : F-4 00 . ... : ... .. . ... : ... .. . ... ...
ROW 3F : ... .. . ... : ... .. . ... : --- .. . ... : ... .. . ... : ... .. . ... ...

PATTERN 11
ROW 00 : ... .. . ... : A-2 35 6 ... : ... .. . ... : ... .. . ... : ... .. . ... ...
ROW 01 : ... .. . ... : ... .. . ... : ... .. . ... : ... .. . ... : ... .. . ... ...
ROW 02 : ... .. . ... : A-2 35 . ... : ... .. . ... : ... .. . ... : ... .. . ... ...
ROW 03 : ... .. . ... : ... .. . ... : ... .. . ... : ... .. . ... : ... .. . ... ...
ROW 04 : ... .. . ... : A-2 35 9 ... : ... .. . ... : ... .. . ... : ... .. . ... ...
ROW 05 : ... .. . ... : ... .. . ... : ... .. . ... : ... .. . ... : ... .. . ... ...
ROW 06 : ... .. . ... : A-2 35 . ... : ... .. . ... : ... .. . ... : ... .. . ... ...
ROW 07 : ... .. . ... : ... .. . ... : ... .. . ... : ... .. . ... : ... .. . ... ...
ROW 08 : ... .. . ... : A-2 35 C ... : ... .. . ... : ... .. . ... : ... .. . ... ...
ROW 09 : ... .. . ... : ... .. . ... : ... .. . ... : ... .. . ... : ... .. . ... ...
ROW 0A : ... .. . ... : A-2 35 . ... : ... .. . ... : ... .. . ... : ... .. . ... ...
ROW 0B : ... .. . ... : ... .. . ... : ... .. . ... : ... .. . ... : ... .. . ... ...
ROW 0C : ... .. . ... : A-2 35 9 ... : ... .. . ... : ... .. . ... : ... .. . ... ...
ROW 0D : ... .. . ... : ... .. . ... : ... .. . ... : ... .. . ... : ... .. . ... ...
ROW 0E : ... .. . ... : A-2 35 . ... : ... .. . ... : ... .. . ... : ... .. . ... ...
ROW 0F : ... .. . ... : ... .. . ... : ... .. . ... : ... .. . ... : ... .. . ... ...
ROW 10 : ... .. . ... : A-2 35 6 ... : ... .. . ... : ... .. . ... : ... .. . ... ...
ROW 11 : ... .. . ... : ... .. . ... : ... .. . ... : ... .. . ... : ... .. . ... ...
ROW 12 : ... .. . ... : A-2 35 . ... : ... .. . ... : ... .. . ... : ... .. . ... ...
ROW 13 : ... .. . ... : ... .. . ... : ... .. . ... : ... .. . ... : ... .. . ... ...
ROW 14 : ... .. . ... : A-2 35 9 ... : ... .. . ... : ... .. . ... : ... .. . ... ...
ROW 15 : ... .. . ... : ... .. . ... : ... .. . ... : ... .. . ... : ... .. . ... ...
ROW 16 : ... .. . ... : A-2 35 . ... : ... .. . ... : ... .. . ... : ... .. . ... ...
ROW 17 : ... .. . ... : ... .. . ... : ... .. . ... : ... .. . ... : ... .. . ... ...
ROW 18 : ... .. . ... : A-2 35 C ... : ... .. . ... : ... .. . ... : ... .. . ... ...
ROW 19 : ... .. . ... : ... .. . ... : ... .. . ... : ... .. . ... : ... .. . ... ...
ROW 1A : ... .. . ... : A-2 35 . ... : ... .. . ... : ... .. . ... : ... .. . ... ...
ROW 1B : ... .. . ... : ... .. . ... : ... .. . ... : ... .. . ... : ... .. . ... ...
ROW 1C : ... .. . ... : A-2 35 9 ... : ... .. . ... : ... .. . ... : ... .. . ... ...
ROW 1D : ... .. . ... : ... .. . ... : ... .. . ... : ... .. . ... : ... .. . ... ...
ROW 1E : ... .. . ... : A-2 35 . ... : ... .. . ... : ... .. . ... : ... .. . ... ...
ROW 1F : ... .. . ... : ... .. . ... : ... .. . ... : ... .. . ... : ... .. . ... ...
ROW 20 : ... .. . ... : G-2 35 6 ... : ... .. . ... : ... .. . ... : ... .. . ... ...
ROW 21 : ... .. . ... : ... .. . ... : ... .. . ... : ... .. . ... : ... .. . ... ...
ROW 22 : ... .. . ... : G-2 35 . ... : ... .. . ... : ... .. . ... : ... .. . ... ...
ROW 23 : ... .. . ... : ... .. . ... : ... .. . ... : ... .. . ... : ... .. . ... ...
ROW 24 : ... .. . ... : G-2 35 9 ... : ... .. . ... : ... .. . ... : ... .. . ... ...
ROW 25 : ... .. . ... : ... .. . ... : ... .. . ... : ... .. . ... : ... .. . ... ...
ROW 26 : ... .. . ... : G-2 35 . ... : ... .. . ... : ... .. . ... : ... .. . ... ...
ROW 27 : ... .. . ... : ... .. . ... : ... .. . ... : ... .. . ... : ... .. . ... ...
ROW 28 : ... .. . ... : G-2 35 C ... : ... .. . ... : ... .. . ... : ... .. . ... ...
ROW 29 : ... .. . ... : ... .. . ... : ... .. . ... : ... .. . ... : ... .. . ... ...
ROW 2A : ... .. . ... : G-2 35 . ... : ... .. . ... : ... .. . ... : ... .. . ... ...
ROW 2B : ... .. . ... : ... .. . ... : ... .. . ... : ... .. . ... : ... .. . ... ...
ROW 2C : ... .. . ... : G-2 35 9 ... : ... .. . ... : ... .. . ... : ... .. . ... ...
ROW 2D : ... .. . ... : ... .. . ... : ... .. . ... : ... .. . ... : ... .. . ... ...
ROW 2E : ... .. . ... : G-2 35 . ... : ... .. . ... : ... .. . ... : ... .. . ... ...
ROW 2F : ... .. . ... : ... .. . ... : ... .. . ... : ... .. . ... : ... .. . ... ...
ROW 30 : ... .. . ... : F-2 35 6 ... : ... .. . ... : ... .. . ... : ... .. . ... ...
ROW 31 : ... .. . ... : ... .. . ... : ... .. . ... : ... .. . ... : ... .. . ... ...
ROW 32 : ... .. . ... : F-2 35 . ... : ... .. . ... : ... .. . ... : ... .. . ... ...
ROW 33 : ... .. . ... : ... .. . ... : ... .. . ... : ... .. . ... : ... .. . ... ...
ROW 34 : ... .. . ... : F-2 35 9 ... : ... .. . ... : ... .. . ... : ... .. . ... ...
ROW 35 : ... .. . ... : ... .. . ... : ... .. . ... : ... .. . ... : ... .. . ... ...
ROW 36 : ... .. . ... : F-2 35 . ... : ... .. . ... : ... .. . ... : ... .. . ... ...
ROW 37 : ... .. . ... : ... .. . ... : ... .. . ... : ... .. . ... : ... .. . ... ...
ROW 38 : ... .. . ... : F-2 35 C ... : ... .. . ... : ... .. . ... : ... .. . ... ...
ROW 39 : ... .. . ... : ... .. . ... : ... .. . ... : ... .. . ... : ... .. . ... ...
ROW 3A : ... .. . ... : F-2 35 . ... : ... .. . ... : ... .. . ... : ... .. . ... ...
ROW 3B : ... .. . ... : ... .. . ... : ... .. . ... : ... .. . ... : ... .. . ... ...
ROW 3C : ... .. . ... : F-2 35 9 ... : ... .. . ... : ... .. . ... : ... .. . ... ...
ROW 3D : ... .. . ... : ... .. . ... : ... .. . ... : ... .. . ... : ... .. . ... ...
ROW 3E : ... .. . ... : F-2 35 . ... : ... .. . ... : ... .. . ... : ... .. . ... ...
ROW 3F : ... .. . ... : ... .. . ... : ... .. . ... : ... .. . ... : ... .. . ... ...

TRACK  64   4 150 "Minor Boss"
COLUMNS : 1 2 1 1 1

ORDER 00 : 00 00 00 00 00
ORDER 01 : 01 01 01 01 00
ORDER 02 : 02 02 02 02 00
ORDER 03 : 03 03 03 02 00
ORDER 04 : 04 02 02 04 00
ORDER 05 : 05 03 03 02 00
ORDER 06 : 06 06 06 06 00
ORDER 07 : 07 07 07 07 00
ORDER 08 : 08 06 06 06 00
ORDER 09 : 09 09 09 06 00
ORDER 0A : 0A 0A 0A 0A 00

PATTERN 00
ROW 00 : ... .. 6 ... : ... .. . ... ... : E-2 00 . ... : A-# 19 . J10 : ... .. . ...
ROW 01 : ... .. . ... : ... .. . ... ... : ... .. . ... : ... .. . ... : ... .. . ...
ROW 02 : E-1 0E F ... : ... .. . ... ... : ... .. . ... : ... .. . ... : ... .. . ...
ROW 03 : ... .. . ... : ... .. . ... ... : ... .. . ... : ... .. . ... : ... .. . ...
ROW 04 : ... .. . ... : ... .. . ... ... : E-3 20 . ... : ... .. . ... : ... .. . ...
ROW 05 : ... .. . ... : ... .. . ... ... : ... .. . ... : ... .. . ... : ... .. . ...
ROW 06 : E-2 0E . ... : ... .. . ... ... : --- .. . ... : ... .. . ... : ... .. . ...
ROW 07 : ... .. . ... : ... .. . ... ... : ... .. . ... : ... .. . ... : ... .. . ...
ROW 08 : ... .. 6 ... : C-3 21 . 047 ... : E-2 20 . ... : ... .. . ... : ... .. . ...
ROW 09 : ... .. . ... : ... .. . ... ... : ... .. . ... : ... .. . ... : ... .. . ...
ROW 0A : E-1 0E F ... : ... .. . ... ... : E-3 20 . ... : ... .. . ... : ... .. . ...
ROW 0B : ... .. . ... : ... .. . ... ... : ... .. . ... : ... .. . ... : ... .. . ...
ROW 0C : E-2 0E . ... : ... .. . ... ... : --- .. . ... : ... .. . ... : ... .. . ...
ROW 0D : ... .. . ... : ... .. . ... ... : ... .. . ... : ... .. . ... : ... .. . ...
ROW 0E : ... .. 6 ... : ... .. . ... ... : E-2 20 . ... : ... .. . ... : ... .. . ...
ROW 0F : ... .. . ... : ... .. . ... ... : ... .. . ... : ... .. . ... : ... .. . ...
ROW 10 : E-1 0E F ... : ... .. . ... ... : E-3 20 . ... : ... .. . ... : ... .. . ...
ROW 11 : ... .. . ... : ... .. . ... ... : ... .. . ... : ... .. . ... : ... .. . ...
ROW 12 : E-2 0E . ... : ... .. . ... ... : --- .. . ... : ... .. . ... : ... .. . ...
ROW 13 : ... .. . ... : ... .. . ... ... : ... .. . ... : ... .. . ... : ... .. . ...
ROW 14 : ... .. 6 ... : ... .. . ... ... : E-2 20 . ... : ... .. . ... : ... .. . ...
ROW 15 : ... .. . ... : ... .. . ... ... : ... .. . ... : ... .. . ... : ... .. . ...
ROW 16 : E-1 0E F ... : ... .. . ... ... : E-3 20 . ... : ... .. . ... : ... .. . ...
ROW 17 : ... .. . ... : ... .. . ... ... : ... .. . ... : ... .. . ... : ... .. . ...
ROW 18 : E-2 0E . ... : C-3 21 . 047 ... : E-2 20 . ... : ... .. . ... : ... .. . ...
ROW 19 : ... .. . ... : ... .. . ... ... : ... .. . ... : ... .. . ... : ... .. . ...
ROW 1A : E-1 0E . ... : ... .. . ... ... : ... .. . ... : ... .. . ... : ... .. . ...
ROW 1B : ... .. . ... : ... .. . ... ... : ... .. . ... : ... .. . ... : ... .. . ...
ROW 1C : ... .. 6 ... : ... .. . ... ... : E-3 20 . ... : ... .. . ... : ... .. . ...
ROW 1D : ... .. . ... : ... .. . ... ... : ... .. . ... : ... .. . ... : ... .. . ...
ROW 1E : E-2 0E F ... : ... .. . ... ... : --- .. . ... : ... .. . ... : ... .. . ...
ROW 1F : ... .. . ... : ... .. . ... ... : ... .. . ... : ... .. . ... : ... .. . ...
ROW 20 : ... .. 6 ... : ... .. . ... ... : C-2 00 . ... : 0-# 11 . J10 : ... .. . ...
ROW 21 : ... .. . ... : ... .. . ... ... : ... .. . ... : ... .. . ... : ... .. . ...
ROW 22 : C-1 0E F ... : ... .. . ... ... : ... .. . ... : E-# 13 . ... : ... .. . ...
ROW 23 : ... .. . ... : ... .. . ... ... : ... .. . ... : ... .. . ... : ... .. . ...
ROW 24 : ... .. . ... : ... .. . ... ... : C-3 20 . ... : D-# 14 . ... : ... .. . ...
ROW 25 : ... .. . ... : ... .. . ... ... : ... .. . ... : ... .. . ... : ... .. . ...
ROW 26 : C-2 0E . ... : ... .. . ... ... : --- .. . ... : E-# 13 . ... : ... .. . ...
ROW 27 : ... .. . ... : ... .. . ... ... : ... .. . ... : ... .. . ... : ... .. . ...
ROW 28 : ... .. 6 ... : A-2 21 . 037 ... : C-2 00 . ... : 0-# 11 . J10 : ... .. . ...
ROW 29 : ... .. . ... : ... .. . ... ... : ... .. . ... : ... .. . ... : ... .. . ...
ROW 2A : C-1 0E F ... : ... .. . ... ... : C-3 20 . ... : E-# 13 . ... : ... .. . ...
ROW 2B : ... .. . ... : ... .. . ... ... : ... .. . ... : ... .. . ... : ... .. . ...
ROW 2C : C-2 0E . ... : ... .. . ... ... : --- .. . ... : D-# 14 . ... : ... .. . ...
ROW 2D : ... .. . ... : ... .. . ... ... : ... .. . ... : ... .. . ... : ... .. . ...
ROW 2E : ... .. 6 ... : ... .. . ... ... : C-2 20 . ... : E-# 13 . ... : ... .. . ...
ROW 2F : ... .. . ... : ... .. . ... ... : ... .. . ... : ... .. . ... : ... .. . ...
ROW 30 : C-1 0E F ... : ... .. . ... ... : C-3 00 . ... : 0-# 11 . J10 : ... .. . ...
ROW 31 : ... .. . ... : ... .. . ... ... : ... .. . ... : ... .. . ... : ... .. . ...
ROW 32 : C-2 0E . ... : ... .. . ... ... : --- .. . ... : E-# 13 . ... : ... .. . ...
ROW 33 : ... .. . ... : ... .. . ... ... : ... .. . ... : ... .. . ... : ... .. . ...
ROW 34 : ... .. 6 ... : ... .. . ... ... : C-2 20 . ... : D-# 14 . ... : ... .. . ...
ROW 35 : ... .. . ... : ... .. . ... ... : ... .. . ... : ... .. . ... : ... .. . ...
ROW 36 : C-1 0E F ... : ... .. . ... ... : C-3 20 . ... : E-# 13 . ... : ... .. . ...
ROW 37 : ... .. . ... : ... .. . ... ... : ... .. . ... : ... .. . ... : ... .. . ...
ROW 38 : C-2 0E . ... : A-2 21 . 037 ... : C-2 00 . ... : 0-# 11 . J10 : ... .. . ...
ROW 39 : ... .. . ... : ... .. . ... ... : ... .. . ... : ... .. . ... : ... .. . ...
ROW 3A : C-1 0E . ... : ... .. . ... ... : ... .. . ... : E-# 13 . ... : ... .. . ...
ROW 3B : ... .. . ... : ... .. . ... ... : ... .. . ... : ... .. . ... : ... .. . ...
ROW 3C : ... .. . ... : ... .. . ... ... : C-3 20 . ... : D-# 14 . ... : ... .. . ...
ROW 3D : ... .. . ... : ... .. . ... ... : ... .. . ... : ... .. . ... : ... .. . ...
ROW 3E : C-2 0E . ... : ... .. . ... ... : --- .. . ... : E-# 13 . ... : ... .. . ...
ROW 3F : ... .. . ... : ... .. . ... ... : ... .. . ... : ... .. . ... : ... .. . ...

PATTERN 01
ROW 00 : ... .. 6 ... : ... .. . ... ... : D-2 00 . ... : 0-# 11 . J10 : ... .. . ...
ROW 01 : ... .. . ... : ... .. . ... ... : ... .. . ... : ... .. . ... : ... .. . ...
ROW 02 : D-1 0E F ... : ... .. . ... ... : ... .. . ... : E-# 13 . ... : ... .. . ...
ROW 03 : ... .. . ... : ... .. . ... ... : ... .. . ... : ... .. . ... : ... .. . ...
ROW 04 : ... .. . ... : ... .. . ... ... : D-3 20 . ... : D-# 14 . ... : ... .. . ...
ROW 05 : ... .. . ... : ... .. . ... ... : ... .. . ... : ... .. . ... : ... .. . ...
ROW 06 : D-2 0E . ... : ... .. . ... ... : --- .. . ... : E-# 13 . ... : ... .. . ...
ROW 07 : ... .. . ... : ... .. . ... ... : ... .. . ... : ... .. . ... : ... .. . ...
ROW 08 : ... .. 6 ... : G-2 21 . 047 ... : D-2 00 . ... : 0-# 11 . J10 : ... .. . ...
ROW 09 : ... .. . ... : ... .. . ... ... : ... .. . ... : ... .. . ... : ... .. . ...
ROW 0A : D-1 0E F ... : ... .. . ... ... : D-3 20 . ... : E-# 13 . ... : ... .. . ...
ROW 0B : ... .. . ... : ... .. . ... ... : ... .. . ... : ... .. . ... : ... .. . ...
ROW 0C : D-2 0E . ... : ... .. . ... ... : --- .. . ... : D-# 14 . ... : ... .. . ...
ROW 0D : ... .. . ... : ... .. . ... ... : ... .. . ... : ... .. . ... : ... .. . ...
ROW 0E : ... .. 6 ... : ... .. . ... ... : D-2 20 . ... : E-# 13 . ... : ... .. . ...
ROW 0F : ... .. . ... : ... .. . ... ... : ... .. . ... : ... .. . ... : ... .. . ...
ROW 10 : D-1 0E F ... : ... .. . ... ... : D-3 00 . ... : 0-# 11 . J10 : ... .. . ...
ROW 11 : ... .. . ... : ... .. . ... ... : ... .. . ... : ... .. . ... : ... .. . ...
ROW 12 : D-2 0E . ... : ... .. . ... ... : --- .. . ... : E-# 13 . ... : ... .. . ...
ROW 13 : ... .. . ... : ... .. . ... ... : ... .. . ... : ... .. . ... : ... .. . ...
ROW 14 : ... .. 6 ... : ... .. . ... ... : D-2 20 . ... : D-# 14 . ... : ... .. . ...
ROW 15 : ... .. . ... : ... .. . ... ... : ... .. . ... : ... .. . ... : ... .. . ...
ROW 16 : D-1 0E F ... : ... .. . ... ... : D-3 20 . ... : E-# 13 . ... : ... .. . ...
ROW 17 : ... .. . ... : ... .. . ... ... : ... .. . ... : ... .. . ... : ... .. . ...
ROW 18 : D-2 0E . ... : G-2 21 . 047 ... : D-2 00 . ... : 0-# 11 . J10 : ... .. . ...
ROW 19 : ... .. . ... : ... .. . ... ... : ... .. . ... : ... .. . ... : ... .. . ...
ROW 1A : D-1 0E . ... : ... .. . ... ... : ... .. . ... : E-# 13 . ... : ... .. . ...
ROW 1B : ... .. . ... : ... .. . ... ... : ... .. . ... : ... .. . ... : ... .. . ...
ROW 1C : ... .. 6 ... : ... .. . ... ... : D-3 20 . ... : D-# 14 . ... : ... .. . ...
ROW 1D : ... .. . ... : ... .. . ... ... : ... .. . ... : ... .. . ... : ... .. . ...
ROW 1E : D-2 0E F ... : ... .. . ... ... : --- .. . ... : E-# 13 . ... : ... .. . ...
ROW 1F : ... .. . ... : ... .. . ... ... : ... .. . ... : ... .. . ... : ... .. . ...
ROW 20 : ... .. 6 ... : ... .. . ... ... : A-1 00 . ... : 0-# 11 . J10 : ... .. . ...
ROW 21 : ... .. . ... : ... .. . ... ... : ... .. . ... : ... .. . ... : ... .. . ...
ROW 22 : A-0 0E F ... : ... .. . ... ... : ... .. . ... : E-# 13 . ... : ... .. . ...
ROW 23 : ... .. . ... : ... .. . ... ... : ... .. . ... : ... .. . ... : ... .. . ...
ROW 24 : ... .. . ... : ... .. . ... ... : A-2 20 . ... : D-# 14 . ... : ... .. . ...
ROW 25 : ... .. . ... : ... .. . ... ... : ... .. . ... : ... .. . ... : ... .. . ...
ROW 26 : A-1 0E . ... : ... .. . ... ... : --- .. . ... : E-# 13 . ... : ... .. . ...
ROW 27 : ... .. . ... : ... .. . ... ... : ... .. . ... : ... .. . ... : ... .. . ...
ROW 28 : ... .. 6 ... : A-2 21 . 037 ... : A-1 00 . ... : 0-# 11 . J10 : ... .. . ...
ROW 29 : ... .. . ... : ... .. . ... ... : ... .. . ... : ... .. . ... : ... .. . ...
ROW 2A : A-0 0E F ... : ... .. . ... ... : A-2 20 . ... : E-# 13 . ... : ... .. . ...
ROW 2B : ... .. . ... : ... .. . ... ... : ... .. . ... : ... .. . ... : ... .. . ...
ROW 2C : A-1 0E . ... : ... .. . ... ... : --- .. . ... : D-# 14 . ... : ... .. . ...
ROW 2D : ... .. . ... : ... .. . ... ... : ... .. . ... : ... .. . ... : ... .. . ...
ROW 2E : ... .. 6 ... : ... .. . ... ... : A-1 20 . ... : E-# 13 . ... : ... .. . ...
ROW 2F : ... .. . ... : ... .. . ... ... : ... .. . ... : ... .. . ... : ... .. . ...
ROW 30 : A-0 0E F ... : ... .. . ... ... : A-2 00 . ... : 0-# 11 . J10 : ... .. . ...
ROW 31 : ... .. . ... : ... .. . ... ... : ... .. . ... : ... .. . ... : ... .. . ...
ROW 32 : A-1 0E . ... : ... .. . ... ... : --- .. . ... : E-# 13 . ... : ... .. . ...
ROW 33 : ... .. . ... : ... .. . ... ... : ... .. . ... : ... .. . ... : ... .. . ...
ROW 34 : ... .. 6 ... : ... .. . ... ... : A-1 00 . ... : 1-# 16 . J15 : ... .. . ...
ROW 35 : ... .. . ... : ... .. . ... ... : ... .. . ... : ... .. . ... : ... .. . ...
ROW 36 : A-0 0E F ... : ... .. . ... ... : A-2 20 . ... : E-# 13 . ... : ... .. . ...
ROW 37 : ... .. . ... : ... .. . ... ... : ... .. . ... : ... .. . ... : ... .. . ...
ROW 38 : A-1 0E . ... : G-2 21 . 059 ... : A-1 00 . ... : 0-# 11 . J10 : ... .. . ...
ROW 39 : ... .. . ... : ... .. . ... ... : ... .. . ... : ... .. . ... : ... .. . ...
ROW 3A : A-0 0E . ... : ... .. . ... ... : ... .. . ... : E-# 13 . ... : ... .. . ...
ROW 3B : ... .. . ... : ... .. . ... ... : ... .. . ... : ... .. . ... : ... .. . ...
ROW 3C : ... .. . ... : ... .. . ... ... : A-2 20 . ... : D-# 14 . ... : ... .. . ...
ROW 3D : ... .. . ... : ... .. . ... ... : ... .. . ... : ... .. . ... : ... .. . ...
ROW 3E : A-1 0E . ... : ... .. . ... ... : --- 15 . ... : 1-# 16 . J15 : ... .. . ...
ROW 3F : ... .. . ... : ... .. . ... ... : ... .. . ... : ... .. . ... : ... .. . ...

PATTERN 02
ROW 00 : E-3 31 F 451 : C-3 22 . 000 ... : E-2 00 . ... : 0-# 11 . J10 : ... .. . ...
ROW 01 : ... .. . ... : ... .. . ... ... : ... .. . ... : ... .. . ... : ... .. . ...
ROW 02 : ... .. . ... : E-3 22 . ... ... : ... .. . ... : E-# 13 . ... : ... .. . ...
ROW 03 : ... .. . ... : ... .. . ... ... : ... .. . ... : ... .. . ... : ... .. . ...
ROW 04 : ... .. . ... : G-3 22 . ... ... : E-3 20 . ... : D-# 14 . ... : ... .. . ...
ROW 05 : ... .. . ... : ... .. . ... ... : ... .. . ... : ... .. . ... : ... .. . ...
ROW 06 : G-3 31 . ... : E-3 22 . ... ... : --- .. . ... : E-# 13 . ... : ... .. . ...
ROW 07 : ... .. . ... : ... .. . ... ... : ... .. . ... : ... .. . ... : ... .. . ...
ROW 08 : ... .. . ... : C-3 21 . 047 ... : E-2 00 . ... : 1-# 16 . J15 : ... .. . ...
ROW 09 : ... .. . ... : ... .. . ... ... : ... .. . ... : ... .. . ... : ... .. . ...
ROW 0A : ... .. . ... : ... .. . ... ... : E-3 20 . ... : E-# 13 . ... : ... .. . ...
ROW 0B : ... .. . ... : ... .. . ... ... : ... .. . ... : ... .. . ... : ... .. . ...
ROW 0C : D-3 31 . ... : G-3 22 . 000 ... : --- .. . ... : D-# 14 . ... : ... .. . ...
ROW 0D : ... .. . ... : ... .. . ... ... : ... .. . ... : ... .. . ... : ... .. . ...
ROW 0E : ... .. . ... : E-3 22 . ... ... : E-2 20 . ... : E-# 13 . ... : ... .. . ...
ROW 0F : ... .. . ... : ... .. . ... ... : ... .. . ... : ... .. . ... : ... .. . ...
ROW 10 : E-3 31 . ... : C-3 22 . ... ... : E-3 00 . ... : 0-# 11 . J10 : ... .. . ...
ROW 11 : ... .. . ... : ... .. . ... ... : ... .. . ... : ... .. . ... : ... .. . ...
ROW 12 : ... .. . ... : E-3 22 . ... ... : --- .. . ... : E-# 13 . ... : ... .. . ...
ROW 13 : ... .. . ... : ... .. . ... ... : ... .. . ... : ... .. . ... : ... .. . ...
ROW 14 : ... .. . ... : G-3 22 . ... ... : E-2 20 . ... : D-# 14 . ... : ... .. . ...
ROW 15 : ... .. . ... : ... .. . ... ... : ... .. . ... : ... .. . ... : ... .. . ...
ROW 16 : G-3 31 . ... : E-3 22 . ... ... : E-3 20 . ... : E-# 13 . ... : ... .. . ...
ROW 17 : ... .. . ... : ... .. . ... ... : ... .. . ... : ... .. . ... : ... .. . ...
ROW 18 : ... .. . ... : C-3 21 . 047 ... : E-2 00 . ... : 1-# 16 . J15 : ... .. . ...
ROW 19 : ... .. . ... : ... .. . ... ... : ... .. . ... : ... .. . ... : ... .. . ...
ROW 1A : ... .. . ... : ... .. . ... ... : ... .. . ... : E-# 13 . ... : ... .. . ...
ROW 1B : ... .. . ... : ... .. . ... ... : ... .. . ... : ... .. . ... : ... .. . ...
ROW 1C : D-3 31 . ... : G-3 22 . 000 ... : E-3 20 . ... : D-# 14 . ... : ... .. . ...
ROW 1D : ... .. . ... : ... .. . ... ... : ... .. . ... : ... .. . ... : ... .. . ...
ROW 1E : ... .. . ... : D-3 22 . ... ... : --- .. . ... : E-# 13 . ... : ... .. . ...
ROW 1F : ... .. . ... : ... .. . ... ... : ... .. . ... : ... .. . ... : ... .. . ...
ROW 20 : E-3 31 . ... : A-2 22 . ... ... : C-2 00 . ... : 0-# 11 . J10 : ... .. . ...
ROW 21 : ... .. . ... : ... .. . ... ... : ... .. . ... : ... .. . ... : ... .. . ...
ROW 22 : ... .. . ... : C-3 22 . ... ... : ... .. . ... : E-# 13 . ... : ... .. . ...
ROW 23 : ... .. . ... : ... .. . ... ... : ... .. . ... : ... .. . ... : ... .. . ...
ROW 24 : ... .. . ... : E-3 22 . ... ... : C-3 20 . ... : D-# 14 . ... : ... .. . ...
ROW 25 : ... .. . ... : ... .. . ... ... : ... .. . ... : ... .. . ... : ... .. . ...
ROW 26 : G-3 31 . ... : C-3 22 . ... ... : --- .. . ... : E-# 13 . ... : ... .. . ...
ROW 27 : ... .. . ... : ... .. . ... ... : ... .. . ... : ... .. . ... : ... .. . ...
ROW 28 : ... .. . ... : A-2 21 . 037 ... : C-2 00 . ... : 1-# 16 . J15 : ... .. . ...
ROW 29 : ... .. . ... : ... .. . ... ... : ... .. . ... : ... .. . ... : ... .. . ...
ROW 2A : ... .. . ... : ... .. . ... ... : C-3 20 . ... : E-# 13 . ... : ... .. . ...
ROW 2B : ... .. . ... : ... .. . ... ... : ... .. . ... : ... .. . ... : ... .. . ...
ROW 2C : D-3 31 . ... : E-3 22 . 000 ... : --- .. . ... : D-# 14 . ... : ... .. . ...
ROW 2D : ... .. . ... : ... .. . ... ... : ... .. . ... : ... .. . ... : ... .. . ...
ROW 2E : ... .. . ... : C-3 22 . ... ... : C-2 20 . ... : E-# 13 . ... : ... .. . ...
ROW 2F : ... .. . ... : ... .. . ... ... : ... .. . ... : ... .. . ... : ... .. . ...
ROW 30 : E-3 31 . ... : A-2 22 . ... ... : C-3 00 . ... : 0-# 11 . J10 : ... .. . ...
ROW 31 : ... .. . ... : ... .. . ... ... : ... .. . ... : ... .. . ... : ... .. . ...
ROW 32 : ... .. . ... : C-3 22 . ... ... : --- .. . ... : E-# 13 . ... : ... .. . ...
ROW 33 : ... .. . ... : ... .. . ... ... : ... .. . ... : ... .. . ... : ... .. . ...
ROW 34 : E-3 31 . ... : E-3 22 . ... ... : C-2 20 . ... : D-# 14 . ... : ... .. . ...
ROW 35 : ... .. . ... : ... .. . ... ... : ... .. . ... : ... .. . ... : ... .. . ...
ROW 36 : ... .. . ... : C-3 22 . ... ... : C-3 20 . ... : E-# 13 . ... : ... .. . ...
ROW 37 : ... .. . ... : ... .. . ... ... : ... .. . ... : ... .. . ... : ... .. . ...
ROW 38 : G-3 31 . ... : A-2 21 . 037 ... : C-2 00 . ... : 1-# 16 . J15 : ... .. . ...
ROW 39 : ... .. . ... : ... .. . ... ... : ... .. . ... : ... .. . ... : ... .. . ...
ROW 3A : ... .. . ... : ... .. . ... ... : ... .. . ... : E-# 13 . ... : ... .. . ...
ROW 3B : ... .. . ... : ... .. . ... ... : ... .. . ... : ... .. . ... : ... .. . ...
ROW 3C : D-3 31 . ... : C-3 22 . 000 ... : C-3 20 . ... : D-# 14 . ... : ... .. . ...
ROW 3D : ... .. . ... : ... .. . ... ... : ... .. . ... : ... .. . ... : ... .. . ...
ROW 3E : ... .. . ... : C-3 22 . ... ... : --- 15 . ... : 1-# 16 . J15 : ... .. . ...
ROW 3F : ... .. . ... : ... .. . ... ... : ... .. . ... : ... .. . ... : ... .. . ...

PATTERN 03
ROW 00 : D-3 31 F 451 : D-3 22 . ... ... : D-2 00 . ... : ... .. . ... : ... .. . ...
ROW 01 : ... .. . ... : ... .. . ... ... : ... .. . ... : ... .. . ... : ... .. . ...
ROW 02 : ... .. . ... : G-3 22 . ... ... : ... .. . ... : ... .. . ... : ... .. . ...
ROW 03 : ... .. . ... : ... .. . ... ... : ... .. . ... : ... .. . ... : ... .. . ...
ROW 04 : ... .. . ... : D-3 22 . ... ... : D-3 20 . ... : ... .. . ... : ... .. . ...
ROW 05 : ... .. . ... : ... .. . ... ... : ... .. . ... : ... .. . ... : ... .. . ...
ROW 06 : G-3 31 . ... : C-3 22 . ... ... : --- .. . ... : ... .. . ... : ... .. . ...
ROW 07 : ... .. . ... : ... .. . ... ... : ... .. . ... : ... .. . ... : ... .. . ...
ROW 08 : ... .. . ... : G-2 21 . 047 ... : D-2 00 . ... : ... .. . ... : ... .. . ...
ROW 09 : ... .. . ... : ... .. . ... ... : ... .. . ... : ... .. . ... : ... .. . ...
ROW 0A : ... .. . ... : ... .. . ... ... : D-3 20 . ... : ... .. . ... : ... .. . ...
ROW 0B : ... .. . ... : ... .. . ... ... : ... .. . ... : ... .. . ... : ... .. . ...
ROW 0C : C-3 31 . ... : G-3 22 . 000 ... : --- .. . ... : ... .. . ... : ... .. . ...
ROW 0D : ... .. . ... : ... .. . ... ... : ... .. . ... : ... .. . ... : ... .. . ...
ROW 0E : ... .. . ... : C-3 22 . ... ... : D-2 20 . ... : ... .. . ... : ... .. . ...
ROW 0F : ... .. . ... : ... .. . ... ... : ... .. . ... : ... .. . ... : ... .. . ...
ROW 10 : D-3 31 . ... : D-3 22 . ... ... : D-3 00 . ... : ... .. . ... : ... .. . ...
ROW 11 : ... .. . ... : ... .. . ... ... : ... .. . ... : ... .. . ... : ... .. . ...
ROW 12 : ... .. . ... : G-3 22 . ... ... : --- .. . ... : ... .. . ... : ... .. . ...
ROW 13 : ... .. . ... : ... .. . ... ... : ... .. . ... : ... .. . ... : ... .. . ...
ROW 14 : ... .. . ... : D-3 22 . ... ... : D-2 20 . ... : ... .. . ... : ... .. . ...
ROW 15 : ... .. . ... : ... .. . ... ... : ... .. . ... : ... .. . ... : ... .. . ...
ROW 16 : G-3 31 . ... : C-3 22 . ... ... : D-3 20 . ... : ... .. . ... : ... .. . ...
ROW 17 : ... .. . ... : ... .. . ... ... : ... .. . ... : ... .. . ... : ... .. . ...
ROW 18 : ... .. . ... : G-2 21 . 047 ... : D-2 00 . ... : ... .. . ... : ... .. . ...
ROW 19 : ... .. . ... : ... .. . ... ... : ... .. . ... : ... .. . ... : ... .. . ...
ROW 1A : ... .. . ... : ... .. . ... ... : ... .. . ... : ... .. . ... : ... .. . ...
ROW 1B : ... .. . ... : ... .. . ... ... : ... .. . ... : ... .. . ... : ... .. . ...
ROW 1C : C-3 31 . ... : G-3 22 . 000 ... : D-3 20 . ... : ... .. . ... : ... .. . ...
ROW 1D : ... .. . ... : ... .. . ... ... : ... .. . ... : ... .. . ... : ... .. . ...
ROW 1E : ... .. . ... : C-3 22 . ... ... : --- .. . ... : ... .. . ... : ... .. . ...
ROW 1F : ... .. . ... : ... .. . ... ... : ... .. . ... : ... .. . ... : ... .. . ...
ROW 20 : D-3 31 . ... : A-2 22 . ... ... : A-1 00 . ... : ... .. . ... : ... .. . ...
ROW 21 : ... .. . ... : ... .. . ... ... : ... .. . ... : ... .. . ... : ... .. . ...
ROW 22 : ... .. . ... : C-3 22 . ... ... : ... .. . ... : ... .. . ... : ... .. . ...
ROW 23 : ... .. . ... : ... .. . ... ... : ... .. . ... : ... .. . ... : ... .. . ...
ROW 24 : ... .. . ... : E-3 22 . ... ... : A-2 20 . ... : ... .. . ... : ... .. . ...
ROW 25 : ... .. . ... : ... .. . ... ... : ... .. . ... : ... .. . ... : ... .. . ...
ROW 26 : E-3 31 . ... : A-3 22 . ... ... : --- .. . ... : ... .. . ... : ... .. . ...
ROW 27 : ... .. . ... : ... .. . ... ... : ... .. . ... : ... .. . ... : ... .. . ...
ROW 28 : ... .. . ... : A-2 21 . 037 ... : A-1 00 . ... : ... .. . ... : ... .. . ...
ROW 29 : ... .. . ... : ... .. . ... ... : ... .. . ... : ... .. . ... : ... .. . ...
ROW 2A : ... .. . ... : ... .. . ... ... : A-2 20 . ... : ... .. . ... : ... .. . ...
ROW 2B : ... .. . ... : ... .. . ... ... : ... .. . ... : ... .. . ... : ... .. . ...
ROW 2C : D-3 31 . ... : A-3 22 . 000 ... : --- .. . ... : ... .. . ... : ... .. . ...
ROW 2D : ... .. . ... : ... .. . ... ... : ... .. . ... : ... .. . ... : ... .. . ...
ROW 2E : ... .. . ... : E-3 22 . ... ... : A-1 20 . ... : ... .. . ... : ... .. . ...
ROW 2F : ... .. . ... : ... .. . ... ... : ... .. . ... : ... .. . ... : ... .. . ...
ROW 30 : E-3 31 . ... : A-2 22 . ... ... : A-2 00 . ... : ... .. . ... : ... .. . ...
ROW 31 : ... .. . ... : ... .. . ... ... : ... .. . ... : ... .. . ... : ... .. . ...
ROW 32 : ... .. . ... : C-3 22 . ... ... : --- .. . ... : ... .. . ... : ... .. . ...
ROW 33 : ... .. . ... : ... .. . ... ... : ... .. . ... : ... .. . ... : ... .. . ...
ROW 34 : E-3 31 . ... : A-2 22 . ... ... : A-1 20 . ... : ... .. . ... : ... .. . ...
ROW 35 : ... .. . ... : ... .. . ... ... : ... .. . ... : ... .. . ... : ... .. . ...
ROW 36 : ... .. . ... : G-2 22 . ... ... : A-2 20 . ... : ... .. . ... : ... .. . ...
ROW 37 : ... .. . ... : ... .. . ... ... : ... .. . ... : ... .. . ... : ... .. . ...
ROW 38 : D-3 31 . ... : G-2 21 . 059 ... : A-1 00 . ... : ... .. . ... : ... .. . ...
ROW 39 : ... .. . ... : ... .. . ... ... : ... .. . ... : ... .. . ... : ... .. . ...
ROW 3A : ... .. . ... : ... .. . ... ... : ... .. . ... : ... .. . ... : ... .. . ...
ROW 3B : ... .. . ... : ... .. . ... ... : ... .. . ... : ... .. . ... : ... .. . ...
ROW 3C : C-3 31 . ... : G-3 22 . 000 ... : A-2 20 . ... : ... .. . ... : ... .. . ...
ROW 3D : ... .. . ... : ... .. . ... ... : ... .. . ... : ... .. . ... : ... .. . ...
ROW 3E : A-2 31 . ... : A-3 22 . ... ... : --- 15 . ... : ... .. . ... : ... .. . ...
ROW 3F : ... .. . ... : ... .. . ... ... : ... .. . ... : ... .. . ... : ... .. . ...

PATTERN 04
ROW 00 : E-3 31 F 451 : ... .. . ... ... : ... .. . ... : A-# 19 . J10 : ... .. . ...
ROW 01 : ... .. . ... : ... .. . ... ... : ... .. . ... : ... .. . ... : ... .. . ...
ROW 02 : ... .. . ... : ... .. . ... ... : ... .. . ... : ... .. . ... : ... .. . ...
ROW 03 : ... .. . ... : ... .. . ... ... : ... .. . ... : ... .. . ... : ... .. . ...
ROW 04 : E-3 0A . ... : ... .. . ... ... : ... .. . ... : ... .. . ... : ... .. . ...
ROW 05 : ... .. . ... : ... .. . ... ... : ... .. . ... : ... .. . ... : ... .. . ...
ROW 06 : G-3 31 . ... : ... .. . ... ... : ... .. . ... : ... .. . ... : ... .. . ...
ROW 07 : ... .. . ... : ... .. . ... ... : ... .. . ... : ... .. . ... : ... .. . ...
ROW 08 : ... .. . ... : ... .. . ... ... : ... .. . ... : 1-# 16 . J15 : ... .. . ...
ROW 09 : ... .. . ... : ... .. . ... ... : ... .. . ... : ... .. . ... : ... .. . ...
ROW 0A : ... .. . ... : ... .. . ... ... : ... .. . ... : E-# 13 . ... : ... .. . ...
ROW 0B : ... .. . ... : ... .. . ... ... : ... .. . ... : ... .. . ... : ... .. . ...
ROW 0C : D-3 31 . ... : ... .. . ... ... : ... .. . ... : D-# 14 . ... : ... .. . ...
ROW 0D : ... .. . ... : ... .. . ... ... : ... .. . ... : ... .. . ... : ... .. . ...
ROW 0E : E-3 0A . ... : ... .. . ... ... : ... .. . ... : E-# 13 . ... : ... .. . ...
ROW 0F : ... .. . ... : ... .. . ... ... : ... .. . ... : ... .. . ... : ... .. . ...
ROW 10 : E-3 31 . ... : ... .. . ... ... : ... .. . ... : 0-# 11 . J10 : ... .. . ...
ROW 11 : ... .. . ... : ... .. . ... ... : ... .. . ... : ... .. . ... : ... .. . ...
ROW 12 : ... .. . ... : ... .. . ... ... : ... .. . ... : E-# 13 . ... : ... .. . ...
ROW 13 : ... .. . ... : ... .. . ... ... : ... .. . ... : ... .. . ... : ... .. . ...
ROW 14 : E-3 0A . ... : ... .. . ... ... : ... .. . ... : D-# 14 . ... : ... .. . ...
ROW 15 : ... .. . ... : ... .. . ... ... : ... .. . ... : ... .. . ... : ... .. . ...
ROW 16 : G-3 31 . ... : ... .. . ... ... : ... .. . ... : E-# 13 . ... : ... .. . ...
ROW 17 : ... .. . ... : ... .. . ... ... : ... .. . ... : ... .. . ... : ... .. . ...
ROW 18 : ... .. . ... : ... .. . ... ... : ... .. . ... : 1-# 16 . J15 : ... .. . ...
ROW 19 : ... .. . ... : ... .. . ... ... : ... .. . ... : ... .. . ... : ... .. . ...
ROW 1A : ... .. . ... : ... .. . ... ... : ... .. . ... : E-# 13 . ... : ... .. . ...
ROW 1B : ... .. . ... : ... .. . ... ... : ... .. . ... : ... .. . ... : ... .. . ...
ROW 1C : D-3 31 . ... : ... .. . ... ... : ... .. . ... : D-# 14 . ... : ... .. . ...
ROW 1D : ... .. . ... : ... .. . ... ... : ... .. . ... : ... .. . ... : ... .. . ...
ROW 1E : ... .. . ... : ... .. . ... ... : ... .. . ... : E-# 13 . ... : ... .. . ...
ROW 1F : ... .. . ... : ... .. . ... ... : ... .. . ... : ... .. . ... : ... .. . ...
ROW 20 : E-3 31 . ... : ... .. . ... ... : ... .. . ... : 0-# 11 . J10 : ... .. . ...
ROW 21 : ... .. . ... : ... .. . ... ... : ... .. . ... : ... .. . ... : ... .. . ...
ROW 22 : ... .. . ... : ... .. . ... ... : ... .. . ... : E-# 13 . ... : ... .. . ...
ROW 23 : ... .. . ... : ... .. . ... ... : ... .. . ... : ... .. . ... : ... .. . ...
ROW 24 : C-3 0A . ... : ... .. . ... ... : ... .. . ... : D-# 14 . ... : ... .. . ...
ROW 25 : ... .. . ... : ... .. . ... ... : ... .. . ... : ... .. . ... : ... .. . ...
ROW 26 : G-3 31 . ... : ... .. . ... ... : ... .. . ... : E-# 13 . ... : ... .. . ...
ROW 27 : ... .. . ... : ... .. . ... ... : ... .. . ... : ... .. . ... : ... .. . ...
ROW 28 : ... .. . ... : ... .. . ... ... : ... .. . ... : 1-# 16 . J15 : ... .. . ...
ROW 29 : ... .. . ... : ... .. . ... ... : ... .. . ... : ... .. . ... : ... .. . ...
ROW 2A : ... .. . ... : ... .. . ... ... : ... .. . ... : E-# 13 . ... : ... .. . ...
ROW 2B : ... .. . ... : ... .. . ... ... : ... .. . ... : ... .. . ... : ... .. . ...
ROW 2C : D-3 31 . ... : ... .. . ... ... : ... .. . ... : D-# 14 . ... : ... .. . ...
ROW 2D : ... .. . ... : ... .. . ... ... : ... .. . ... : ... .. . ... : ... .. . ...
ROW 2E : C-3 0A . ... : ... .. . ... ... : ... .. . ... : E-# 13 . ... : ... .. . ...
ROW 2F : ... .. . ... : ... .. . ... ... : ... .. . ... : ... .. . ... : ... .. . ...
ROW 30 : E-3 31 . ... : ... .. . ... ... : ... .. . ... : 0-# 11 . J10 : ... .. . ...
ROW 31 : ... .. . ... : ... .. . ... ... : ... .. . ... : ... .. . ... : ... .. . ...
ROW 32 : ... .. . ... : ... .. . ... ... : ... .. . ... : E-# 13 . ... : ... .. . ...
ROW 33 : ... .. . ... : ... .. . ... ... : ... .. . ... : ... .. . ... : ... .. . ...
ROW 34 : C-3 0A . ... : ... .. . ... ... : ... .. . ... : D-# 14 . ... : ... .. . ...
ROW 35 : ... .. . ... : ... .. . ... ... : ... .. . ... : ... .. . ... : ... .. . ...
ROW 36 : ... .. . ... : ... .. . ... ... : ... .. . ... : E-# 13 . ... : ... .. . ...
ROW 37 : ... .. . ... : ... .. . ... ... : ... .. . ... : ... .. . ... : ... .. . ...
ROW 38 : G-3 31 . ... : ... .. . ... ... : ... .. . ... : 1-# 16 . J15 : ... .. . ...
ROW 39 : ... .. . ... : ... .. . ... ... : ... .. . ... : ... .. . ... : ... .. . ...
ROW 3A : ... .. . ... : ... .. . ... ... : ... .. . ... : E-# 13 . ... : ... .. . ...
ROW 3B : ... .. . ... : ... .. . ... ... : ... .. . ... : ... .. . ... : ... .. . ...
ROW 3C : D-3 31 . ... : ... .. . ... ... : ... .. . ... : D-# 14 . ... : ... .. . ...
ROW 3D : ... .. . ... : ... .. . ... ... : ... .. . ... : ... .. . ... : ... .. . ...
ROW 3E : ... .. . ... : ... .. . ... ... : ... .. . ... : 1-# 16 . J15 : ... .. . ...
ROW 3F : ... .. . ... : ... .. . ... ... : ... .. . ... : ... .. . ... : ... .. . ...

PATTERN 05
ROW 00 : D-3 31 F 451 : ... .. . ... ... : ... .. . ... : ... .. . ... : ... .. . ...
ROW 01 : ... .. . ... : ... .. . ... ... : ... .. . ... : ... .. . ... : ... .. . ...
ROW 02 : ... .. . ... : ... .. . ... ... : ... .. . ... : ... .. . ... : ... .. . ...
ROW 03 : ... .. . ... : ... .. . ... ... : ... .. . ... : ... .. . ... : ... .. . ...
ROW 04 : D-3 0A . ... : ... .. . ... ... : ... .. . ... : ... .. . ... : ... .. . ...
ROW 05 : ... .. . ... : ... .. . ... ... : ... .. . ... : ... .. . ... : ... .. . ...
ROW 06 : G-3 31 . ... : ... .. . ... ... : ... .. . ... : ... .. . ... : ... .. . ...
ROW 07 : ... .. . ... : ... .. . ... ... : ... .. . ... : ... .. . ... : ... .. . ...
ROW 08 : ... .. . ... : ... .. . ... ... : ... .. . ... : ... .. . ... : ... .. . ...
ROW 09 : ... .. . ... : ... .. . ... ... : ... .. . ... : ... .. . ... : ... .. . ...
ROW 0A : ... .. . ... : ... .. . ... ... : ... .. . ... : ... .. . ... : ... .. . ...
ROW 0B : ... .. . ... : ... .. . ... ... : ... .. . ... : ... .. . ... : ... .. . ...
ROW 0C : C-3 31 . ... : ... .. . ... ... : ... .. . ... : ... .. . ... : ... .. . ...
ROW 0D : ... .. . ... : ... .. . ... ... : ... .. . ... : ... .. . ... : ... .. . ...
ROW 0E : D-3 0A . ... : ... .. . ... ... : ... .. . ... : ... .. . ... : ... .. . ...
ROW 0F : ... .. . ... : ... .. . ... ... : ... .. . ... : ... .. . ... : ... .. . ...
ROW 10 : D-3 31 . ... : ... .. . ... ... : ... .. . ... : ... .. . ... : ... .. . ...
ROW 11 : ... .. . ... : ... .. . ... ... : ... .. . ... : ... .. . ... : ... .. . ...
ROW 12 : ... .. . ... : ... .. . ... ... : ... .. . ... : ... .. . ... : ... .. . ...
ROW 13 : ... .. . ... : ... .. . ... ... : ... .. . ... : ... .. . ... : ... .. . ...
ROW 14 : D-3 0A . ... : ... .. . ... ... : ... .. . ... : ... .. . ... : ... .. . ...
ROW 15 : ... .. . ... : ... .. . ... ... : ... .. . ... : ... .. . ... : ... .. . ...
ROW 16 : C-3 31 . ... : ... .. . ... ... : ... .. . ... : ... .. . ... : ... .. . ...
ROW 17 : ... .. . ... : ... .. . ... ... : ... .. . ... : ... .. . ... : ... .. . ...
ROW 18 : ... .. . ... : ... .. . ... ... : ... .. . ... : ... .. . ... : ... .. . ...
ROW 19 : ... .. . ... : ... .. . ... ... : ... .. . ... : ... .. . ... : ... .. . ...
ROW 1A : ... .. . ... : ... .. . ... ... : ... .. . ... : ... .. . ... : ... .. . ...
ROW 1B : ... .. . ... : ... .. . ... ... : ... .. . ... : ... .. . ... : ... .. . ...
ROW 1C : A-2 31 . ... : ... .. . ... ... : ... .. . ... : ... .. . ... : ... .. . ...
ROW 1D : ... .. . ... : ... .. . ... ... : ... .. . ... : ... .. . ... : ... .. . ...
ROW 1E : ... .. . ... : ... .. . ... ... : ... .. . ... : ... .. . ... : ... .. . ...
ROW 1F : ... .. . ... : ... .. . ... ... : ... .. . ... : ... .. . ... : ... .. . ...
ROW 20 : C-3 31 . ... : ... .. . ... ... : ... .. . ... : ... .. . ... : ... .. . ...
ROW 21 : ... .. . ... : ... .. . ... ... : ... .. . ... : ... .. . ... : ... .. . ...
ROW 22 : ... .. . ... : ... .. . ... ... : ... .. . ... : ... .. . ... : ... .. . ...
ROW 23 : ... .. . ... : ... .. . ... ... : ... .. . ... : ... .. . ... : ... .. . ...
ROW 24 : C-3 0A . ... : ... .. . ... ... : ... .. . ... : ... .. . ... : ... .. . ...
ROW 25 : ... .. . ... : ... .. . ... ... : ... .. . ... : ... .. . ... : ... .. . ...
ROW 26 : A-2 31 . ... : ... .. . ... ... : ... .. . ... : ... .. . ... : ... .. . ...
ROW 27 : ... .. . ... : ... .. . ... ... : ... .. . ... : ... .. . ... : ... .. . ...
ROW 28 : ... .. . ... : ... .. . ... ... : ... .. . ... : ... .. . ... : ... .. . ...
ROW 29 : ... .. . ... : ... .. . ... ... : ... .. . ... : ... .. . ... : ... .. . ...
ROW 2A : ... .. . ... : ... .. . ... ... : ... .. . ... : ... .. . ... : ... .. . ...
ROW 2B : ... .. . ... : ... .. . ... ... : ... .. . ... : ... .. . ... : ... .. . ...
ROW 2C : C-3 31 . ... : ... .. . ... ... : ... .. . ... : ... .. . ... : ... .. . ...
ROW 2D : ... .. . ... : ... .. . ... ... : ... .. . ... : ... .. . ... : ... .. . ...
ROW 2E : A-2 0A . ... : ... .. . ... ... : ... .. . ... : ... .. . ... : ... .. . ...
ROW 2F : ... .. . ... : ... .. . ... ... : ... .. . ... : ... .. . ... : ... .. . ...
ROW 30 : E-3 31 . ... : ... .. . ... ... : ... .. . ... : ... .. . ... : ... .. . ...
ROW 31 : ... .. . ... : ... .. . ... ... : ... .. . ... : ... .. . ... : ... .. . ...
ROW 32 : E-3 0A . ... : ... .. . ... ... : ... .. . ... : ... .. . ... : ... .. . ...
ROW 33 : ... .. . ... : ... .. . ... ... : ... .. . ... : ... .. . ... : ... .. . ...
ROW 34 : D-3 31 . ... : ... .. . ... ... : ... .. . ... : ... .. . ... : ... .. . ...
ROW 35 : ... .. . ... : ... .. . ... ... : ... .. . ... : ... .. . ... : ... .. . ...
ROW 36 : ... .. . ... : ... .. . ... ... : ... .. . ... : ... .. . ... : ... .. . ...
ROW 37 : ... .. . ... : ... .. . ... ... : ... .. . ... : ... .. . ... : ... .. . ...
ROW 38 : C-3 0A . ... : ... .. . ... ... : ... .. . ... : ... .. . ... : ... .. . ...
ROW 39 : ... .. . ... : ... .. . ... ... : ... .. . ... : ... .. . ... : ... .. . ...
ROW 3A : ... .. . ... : ... .. . ... ... : ... .. . ... : ... .. . ... : ... .. . ...
ROW 3B : ... .. . ... : ... .. . ... ... : ... .. . ... : ... .. . ... : ... .. . ...
ROW 3C : A-2 0A . ... : ... .. . ... ... : ... .. . ... : ... .. . ... : ... .. . ...
ROW 3D : ... .. . ... : ... .. . ... ... : ... .. . ... : ... .. . ... : ... .. . ...
ROW 3E : ... .. . ... : ... .. . ... ... : ... .. . ... : ... .. . ... : ... .. . ...
ROW 3F : ... .. . ... : ... .. . ... ... : ... .. . ... : ... .. . ... : ... .. . ...

PATTERN 06
ROW 00 : A-1 30 C 400 : E-3 0D C 453 ... : A-1 00 . ... : A-# 19 . J10 : ... .. . ...
ROW 01 : ... .. . ... : ... .. . ... ... : ... .. . ... : ... .. . ... : ... .. . ...
ROW 02 : A-1 30 . ... : ... .. . ... ... : ... .. . ... : ... .. . ... : ... .. . ...
ROW 03 : ... .. . ... : ... .. . ... ... : ... .. . ... : ... .. . ... : ... .. . ...
ROW 04 : A-2 30 . ... : ... .. . ... ... : A-2 20 . ... : ... .. . ... : ... .. . ...
ROW 05 : ... .. . ... : ... .. . ... ... : ... .. . ... : ... .. . ... : ... .. . ...
ROW 06 : A-1 30 . ... : ... .. . ... ... : --- .. . ... : ... .. . ... : ... .. . ...
ROW 07 : ... .. . ... : ... .. . ... ... : ... .. . ... : ... .. . ... : ... .. . ...
ROW 08 : A-1 30 . ... : ... .. . ... ... : A-1 00 . ... : 1-# 16 . J15 : ... .. . ...
ROW 09 : ... .. . ... : ... .. . ... ... : ... .. . ... : ... .. . ... : ... .. . ...
ROW 0A : A-2 30 . ... : ... .. . ... ... : A-2 20 . ... : E-# 13 . ... : ... .. . ...
ROW 0B : ... .. . ... : ... .. . ... ... : ... .. . ... : ... .. . ... : ... .. . ...
ROW 0C : A-1 30 . ... : ... .. . ... ... : --- .. . ... : D-# 14 . ... : ... .. . ...
ROW 0D : ... .. . ... : ... .. . ... ... : ... .. . ... : ... .. . ... : ... .. . ...
ROW 0E : A-2 30 . ... : ... .. . ... ... : A-1 20 . ... : E-# 13 . ... : ... .. . ...
ROW 0F : ... .. . ... : ... .. . ... ... : ... .. . ... : ... .. . ... : ... .. . ...
ROW 10 : A-1 30 . ... : ... .. . ... ... : A-2 00 . ... : 0-# 11 . J10 : ... .. . ...
ROW 11 : ... .. . ... : ... .. . ... ... : ... .. . ... : ... .. . ... : ... .. . ...
ROW 12 : A-1 30 . ... : ... .. . ... ... : --- .. . ... : E-# 13 . ... : ... .. . ...
ROW 13 : ... .. . ... : ... .. . ... ... : ... .. . ... : ... .. . ... : ... .. . ...
ROW 14 : A-2 30 . ... : ... .. . ... ... : A-1 20 . ... : D-# 14 . ... : ... .. . ...
ROW 15 : ... .. . ... : ... .. . ... ... : ... .. . ... : ... .. . ... : ... .. . ...
ROW 16 : A-1 30 . ... : ... .. . ... ... : A-2 20 . ... : E-# 13 . ... : ... .. . ...
ROW 17 : ... .. . ... : ... .. . ... ... : ... .. . ... : ... .. . ... : ... .. . ...
ROW 18 : A-1 30 . ... : ... .. . ... ... : A-1 00 . ... : 1-# 16 . J15 : ... .. . ...
ROW 19 : ... .. . ... : ... .. . ... ... : ... .. . ... : ... .. . ... : ... .. . ...
ROW 1A : A-1 30 . ... : ... .. . ... ... : ... .. . ... : E-# 13 . ... : ... .. . ...
ROW 1B : ... .. . ... : ... .. . ... ... : ... .. . ... : ... .. . ... : ... .. . ...
ROW 1C : A-2 30 . ... : E-3 0D 6 ... ... : A-2 20 . ... : D-# 14 . ... : ... .. . ...
ROW 1D : ... .. . ... : ... .. . ... ... : ... .. . ... : ... .. . ... : ... .. . ...
ROW 1E : A-1 30 . ... : ... .. . ... ... : --- .. . ... : E-# 13 . ... : ... .. . ...
ROW 1F : ... .. . ... : ... .. . ... ... : ... .. . ... : ... .. . ... : ... .. . ...
ROW 20 : F-1 30 C 400 : C-3 0D C ... ... : C-2 00 . ... : 0-# 11 . J10 : ... .. . ...
ROW 21 : ... .. . ... : ... .. . ... ... : ... .. . ... : ... .. . ... : ... .. . ...
ROW 22 : F-1 30 . ... : ... .. . ... ... : ... .. . ... : E-# 13 . ... : ... .. . ...
ROW 23 : ... .. . ... : ... .. . ... ... : ... .. . ... : ... .. . ... : ... .. . ...
ROW 24 : F-2 30 . ... : ... .. . ... ... : C-3 20 . ... : D-# 14 . ... : ... .. . ...
ROW 25 : ... .. . ... : ... .. . ... ... : ... .. . ... : ... .. . ... : ... .. . ...
ROW 26 : F-1 30 . ... : ... .. . ... ... : --- .. . ... : E-# 13 . ... : ... .. . ...
ROW 27 : ... .. . ... : ... .. . ... ... : ... .. . ... : ... .. . ... : ... .. . ...
ROW 28 : F-1 30 . ... : ... .. . ... ... : C-2 00 . ... : 1-# 16 . J15 : ... .. . ...
ROW 29 : ... .. . ... : ... .. . ... ... : ... .. . ... : ... .. . ... : ... .. . ...
ROW 2A : F-2 30 . ... : ... .. . ... ... : C-3 20 . ... : E-# 13 . ... : ... .. . ...
ROW 2B : ... .. . ... : ... .. . ... ... : ... .. . ... : ... .. . ... : ... .. . ...
ROW 2C : F-1 30 . ... : ... .. . ... ... : --- .. . ... : D-# 14 . ... : ... .. . ...
ROW 2D : ... .. . ... : ... .. . ... ... : ... .. . ... : ... .. . ... : ... .. . ...
ROW 2E : F-2 30 . ... : ... .. . ... ... : C-2 20 . ... : E-# 13 . ... : ... .. . ...
ROW 2F : ... .. . ... : ... .. . ... ... : ... .. . ... : ... .. . ... : ... .. . ...
ROW 30 : F-1 30 . ... : ... .. . ... ... : C-3 00 . ... : 0-# 11 . J10 : ... .. . ...
ROW 31 : ... .. . ... : ... .. . ... ... : ... .. . ... : ... .. . ... : ... .. . ...
ROW 32 : F-1 30 . ... : ... .. . ... ... : --- .. . ... : E-# 13 . ... : ... .. . ...
ROW 33 : ... .. . ... : ... .. . ... ... : ... .. . ... : ... .. . ... : ... .. . ...
ROW 34 : F-2 30 . ... : ... .. . ... ... : C-2 20 . ... : D-# 14 . ... : ... .. . ...
ROW 35 : ... .. . ... : ... .. . ... ... : ... .. . ... : ... .. . ... : ... .. . ...
ROW 36 : F-1 30 . ... : ... .. . ... ... : C-3 20 . ... : E-# 13 . ... : ... .. . ...
ROW 37 : ... .. . ... : ... .. . ... ... : ... .. . ... : ... .. . ... : ... .. . ...
ROW 38 : F-1 30 . ... : ... .. . ... ... : C-2 00 . ... : 1-# 16 . J15 : ... .. . ...
ROW 39 : ... .. . ... : ... .. . ... ... : ... .. . ... : ... .. . ... : ... .. . ...
ROW 3A : F-1 30 . ... : ... .. 6 ... ... : ... .. . ... : E-# 13 . ... : ... .. . ...
ROW 3B : ... .. . ... : ... .. . ... ... : ... .. . ... : ... .. . ... : ... .. . ...
ROW 3C : F-2 30 . ... : A-2 0D C ... ... : C-3 20 . ... : D-# 14 . ... : ... .. . ...
ROW 3D : ... .. . ... : ... .. . ... ... : ... .. . ... : ... .. . ... : ... .. . ...
ROW 3E : F-1 30 . ... : ... .. 6 ... ... : --- .. . ... : E-# 13 . ... : ... .. . ...
ROW 3F : ... .. . ... : ... .. . ... ... : ... .. . ... : ... .. . ... : ... .. . ...

PATTERN 07
ROW 00 : G-1 30 C 400 : D-3 0D C 453 ... : D-2 00 . ... : 0-# 11 . J10 : ... .. . ...
ROW 01 : ... .. . ... : ... .. . ... ... : ... .. . ... : ... .. . ... : ... .. . ...
ROW 02 : G-1 30 . ... : ... .. . ... ... : ... .. . ... : E-# 13 . ... : ... .. . ...
ROW 03 : ... .. . ... : ... .. . ... ... : ... .. . ... : ... .. . ... : ... .. . ...
ROW 04 : G-2 30 . ... : ... .. . ... ... : D-3 20 . ... : D-# 14 . ... : ... .. . ...
ROW 05 : ... .. . ... : ... .. . ... ... : ... .. . ... : ... .. . ... : ... .. . ...
ROW 06 : G-1 30 . ... : ... .. . ... ... : --- .. . ... : E-# 13 . ... : ... .. . ...
ROW 07 : ... .. . ... : ... .. . ... ... : ... .. . ... : ... .. . ... : ... .. . ...
ROW 08 : G-1 30 . ... : ... .. . ... ... : D-2 00 . ... : 1-# 16 . J15 : ... .. . ...
ROW 09 : ... .. . ... : ... .. . ... ... : ... .. . ... : ... .. . ... : ... .. . ...
ROW 0A : G-2 30 . ... : ... .. . ... ... : D-3 20 . ... : E-# 13 . ... : ... .. . ...
ROW 0B : ... .. . ... : ... .. . ... ... : ... .. . ... : ... .. . ... : ... .. . ...
ROW 0C : G-1 30 . ... : ... .. . ... ... : --- .. . ... : D-# 14 . ... : ... .. . ...
ROW 0D : ... .. . ... : ... .. . ... ... : ... .. . ... : ... .. . ... : ... .. . ...
ROW 0E : G-2 30 . ... : ... .. . ... ... : D-2 20 . ... : E-# 13 . ... : ... .. . ...
ROW 0F : ... .. . ... : ... .. . ... ... : ... .. . ... : ... .. . ... : ... .. . ...
ROW 10 : G-1 30 . ... : ... .. . ... ... : D-3 00 . ... : 0-# 11 . J10 : ... .. . ...
ROW 11 : ... .. . ... : ... .. . ... ... : ... .. . ... : ... .. . ... : ... .. . ...
ROW 12 : G-1 30 . ... : ... .. . ... ... : --- .. . ... : E-# 13 . ... : ... .. . ...
ROW 13 : ... .. . ... : ... .. . ... ... : ... .. . ... : ... .. . ... : ... .. . ...
ROW 14 : G-2 30 . ... : ... .. . ... ... : D-2 20 . ... : D-# 14 . ... : ... .. . ...
ROW 15 : ... .. . ... : ... .. . ... ... : ... .. . ... : ... .. . ... : ... .. . ...
ROW 16 : G-1 30 . ... : ... .. . ... ... : D-3 20 . ... : E-# 13 . ... : ... .. . ...
ROW 17 : ... .. . ... : ... .. . ... ... : ... .. . ... : ... .. . ... : ... .. . ...
ROW 18 : G-1 30 . ... : ... .. . ... ... : D-2 00 . ... : 1-# 16 . J15 : ... .. . ...
ROW 19 : ... .. . ... : ... .. . ... ... : ... .. . ... : ... .. . ... : ... .. . ...
ROW 1A : G-1 30 . ... : ... .. . ... ... : ... .. . ... : E-# 13 . ... : ... .. . ...
ROW 1B : ... .. . ... : ... .. . ... ... : ... .. . ... : ... .. . ... : ... .. . ...
ROW 1C : G-2 30 . ... : E-3 0D 6 ... ... : D-3 20 . ... : D-# 14 . ... : ... .. . ...
ROW 1D : ... .. . ... : ... .. . ... ... : ... .. . ... : ... .. . ... : ... .. . ...
ROW 1E : G-1 30 . ... : ... .. . ... ... : --- .. . ... : E-# 13 . ... : ... .. . ...
ROW 1F : ... .. . ... : ... .. . ... ... : ... .. . ... : ... .. . ... : ... .. . ...
ROW 20 : E-1 30 C 400 : C-3 0D C ... ... : E-2 00 . ... : 0-# 11 . J10 : ... .. . ...
ROW 21 : ... .. . ... : ... .. . ... ... : ... .. . ... : ... .. . ... : ... .. . ...
ROW 22 : E-1 30 . ... : ... .. . ... ... : ... .. . ... : E-# 13 . ... : ... .. . ...
ROW 23 : ... .. . ... : ... .. . ... ... : ... .. . ... : ... .. . ... : ... .. . ...
ROW 24 : E-2 30 . ... : ... .. . ... ... : E-3 20 . ... : D-# 14 . ... : ... .. . ...
ROW 25 : ... .. . ... : ... .. . ... ... : ... .. . ... : ... .. . ... : ... .. . ...
ROW 26 : E-1 30 . ... : ... .. . ... ... : --- .. . ... : E-# 13 . ... : ... .. . ...
ROW 27 : ... .. . ... : ... .. . ... ... : ... .. . ... : ... .. . ... : ... .. . ...
ROW 28 : E-1 30 . ... : ... .. . ... ... : E-2 00 . ... : 1-# 16 . J15 : ... .. . ...
ROW 29 : ... .. . ... : ... .. . ... ... : ... .. . ... : ... .. . ... : ... .. . ...
ROW 2A : E-2 30 . ... : ... .. . ... ... : E-3 20 . ... : E-# 13 . ... : ... .. . ...
ROW 2B : ... .. . ... : ... .. . ... ... : ... .. . ... : ... .. . ... : ... .. . ...
ROW 2C : E-1 30 . ... : ... .. . ... ... : --- .. . ... : D-# 14 . ... : ... .. . ...
ROW 2D : ... .. . ... : ... .. . ... ... : ... .. . ... : ... .. . ... : ... .. . ...
ROW 2E : E-2 30 . ... : ... .. . ... ... : E-2 20 . ... : E-# 13 . ... : ... .. . ...
ROW 2F : ... .. . ... : ... .. . ... ... : ... .. . ... : ... .. . ... : ... .. . ...
ROW 30 : E-1 30 . ... : A-2 0D . ... ... : E-3 00 . ... : 0-# 11 . J10 : ... .. . ...
ROW 31 : ... .. . ... : ... .. . ... ... : ... .. . ... : ... .. . ... : ... .. . ...
ROW 32 : E-1 30 . ... : ... .. . ... ... : --- .. . ... : E-# 13 . ... : ... .. . ...
ROW 33 : ... .. . ... : ... .. . ... ... : ... .. . ... : ... .. . ... : ... .. . ...
ROW 34 : E-2 30 . ... : ... .. . ... ... : E-2 20 . ... : D-# 14 . ... : ... .. . ...
ROW 35 : ... .. . ... : ... .. . ... ... : ... .. . ... : ... .. . ... : ... .. . ...
ROW 36 : E-1 30 . ... : ... .. . ... ... : E-3 20 . ... : E-# 13 . ... : ... .. . ...
ROW 37 : ... .. . ... : ... .. . ... ... : ... .. . ... : ... .. . ... : ... .. . ...
ROW 38 : E-1 30 . ... : G-2 0D . ... ... : E-2 00 . ... : 1-# 16 . J15 : ... .. . ...
ROW 39 : ... .. . ... : ... .. . ... ... : ... .. . ... : ... .. . ... : ... .. . ...
ROW 3A : E-1 30 . ... : ... .. 6 ... ... : ... .. . ... : E-# 13 . ... : ... .. . ...
ROW 3B : ... .. . ... : ... .. . ... ... : ... .. . ... : ... .. . ... : ... .. . ...
ROW 3C : E-2 30 . ... : A-2 0D C ... ... : E-3 20 . ... : D-# 14 . ... : ... .. . ...
ROW 3D : ... .. . ... : ... .. . ... ... : ... .. . ... : ... .. . ... : ... .. . ...
ROW 3E : E-1 30 . ... : ... .. 6 ... ... : --- .. . ... : E-# 13 . ... : ... .. . ...
ROW 3F : ... .. . ... : ... .. . ... ... : ... .. . ... : ... .. . ... : ... .. . ...

PATTERN 08
ROW 00 : A-1 30 C 400 : ... .. . ... ... : ... .. . ... : ... .. . ... : ... .. . ...
ROW 01 : ... .. . ... : ... .. . ... ... : ... .. . ... : ... .. . ... : ... .. . ...
ROW 02 : A-1 30 . ... : ... .. . ... ... : ... .. . ... : ... .. . ... : ... .. . ...
ROW 03 : ... .. . ... : ... .. . ... ... : ... .. . ... : ... .. . ... : ... .. . ...
ROW 04 : A-2 30 . ... : ... .. . ... ... : ... .. . ... : ... .. . ... : ... .. . ...
ROW 05 : ... .. . ... : ... .. . ... ... : ... .. . ... : ... .. . ... : ... .. . ...
ROW 06 : A-1 30 . ... : ... .. . ... ... : ... .. . ... : ... .. . ... : ... .. . ...
ROW 07 : ... .. . ... : ... .. . ... ... : ... .. . ... : ... .. . ... : ... .. . ...
ROW 08 : A-1 30 . ... : ... .. . ... ... : ... .. . ... : ... .. . ... : ... .. . ...
ROW 09 : ... .. . ... : ... .. . ... ... : ... .. . ... : ... .. . ... : ... .. . ...
ROW 0A : A-1 30 . ... : ... .. . ... ... : ... .. . ... : ... .. . ... : ... .. . ...
ROW 0B : ... .. . ... : ... .. . ... ... : ... .. . ... : ... .. . ... : ... .. . ...
ROW 0C : G-2 30 . ... : ... .. . ... ... : ... .. . ... : ... .. . ... : ... .. . ...
ROW 0D : ... .. . ... : ... .. . ... ... : ... .. . ... : ... .. . ... : ... .. . ...
ROW 0E : A-2 30 . ... : ... .. . ... ... : ... .. . ... : ... .. . ... : ... .. . ...
ROW 0F : ... .. . ... : ... .. . ... ... : ... .. . ... : ... .. . ... : ... .. . ...
ROW 10 : A-1 30 . ... : ... .. . ... ... : ... .. . ... : ... .. . ... : ... .. . ...
ROW 11 : ... .. . ... : ... .. . ... ... : ... .. . ... : ... .. . ... : ... .. . ...
ROW 12 : A-1 30 . ... : ... .. . ... ... : ... .. . ... : ... .. . ... : ... .. . ...
ROW 13 : ... .. . ... : ... .. . ... ... : ... .. . ... : ... .. . ... : ... .. . ...
ROW 14 : A-2 30 . ... : ... .. . ... ... : ... .. . ... : ... .. . ... : ... .. . ...
ROW 15 : ... .. . ... : ... .. . ... ... : ... .. . ... : ... .. . ... : ... .. . ...
ROW 16 : A-1 30 . ... : ... .. . ... ... : ... .. . ... : ... .. . ... : ... .. . ...
ROW 17 : ... .. . ... : ... .. . ... ... : ... .. . ... : ... .. . ... : ... .. . ...
ROW 18 : A-1 30 . ... : ... .. . ... ... : ... .. . ... : ... .. . ... : ... .. . ...
ROW 19 : ... .. . ... : ... .. . ... ... : ... .. . ... : ... .. . ... : ... .. . ...
ROW 1A : A-1 30 . ... : ... .. . ... ... : ... .. . ... : ... .. . ... : ... .. . ...
ROW 1B : ... .. . ... : ... .. . ... ... : ... .. . ... : ... .. . ... : ... .. . ...
ROW 1C : C-3 30 . ... : ... .. . ... ... : ... .. . ... : ... .. . ... : ... .. . ...
ROW 1D : ... .. . ... : ... .. . ... ... : ... .. . ... : ... .. . ... : ... .. . ...
ROW 1E : A-1 30 . ... : ... .. . ... ... : ... .. . ... : ... .. . ... : ... .. . ...
ROW 1F : ... .. . ... : ... .. . ... ... : ... .. . ... : ... .. . ... : ... .. . ...
ROW 20 : F-1 30 C 400 : ... .. . ... ... : ... .. . ... : ... .. . ... : ... .. . ...
ROW 21 : ... .. . ... : ... .. . ... ... : ... .. . ... : ... .. . ... : ... .. . ...
ROW 22 : F-1 30 . ... : ... .. . ... ... : ... .. . ... : ... .. . ... : ... .. . ...
ROW 23 : ... .. . ... : ... .. . ... ... : ... .. . ... : ... .. . ... : ... .. . ...
ROW 24 : F-2 30 . ... : ... .. . ... ... : ... .. . ... : ... .. . ... : ... .. . ...
ROW 25 : ... .. . ... : ... .. . ... ... : ... .. . ... : ... .. . ... : ... .. . ...
ROW 26 : F-1 30 . ... : ... .. . ... ... : ... .. . ... : ... .. . ... : ... .. . ...
ROW 27 : ... .. . ... : ... .. . ... ... : ... .. . ... : ... .. . ... : ... .. . ...
ROW 28 : F-1 30 . ... : ... .. . ... ... : ... .. . ... : ... .. . ... : ... .. . ...
ROW 29 : ... .. . ... : ... .. . ... ... : ... .. . ... : ... .. . ... : ... .. . ...
ROW 2A : F-1 30 . ... : ... .. . ... ... : ... .. . ... : ... .. . ... : ... .. . ...
ROW 2B : ... .. . ... : ... .. . ... ... : ... .. . ... : ... .. . ... : ... .. . ...
ROW 2C : E-2 30 . ... : ... .. . ... ... : ... .. . ... : ... .. . ... : ... .. . ...
ROW 2D : ... .. . ... : ... .. . ... ... : ... .. . ... : ... .. . ... : ... .. . ...
ROW 2E : F-2 30 . ... : ... .. . ... ... : ... .. . ... : ... .. . ... : ... .. . ...
ROW 2F : ... .. . ... : ... .. . ... ... : ... .. . ... : ... .. . ... : ... .. . ...
ROW 30 : F-1 30 . ... : ... .. . ... ... : ... .. . ... : ... .. . ... : ... .. . ...
ROW 31 : ... .. . ... : ... .. . ... ... : ... .. . ... : ... .. . ... : ... .. . ...
ROW 32 : F-1 30 . ... : ... .. . ... ... : ... .. . ... : ... .. . ... : ... .. . ...
ROW 33 : ... .. . ... : ... .. . ... ... : ... .. . ... : ... .. . ... : ... .. . ...
ROW 34 : F-2 30 . ... : ... .. . ... ... : ... .. . ... : ... .. . ... : ... .. . ...
ROW 35 : ... .. . ... : ... .. . ... ... : ... .. . ... : ... .. . ... : ... .. . ...
ROW 36 : F-1 30 . ... : ... .. . ... ... : ... .. . ... : ... .. . ... : ... .. . ...
ROW 37 : ... .. . ... : ... .. . ... ... : ... .. . ... : ... .. . ... : ... .. . ...
ROW 38 : F-1 30 . ... : ... .. . ... ... : ... .. . ... : ... .. . ... : ... .. . ...
ROW 39 : ... .. . ... : ... .. . ... ... : ... .. . ... : ... .. . ... : ... .. . ...
ROW 3A : F-1 30 . ... : ... .. . ... ... : ... .. . ... : ... .. . ... : ... .. . ...
ROW 3B : ... .. . ... : ... .. . ... ... : ... .. . ... : ... .. . ... : ... .. . ...
ROW 3C : D-2 30 . ... : ... .. . ... ... : ... .. . ... : ... .. . ... : ... .. . ...
ROW 3D : ... .. . ... : ... .. . ... ... : ... .. . ... : ... .. . ... : ... .. . ...
ROW 3E : F-1 30 . ... : ... .. . ... ... : ... .. . ... : ... .. . ... : ... .. . ...
ROW 3F : ... .. . ... : ... .. . ... ... : ... .. . ... : ... .. . ... : ... .. . ...

PATTERN 09
ROW 00 : G-1 30 C 400 : D-3 0D C 453 ... : D-2 00 . ... : ... .. . ... : ... .. . ...
ROW 01 : ... .. . ... : ... .. . ... ... : ... .. . ... : ... .. . ... : ... .. . ...
ROW 02 : G-1 30 . ... : ... .. . ... ... : ... .. . ... : ... .. . ... : ... .. . ...
ROW 03 : ... .. . ... : ... .. . ... ... : ... .. . ... : ... .. . ... : ... .. . ...
ROW 04 : G-2 30 . ... : ... .. . ... ... : D-3 20 . ... : ... .. . ... : ... .. . ...
ROW 05 : ... .. . ... : ... .. . ... ... : ... .. . ... : ... .. . ... : ... .. . ...
ROW 06 : G-1 30 . ... : ... .. . ... ... : --- .. . ... : ... .. . ... : ... .. . ...
ROW 07 : ... .. . ... : ... .. . ... ... : ... .. . ... : ... .. . ... : ... .. . ...
ROW 08 : G-1 30 . ... : ... .. . ... ... : D-2 00 . ... : ... .. . ... : ... .. . ...
ROW 09 : ... .. . ... : ... .. . ... ... : ... .. . ... : ... .. . ... : ... .. . ...
ROW 0A : G-1 30 . ... : ... .. . ... ... : D-3 20 . ... : ... .. . ... : ... .. . ...
ROW 0B : ... .. . ... : ... .. . ... ... : ... .. . ... : ... .. . ... : ... .. . ...
ROW 0C : F-2 30 . ... : ... .. . ... ... : --- .. . ... : ... .. . ... : ... .. . ...
ROW 0D : ... .. . ... : ... .. . ... ... : ... .. . ... : ... .. . ... : ... .. . ...
ROW 0E : G-2 30 . ... : ... .. . ... ... : D-2 20 . ... : ... .. . ... : ... .. . ...
ROW 0F : ... .. . ... : ... .. . ... ... : ... .. . ... : ... .. . ... : ... .. . ...
ROW 10 : G-1 30 . ... : ... .. . ... ... : D-3 00 . ... : ... .. . ... : ... .. . ...
ROW 11 : ... .. . ... : ... .. . ... ... : ... .. . ... : ... .. . ... : ... .. . ...
ROW 12 : G-1 30 . ... : ... .. . ... ... : --- .. . ... : ... .. . ... : ... .. . ...
ROW 13 : ... .. . ... : ... .. . ... ... : ... .. . ... : ... .. . ... : ... .. . ...
ROW 14 : G-2 30 . ... : ... .. . ... ... : D-2 20 . ... : ... .. . ... : ... .. . ...
ROW 15 : ... .. . ... : ... .. . ... ... : ... .. . ... : ... .. . ... : ... .. . ...
ROW 16 : G-1 30 . ... : ... .. . ... ... : D-3 20 . ... : ... .. . ... : ... .. . ...
ROW 17 : ... .. . ... : ... .. . ... ... : ... .. . ... : ... .. . ... : ... .. . ...
ROW 18 : G-1 30 . ... : ... .. . ... ... : D-2 00 . ... : ... .. . ... : ... .. . ...
ROW 19 : ... .. . ... : ... .. . ... ... : ... .. . ... : ... .. . ... : ... .. . ...
ROW 1A : G-1 30 . ... : ... .. . ... ... : ... .. . ... : ... .. . ... : ... .. . ...
ROW 1B : ... .. . ... : ... .. . ... ... : ... .. . ... : ... .. . ... : ... .. . ...
ROW 1C : A-2 30 . ... : D-3 0D 6 ... ... : D-3 20 . ... : ... .. . ... : ... .. . ...
ROW 1D : ... .. . ... : ... .. . ... ... : ... .. . ... : ... .. . ... : ... .. . ...
ROW 1E : G-1 30 . ... : ... .. . ... ... : --- .. . ... : ... .. . ... : ... .. . ...
ROW 1F : ... .. . ... : ... .. . ... ... : ... .. . ... : ... .. . ... : ... .. . ...
ROW 20 : G-1 30 C 400 : G-3 0D C ... ... : E-2 00 . ... : ... .. . ... : ... .. . ...
ROW 21 : ... .. . ... : ... .. . ... ... : ... .. . ... : ... .. . ... : ... .. . ...
ROW 22 : G-1 30 . ... : ... .. . ... ... : ... .. . ... : ... .. . ... : ... .. . ...
ROW 23 : ... .. . ... : ... .. . ... ... : ... .. . ... : ... .. . ... : ... .. . ...
ROW 24 : F-2 30 . ... : ... .. . ... ... : E-3 20 . ... : ... .. . ... : ... .. . ...
ROW 25 : ... .. . ... : ... .. . ... ... : ... .. . ... : ... .. . ... : ... .. . ...
ROW 26 : G-2 30 . ... : ... .. . ... ... : --- .. . ... : ... .. . ... : ... .. . ...
ROW 27 : ... .. . ... : ... .. . ... ... : ... .. . ... : ... .. . ... : ... .. . ...
ROW 28 : G-1 30 . ... : ... .. . ... ... : E-2 00 . ... : ... .. . ... : ... .. . ...
ROW 29 : ... .. . ... : ... .. . ... ... : ... .. . ... : ... .. . ... : ... .. . ...
ROW 2A : G-1 30 . ... : G-3 0D 6 ... ... : E-3 20 . ... : ... .. . ... : ... .. . ...
ROW 2B : ... .. . ... : ... .. . ... ... : ... .. . ... : ... .. . ... : ... .. . ...
ROW 2C : F-2 30 . ... : E-3 0D C ... ... : --- .. . ... : ... .. . ... : ... .. . ...
ROW 2D : ... .. . ... : ... .. . ... ... : ... .. . ... : ... .. . ... : ... .. . ...
ROW 2E : G-2 30 . ... : ... .. 6 ... ... : E-2 20 . ... : ... .. . ... : ... .. . ...
ROW 2F : ... .. . ... : ... .. . ... ... : ... .. . ... : ... .. . ... : ... .. . ...
ROW 30 : E-1 30 . ... : G-3 0D C ... ... : G-2 00 . ... : ... .. . ... : ... .. . ...
ROW 31 : ... .. . ... : ... .. . ... ... : ... .. . ... : ... .. . ... : ... .. . ...
ROW 32 : E-1 30 . ... : ... .. 6 ... ... : ... .. . ... : ... .. . ... : ... .. . ...
ROW 33 : ... .. . ... : ... .. . ... ... : ... .. . ... : ... .. . ... : ... .. . ...
ROW 34 : G-2 30 . ... : E-3 0D C ... ... : G-3 20 . ... : ... .. . ... : ... .. . ...
ROW 35 : ... .. . ... : ... .. . ... ... : ... .. . ... : ... .. . ... : ... .. . ...
ROW 36 : G-1 30 . ... : G-3 0D C ... ... : --- .. . ... : ... .. . ... : ... .. . ...
ROW 37 : ... .. . ... : ... .. . ... ... : ... .. . ... : ... .. . ... : ... .. . ...
ROW 38 : G-1 30 . ... : ... .. . ... ... : G-2 00 . ... : ... .. . ... : ... .. . ...
ROW 39 : ... .. . ... : ... .. . ... ... : ... .. . ... : ... .. . ... : ... .. . ...
ROW 3A : G-1 30 . ... : ... .. 6 ... ... : G-3 20 . ... : ... .. . ... : ... .. . ...
ROW 3B : ... .. . ... : ... .. . ... ... : ... .. . ... : ... .. . ... : ... .. . ...
ROW 3C : G-2 30 . ... : E-3 0D C ... ... : --- .. . ... : ... .. . ... : ... .. . ...
ROW 3D : ... .. . ... : ... .. . ... ... : ... .. . ... : ... .. . ... : ... .. . ...
ROW 3E : E-2 30 . ... : ... .. 6 ... ... : G-2 20 . ... : ... .. . ... : ... .. . ...
ROW 3F : ... .. . ... : ... .. . ... ... : ... .. . ... : ... .. . ... : ... .. . ...

PATTERN 0A
ROW 00 : ... .. 6 ... : A-3 0D C ... ... : A-2 00 . ... : 0-# 11 . J10 : ... .. . ...
ROW 01 : ... .. . ... : ... .. . ... ... : ... .. . ... : ... .. . ... : ... .. . ...
ROW 02 : A-1 0E F ... : ... .. . ... ... : ... .. . ... : E-# 13 . ... : ... .. . ...
ROW 03 : ... .. . ... : ... .. . ... ... : ... .. . ... : ... .. . ... : ... .. . ...
ROW 04 : ... .. . ... : ... .. 9 ... ... : A-3 20 . ... : D-# 14 . ... : ... .. . ...
ROW 05 : ... .. . ... : ... .. . ... ... : ... .. . ... : ... .. . ... : ... .. . ...
ROW 06 : A-2 0E . ... : ... .. 6 ... ... : --- .. . ... : E-# 13 . ... : ... .. . ...
ROW 07 : ... .. . ... : ... .. . ... ... : ... .. . ... : ... .. . ... : ... .. . ...
ROW 08 : ... .. 6 ... : A-2 21 F 037 400 : A-2 00 . ... : 0-# 11 . J10 : ... .. . ...
ROW 09 : ... .. . ... : ... .. . ... ... : ... .. . ... : ... .. . ... : ... .. . ...
ROW 0A : A-1 0E F ... : ... .. . ... ... : A-3 20 . ... : E-# 13 . ... : ... .. . ...
ROW 0B : ... .. . ... : ... .. . ... ... : ... .. . ... : ... .. . ... : ... .. . ...
ROW 0C : A-2 0E . ... : ... .. . ... ... : --- .. . ... : D-# 14 . ... : ... .. . ...
ROW 0D : ... .. . ... : ... .. . ... ... : ... .. . ... : ... .. . ... : ... .. . ...
ROW 0E : ... .. 6 ... : ... .. . ... ... : A-2 20 . ... : E-# 13 . ... : ... .. . ...
ROW 0F : ... .. . ... : ... .. . ... ... : ... .. . ... : ... .. . ... : ... .. . ...
ROW 10 : A-1 0E F ... : ... .. . ... ... : A-3 00 . ... : 0-# 11 . J10 : ... .. . ...
ROW 11 : ... .. . ... : ... .. . ... ... : ... .. . ... : ... .. . ... : ... .. . ...
ROW 12 : A-2 0E . ... : ... .. . ... ... : --- .. . ... : E-# 13 . ... : ... .. . ...
ROW 13 : ... .. . ... : ... .. . ... ... : ... .. . ... : ... .. . ... : ... .. . ...
ROW 14 : ... .. 6 ... : ... .. . ... ... : A-2 20 . ... : D-# 14 . ... : ... .. . ...
ROW 15 : ... .. . ... : ... .. . ... ... : ... .. . ... : ... .. . ... : ... .. . ...
ROW 16 : A-1 0E F ... : ... .. . ... ... : A-3 20 . ... : E-# 13 . ... : ... .. . ...
ROW 17 : ... .. . ... : ... .. . ... ... : ... .. . ... : ... .. . ... : ... .. . ...
ROW 18 : A-2 0E . ... : A-2 21 . 037 ... : A-2 00 . ... : 0-# 11 . J10 : ... .. . ...
ROW 19 : ... .. . ... : ... .. . ... ... : ... .. . ... : ... .. . ... : ... .. . ...
ROW 1A : A-1 0E . ... : ... .. . ... ... : ... .. . ... : E-# 13 . ... : ... .. . ...
ROW 1B : ... .. . ... : ... .. . ... ... : ... .. . ... : ... .. . ... : ... .. . ...
ROW 1C : ... .. 6 ... : ... .. . ... ... : A-3 20 . ... : D-# 14 . ... : ... .. . ...
ROW 1D : ... .. . ... : ... .. . ... ... : ... .. . ... : ... .. . ... : ... .. . ...
ROW 1E : A-2 0E F ... : ... .. . ... ... : --- .. . ... : E-# 13 . ... : ... .. . ...
ROW 1F : ... .. . ... : ... .. . ... ... : ... .. . ... : ... .. . ... : ... .. . ...
ROW 20 : ... .. 6 ... : ... .. . ... ... : A-1 00 . ... : 0-# 11 . J10 : ... .. . ...
ROW 21 : ... .. . ... : ... .. . ... ... : ... .. . ... : ... .. . ... : ... .. . ...
ROW 22 : A-0 0E F ... : ... .. . ... ... : ... .. . ... : E-# 13 . ... : ... .. . ...
ROW 23 : ... .. . ... : ... .. . ... ... : ... .. . ... : ... .. . ... : ... .. . ...
ROW 24 : ... .. . ... : ... .. . ... ... : A-2 20 . ... : D-# 14 . ... : ... .. . ...
ROW 25 : ... .. . ... : ... .. . ... ... : ... .. . ... : ... .. . ... : ... .. . ...
ROW 26 : A-1 0E . ... : ... .. . ... ... : --- .. . ... : E-# 13 . ... : ... .. . ...
ROW 27 : ... .. . ... : ... .. . ... ... : ... .. . ... : ... .. . ... : ... .. . ...
ROW 28 : ... .. 6 ... : A-2 21 . 037 ... : A-1 00 . ... : 0-# 11 . J10 : ... .. . ...
ROW 29 : ... .. . ... : ... .. . ... ... : ... .. . ... : ... .. . ... : ... .. . ...
ROW 2A : A-0 0E F ... : ... .. . ... ... : A-2 20 . ... : E-# 13 . ... : ... .. . ...
ROW 2B : ... .. . ... : ... .. . ... ... : ... .. . ... : ... .. . ... : ... .. . ...
ROW 2C : A-1 0E . ... : ... .. . ... ... : --- .. . ... : D-# 14 . ... : ... .. . ...
ROW 2D : ... .. . ... : ... .. . ... ... : ... .. . ... : ... .. . ... : ... .. . ...
ROW 2E : ... .. 6 ... : ... .. . ... ... : A-1 20 . ... : E-# 13 . ... : ... .. . ...
ROW 2F : ... .. . ... : ... .. . ... ... : ... .. . ... : ... .. . ... : ... .. . ...
ROW 30 : A-0 0E F ... : ... .. . ... ... : A-2 00 . ... : 0-# 11 . J10 : ... .. . ...
ROW 31 : ... .. . ... : ... .. . ... ... : ... .. . ... : ... .. . ... : ... .. . ...
ROW 32 : A-1 0E . ... : ... .. . ... ... : --- .. . ... : E-# 13 . ... : ... .. . ...
ROW 33 : ... .. . ... : ... .. . ... ... : ... .. . ... : ... .. . ... : ... .. . ...
ROW 34 : ... .. 6 ... : ... .. . ... ... : A-1 00 . ... : 1-# 16 . J15 : ... .. . ...
ROW 35 : ... .. . ... : ... .. . ... ... : ... .. . ... : ... .. . ... : ... .. . ...
ROW 36 : A-0 0E F ... : ... .. . ... ... : A-2 20 . ... : E-# 13 . ... : ... .. . ...
ROW 37 : ... .. . ... : ... .. . ... ... : ... .. . ... : ... .. . ... : ... .. . ...
ROW 38 : A-1 0E . ... : G-2 21 . 059 ... : A-1 00 . ... : 0-# 11 . J10 : ... .. . ...
ROW 39 : ... .. . ... : ... .. . ... ... : ... .. . ... : ... .. . ... : ... .. . ...
ROW 3A : A-0 0E . ... : ... .. . ... ... : ... .. . ... : E-# 13 . ... : ... .. . ...
ROW 3B : ... .. . ... : ... .. . ... ... : ... .. . ... : ... .. . ... : ... .. . ...
ROW 3C : ... .. 6 ... : ... .. . ... ... : A-2 20 . ... : D-# 14 . ... : ... .. . ...
ROW 3D : ... .. . ... : ... .. . ... ... : ... .. . ... : ... .. . ... : ... .. . ...
ROW 3E : A-1 0E F ... : ... .. . ... ... : --- 15 . ... : 1-# 16 . J15 : ... .. . ...
ROW 3F : ... .. . ... : ... .. . ... ... : ... .. . ... : ... .. . B01 : ... .. . ...

TRACK  64   4 150 "Major Boss"
COLUMNS : 1 2 1 1 1

ORDER 00 : 00 00 00 00 00
ORDER 01 : 00 00 01 01 00
ORDER 02 : 01 00 01 02 00
ORDER 03 : 02 02 03 01 00
ORDER 04 : 03 00 01 01 00
ORDER 05 : 04 08 03 01 00
ORDER 06 : 05 04 05 01 00
ORDER 07 : 06 05 05 05 00
ORDER 08 : 05 06 05 01 00
ORDER 09 : 07 07 07 06 00
ORDER 0A : 08 00 01 01 00

PATTERN 00
ROW 00 : ... .. . ... : ... .. . ... ... : C#2 00 . ... : A-# 19 . J10 : ... .. . ...
ROW 01 : ... .. . ... : C#1 0E F 453 000 : ... .. . ... : ... .. . ... : ... .. . ...
ROW 02 : ... .. . ... : ... .. . ... ... : ... .. . ... : ... .. . ... : ... .. . ...
ROW 03 : C#1 0E 6 ... : ... .. . ... ... : ... .. . ... : ... .. . ... : ... .. . ...
ROW 04 : ... .. . ... : ... .. . ... ... : C#3 20 . ... : ... .. . ... : ... .. . ...
ROW 05 : ... .. . ... : C#2 0E . ... ... : ... .. . ... : ... .. . ... : ... .. . ...
ROW 06 : ... .. . ... : ... .. . ... ... : --- .. . ... : ... .. . ... : ... .. . ...
ROW 07 : C#2 0E . ... : ... .. 6 ... ... : ... .. . ... : ... .. . ... : ... .. . ...
ROW 08 : ... .. . ... : ... .. . ... ... : C#2 20 . ... : ... .. . ... : ... .. . ...
ROW 09 : --- .. . ... : C#1 0E F ... ... : ... .. . ... : ... .. . ... : ... .. . ...
ROW 0A : ... .. . ... : ... .. . ... ... : C#3 20 . ... : ... .. . ... : ... .. . ...
ROW 0B : C#1 0E . ... : C#2 0E . ... ... : ... .. . ... : ... .. . ... : ... .. . ...
ROW 0C : ... .. . ... : ... .. . ... ... : --- .. . ... : ... .. . ... : ... .. . ...
ROW 0D : C#2 0E . ... : ... .. 6 ... ... : ... .. . ... : ... .. . ... : ... .. . ...
ROW 0E : ... .. . ... : ... .. . ... ... : C#2 20 . ... : ... .. . ... : ... .. . ...
ROW 0F : --- .. . ... : C#1 0E F ... ... : ... .. . ... : ... .. . ... : ... .. . ...
ROW 10 : ... .. . ... : ... .. . ... ... : C#3 20 . ... : ... .. . ... : ... .. . ...
ROW 11 : C#1 0E . ... : C#2 0E . ... ... : ... .. . ... : ... .. . ... : ... .. . ...
ROW 12 : ... .. . ... : ... .. . ... ... : --- .. . ... : ... .. . ... : ... .. . ...
ROW 13 : C#2 0E . ... : ... .. 6 ... ... : ... .. . ... : ... .. . ... : ... .. . ...
ROW 14 : ... .. . ... : ... .. . ... ... : C#2 20 . ... : ... .. . ... : ... .. . ...
ROW 15 : --- .. . ... : C#1 0E F ... ... : ... .. . ... : ... .. . ... : ... .. . ...
ROW 16 : ... .. . ... : ... .. . ... ... : C#3 20 . ... : ... .. . ... : ... .. . ...
ROW 17 : C#1 0E . ... : C#2 0E . ... ... : ... .. . ... : ... .. . ... : ... .. . ...
ROW 18 : ... .. . ... : ... .. . ... ... : C#2 20 . ... : ... .. . ... : ... .. . ...
ROW 19 : C#2 0E . ... : C#1 0E . ... ... : ... .. . ... : ... .. . ... : ... .. . ...
ROW 1A : ... .. . ... : ... .. . ... ... : ... .. . ... : ... .. . ... : ... .. . ...
ROW 1B : C#1 0E . ... : ... .. . ... ... : ... .. . ... : ... .. . ... : ... .. . ...
ROW 1C : ... .. . ... : ... .. . ... ... : C#3 20 . ... : ... .. . ... : ... .. . ...
ROW 1D : ... .. . ... : C#2 0E . ... ... : ... .. . ... : ... .. . ... : ... .. . ...
ROW 1E : ... .. . ... : ... .. . ... ... : --- .. . ... : ... .. . ... : ... .. . ...
ROW 1F : C#2 0E . ... : ... .. 6 ... ... : ... .. . ... : ... .. . ... : ... .. . ...
ROW 20 : ... .. . ... : ... .. . ... ... : C#2 20 . ... : ... .. . ... : ... .. . ...
ROW 21 : --- .. . ... : C#1 0E F ... ... : ... .. . ... : ... .. . ... : ... .. . ...
ROW 22 : ... .. . ... : ... .. . ... ... : ... .. . ... : ... .. . ... : ... .. . ...
ROW 23 : C#1 0E . ... : ... .. . ... ... : ... .. . ... : ... .. . ... : ... .. . ...
ROW 24 : ... .. . ... : ... .. . ... ... : C#3 20 . ... : ... .. . ... : ... .. . ...
ROW 25 : ... .. . ... : C#2 0E . ... ... : ... .. . ... : ... .. . ... : ... .. . ...
ROW 26 : ... .. . ... : ... .. . ... ... : --- .. . ... : ... .. . ... : ... .. . ...
ROW 27 : C#2 0E . ... : ... .. 6 ... ... : ... .. . ... : ... .. . ... : ... .. . ...
ROW 28 : ... .. . ... : ... .. . ... ... : C#2 20 . ... : ... .. . ... : ... .. . ...
ROW 29 : --- .. . ... : C#1 0E F ... ... : ... .. . ... : ... .. . ... : ... .. . ...
ROW 2A : ... .. . ... : ... .. . ... ... : C#3 20 . ... : ... .. . ... : ... .. . ...
ROW 2B : C#1 0E . ... : C#2 0E . ... ... : ... .. . ... : ... .. . ... : ... .. . ...
ROW 2C : ... .. . ... : ... .. . ... ... : --- .. . ... : ... .. . ... : ... .. . ...
ROW 2D : C#2 0E . ... : ... .. 6 ... ... : ... .. . ... : ... .. . ... : ... .. . ...
ROW 2E : ... .. . ... : ... .. . ... ... : C#2 20 . ... : ... .. . ... : ... .. . ...
ROW 2F : --- .. . ... : C#1 0E F ... ... : ... .. . ... : ... .. . ... : ... .. . ...
ROW 30 : ... .. . ... : ... .. . ... ... : C#3 20 . ... : ... .. . ... : ... .. . ...
ROW 31 : C#1 0E . ... : C#2 0E . ... ... : ... .. . ... : ... .. . ... : ... .. . ...
ROW 32 : ... .. . ... : ... .. . ... ... : --- .. . ... : ... .. . ... : ... .. . ...
ROW 33 : C#2 0E . ... : ... .. 6 ... ... : ... .. . ... : ... .. . ... : ... .. . ...
ROW 34 : ... .. . ... : ... .. . ... ... : C#2 20 . ... : ... .. . ... : ... .. . ...
ROW 35 : --- .. . ... : C#1 0E F ... ... : ... .. . ... : ... .. . ... : ... .. . ...
ROW 36 : ... .. . ... : ... .. . ... ... : C#3 20 . ... : ... .. . ... : ... .. . ...
ROW 37 : C#1 0E . ... : C#2 0E . ... ... : ... .. . ... : ... .. . ... : ... .. . ...
ROW 38 : ... .. . ... : ... .. . ... ... : C#2 20 . ... : ... .. . ... : ... .. . ...
ROW 39 : C#2 0E . ... : C#1 0E . ... ... : ... .. . ... : ... .. . ... : ... .. . ...
ROW 3A : ... .. . ... : ... .. . ... ... : ... .. . ... : ... .. . ... : ... .. . ...
ROW 3B : C#1 0E . ... : ... .. . ... ... : ... .. . ... : ... .. . ... : ... .. . ...
ROW 3C : ... .. . ... : ... .. . ... ... : B-2 20 . ... : ... .. . ... : ... .. . ...
ROW 3D : ... .. . ... : B-1 0E . ... ... : ... .. . ... : ... .. . ... : ... .. . ...
ROW 3E : ... .. . ... : ... .. . ... ... : ... .. . ... : ... .. . ... : ... .. . ...
ROW 3F : B-1 0E . ... : ... .. . ... ... : ... .. . ... : ... .. . ... : ... .. . ...

PATTERN 01
ROW 00 : C#3 21 C 07C : ... .. . ... ... : C#2 00 . ... : A-# 19 . J10 : ... .. . ...
ROW 01 : --- .. . ... : ... .. . ... ... : ... .. . ... : ... .. . ... : ... .. . ...
ROW 02 : C#3 21 . ... : ... .. . ... ... : ... .. . ... : ... .. . ... : ... .. . ...
ROW 03 : --- .. . ... : ... .. . ... ... : ... .. . ... : ... .. . ... : ... .. . ...
ROW 04 : C#3 21 . ... : ... .. . ... ... : C#3 20 . ... : ... .. . ... : ... .. . ...
ROW 05 : ... .. . ... : ... .. . ... ... : ... .. . ... : ... .. . ... : ... .. . ...
ROW 06 : ... .. . ... : ... .. . ... ... : --- .. . ... : ... .. . ... : ... .. . ...
ROW 07 : ... .. . ... : ... .. . ... ... : ... .. . ... : ... .. . ... : ... .. . ...
ROW 08 : C#3 21 . ... : ... .. . ... ... : C#2 00 . ... : 0-# 11 . J10 : ... .. . ...
ROW 09 : --- .. . ... : ... .. . ... ... : ... .. . ... : ... .. . ... : ... .. . ...
ROW 0A : C#3 21 . ... : ... .. . ... ... : C#3 20 . ... : E-# 13 . ... : ... .. . ...
ROW 0B : --- .. . ... : ... .. . ... ... : ... .. . ... : ... .. . ... : ... .. . ...
ROW 0C : C#3 21 . ... : ... .. . ... ... : --- .. . ... : D-# 14 . ... : ... .. . ...
ROW 0D : ... .. . ... : ... .. . ... ... : ... .. . ... : ... .. . ... : ... .. . ...
ROW 0E : ... .. . ... : ... .. . ... ... : C#2 20 . ... : E-# 13 . ... : ... .. . ...
ROW 0F : ... .. . ... : ... .. . ... ... : ... .. . ... : ... .. . ... : ... .. . ...
ROW 10 : C#3 21 . ... : ... .. . ... ... : C#3 00 . ... : 0-# 11 . J10 : ... .. . ...
ROW 11 : ... .. . ... : ... .. . ... ... : ... .. . ... : ... .. . ... : ... .. . ...
ROW 12 : ... .. . ... : ... .. . ... ... : --- .. . ... : E-# 13 . ... : ... .. . ...
ROW 13 : ... .. . ... : ... .. . ... ... : ... .. . ... : ... .. . ... : ... .. . ...
ROW 14 : B-2 21 . ... : ... .. . ... ... : C#2 20 . ... : E-# 13 . ... : ... .. . ...
ROW 15 : ... .. . ... : ... .. . ... ... : ... .. . ... : ... .. . ... : ... .. . ...
ROW 16 : C#3 21 . ... : ... .. . ... ... : C#3 20 . ... : E-# 13 . ... : ... .. . ...
ROW 17 : ... .. . ... : ... .. . ... ... : ... .. . ... : ... .. . ... : ... .. . ...
ROW 18 : ... .. . ... : ... .. . ... ... : C#2 00 . ... : 0-# 11 . J10 : ... .. . ...
ROW 19 : ... .. . ... : ... .. . ... ... : ... .. . ... : ... .. . ... : ... .. . ...
ROW 1A : B-2 21 . ... : ... .. . ... ... : ... .. . ... : E-# 13 . ... : ... .. . ...
ROW 1B : ... .. . ... : ... .. . ... ... : ... .. . ... : ... .. . ... : ... .. . ...
ROW 1C : C#3 21 . ... : ... .. . ... ... : C#3 20 . ... : D-# 14 . ... : ... .. . ...
ROW 1D : ... .. . ... : ... .. . ... ... : ... .. . ... : ... .. . ... : ... .. . ...
ROW 1E : ... .. . ... : ... .. . ... ... : --- .. . ... : E-# 13 . ... : ... .. . ...
ROW 1F : ... .. . ... : ... .. . ... ... : ... .. . ... : ... .. . ... : ... .. . ...
ROW 20 : C#3 21 . ... : ... .. . ... ... : C#2 00 . ... : 0-# 11 . J10 : ... .. . ...
ROW 21 : --- .. . ... : ... .. . ... ... : ... .. . ... : ... .. . ... : ... .. . ...
ROW 22 : C#3 21 . ... : ... .. . ... ... : ... .. . ... : E-# 13 . ... : ... .. . ...
ROW 23 : --- .. . ... : ... .. . ... ... : ... .. . ... : ... .. . ... : ... .. . ...
ROW 24 : C#3 21 . ... : ... .. . ... ... : C#3 20 . ... : E-# 13 . ... : ... .. . ...
ROW 25 : ... .. . ... : ... .. . ... ... : ... .. . ... : ... .. . ... : ... .. . ...
ROW 26 : ... .. . ... : ... .. . ... ... : --- .. . ... : E-# 13 . ... : ... .. . ...
ROW 27 : ... .. . ... : ... .. . ... ... : ... .. . ... : ... .. . ... : ... .. . ...
ROW 28 : C#3 21 . ... : ... .. . ... ... : C#2 00 . ... : 0-# 11 . J10 : ... .. . ...
ROW 29 : --- .. . ... : ... .. . ... ... : ... .. . ... : ... .. . ... : ... .. . ...
ROW 2A : C#3 21 . ... : ... .. . ... ... : C#3 20 . ... : E-# 13 . ... : ... .. . ...
ROW 2B : --- .. . ... : ... .. . ... ... : ... .. . ... : ... .. . ... : ... .. . ...
ROW 2C : C#3 21 . ... : ... .. . ... ... : --- .. . ... : D-# 14 . ... : ... .. . ...
ROW 2D : ... .. . ... : ... .. . ... ... : ... .. . ... : ... .. . ... : ... .. . ...
ROW 2E : ... .. . ... : ... .. . ... ... : C#2 20 . ... : E-# 13 . ... : ... .. . ...
ROW 2F : ... .. . ... : ... .. . ... ... : ... .. . ... : ... .. . ... : ... .. . ...
ROW 30 : E-3 21 . ... : ... .. . ... ... : C#3 00 . ... : 0-# 11 . J10 : ... .. . ...
ROW 31 : ... .. . ... : ... .. . ... ... : ... .. . ... : ... .. . ... : ... .. . ...
ROW 32 : ... .. . ... : ... .. . ... ... : --- .. . ... : E-# 13 . ... : ... .. . ...
ROW 33 : ... .. . ... : ... .. . ... ... : ... .. . ... : E-# 13 . ... : ... .. . ...
ROW 34 : C#3 21 . ... : ... .. . ... ... : C#2 20 . ... : D-# 14 . ... : ... .. . ...
ROW 35 : ... .. . ... : ... .. . ... ... : ... .. . ... : ... .. . ... : ... .. . ...
ROW 36 : E-3 21 . ... : ... .. . ... ... : C#3 20 . ... : E-# 13 . ... : ... .. . ...
ROW 37 : ... .. . ... : ... .. . ... ... : ... .. . ... : ... .. . ... : ... .. . ...
ROW 38 : ... .. . ... : ... .. . ... ... : C#2 00 . ... : 0-# 11 . J10 : ... .. . ...
ROW 39 : ... .. . ... : ... .. . ... ... : ... .. . ... : ... .. . ... : ... .. . ...
ROW 3A : B-2 21 . ... : ... .. . ... ... : ... .. . ... : E-# 13 . ... : ... .. . ...
ROW 3B : ... .. . ... : ... .. . ... ... : ... .. . ... : ... .. . ... : ... .. . ...
ROW 3C : C#3 21 . ... : ... .. . ... ... : B-2 20 . ... : D-# 14 . ... : ... .. . ...
ROW 3D : ... .. . ... : ... .. . ... ... : ... .. . ... : ... .. . ... : ... .. . ...
ROW 3E : ... .. . ... : ... .. . ... ... : --- .. . ... : E-# 13 . ... : ... .. . ...
ROW 3F : ... .. . ... : ... .. . ... ... : ... .. . ... : ... .. . ... : ... .. . ...

PATTERN 02
ROW 00 : E-3 21 . ... : ... .. . ... ... : ... .. . ... : A-# 19 . J10 : ... .. . ...
ROW 01 : --- .. . ... : C#1 0E F ... ... : ... .. . ... : ... .. . ... : ... .. . ...
ROW 02 : E-3 21 . ... : ... .. . ... ... : ... .. . ... : ... .. . ... : ... .. . ...
ROW 03 : --- .. . ... : ... .. . ... ... : ... .. . ... : ... .. . ... : ... .. . ...
ROW 04 : E-3 21 . ... : ... .. . ... ... : ... .. . ... : ... .. . ... : ... .. . ...
ROW 05 : ... .. . ... : C#2 0E . ... ... : ... .. . ... : ... .. . ... : ... .. . ...
ROW 06 : ... .. . ... : ... .. . ... ... : ... .. . ... : ... .. . ... : ... .. . ...
ROW 07 : ... .. . ... : ... .. 6 ... ... : ... .. . ... : ... .. . ... : ... .. . ...
ROW 08 : E-3 21 . ... : ... .. . ... ... : ... .. . ... : 0-# 11 . J10 : ... .. . ...
ROW 09 : --- .. . ... : C#1 0E F ... ... : ... .. . ... : ... .. . ... : ... .. . ...
ROW 0A : E-3 21 . ... : ... .. . ... ... : ... .. . ... : E-# 13 . ... : ... .. . ...
ROW 0B : --- .. . ... : C#2 0E . ... ... : ... .. . ... : ... .. . ... : ... .. . ...
ROW 0C : E-3 21 . ... : ... .. . ... ... : ... .. . ... : D-# 14 . ... : ... .. . ...
ROW 0D : ... .. . ... : ... .. 6 ... ... : ... .. . ... : ... .. . ... : ... .. . ...
ROW 0E : ... .. . ... : ... .. . ... ... : ... .. . ... : E-# 13 . ... : ... .. . ...
ROW 0F : ... .. . ... : C#1 0E F ... ... : ... .. . ... : ... .. . ... : ... .. . ...
ROW 10 : F#3 21 . ... : ... .. . ... ... : ... .. . ... : 0-# 11 . J10 : ... .. . ...
ROW 11 : ... .. . ... : C#2 0E . ... ... : ... .. . ... : ... .. . ... : ... .. . ...
ROW 12 : ... .. . ... : ... .. . ... ... : ... .. . ... : E-# 13 . ... : ... .. . ...
ROW 13 : ... .. . ... : ... .. 6 ... ... : ... .. . ... : ... .. . ... : ... .. . ...
ROW 14 : E-3 21 . ... : ... .. . ... ... : ... .. . ... : E-# 13 . ... : ... .. . ...
ROW 15 : ... .. . ... : C#1 0E F ... ... : ... .. . ... : ... .. . ... : ... .. . ...
ROW 16 : F#3 21 . ... : ... .. . ... ... : ... .. . ... : E-# 13 . ... : ... .. . ...
ROW 17 : ... .. . ... : C#2 0E . ... ... : ... .. . ... : ... .. . ... : ... .. . ...
ROW 18 : ... .. . ... : ... .. . ... ... : ... .. . ... : 0-# 11 . J10 : ... .. . ...
ROW 19 : ... .. . ... : C#1 0E . ... ... : ... .. . ... : ... .. . ... : ... .. . ...
ROW 1A : E-3 21 . ... : ... .. . ... ... : ... .. . ... : E-# 13 . ... : ... .. . ...
ROW 1B : ... .. . ... : ... .. . ... ... : ... .. . ... : ... .. . ... : ... .. . ...
ROW 1C : F#3 21 . ... : ... .. . ... ... : ... .. . ... : D-# 14 . ... : ... .. . ...
ROW 1D : ... .. . ... : C#2 0E . ... ... : ... .. . ... : ... .. . ... : ... .. . ...
ROW 1E : ... .. . ... : ... .. . ... ... : ... .. . ... : E-# 13 . ... : ... .. . ...
ROW 1F : ... .. . ... : ... .. 6 ... ... : ... .. . ... : ... .. . ... : ... .. . ...
ROW 20 : G#3 21 . ... : ... .. . ... ... : ... .. . ... : 0-# 11 . J10 : ... .. . ...
ROW 21 : --- .. . ... : C#1 0E F ... ... : ... .. . ... : ... .. . ... : ... .. . ...
ROW 22 : G#3 21 . ... : ... .. . ... ... : ... .. . ... : E-# 13 . ... : ... .. . ...
ROW 23 : --- .. . ... : ... .. . ... ... : ... .. . ... : ... .. . ... : ... .. . ...
ROW 24 : G#3 21 . ... : ... .. . ... ... : ... .. . ... : E-# 13 . ... : ... .. . ...
ROW 25 : ... .. . ... : C#2 0E . ... ... : ... .. . ... : ... .. . ... : ... .. . ...
ROW 26 : ... .. . ... : ... .. . ... ... : ... .. . ... : E-# 13 . ... : ... .. . ...
ROW 27 : ... .. . ... : ... .. 6 ... ... : ... .. . ... : ... .. . ... : ... .. . ...
ROW 28 : G#3 21 . ... : ... .. . ... ... : ... .. . ... : 0-# 11 . J10 : ... .. . ...
ROW 29 : --- .. . ... : C#1 0E F ... ... : ... .. . ... : ... .. . ... : ... .. . ...
ROW 2A : F#3 21 . ... : ... .. . ... ... : ... .. . ... : E-# 13 . ... : ... .. . ...
ROW 2B : --- .. . ... : C#2 0E . ... ... : ... .. . ... : ... .. . ... : ... .. . ...
ROW 2C : G#3 21 . ... : ... .. . ... ... : ... .. . ... : D-# 14 . ... : ... .. . ...
ROW 2D : ... .. . ... : ... .. 6 ... ... : ... .. . ... : ... .. . ... : ... .. . ...
ROW 2E : ... .. . ... : ... .. . ... ... : ... .. . ... : E-# 13 . ... : ... .. . ...
ROW 2F : ... .. . ... : C#1 0E F ... ... : ... .. . ... : ... .. . ... : ... .. . ...
ROW 30 : B-3 21 . ... : ... .. . ... ... : ... .. . ... : 0-# 11 . J10 : ... .. . ...
ROW 31 : ... .. . ... : B-1 0E . ... ... : ... .. . ... : E-# 13 . ... : ... .. . ...
ROW 32 : ... .. . ... : ... .. . ... ... : ... .. . ... : E-# 13 . ... : ... .. . ...
ROW 33 : ... .. . ... : ... .. 6 ... ... : ... .. . ... : ... .. . ... : ... .. . ...
ROW 34 : G#3 21 . ... : ... .. . ... ... : ... .. . ... : D-# 14 . ... : ... .. . ...
ROW 35 : ... .. . ... : G#1 0E F ... ... : ... .. . ... : ... .. . ... : ... .. . ...
ROW 36 : B-3 21 . ... : ... .. . ... ... : ... .. . ... : E-# 13 . ... : ... .. . ...
ROW 37 : ... .. . ... : B-1 0E . ... ... : ... .. . ... : ... .. . ... : ... .. . ...
ROW 38 : ... .. . ... : ... .. . ... ... : ... .. . ... : 0-# 11 . J10 : ... .. . ...
ROW 39 : ... .. . ... : ... .. . ... ... : ... .. . ... : ... .. . ... : ... .. . ...
ROW 3A : B-3 21 . ... : ... .. . ... ... : ... .. . ... : E-# 13 . ... : ... .. . ...
ROW 3B : ... .. . ... : ... .. . ... ... : ... .. . ... : ... .. . ... : ... .. . ...
ROW 3C : C#4 21 . ... : ... .. . ... ... : ... .. . ... : D-# 14 . ... : ... .. . ...
ROW 3D : ... .. . ... : C#2 0E . ... ... : ... .. . ... : ... .. . ... : ... .. . ...
ROW 3E : ... .. . ... : ... .. . ... ... : ... .. . ... : E-# 13 . ... : ... .. . ...
ROW 3F : ... .. . ... : ... .. . ... ... : ... .. . ... : ... .. . ... : ... .. . ...

PATTERN 03
ROW 00 : C#5 22 F 000 : ... .. . ... ... : C#2 00 . ... : ... .. . ... : ... .. . ...
ROW 01 : ... .. . ... : ... .. . ... ... : ... .. . ... : ... .. . ... : ... .. . ...
ROW 02 : G#5 22 . ... : ... .. . ... ... : ... .. . ... : ... .. . ... : ... .. . ...
ROW 03 : ... .. . ... : ... .. . ... ... : ... .. . ... : ... .. . ... : ... .. . ...
ROW 04 : C#5 22 . ... : ... .. . ... ... : C#3 20 . ... : ... .. . ... : ... .. . ...
ROW 05 : ... .. . ... : ... .. . ... ... : ... .. . ... : ... .. . ... : ... .. . ...
ROW 06 : F#5 22 . ... : ... .. . ... ... : --- .. . ... : ... .. . ... : ... .. . ...
ROW 07 : ... .. . ... : ... .. . ... ... : ... .. . ... : ... .. . ... : ... .. . ...
ROW 08 : C#5 22 . ... : ... .. . ... ... : C#2 00 . ... : ... .. . ... : ... .. . ...
ROW 09 : ... .. . ... : ... .. . ... ... : ... .. . ... : ... .. . ... : ... .. . ...
ROW 0A : E-5 22 . ... : ... .. . ... ... : C#3 20 . ... : ... .. . ... : ... .. . ...
ROW 0B : ... .. . ... : ... .. . ... ... : ... .. . ... : ... .. . ... : ... .. . ...
ROW 0C : C#5 22 . ... : ... .. . ... ... : --- .. . ... : ... .. . ... : ... .. . ...
ROW 0D : ... .. . ... : ... .. . ... ... : ... .. . ... : ... .. . ... : ... .. . ...
ROW 0E : B-4 22 . ... : ... .. . ... ... : C#2 20 . ... : ... .. . ... : ... .. . ...
ROW 0F : ... .. . ... : ... .. . ... ... : ... .. . ... : ... .. . ... : ... .. . ...
ROW 10 : C#5 22 . ... : ... .. . ... ... : C#3 00 . ... : ... .. . ... : ... .. . ...
ROW 11 : ... .. . ... : ... .. . ... ... : ... .. . ... : ... .. . ... : ... .. . ...
ROW 12 : B-4 22 . ... : ... .. . ... ... : --- .. . ... : ... .. . ... : ... .. . ...
ROW 13 : ... .. . ... : ... .. . ... ... : ... .. . ... : ... .. . ... : ... .. . ...
ROW 14 : E-5 22 . ... : ... .. . ... ... : C#2 20 . ... : ... .. . ... : ... .. . ...
ROW 15 : ... .. . ... : ... .. . ... ... : ... .. . ... : ... .. . ... : ... .. . ...
ROW 16 : C#5 22 . ... : ... .. . ... ... : C#3 20 . ... : ... .. . ... : ... .. . ...
ROW 17 : ... .. . ... : ... .. . ... ... : ... .. . ... : ... .. . ... : ... .. . ...
ROW 18 : F#5 22 . ... : ... .. . ... ... : C#2 00 . ... : ... .. . ... : ... .. . ...
ROW 19 : ... .. . ... : ... .. . ... ... : ... .. . ... : ... .. . ... : ... .. . ...
ROW 1A : E-5 22 . ... : ... .. . ... ... : ... .. . ... : ... .. . ... : ... .. . ...
ROW 1B : ... .. . ... : ... .. . ... ... : ... .. . ... : ... .. . ... : ... .. . ...
ROW 1C : C#5 22 . ... : ... .. . ... ... : C#3 20 . ... : ... .. . ... : ... .. . ...
ROW 1D : ... .. . ... : ... .. . ... ... : ... .. . ... : ... .. . ... : ... .. . ...
ROW 1E : E-5 22 . ... : ... .. . ... ... : --- .. . ... : ... .. . ... : ... .. . ...
ROW 1F : ... .. . ... : ... .. . ... ... : ... .. . ... : ... .. . ... : ... .. . ...
ROW 20 : C#5 22 . ... : ... .. . ... ... : C#2 00 . ... : ... .. . ... : ... .. . ...
ROW 21 : ... .. . ... : ... .. . ... ... : ... .. . ... : ... .. . ... : ... .. . ...
ROW 22 : G#5 22 . ... : ... .. . ... ... : ... .. . ... : ... .. . ... : ... .. . ...
ROW 23 : ... .. . ... : ... .. . ... ... : ... .. . ... : ... .. . ... : ... .. . ...
ROW 24 : C#5 22 . ... : ... .. . ... ... : C#3 20 . ... : ... .. . ... : ... .. . ...
ROW 25 : ... .. . ... : ... .. . ... ... : ... .. . ... : ... .. . ... : ... .. . ...
ROW 26 : F#5 22 . ... : ... .. . ... ... : --- .. . ... : ... .. . ... : ... .. . ...
ROW 27 : ... .. . ... : ... .. . ... ... : ... .. . ... : ... .. . ... : ... .. . ...
ROW 28 : C#5 22 . ... : ... .. . ... ... : C#2 00 . ... : ... .. . ... : ... .. . ...
ROW 29 : ... .. . ... : ... .. . ... ... : ... .. . ... : ... .. . ... : ... .. . ...
ROW 2A : E-5 22 . ... : ... .. . ... ... : C#3 20 . ... : ... .. . ... : ... .. . ...
ROW 2B : ... .. . ... : ... .. . ... ... : ... .. . ... : ... .. . ... : ... .. . ...
ROW 2C : C#5 22 . ... : ... .. . ... ... : --- .. . ... : ... .. . ... : ... .. . ...
ROW 2D : ... .. . ... : ... .. . ... ... : ... .. . ... : ... .. . ... : ... .. . ...
ROW 2E : B-4 22 . ... : ... .. . ... ... : C#2 20 . ... : ... .. . ... : ... .. . ...
ROW 2F : ... .. . ... : ... .. . ... ... : ... .. . ... : ... .. . ... : ... .. . ...
ROW 30 : G#5 22 . ... : ... .. . ... ... : B-2 00 . ... : ... .. . ... : ... .. . ...
ROW 31 : ... .. . ... : ... .. . ... ... : ... .. . ... : ... .. . ... : ... .. . ...
ROW 32 : F#5 22 . ... : ... .. . ... ... : --- .. . ... : ... .. . ... : ... .. . ...
ROW 33 : ... .. . ... : ... .. . ... ... : ... .. . ... : ... .. . ... : ... .. . ...
ROW 34 : E-5 22 . ... : ... .. . ... ... : G#2 20 . ... : ... .. . ... : ... .. . ...
ROW 35 : ... .. . ... : ... .. . ... ... : ... .. . ... : ... .. . ... : ... .. . ...
ROW 36 : F#5 22 . ... : ... .. . ... ... : B-2 20 . ... : ... .. . ... : ... .. . ...
ROW 37 : ... .. . ... : ... .. . ... ... : ... .. . ... : ... .. . ... : ... .. . ...
ROW 38 : G#5 22 . ... : ... .. . ... ... : B-2 00 . ... : ... .. . ... : ... .. . ...
ROW 39 : ... .. . ... : ... .. . ... ... : ... .. . ... : ... .. . ... : ... .. . ...
ROW 3A : F#5 22 . ... : ... .. . ... ... : ... .. . ... : ... .. . ... : ... .. . ...
ROW 3B : ... .. . ... : ... .. . ... ... : ... .. . ... : ... .. . ... : ... .. . ...
ROW 3C : E-5 22 . ... : ... .. . ... ... : C#3 20 . ... : ... .. . ... : ... .. . ...
ROW 3D : ... .. . ... : ... .. . ... ... : ... .. . ... : ... .. . ... : ... .. . ...
ROW 3E : B-4 22 . ... : ... .. . ... ... : --- .. . ... : ... .. . ... : ... .. . ...
ROW 3F : ... .. . ... : ... .. . ... ... : ... .. . ... : ... .. . ... : ... .. . ...

PATTERN 04
ROW 00 : C#5 22 . ... : G#2 0D 6 455 ... : ... .. . ... : ... .. . ... : ... .. . ...
ROW 01 : ... .. . ... : ... .. . ... ... : ... .. . ... : ... .. . ... : ... .. . ...
ROW 02 : G#5 22 . ... : ... .. . ... ... : ... .. . ... : ... .. . ... : ... .. . ...
ROW 03 : ... .. . ... : ... .. . ... ... : ... .. . ... : ... .. . ... : ... .. . ...
ROW 04 : C#5 22 . ... : ... .. . ... ... : ... .. . ... : ... .. . ... : ... .. . ...
ROW 05 : ... .. . ... : ... .. . ... ... : ... .. . ... : ... .. . ... : ... .. . ...
ROW 06 : F#5 22 . ... : ... .. . ... ... : ... .. . ... : ... .. . ... : ... .. . ...
ROW 07 : ... .. . ... : ... .. . ... ... : ... .. . ... : ... .. . ... : ... .. . ...
ROW 08 : C#5 22 . ... : ... .. . ... ... : ... .. . ... : ... .. . ... : ... .. . ...
ROW 09 : ... .. . ... : ... .. . ... ... : ... .. . ... : ... .. . ... : ... .. . ...
ROW 0A : E-5 22 . ... : ... .. . ... ... : ... .. . ... : ... .. . ... : ... .. . ...
ROW 0B : ... .. . ... : ... .. . ... ... : ... .. . ... : ... .. . ... : ... .. . ...
ROW 0C : C#5 22 . ... : ... .. . ... ... : ... .. . ... : ... .. . ... : ... .. . ...
ROW 0D : ... .. . ... : ... .. . ... ... : ... .. . ... : ... .. . ... : ... .. . ...
ROW 0E : B-4 22 . ... : ... .. . ... ... : ... .. . ... : ... .. . ... : ... .. . ...
ROW 0F : ... .. . ... : ... .. . ... ... : ... .. . ... : ... .. . ... : ... .. . ...
ROW 10 : C#5 22 . ... : ... .. . ... ... : ... .. . ... : ... .. . ... : ... .. . ...
ROW 11 : ... .. . ... : ... .. . ... ... : ... .. . ... : ... .. . ... : ... .. . ...
ROW 12 : B-4 22 . ... : ... .. . ... ... : ... .. . ... : ... .. . ... : ... .. . ...
ROW 13 : ... .. . ... : ... .. . ... ... : ... .. . ... : ... .. . ... : ... .. . ...
ROW 14 : E-5 22 . ... : ... .. . ... ... : ... .. . ... : ... .. . ... : ... .. . ...
ROW 15 : ... .. . ... : ... .. . ... ... : ... .. . ... : ... .. . ... : ... .. . ...
ROW 16 : C#5 22 . ... : ... .. . ... ... : ... .. . ... : ... .. . ... : ... .. . ...
ROW 17 : ... .. . ... : ... .. . ... ... : ... .. . ... : ... .. . ... : ... .. . ...
ROW 18 : F#5 22 . ... : ... .. . ... ... : ... .. . ... : ... .. . ... : ... .. . ...
ROW 19 : ... .. . ... : ... .. . ... ... : ... .. . ... : ... .. . ... : ... .. . ...
ROW 1A : E-5 22 . ... : ... .. . ... ... : ... .. . ... : ... .. . ... : ... .. . ...
ROW 1B : ... .. . ... : ... .. . ... ... : ... .. . ... : ... .. . ... : ... .. . ...
ROW 1C : C#5 22 . ... : ... .. . ... ... : ... .. . ... : ... .. . ... : ... .. . ...
ROW 1D : ... .. . ... : ... .. . ... ... : ... .. . ... : ... .. . ... : ... .. . ...
ROW 1E : E-5 22 . ... : ... .. . ... ... : ... .. . ... : ... .. . ... : ... .. . ...
ROW 1F : ... .. . ... : ... .. . ... ... : ... .. . ... : ... .. . ... : ... .. . ...
ROW 20 : C#5 22 . ... : E-2 0D . ... ... : ... .. . ... : ... .. . ... : ... .. . ...
ROW 21 : ... .. . ... : ... .. . ... ... : ... .. . ... : ... .. . ... : ... .. . ...
ROW 22 : G#5 22 . ... : ... .. . ... ... : ... .. . ... : ... .. . ... : ... .. . ...
ROW 23 : ... .. . ... : ... .. . ... ... : ... .. . ... : ... .. . ... : ... .. . ...
ROW 24 : C#5 22 . ... : ... .. . ... ... : ... .. . ... : ... .. . ... : ... .. . ...
ROW 25 : ... .. . ... : ... .. . ... ... : ... .. . ... : ... .. . ... : ... .. . ...
ROW 26 : F#5 22 . ... : ... .. . ... ... : ... .. . ... : ... .. . ... : ... .. . ...
ROW 27 : ... .. . ... : ... .. . ... ... : ... .. . ... : ... .. . ... : ... .. . ...
ROW 28 : C#5 22 . ... : ... .. . ... ... : ... .. . ... : ... .. . ... : ... .. . ...
ROW 29 : ... .. . ... : ... .. . ... ... : ... .. . ... : ... .. . ... : ... .. . ...
ROW 2A : E-5 22 . ... : ... .. . ... ... : ... .. . ... : ... .. . ... : ... .. . ...
ROW 2B : ... .. . ... : ... .. . ... ... : ... .. . ... : ... .. . ... : ... .. . ...
ROW 2C : C#5 22 . ... : ... .. . ... ... : ... .. . ... : ... .. . ... : ... .. . ...
ROW 2D : ... .. . ... : ... .. . ... ... : ... .. . ... : ... .. . ... : ... .. . ...
ROW 2E : B-4 22 . ... : ... .. . ... ... : ... .. . ... : ... .. . ... : ... .. . ...
ROW 2F : ... .. . ... : ... .. . ... ... : ... .. . ... : ... .. . ... : ... .. . ...
ROW 30 : G#5 22 . ... : ... .. . ... ... : ... .. . ... : ... .. . ... : ... .. . ...
ROW 31 : ... .. . ... : ... .. . ... ... : ... .. . ... : ... .. . ... : ... .. . ...
ROW 32 : F#5 22 . ... : ... .. . ... ... : ... .. . ... : ... .. . ... : ... .. . ...
ROW 33 : ... .. . ... : ... .. . ... ... : ... .. . ... : ... .. . ... : ... .. . ...
ROW 34 : E-5 22 . ... : ... .. . ... ... : ... .. . ... : ... .. . ... : ... .. . ...
ROW 35 : ... .. . ... : ... .. . ... ... : ... .. . ... : ... .. . ... : ... .. . ...
ROW 36 : F#5 22 . ... : ... .. . ... ... : ... .. . ... : ... .. . ... : ... .. . ...
ROW 37 : ... .. . ... : ... .. . ... ... : ... .. . ... : ... .. . ... : ... .. . ...
ROW 38 : G#5 22 . ... : ... .. . ... ... : ... .. . ... : ... .. . ... : ... .. . ...
ROW 39 : ... .. . ... : ... .. . ... ... : ... .. . ... : ... .. . ... : ... .. . ...
ROW 3A : F#5 22 . ... : ... .. . ... ... : ... .. . ... : ... .. . ... : ... .. . ...
ROW 3B : ... .. . ... : ... .. . ... ... : ... .. . ... : ... .. . ... : ... .. . ...
ROW 3C : G#5 22 . ... : ... .. . ... ... : ... .. . ... : ... .. . ... : ... .. . ...
ROW 3D : ... .. . ... : ... .. . ... ... : ... .. . ... : ... .. . ... : ... .. . ...
ROW 3E : B-5 22 . ... : ... .. . ... ... : ... .. . ... : ... .. . ... : ... .. . ...
ROW 3F : ... .. . ... : ... .. . ... ... : ... .. . ... : ... .. . ... : ... .. . ...

PATTERN 05
ROW 00 : B-2 0D 9 453 : D#2 0D 6 ... ... : B-1 00 . ... : A-# 19 . J10 : ... .. . ...
ROW 01 : ... .. . ... : ... .. . ... ... : ... .. . ... : ... .. . ... : ... .. . ...
ROW 02 : ... .. . ... : ... .. . ... ... : ... .. . ... : ... .. . ... : ... .. . ...
ROW 03 : ... .. . ... : ... .. . ... ... : ... .. . ... : ... .. . ... : ... .. . ...
ROW 04 : ... .. . ... : ... .. . ... ... : B-2 20 . ... : ... .. . ... : ... .. . ...
ROW 05 : ... .. . ... : ... .. . ... ... : ... .. . ... : ... .. . ... : ... .. . ...
ROW 06 : ... .. . ... : ... .. . ... ... : --- .. . ... : ... .. . ... : ... .. . ...
ROW 07 : ... .. . ... : ... .. . ... ... : ... .. . ... : ... .. . ... : ... .. . ...
ROW 08 : ... .. . ... : ... .. . ... ... : B-1 00 . ... : 0-# 11 . J10 : ... .. . ...
ROW 09 : ... .. . ... : ... .. . ... ... : ... .. . ... : ... .. . ... : ... .. . ...
ROW 0A : ... .. . ... : ... .. . ... ... : B-2 20 . ... : E-# 13 . ... : ... .. . ...
ROW 0B : ... .. . ... : ... .. . ... ... : ... .. . ... : ... .. . ... : ... .. . ...
ROW 0C : ... .. . ... : ... .. . ... ... : --- .. . ... : D-# 14 . ... : ... .. . ...
ROW 0D : ... .. . ... : ... .. . ... ... : ... .. . ... : ... .. . ... : ... .. . ...
ROW 0E : ... .. . ... : ... .. . ... ... : B-1 20 . ... : E-# 13 . ... : ... .. . ...
ROW 0F : ... .. . ... : ... .. . ... ... : ... .. . ... : ... .. . ... : ... .. . ...
ROW 10 : ... .. . ... : ... .. . ... ... : B-2 00 . ... : 0-# 11 . J10 : ... .. . ...
ROW 11 : ... .. . ... : ... .. . ... ... : ... .. . ... : ... .. . ... : ... .. . ...
ROW 12 : ... .. . ... : ... .. . ... ... : --- .. . ... : E-# 13 . ... : ... .. . ...
ROW 13 : ... .. . ... : ... .. . ... ... : ... .. . ... : ... .. . ... : ... .. . ...
ROW 14 : ... .. . ... : ... .. . ... ... : B-1 20 . ... : E-# 13 . ... : ... .. . ...
ROW 15 : ... .. . ... : ... .. . ... ... : ... .. . ... : ... .. . ... : ... .. . ...
ROW 16 : ... .. . ... : ... .. . ... ... : B-2 20 . ... : E-# 13 . ... : ... .. . ...
ROW 17 : ... .. . ... : ... .. . ... ... : ... .. . ... : ... .. . ... : ... .. . ...
ROW 18 : ... .. . ... : ... .. . ... ... : B-1 00 . ... : 0-# 11 . J10 : ... .. . ...
ROW 19 : ... .. . ... : ... .. . ... ... : ... .. . ... : ... .. . ... : ... .. . ...
ROW 1A : ... .. . ... : ... .. . ... ... : ... .. . ... : E-# 13 . ... : ... .. . ...
ROW 1B : ... .. . ... : ... .. . ... ... : ... .. . ... : ... .. . ... : ... .. . ...
ROW 1C : ... .. 6 ... : ... .. . ... ... : B-2 20 . ... : D-# 14 . ... : ... .. . ...
ROW 1D : ... .. . ... : ... .. . ... ... : ... .. . ... : ... .. . ... : ... .. . ...
ROW 1E : ... .. . ... : ... .. . ... ... : --- .. . ... : E-# 13 . ... : ... .. . ...
ROW 1F : ... .. . ... : ... .. . ... ... : ... .. . ... : ... .. . ... : ... .. . ...
ROW 20 : G#2 0D 9 ... : E-2 0D . ... ... : B-1 00 . ... : 0-# 11 . J10 : ... .. . ...
ROW 21 : ... .. . ... : ... .. . ... ... : ... .. . ... : ... .. . ... : ... .. . ...
ROW 22 : ... .. . ... : ... .. . ... ... : ... .. . ... : E-# 13 . ... : ... .. . ...
ROW 23 : ... .. . ... : ... .. . ... ... : ... .. . ... : ... .. . ... : ... .. . ...
ROW 24 : ... .. . ... : ... .. . ... ... : B-2 20 . ... : E-# 13 . ... : ... .. . ...
ROW 25 : ... .. . ... : ... .. . ... ... : ... .. . ... : ... .. . ... : ... .. . ...
ROW 26 : ... .. . ... : ... .. . ... ... : --- .. . ... : E-# 13 . ... : ... .. . ...
ROW 27 : ... .. . ... : ... .. . ... ... : ... .. . ... : ... .. . ... : ... .. . ...
ROW 28 : ... .. . ... : ... .. . ... ... : B-1 00 . ... : 0-# 11 . J10 : ... .. . ...
ROW 29 : ... .. . ... : ... .. . ... ... : ... .. . ... : ... .. . ... : ... .. . ...
ROW 2A : ... .. . ... : ... .. . ... ... : B-2 20 . ... : E-# 13 . ... : ... .. . ...
ROW 2B : ... .. . ... : ... .. . ... ... : ... .. . ... : ... .. . ... : ... .. . ...
ROW 2C : ... .. . ... : ... .. . ... ... : --- .. . ... : D-# 14 . ... : ... .. . ...
ROW 2D : ... .. . ... : ... .. . ... ... : ... .. . ... : ... .. . ... : ... .. . ...
ROW 2E : ... .. . ... : ... .. . ... ... : B-1 20 . ... : E-# 13 . ... : ... .. . ...
ROW 2F : ... .. . ... : ... .. . ... ... : ... .. . ... : ... .. . ... : ... .. . ...
ROW 30 : ... .. . ... : ... .. . ... ... : B-2 00 . ... : 0-# 11 . J10 : ... .. . ...
ROW 31 : ... .. . ... : ... .. . ... ... : ... .. . ... : ... .. . ... : ... .. . ...
ROW 32 : ... .. . ... : ... .. . ... ... : --- .. . ... : E-# 13 . ... : ... .. . ...
ROW 33 : ... .. . ... : ... .. . ... ... : ... .. . ... : ... .. . ... : ... .. . ...
ROW 34 : ... .. . ... : ... .. . ... ... : B-1 20 . ... : D-# 14 . ... : ... .. . ...
ROW 35 : ... .. . ... : ... .. . ... ... : ... .. . ... : ... .. . ... : ... .. . ...
ROW 36 : ... .. . ... : ... .. . ... ... : B-2 20 . ... : E-# 13 . ... : ... .. . ...
ROW 37 : ... .. . ... : ... .. . ... ... : ... .. . ... : ... .. . ... : ... .. . ...
ROW 38 : ... .. . ... : ... .. . ... ... : B-1 00 . ... : 0-# 11 . J10 : ... .. . ...
ROW 39 : ... .. . ... : ... .. . ... ... : ... .. . ... : ... .. . ... : ... .. . ...
ROW 3A : ... .. . ... : ... .. . ... ... : ... .. . ... : E-# 13 . ... : ... .. . ...
ROW 3B : ... .. . ... : ... .. . ... ... : ... .. . ... : E-# 13 . ... : ... .. . ...
ROW 3C : ... .. 6 ... : ... .. . ... ... : G#2 20 . ... : D-# 14 . ... : ... .. . ...
ROW 3D : ... .. . ... : ... .. . ... ... : ... .. . ... : ... .. . ... : ... .. . ...
ROW 3E : ... .. . ... : ... .. . ... ... : ... .. . ... : E-# 13 . ... : ... .. . ...
ROW 3F : ... .. . ... : ... .. . ... ... : ... .. . ... : ... .. . ... : ... .. . ...

PATTERN 06
ROW 00 : F#2 0D 9 ... : B-2 21 C 07C 400 : ... .. . ... : A-# 19 . J10 : ... .. . ...
ROW 01 : ... .. . ... : --- .. . ... ... : ... .. . ... : ... .. . ... : ... .. . ...
ROW 02 : ... .. . ... : B-2 21 . ... ... : ... .. . ... : ... .. . ... : ... .. . ...
ROW 03 : ... .. . ... : --- .. . ... ... : ... .. . ... : ... .. . ... : ... .. . ...
ROW 04 : ... .. . ... : B-2 21 . ... ... : ... .. . ... : ... .. . ... : ... .. . ...
ROW 05 : ... .. . ... : ... .. . ... ... : ... .. . ... : ... .. . ... : ... .. . ...
ROW 06 : ... .. . ... : ... .. . ... ... : ... .. . ... : ... .. . ... : ... .. . ...
ROW 07 : ... .. . ... : ... .. . ... ... : ... .. . ... : ... .. . ... : ... .. . ...
ROW 08 : ... .. . ... : B-2 21 . ... ... : ... .. . ... : 0-# 11 . J10 : ... .. . ...
ROW 09 : ... .. . ... : --- .. . ... ... : ... .. . ... : ... .. . ... : ... .. . ...
ROW 0A : ... .. . ... : B-2 21 . ... ... : ... .. . ... : E-# 13 . ... : ... .. . ...
ROW 0B : ... .. . ... : --- .. . ... ... : ... .. . ... : ... .. . ... : ... .. . ...
ROW 0C : ... .. . ... : B-2 21 . ... ... : ... .. . ... : D-# 14 . ... : ... .. . ...
ROW 0D : ... .. . ... : ... .. . ... ... : ... .. . ... : ... .. . ... : ... .. . ...
ROW 0E : ... .. . ... : ... .. . ... ... : ... .. . ... : E-# 13 . ... : ... .. . ...
ROW 0F : ... .. . ... : ... .. . ... ... : ... .. . ... : ... .. . ... : ... .. . ...
ROW 10 : ... .. . ... : B-2 21 . ... ... : ... .. . ... : 0-# 11 . J10 : ... .. . ...
ROW 11 : ... .. . ... : ... .. . ... ... : ... .. . ... : ... .. . ... : ... .. . ...
ROW 12 : ... .. . ... : ... .. . ... ... : ... .. . ... : E-# 13 . ... : ... .. . ...
ROW 13 : ... .. . ... : ... .. . ... ... : ... .. . ... : ... .. . ... : ... .. . ...
ROW 14 : ... .. . ... : A-2 21 . ... ... : ... .. . ... : E-# 13 . ... : ... .. . ...
ROW 15 : ... .. . ... : ... .. . ... ... : ... .. . ... : ... .. . ... : ... .. . ...
ROW 16 : ... .. . ... : B-2 21 . ... ... : ... .. . ... : E-# 13 . ... : ... .. . ...
ROW 17 : ... .. . ... : ... .. . ... ... : ... .. . ... : ... .. . ... : ... .. . ...
ROW 18 : ... .. . ... : ... .. . ... ... : ... .. . ... : 0-# 11 . J10 : ... .. . ...
ROW 19 : ... .. . ... : ... .. . ... ... : ... .. . ... : ... .. . ... : ... .. . ...
ROW 1A : ... .. . ... : A-2 21 . ... ... : ... .. . ... : E-# 13 . ... : ... .. . ...
ROW 1B : ... .. . ... : ... .. . ... ... : ... .. . ... : ... .. . ... : ... .. . ...
ROW 1C : B-2 0D 9 ... : B-2 21 . ... ... : ... .. . ... : D-# 14 . ... : ... .. . ...
ROW 1D : ... .. . ... : ... .. . ... ... : ... .. . ... : ... .. . ... : ... .. . ...
ROW 1E : ... .. . ... : ... .. . ... ... : ... .. . ... : E-# 13 . ... : ... .. . ...
ROW 1F : ... .. . ... : ... .. . ... ... : ... .. . ... : ... .. . ... : ... .. . ...
ROW 20 : G#2 0D 9 ... : B-2 21 . ... ... : ... .. . ... : 0-# 11 . J10 : ... .. . ...
ROW 21 : ... .. . ... : --- .. . ... ... : ... .. . ... : ... .. . ... : ... .. . ...
ROW 22 : ... .. . ... : B-2 21 . ... ... : ... .. . ... : E-# 13 . ... : ... .. . ...
ROW 23 : ... .. . ... : --- .. . ... ... : ... .. . ... : ... .. . ... : ... .. . ...
ROW 24 : ... .. . ... : B-2 21 . ... ... : ... .. . ... : E-# 13 . ... : ... .. . ...
ROW 25 : ... .. . ... : ... .. . ... ... : ... .. . ... : ... .. . ... : ... .. . ...
ROW 26 : ... .. . ... : ... .. . ... ... : ... .. . ... : E-# 13 . ... : ... .. . ...
ROW 27 : ... .. . ... : ... .. . ... ... : ... .. . ... : ... .. . ... : ... .. . ...
ROW 28 : ... .. . ... : B-2 21 . ... ... : ... .. . ... : 0-# 11 . J10 : ... .. . ...
ROW 29 : ... .. . ... : --- .. . ... ... : ... .. . ... : ... .. . ... : ... .. . ...
ROW 2A : ... .. . ... : B-2 21 . ... ... : ... .. . ... : E-# 13 . ... : ... .. . ...
ROW 2B : ... .. . ... : --- .. . ... ... : ... .. . ... : ... .. . ... : ... .. . ...
ROW 2C : ... .. . ... : B-2 21 . ... ... : ... .. . ... : D-# 14 . ... : ... .. . ...
ROW 2D : ... .. . ... : ... .. . ... ... : ... .. . ... : ... .. . ... : ... .. . ...
ROW 2E : ... .. . ... : ... .. . ... ... : ... .. . ... : E-# 13 . ... : ... .. . ...
ROW 2F : ... .. . ... : ... .. . ... ... : ... .. . ... : ... .. . ... : ... .. . ...
ROW 30 : ... .. . ... : D-3 21 . ... ... : ... .. . ... : 0-# 11 . J10 : ... .. . ...
ROW 31 : ... .. . ... : ... .. . ... ... : ... .. . ... : ... .. . ... : ... .. . ...
ROW 32 : ... .. . ... : ... .. . ... ... : ... .. . ... : E-# 13 . ... : ... .. . ...
ROW 33 : ... .. . ... : ... .. . ... ... : ... .. . ... : ... .. . ... : ... .. . ...
ROW 34 : ... .. . ... : B-2 21 . ... ... : ... .. . ... : D-# 14 . ... : ... .. . ...
ROW 35 : ... .. . ... : ... .. . ... ... : ... .. . ... : ... .. . ... : ... .. . ...
ROW 36 : ... .. . ... : D-3 21 . ... ... : ... .. . ... : E-# 13 . ... : ... .. . ...
ROW 37 : ... .. . ... : ... .. . ... ... : ... .. . ... : ... .. . ... : ... .. . ...
ROW 38 : ... .. . ... : ... .. . ... ... : ... .. . ... : 0-# 11 . J10 : ... .. . ...
ROW 39 : ... .. . ... : ... .. . ... ... : ... .. . ... : ... .. . ... : ... .. . ...
ROW 3A : ... .. . ... : A-2 21 . ... ... : ... .. . ... : E-# 13 . ... : ... .. . ...
ROW 3B : ... .. . ... : ... .. . ... ... : ... .. . ... : ... .. . ... : ... .. . ...
ROW 3C : ... .. 6 ... : B-2 21 . ... ... : ... .. . ... : D-# 14 . ... : ... .. . ...
ROW 3D : ... .. . ... : ... .. . ... ... : ... .. . ... : ... .. . ... : ... .. . ...
ROW 3E : ... .. . ... : ... .. . ... ... : ... .. . ... : E-# 13 . ... : ... .. . ...
ROW 3F : ... .. . ... : ... .. . ... ... : ... .. . ... : ... .. . ... : ... .. . ...

PATTERN 07
ROW 00 : C#3 0D 9 453 : B-2 21 C ... ... : B-1 00 . ... : ... .. . ... : ... .. . ...
ROW 01 : ... .. . ... : --- .. . ... ... : ... .. . ... : ... .. . ... : ... .. . ...
ROW 02 : ... .. . ... : B-2 21 . ... ... : ... .. . ... : ... .. . ... : ... .. . ...
ROW 03 : ... .. . ... : --- .. . ... ... : ... .. . ... : ... .. . ... : ... .. . ...
ROW 04 : ... .. . ... : B-2 21 . ... ... : B-2 20 . ... : ... .. . ... : ... .. . ...
ROW 05 : ... .. . ... : ... .. . ... ... : ... .. . ... : ... .. . ... : ... .. . ...
ROW 06 : ... .. . ... : ... .. . ... ... : --- .. . ... : ... .. . ... : ... .. . ...
ROW 07 : ... .. . ... : ... .. . ... ... : ... .. . ... : ... .. . ... : ... .. . ...
ROW 08 : ... .. . ... : B-2 21 . ... ... : B-1 00 . ... : ... .. . ... : ... .. . ...
ROW 09 : ... .. . ... : --- .. . ... ... : ... .. . ... : ... .. . ... : ... .. . ...
ROW 0A : ... .. . ... : B-2 21 . ... ... : B-2 20 . ... : ... .. . ... : ... .. . ...
ROW 0B : ... .. . ... : --- .. . ... ... : ... .. . ... : ... .. . ... : ... .. . ...
ROW 0C : ... .. . ... : B-2 21 . ... ... : --- .. . ... : ... .. . ... : ... .. . ...
ROW 0D : ... .. . ... : ... .. . ... ... : ... .. . ... : ... .. . ... : ... .. . ...
ROW 0E : ... .. . ... : ... .. . ... ... : B-1 20 . ... : ... .. . ... : ... .. . ...
ROW 0F : ... .. . ... : ... .. . ... ... : ... .. . ... : ... .. . ... : ... .. . ...
ROW 10 : ... .. . ... : B-2 21 . ... ... : B-2 00 . ... : ... .. . ... : ... .. . ...
ROW 11 : ... .. . ... : ... .. . ... ... : ... .. . ... : ... .. . ... : ... .. . ...
ROW 12 : ... .. . ... : ... .. . ... ... : --- .. . ... : ... .. . ... : ... .. . ...
ROW 13 : ... .. . ... : ... .. . ... ... : ... .. . ... : ... .. . ... : ... .. . ...
ROW 14 : ... .. . ... : A-2 21 . ... ... : B-1 20 . ... : ... .. . ... : ... .. . ...
ROW 15 : ... .. . ... : ... .. . ... ... : ... .. . ... : ... .. . ... : ... .. . ...
ROW 16 : ... .. . ... : B-2 21 . ... ... : B-2 20 . ... : ... .. . ... : ... .. . ...
ROW 17 : ... .. . ... : ... .. . ... ... : ... .. . ... : ... .. . ... : ... .. . ...
ROW 18 : ... .. . ... : ... .. . ... ... : B-1 00 . ... : ... .. . ... : ... .. . ...
ROW 19 : ... .. . ... : ... .. . ... ... : ... .. . ... : ... .. . ... : ... .. . ...
ROW 1A : ... .. . ... : A-2 21 . ... ... : ... .. . ... : ... .. . ... : ... .. . ...
ROW 1B : ... .. . ... : ... .. . ... ... : ... .. . ... : ... .. . ... : ... .. . ...
ROW 1C : ... .. 6 ... : B-2 21 . ... ... : B-2 20 . ... : ... .. . ... : ... .. . ...
ROW 1D : ... .. . ... : ... .. . ... ... : ... .. . ... : ... .. . ... : ... .. . ...
ROW 1E : ... .. . ... : ... .. . ... ... : --- .. . ... : ... .. . ... : ... .. . ...
ROW 1F : ... .. . ... : ... .. . ... ... : ... .. . ... : ... .. . ... : ... .. . ...
ROW 20 : E-3 0D 9 ... : A-2 21 . ... ... : B-1 00 . ... : ... .. . ... : ... .. . ...
ROW 21 : ... .. . ... : --- .. . ... ... : ... .. . ... : ... .. . ... : ... .. . ...
ROW 22 : ... .. . ... : A-2 21 . ... ... : ... .. . ... : ... .. . ... : ... .. . ...
ROW 23 : ... .. . ... : --- .. . ... ... : ... .. . ... : ... .. . ... : ... .. . ...
ROW 24 : ... .. . ... : A-2 21 . ... ... : B-2 20 . ... : ... .. . ... : ... .. . ...
ROW 25 : ... .. . ... : ... .. . ... ... : ... .. . ... : ... .. . ... : ... .. . ...
ROW 26 : ... .. . ... : ... .. . ... ... : --- .. . ... : ... .. . ... : ... .. . ...
ROW 27 : ... .. . ... : ... .. . ... ... : ... .. . ... : ... .. . ... : ... .. . ...
ROW 28 : ... .. . ... : B-2 21 . ... ... : B-1 00 . ... : ... .. . ... : ... .. . ...
ROW 29 : ... .. . ... : --- .. . ... ... : ... .. . ... : ... .. . ... : ... .. . ...
ROW 2A : ... .. . ... : B-2 21 . ... ... : B-2 20 . ... : ... .. . ... : ... .. . ...
ROW 2B : ... .. . ... : --- .. . ... ... : ... .. . ... : ... .. . ... : ... .. . ...
ROW 2C : C#3 0D 9 ... : B-2 21 . ... ... : --- .. . ... : ... .. . ... : ... .. . ...
ROW 2D : ... .. . ... : ... .. . ... ... : ... .. . ... : ... .. . ... : ... .. . ...
ROW 2E : ... .. 6 ... : ... .. . ... ... : B-1 20 . ... : ... .. . ... : ... .. . ...
ROW 2F : ... .. . ... : ... .. . ... ... : ... .. . ... : ... .. . ... : ... .. . ...
ROW 30 : E-3 0D 9 ... : C#3 21 . ... ... : B-2 00 . ... : ... .. . ... : ... .. . ...
ROW 31 : ... .. . ... : --- 21 . ... ... : ... .. . ... : ... .. . ... : ... .. . ...
ROW 32 : ... .. 6 ... : C#3 21 . ... ... : --- .. . ... : ... .. . ... : ... .. . ...
ROW 33 : ... .. . ... : --- .. . ... ... : ... .. . ... : ... .. . ... : ... .. . ...
ROW 34 : C#3 0D 9 ... : C#3 21 . ... ... : G#2 20 . ... : ... .. . ... : ... .. . ...
ROW 35 : ... .. . ... : --- .. . ... ... : ... .. . ... : ... .. . ... : ... .. . ...
ROW 36 : ... .. 6 ... : C#3 21 . ... ... : B-2 20 . ... : ... .. . ... : ... .. . ...
ROW 37 : ... .. . ... : --- .. . ... ... : ... .. . ... : ... .. . ... : ... .. . ...
ROW 38 : A-3 0D 9 ... : E-3 21 . ... ... : B-2 00 . ... : ... .. . ... : ... .. . ...
ROW 39 : ... .. . ... : --- .. . ... ... : ... .. . ... : ... .. . ... : ... .. . ...
ROW 3A : C#4 0D . ... : E-3 21 . ... ... : ... .. . ... : ... .. . ... : ... .. . ...
ROW 3B : ... .. . ... : --- .. . ... ... : ... .. . ... : ... .. . ... : ... .. . ...
ROW 3C : B-3 0D . ... : F#3 21 . ... ... : C#3 20 . ... : ... .. . ... : ... .. . ...
ROW 3D : ... .. . ... : --- .. . ... ... : ... .. . ... : ... .. . ... : ... .. . ...
ROW 3E : G#3 0D . ... : F#3 21 . ... ... : --- .. . ... : ... .. . ... : ... .. . ...
ROW 3F : ... .. . ... : --- .. . ... ... : ... .. . ... : ... .. . ... : ... .. . ...

PATTERN 08
ROW 00 : C#4 0D . ... : ... .. . ... ... : ... .. . ... : ... .. . ... : ... .. . ...
ROW 01 : ... .. . ... : C#1 0E F ... ... : ... .. . ... : ... .. . ... : ... .. . ...
ROW 02 : ... .. . ... : ... .. . ... ... : ... .. . ... : ... .. . ... : ... .. . ...
ROW 03 : ... .. . ... : ... .. . ... ... : ... .. . ... : ... .. . ... : ... .. . ...
ROW 04 : ... .. . ... : ... .. . ... ... : ... .. . ... : ... .. . ... : ... .. . ...
ROW 05 : ... .. . ... : C#2 0E . ... ... : ... .. . ... : ... .. . ... : ... .. . ...
ROW 06 : ... .. . ... : ... .. . ... ... : ... .. . ... : ... .. . ... : ... .. . ...
ROW 07 : ... .. . ... : ... .. 6 ... ... : ... .. . ... : ... .. . ... : ... .. . ...
ROW 08 : ... .. 6 ... : ... .. . ... ... : ... .. . ... : ... .. . ... : ... .. . ...
ROW 09 : ... .. . ... : C#1 0E F ... ... : ... .. . ... : ... .. . ... : ... .. . ...
ROW 0A : ... .. . ... : ... .. . ... ... : ... .. . ... : ... .. . ... : ... .. . ...
ROW 0B : ... .. . ... : C#2 0E . ... ... : ... .. . ... : ... .. . ... : ... .. . ...
ROW 0C : ... .. . ... : ... .. . ... ... : ... .. . ... : ... .. . ... : ... .. . ...
ROW 0D : ... .. . ... : ... .. 6 ... ... : ... .. . ... : ... .. . ... : ... .. . ...
ROW 0E : ... .. . ... : ... .. . ... ... : ... .. . ... : ... .. . ... : ... .. . ...
ROW 0F : ... .. . ... : C#1 0E F ... ... : ... .. . ... : ... .. . ... : ... .. . ...
ROW 10 : --- .. . ... : ... .. . ... ... : ... .. . ... : ... .. . ... : ... .. . ...
ROW 11 : C#1 0E 6 400 : C#2 0E . ... ... : ... .. . ... : ... .. . ... : ... .. . ...
ROW 12 : ... .. . ... : ... .. . ... ... : ... .. . ... : ... .. . ... : ... .. . ...
ROW 13 : C#2 0E . ... : ... .. 6 ... ... : ... .. . ... : ... .. . ... : ... .. . ...
ROW 14 : ... .. . ... : ... .. . ... ... : ... .. . ... : ... .. . ... : ... .. . ...
ROW 15 : --- .. . ... : C#1 0E F ... ... : ... .. . ... : ... .. . ... : ... .. . ...
ROW 16 : ... .. . ... : ... .. . ... ... : ... .. . ... : ... .. . ... : ... .. . ...
ROW 17 : C#1 0E . ... : C#2 0E . ... ... : ... .. . ... : ... .. . ... : ... .. . ...
ROW 18 : ... .. . ... : ... .. . ... ... : ... .. . ... : ... .. . ... : ... .. . ...
ROW 19 : C#2 0E . ... : C#1 0E . ... ... : ... .. . ... : ... .. . ... : ... .. . ...
ROW 1A : ... .. . ... : ... .. . ... ... : ... .. . ... : ... .. . ... : ... .. . ...
ROW 1B : C#1 0E . ... : ... .. . ... ... : ... .. . ... : ... .. . ... : ... .. . ...
ROW 1C : ... .. . ... : ... .. . ... ... : ... .. . ... : ... .. . ... : ... .. . ...
ROW 1D : ... .. . ... : C#2 0E . ... ... : ... .. . ... : ... .. . ... : ... .. . ...
ROW 1E : ... .. . ... : ... .. . ... ... : ... .. . ... : ... .. . ... : ... .. . ...
ROW 1F : C#2 0E . ... : ... .. 6 ... ... : ... .. . ... : ... .. . ... : ... .. . ...
ROW 20 : ... .. . ... : ... .. . ... ... : ... .. . ... : ... .. . ... : ... .. . ...
ROW 21 : --- .. . ... : C#1 0E F ... ... : ... .. . ... : ... .. . ... : ... .. . ...
ROW 22 : ... .. . ... : ... .. . ... ... : ... .. . ... : ... .. . ... : ... .. . ...
ROW 23 : C#1 0E . ... : ... .. . ... ... : ... .. . ... : ... .. . ... : ... .. . ...
ROW 24 : ... .. . ... : ... .. . ... ... : ... .. . ... : ... .. . ... : ... .. . ...
ROW 25 : ... .. . ... : C#2 0E . ... ... : ... .. . ... : ... .. . ... : ... .. . ...
ROW 26 : ... .. . ... : ... .. . ... ... : ... .. . ... : ... .. . ... : ... .. . ...
ROW 27 : C#2 0E . ... : ... .. 6 ... ... : ... .. . ... : ... .. . ... : ... .. . ...
ROW 28 : ... .. . ... : ... .. . ... ... : ... .. . ... : ... .. . ... : ... .. . ...
ROW 29 : --- .. . ... : C#1 0E F ... ... : ... .. . ... : ... .. . ... : ... .. . ...
ROW 2A : ... .. . ... : ... .. . ... ... : ... .. . ... : ... .. . ... : ... .. . ...
ROW 2B : C#1 0E . ... : C#2 0E . ... ... : ... .. . ... : ... .. . ... : ... .. . ...
ROW 2C : ... .. . ... : ... .. . ... ... : ... .. . ... : ... .. . ... : ... .. . ...
ROW 2D : C#2 0E . ... : ... .. 6 ... ... : ... .. . ... : ... .. . ... : ... .. . ...
ROW 2E : ... .. . ... : ... .. . ... ... : ... .. . ... : ... .. . ... : ... .. . ...
ROW 2F : --- .. . ... : C#1 0E F ... ... : ... .. . ... : ... .. . ... : ... .. . ...
ROW 30 : ... .. . ... : C#2 0D 6 ... ... : ... .. . ... : ... .. . ... : ... .. . ...
ROW 31 : C#1 0E . ... : ... .. . ... ... : ... .. . ... : ... .. . ... : ... .. . ...
ROW 32 : ... .. . ... : ... .. . ... ... : ... .. . ... : ... .. . ... : ... .. . ...
ROW 33 : C#2 0E . ... : ... .. . ... ... : ... .. . ... : ... .. . ... : ... .. . ...
ROW 34 : ... .. . ... : C#2 0D 9 ... ... : ... .. . ... : ... .. . ... : ... .. . ...
ROW 35 : --- .. . ... : ... .. . ... ... : ... .. . ... : ... .. . ... : ... .. . ...
ROW 36 : ... .. . ... : ... .. . ... ... : ... .. . ... : ... .. . ... : ... .. . ...
ROW 37 : C#1 0E . ... : ... .. . ... ... : ... .. . ... : ... .. . ... : ... .. . ...
ROW 38 : ... .. . ... : C#2 0D C ... ... : ... .. . ... : ... .. . ... : ... .. . ...
ROW 39 : C#2 0E . ... : ... .. . ... ... : ... .. . ... : ... .. . ... : ... .. . ...
ROW 3A : ... .. . ... : ... .. . ... ... : ... .. . ... : ... .. . ... : ... .. . ...
ROW 3B : C#1 0E . ... : ... .. . ... ... : ... .. . ... : ... .. . ... : ... .. . ...
ROW 3C : ... .. . ... : C#2 0D F ... ... : ... .. . ... : ... .. . ... : ... .. . ...
ROW 3D : ... .. . ... : ... .. . ... ... : ... .. . ... : ... .. . ... : ... .. . ...
ROW 3E : ... .. . ... : ... .. 6 ... ... : ... .. . ... : ... .. . ... : ... .. . ...
ROW 3F : B-1 0E . B01 : ... .. . ... ... : ... .. . ... : ... .. . ... : ... .. . ...

TRACK  64   5 150 "Final Boss"
COLUMNS : 1 1 1 1 1

ORDER 00 : 02 02 02 02 00
ORDER 01 : 00 00 00 00 00
ORDER 02 : 01 01 01 01 00
ORDER 03 : 00 00 00 00 00
ORDER 04 : 01 01 01 01 00
ORDER 05 : 03 03 03 00 00
ORDER 06 : 03 03 04 03 00

PATTERN 00
ROW 00 : A#3 2A F 451 : A#2 29 C ... : A#2 00 . 451 : A-# 19 . J10 : ... .. . ...
ROW 01 : ... .. . ... : C-3 29 6 ... : ... .. . ... : ... .. . ... : ... .. . ...
ROW 02 : ... .. . ... : A#3 29 C ... : G#2 00 . ... : ... .. . ... : ... .. . ...
ROW 03 : ... .. . ... : A#2 29 6 ... : --- .. . ... : ... .. . ... : ... .. . ...
ROW 04 : ... .. . ... : F-3 29 C ... : A#2 00 . ... : 1-# 2C . J15 : ... .. . ...
ROW 05 : ... .. . ... : A#3 29 6 ... : ... .. . ... : ... .. . ... : ... .. . ...
ROW 06 : A#3 2A . ... : A#2 29 C ... : ... .. . ... : E-# 2D . ... : ... .. . ...
ROW 07 : ... .. . ... : F-3 29 6 ... : --- .. . ... : ... .. . ... : ... .. . ...
ROW 08 : ... .. . ... : D#3 29 C ... : ... .. . ... : E-# 2D . ... : ... .. . ...
ROW 09 : ... .. . ... : A#2 29 6 ... : ... .. . ... : ... .. . ... : ... .. . ...
ROW 0A : ... .. . ... : A#2 29 C ... : A#2 00 . ... : 0-# 2B . J10 : ... .. . ...
ROW 0B : ... .. . ... : D#3 29 6 ... : --- 00 . ... : ... .. . ... : ... .. . ...
ROW 0C : A#3 2A . ... : F-3 29 C ... : A#2 00 . ... : 1-# 2C . J15 : ... .. . ...
ROW 0D : ... .. . ... : A#2 29 6 ... : ... .. . ... : ... .. . ... : ... .. . ...
ROW 0E : ... .. . ... : D#3 29 C ... : A#3 00 . ... : E-# 2D . ... : ... .. . ...
ROW 0F : ... .. . ... : F-3 29 6 ... : --- .. . ... : ... .. . ... : ... .. . ...
ROW 10 : A#3 2A . ... : A#2 29 C ... : A#2 00 . ... : 0-# 2B . J10 : ... .. . ...
ROW 11 : ... .. . ... : D#3 29 6 ... : --- .. . ... : ... .. . ... : ... .. . ...
ROW 12 : A#3 2A . ... : A#3 29 C ... : G#2 10 . ... : 0-# 2B . J10 : ... .. . ...
ROW 13 : ... .. . ... : A#2 29 6 ... : ... .. . ... : ... .. . ... : ... .. . ...
ROW 14 : ... .. . ... : F-3 29 C ... : A#2 00 . ... : 1-# 2C . J15 : ... .. . ...
ROW 15 : ... .. . ... : A#3 29 6 ... : ... .. . ... : ... .. . ... : ... .. . ...
ROW 16 : A#3 2A . ... : A#2 29 C ... : --- 10 . ... : 0-# 2B . J10 : ... .. . ...
ROW 17 : ... .. . ... : F-3 29 6 ... : ... .. . ... : ... .. . ... : ... .. . ...
ROW 18 : C#4 2A . ... : D#3 29 C ... : C#3 00 . ... : 0-# 2B . J10 : ... .. . ...
ROW 19 : ... .. . ... : A#2 29 6 ... : ... .. . ... : ... .. . ... : ... .. . ...
ROW 1A : ... .. . ... : F-3 29 C ... : A#2 00 . ... : E-# 2D . ... : ... .. . ...
ROW 1B : ... .. . ... : D#3 29 6 ... : --- 00 . ... : ... .. . ... : ... .. . ...
ROW 1C : D#4 2A . ... : D#3 29 C ... : A#2 00 . ... : 1-# 2C . J15 : ... .. . ...
ROW 1D : ... .. . ... : F-3 29 6 ... : ... .. . ... : ... .. . ... : ... .. . ...
ROW 1E : ... .. . ... : C-3 29 C ... : D#4 00 . ... : E-# 2D . ... : ... .. . ...
ROW 1F : ... .. . ... : D#3 29 6 ... : --- .. . ... : ... .. . ... : ... .. . ...
ROW 20 : A#3 2A . ... : A#2 29 C ... : A#2 00 . ... : 0-# 2B . J10 : ... .. . ...
ROW 21 : ... .. . ... : C-3 29 6 ... : --- .. . ... : ... .. . ... : ... .. . ...
ROW 22 : ... .. . ... : A#3 29 C ... : ... .. . ... : E-# 2D . ... : ... .. . ...
ROW 23 : ... .. . ... : A#2 29 6 ... : ... .. . ... : ... .. . ... : ... .. . ...
ROW 24 : ... .. . ... : F-3 29 C ... : A#2 00 . ... : 1-# 2C . J15 : ... .. . ...
ROW 25 : ... .. . ... : A#3 29 6 ... : ... .. . ... : ... .. . ... : ... .. . ...
ROW 26 : A#3 2A . ... : A#2 29 C ... : --- .. . ... : E-# 2D . ... : ... .. . ...
ROW 27 : ... .. . ... : F-3 29 6 ... : ... .. . ... : ... .. . ... : ... .. . ...
ROW 28 : ... .. . ... : D#3 29 C ... : ... .. . ... : E-# 2D . ... : ... .. . ...
ROW 29 : ... .. . ... : A#2 29 6 ... : ... .. . ... : ... .. . ... : ... .. . ...
ROW 2A : ... .. . ... : A#2 29 C ... : A#2 00 . ... : 0-# 2B . J10 : ... .. . ...
ROW 2B : ... .. . ... : D#3 29 6 ... : --- 00 . ... : ... .. . ... : ... .. . ...
ROW 2C : A#3 2A . ... : F-3 29 C ... : A#2 00 . ... : 1-# 2C . J15 : ... .. . ...
ROW 2D : ... .. . ... : A#2 29 6 ... : ... .. . ... : ... .. . ... : ... .. . ...
ROW 2E : ... .. . ... : D#3 29 C ... : G#3 00 . ... : E-# 2D . ... : ... .. . ...
ROW 2F : ... .. . ... : F-3 29 6 ... : --- .. . ... : ... .. . ... : ... .. . ...
ROW 30 : A#3 2A . ... : A#2 29 C ... : A#2 00 . ... : 0-# 2B . J10 : ... .. . ...
ROW 31 : ... .. . ... : D#3 29 6 ... : --- .. . ... : ... .. . ... : ... .. . ...
ROW 32 : A#3 2A . ... : A#3 29 C ... : A#1 00 . ... : 0-# 2B . J10 : ... .. . ...
ROW 33 : ... .. . ... : A#2 29 6 ... : ... .. . ... : ... .. . ... : ... .. . ...
ROW 34 : ... .. . ... : F-3 29 C ... : A#2 00 . ... : 1-# 2C . J15 : ... .. . ...
ROW 35 : ... .. . ... : A#3 29 6 ... : ... .. . ... : ... .. . ... : ... .. . ...
ROW 36 : A#3 2A . ... : A#2 29 C ... : G#2 00 . ... : 0-# 2B . J10 : ... .. . ...
ROW 37 : ... .. . ... : F-3 29 6 ... : ... .. . ... : ... .. . ... : ... .. . ...
ROW 38 : G#3 2A . ... : D#3 29 C ... : F-2 00 . ... : 0-# 2B . J10 : ... .. . ...
ROW 39 : ... .. . ... : A#2 29 6 ... : ... .. . ... : ... .. . ... : ... .. . ...
ROW 3A : ... .. . ... : F-3 29 C ... : A#1 00 . ... : E-# 2D . ... : ... .. . ...
ROW 3B : ... .. . ... : D#3 29 6 ... : ... .. . ... : ... .. . ... : ... .. . ...
ROW 3C : F-3 2A . ... : C#3 29 C ... : G#2 00 . ... : 1-# 2C . J15 : ... .. . ...
ROW 3D : ... .. . ... : F-3 29 6 ... : ... .. . ... : ... .. . ... : ... .. . ...
ROW 3E : ... .. . ... : C-3 29 C ... : ... .. . ... : E-# 2D . ... : ... .. . ...
ROW 3F : ... .. . ... : C#3 29 6 ... : A#1 00 . ... : ... .. . ... : ... .. . ...

PATTERN 01
ROW 00 : A#3 2A . ... : A#2 29 C ... : A#2 00 . ... : A-# 19 . J10 : ... .. . ...
ROW 01 : ... .. . ... : C-3 29 6 ... : ... .. . ... : ... .. . ... : ... .. . ...
ROW 02 : ... .. . ... : A#3 29 C ... : G#2 00 . ... : ... .. . ... : ... .. . ...
ROW 03 : ... .. . ... : A#2 29 6 ... : --- .. . ... : ... .. . ... : ... .. . ...
ROW 04 : ... .. . ... : F-3 29 C ... : A#2 00 . ... : 1-# 2C . J15 : ... .. . ...
ROW 05 : ... .. . ... : A#3 29 6 ... : ... .. . ... : ... .. . ... : ... .. . ...
ROW 06 : A#3 2A . ... : A#2 29 C ... : ... .. . ... : E-# 2D . ... : ... .. . ...
ROW 07 : ... .. . ... : F-3 29 6 ... : --- .. . ... : ... .. . ... : ... .. . ...
ROW 08 : ... .. . ... : D#3 29 C ... : ... .. . ... : E-# 2D . ... : ... .. . ...
ROW 09 : ... .. . ... : A#2 29 6 ... : ... .. . ... : ... .. . ... : ... .. . ...
ROW 0A : ... .. . ... : A#2 29 C ... : A#2 00 . ... : 0-# 2B . J10 : ... .. . ...
ROW 0B : ... .. . ... : D#3 29 6 ... : --- 00 . ... : ... .. . ... : ... .. . ...
ROW 0C : A#3 2A . ... : F-3 29 C ... : A#2 00 . ... : 1-# 2C . J15 : ... .. . ...
ROW 0D : ... .. . ... : A#2 29 6 ... : ... .. . ... : ... .. . ... : ... .. . ...
ROW 0E : ... .. . ... : D#3 29 C ... : A#3 00 . ... : E-# 2D . ... : ... .. . ...
ROW 0F : ... .. . ... : F-3 29 6 ... : --- .. . ... : ... .. . ... : ... .. . ...
ROW 10 : A#3 2A . ... : A#2 29 C ... : A#2 00 . ... : 0-# 2B . J10 : ... .. . ...
ROW 11 : ... .. . ... : D#3 29 6 ... : --- .. . ... : ... .. . ... : ... .. . ...
ROW 12 : A#3 2A . ... : A#3 29 C ... : G#2 00 . ... : 0-# 2B . J10 : ... .. . ...
ROW 13 : ... .. . ... : A#2 29 6 ... : ... .. . ... : ... .. . ... : ... .. . ...
ROW 14 : ... .. . ... : F-3 29 C ... : A#2 00 . ... : 1-# 2C . J15 : ... .. . ...
ROW 15 : ... .. . ... : A#3 29 6 ... : ... .. . ... : ... .. . ... : ... .. . ...
ROW 16 : A#3 2A . ... : A#2 29 C ... : --- 10 . ... : 0-# 2B . J10 : ... .. . ...
ROW 17 : ... .. . ... : F-3 29 6 ... : ... .. . ... : ... .. . ... : ... .. . ...
ROW 18 : C#4 2A . ... : D#3 29 C ... : C#3 00 . ... : 0-# 2B . J10 : ... .. . ...
ROW 19 : ... .. . ... : A#2 29 6 ... : ... .. . ... : ... .. . ... : ... .. . ...
ROW 1A : ... .. . ... : F-3 29 C ... : A#2 00 . ... : E-# 2D . ... : ... .. . ...
ROW 1B : ... .. . ... : D#3 29 6 ... : --- 00 . ... : ... .. . ... : ... .. . ...
ROW 1C : D#4 2A . ... : D#3 29 C ... : A#2 00 . ... : 1-# 2C . J15 : ... .. . ...
ROW 1D : ... .. . ... : F-3 29 6 ... : ... .. . ... : ... .. . ... : ... .. . ...
ROW 1E : ... .. . ... : C-3 29 C ... : D#4 00 . ... : E-# 2D . ... : ... .. . ...
ROW 1F : ... .. . ... : D#3 29 6 ... : --- .. . ... : ... .. . ... : ... .. . ...
ROW 20 : F-4 2A . ... : A#2 29 C ... : F-2 00 . ... : 0-# 2B . J10 : ... .. . ...
ROW 21 : ... .. . ... : C-3 29 6 ... : ... .. . ... : ... .. . ... : ... .. . ...
ROW 22 : ... .. . ... : A#3 29 C ... : ... .. . ... : E-# 2D . ... : ... .. . ...
ROW 23 : ... .. . ... : A#2 29 6 ... : --- .. . ... : ... .. . ... : ... .. . ...
ROW 24 : ... .. . ... : F-3 29 C ... : F-3 00 . ... : 1-# 2C . J15 : ... .. . ...
ROW 25 : ... .. . ... : A#3 29 6 ... : ... .. . ... : ... .. . ... : ... .. . ...
ROW 26 : D#4 2A . ... : A#2 29 C ... : F-2 00 . ... : E-# 2D . ... : ... .. . ...
ROW 27 : ... .. . ... : F-3 29 6 ... : ... .. . ... : ... .. . ... : ... .. . ...
ROW 28 : ... .. . ... : D#3 29 C ... : --- .. . ... : E-# 2D . ... : ... .. . ...
ROW 29 : ... .. . ... : A#2 29 6 ... : ... .. . ... : ... .. . ... : ... .. . ...
ROW 2A : ... .. . ... : A#2 29 C ... : F-3 00 . ... : 0-# 2B . J10 : ... .. . ...
ROW 2B : ... .. . ... : D#3 29 6 ... : --- 00 . ... : ... .. . ... : ... .. . ...
ROW 2C : C#4 2A . ... : F-3 29 C ... : F-2 00 . ... : 1-# 2C . J15 : ... .. . ...
ROW 2D : ... .. . ... : A#2 29 6 ... : ... .. . ... : ... .. . ... : ... .. . ...
ROW 2E : ... .. . ... : D#3 29 C ... : G#2 00 . ... : E-# 2D . ... : ... .. . ...
ROW 2F : ... .. . ... : F-3 29 6 ... : ... .. . ... : ... .. . ... : ... .. . ...
ROW 30 : C-4 2A . ... : F-3 29 C ... : G#2 00 . ... : 0-# 2B . J10 : ... .. . ...
ROW 31 : ... .. . ... : D#3 29 6 ... : --- .. . ... : ... .. . ... : ... .. . ...
ROW 32 : C#4 2A . ... : D#3 29 C ... : G#2 00 . ... : 0-# 2B . J10 : ... .. . ...
ROW 33 : ... .. . ... : F-3 29 6 ... : ... .. . ... : ... .. . ... : ... .. . ...
ROW 34 : ... .. . ... : C#3 29 C ... : G#3 00 . ... : 1-# 2C . J15 : ... .. . ...
ROW 35 : ... .. . ... : D#3 29 6 ... : ... .. . ... : ... .. . ... : ... .. . ...
ROW 36 : C#4 2A . ... : D#3 29 C ... : G#2 00 . ... : 0-# 2B . J10 : ... .. . ...
ROW 37 : ... .. . ... : C#3 29 6 ... : ... .. . ... : ... .. . ... : ... .. . ...
ROW 38 : D#4 2A . ... : C#3 29 C ... : A#2 00 . ... : 0-# 2B . J10 : ... .. . ...
ROW 39 : ... .. . ... : D#3 29 6 ... : --- .. . ... : ... .. . ... : ... .. . ...
ROW 3A : ... .. . ... : C-3 29 C ... : A#2 00 . ... : E-# 2D . ... : ... .. . ...
ROW 3B : ... .. . ... : C#3 29 6 ... : ... .. . ... : ... .. . ... : ... .. . ...
ROW 3C : C#4 2A . ... : C#3 29 C ... : F-2 00 . ... : 1-# 2C . J15 : ... .. . ...
ROW 3D : ... .. . ... : C-3 29 6 ... : ... .. . ... : ... .. . ... : ... .. . ...
ROW 3E : C-4 2A . ... : C-3 29 C ... : G#2 00 . ... : 1-# 16 . J15 : ... .. . ...
ROW 3F : ... .. . ... : C#3 29 6 ... : G#2 00 . ... : 1-# 16 . J15 : ... .. . ...

PATTERN 02
ROW 00 : A#1 27 F ... : F-2 29 9 ... : A#2 00 . ... : E-# 2D . ... : ... .. . ...
ROW 01 : ... .. . ... : F-2 29 6 ... : ... .. . ... : ... .. . ... : ... .. . ...
ROW 02 : ... .. . ... : D#2 29 9 ... : ... .. . ... : E-# 2D . ... : ... .. . ...
ROW 03 : ... .. . ... : F-2 29 6 ... : --- .. . ... : ... .. . ... : ... .. . ...
ROW 04 : F-2 27 . ... : F-2 29 C ... : F-2 00 . ... : E-# 2D . ... : ... .. . ...
ROW 05 : ... .. . ... : D#2 29 6 ... : ... .. . ... : ... .. . ... : ... .. . ...
ROW 06 : ... .. . ... : G#2 29 C ... : ... .. . ... : E-# 2D . ... : ... .. . ...
ROW 07 : ... .. . ... : F-2 29 6 ... : --- .. . ... : ... .. . ... : ... .. . ...
ROW 08 : G#2 27 . ... : A#2 29 C ... : G#2 00 . ... : D-# 14 . ... : ... .. . ...
ROW 09 : ... .. . ... : G#2 29 6 ... : ... .. . ... : ... .. . ... : ... .. . ...
ROW 0A : ... .. . ... : F-2 29 C ... : ... .. . ... : D-# 14 . ... : ... .. . ...
ROW 0B : ... .. . ... : A#2 29 6 ... : --- .. . ... : ... .. . ... : ... .. . ...
ROW 0C : C#3 27 . ... : G#2 29 F ... : C#3 00 . ... : A-# 19 . ... : ... .. . ...
ROW 0D : ... .. . ... : F-2 29 9 ... : ... .. . ... : ... .. . ... : ... .. . ...
ROW 0E : ... .. . ... : C#3 29 F ... : ... .. . ... : A-# 19 . ... : ... .. . ...
ROW 0F : ... .. . ... : G#2 29 9 D00 : --- .. . ... : ... .. . ... : ... .. . ...
ROW 10 : ... .. . ... : ... .. . ... : ... .. . ... : ... .. . ... : ... .. . ...
ROW 11 : ... .. . ... : ... .. . ... : ... .. . ... : ... .. . ... : ... .. . ...
ROW 12 : ... .. . ... : ... .. . ... : ... .. . ... : ... .. . ... : ... .. . ...
ROW 13 : ... .. . ... : ... .. . ... : ... .. . ... : ... .. . ... : ... .. . ...
ROW 14 : ... .. . ... : ... .. . ... : ... .. . ... : ... .. . ... : ... .. . ...
ROW 15 : ... .. . ... : ... .. . ... : ... .. . ... : ... .. . ... : ... .. . ...
ROW 16 : ... .. . ... : ... .. . ... : ... .. . ... : ... .. . ... : ... .. . ...
ROW 17 : ... .. . ... : ... .. . ... : ... .. . ... : ... .. . ... : ... .. . ...
ROW 18 : ... .. . ... : ... .. . ... : ... .. . ... : ... .. . ... : ... .. . ...
ROW 19 : ... .. . ... : ... .. . ... : ... .. . ... : ... .. . ... : ... .. . ...
ROW 1A : ... .. . ... : ... .. . ... : ... .. . ... : ... .. . ... : ... .. . ...
ROW 1B : ... .. . ... : ... .. . ... : ... .. . ... : ... .. . ... : ... .. . ...
ROW 1C : ... .. . ... : ... .. . ... : ... .. . ... : ... .. . ... : ... .. . ...
ROW 1D : ... .. . ... : ... .. . ... : ... .. . ... : ... .. . ... : ... .. . ...
ROW 1E : ... .. . ... : ... .. . ... : ... .. . ... : ... .. . ... : ... .. . ...
ROW 1F : ... .. . ... : ... .. . ... : ... .. . ... : ... .. . ... : ... .. . ...
ROW 20 : ... .. . ... : ... .. . ... : ... .. . ... : ... .. . ... : ... .. . ...
ROW 21 : ... .. . ... : ... .. . ... : ... .. . ... : ... .. . ... : ... .. . ...
ROW 22 : ... .. . ... : ... .. . ... : ... .. . ... : ... .. . ... : ... .. . ...
ROW 23 : ... .. . ... : ... .. . ... : ... .. . ... : ... .. . ... : ... .. . ...
ROW 24 : ... .. . ... : ... .. . ... : ... .. . ... : ... .. . ... : ... .. . ...
ROW 25 : ... .. . ... : ... .. . ... : ... .. . ... : ... .. . ... : ... .. . ...
ROW 26 : ... .. . ... : ... .. . ... : ... .. . ... : ... .. . ... : ... .. . ...
ROW 27 : ... .. . ... : ... .. . ... : ... .. . ... : ... .. . ... : ... .. . ...
ROW 28 : ... .. . ... : ... .. . ... : ... .. . ... : ... .. . ... : ... .. . ...
ROW 29 : ... .. . ... : ... .. . ... : ... .. . ... : ... .. . ... : ... .. . ...
ROW 2A : ... .. . ... : ... .. . ... : ... .. . ... : ... .. . ... : ... .. . ...
ROW 2B : ... .. . ... : ... .. . ... : ... .. . ... : ... .. . ... : ... .. . ...
ROW 2C : ... .. . ... : ... .. . ... : ... .. . ... : ... .. . ... : ... .. . ...
ROW 2D : ... .. . ... : ... .. . ... : ... .. . ... : ... .. . ... : ... .. . ...
ROW 2E : ... .. . ... : ... .. . ... : ... .. . ... : ... .. . ... : ... .. . ...
ROW 2F : ... .. . ... : ... .. . ... : ... .. . ... : ... .. . ... : ... .. . ...
ROW 30 : ... .. . ... : ... .. . ... : ... .. . ... : ... .. . ... : ... .. . ...
ROW 31 : ... .. . ... : ... .. . ... : ... .. . ... : ... .. . ... : ... .. . ...
ROW 32 : ... .. . ... : ... .. . ... : ... .. . ... : ... .. . ... : ... .. . ...
ROW 33 : ... .. . ... : ... .. . ... : ... .. . ... : ... .. . ... : ... .. . ...
ROW 34 : ... .. . ... : ... .. . ... : ... .. . ... : ... .. . ... : ... .. . ...
ROW 35 : ... .. . ... : ... .. . ... : ... .. . ... : ... .. . ... : ... .. . ...
ROW 36 : ... .. . ... : ... .. . ... : ... .. . ... : ... .. . ... : ... .. . ...
ROW 37 : ... .. . ... : ... .. . ... : ... .. . ... : ... .. . ... : ... .. . ...
ROW 38 : ... .. . ... : ... .. . ... : ... .. . ... : ... .. . ... : ... .. . ...
ROW 39 : ... .. . ... : ... .. . ... : ... .. . ... : ... .. . ... : ... .. . ...
ROW 3A : ... .. . ... : ... .. . ... : ... .. . ... : ... .. . ... : ... .. . ...
ROW 3B : ... .. . ... : ... .. . ... : ... .. . ... : ... .. . ... : ... .. . ...
ROW 3C : ... .. . ... : ... .. . ... : ... .. . ... : ... .. . ... : ... .. . ...
ROW 3D : ... .. . ... : ... .. . ... : ... .. . ... : ... .. . ... : ... .. . ...
ROW 3E : ... .. . ... : ... .. . ... : ... .. . ... : ... .. . ... : ... .. . ...
ROW 3F : ... .. . ... : ... .. . ... : ... .. . ... : ... .. . ... : ... .. . ...

PATTERN 03
ROW 00 : C#4 2A F 400 : D#3 29 C ... : C#3 00 . ... : A-# 19 . J10 : ... .. . ...
ROW 01 : ... .. . ... : C-3 29 6 ... : ... .. . ... : ... .. . ... : ... .. . ...
ROW 02 : ... .. . ... : C#3 29 C ... : C-3 00 . ... : ... .. . ... : ... .. . ...
ROW 03 : ... .. . ... : D#3 29 6 ... : --- .. . ... : ... .. . ... : ... .. . ...
ROW 04 : ... .. . ... : C-3 29 C ... : C#3 00 . ... : 1-# 2C . J15 : ... .. . ...
ROW 05 : ... .. . ... : C#3 29 6 ... : ... .. . ... : ... .. . ... : ... .. . ...
ROW 06 : C#4 2A . ... : C#3 29 C ... : ... .. . ... : E-# 2D . ... : ... .. . ...
ROW 07 : ... .. . ... : C-3 29 6 ... : --- .. . ... : ... .. . ... : ... .. . ...
ROW 08 : ... .. . ... : C#3 29 C ... : ... .. . ... : E-# 2D . ... : ... .. . ...
ROW 09 : ... .. . ... : C#3 29 6 ... : ... .. . ... : ... .. . ... : ... .. . ...
ROW 0A : ... .. . ... : C-3 29 C ... : C#3 00 . ... : 0-# 2B . J10 : ... .. . ...
ROW 0B : ... .. . ... : C#3 29 6 ... : --- 00 . ... : ... .. . ... : ... .. . ...
ROW 0C : C#4 2A . ... : D#3 29 C ... : C#3 00 . ... : 1-# 2C . J15 : ... .. . ...
ROW 0D : ... .. . ... : C-3 29 6 ... : ... .. . ... : ... .. . ... : ... .. . ...
ROW 0E : ... .. . ... : C#3 29 C ... : C#4 00 . ... : E-# 2D . ... : ... .. . ...
ROW 0F : ... .. . ... : D#3 29 6 ... : --- .. . ... : ... .. . ... : ... .. . ...
ROW 10 : C-4 2A . ... : D#3 29 C ... : C#3 00 . ... : 0-# 2B . J10 : ... .. . ...
ROW 11 : ... .. . ... : C#3 29 6 ... : --- .. . ... : ... .. . ... : ... .. . ...
ROW 12 : C#4 2A . ... : C#3 29 C ... : C-3 00 . ... : 0-# 2B . J10 : ... .. . ...
ROW 13 : ... .. . ... : D#3 29 6 ... : ... .. . ... : ... .. . ... : ... .. . ...
ROW 14 : ... .. . ... : C-3 29 C ... : C#3 00 . ... : 1-# 2C . J15 : ... .. . ...
ROW 15 : ... .. . ... : C#3 29 6 ... : ... .. . ... : ... .. . ... : ... .. . ...
ROW 16 : C#4 2A . ... : C#3 29 C ... : --- 10 . ... : 0-# 2B . J10 : ... .. . ...
ROW 17 : ... .. . ... : C-3 29 6 ... : ... .. . ... : ... .. . ... : ... .. . ...
ROW 18 : D#4 2A . ... : C#3 29 C ... : D#3 00 . ... : 0-# 2B . J10 : ... .. . ...
ROW 19 : ... .. . ... : C#3 29 6 ... : ... .. . ... : ... .. . ... : ... .. . ...
ROW 1A : ... .. . ... : F-3 29 C ... : C#3 00 . ... : E-# 2D . ... : ... .. . ...
ROW 1B : ... .. . ... : C#3 29 6 ... : --- 00 . ... : ... .. . ... : ... .. . ...
ROW 1C : C#4 2A . ... : D#3 29 C ... : C#3 00 . ... : 1-# 2C . J15 : ... .. . ...
ROW 1D : ... .. . ... : F-3 29 6 ... : ... .. . ... : ... .. . ... : ... .. . ...
ROW 1E : C-4 2A . ... : C#3 29 C ... : C-4 00 . ... : E-# 2D . ... : ... .. . ...
ROW 1F : ... .. . ... : D#3 29 6 ... : --- .. . ... : ... .. . ... : ... .. . ...
ROW 20 : C#4 2A . ... : D#3 29 C ... : C#3 00 . ... : 0-# 2B . J10 : ... .. . ...
ROW 21 : ... .. . ... : C#3 29 6 ... : ... .. . ... : ... .. . ... : ... .. . ...
ROW 22 : ... .. . ... : C#3 29 C ... : C-3 00 . ... : E-# 2D . ... : ... .. . ...
ROW 23 : ... .. . ... : D#3 29 6 ... : --- .. . ... : ... .. . ... : ... .. . ...
ROW 24 : ... .. . ... : C-3 29 C ... : C#3 00 . ... : 1-# 2C . J15 : ... .. . ...
ROW 25 : ... .. . ... : C#3 29 6 ... : ... .. . ... : ... .. . ... : ... .. . ...
ROW 26 : C#4 2A . ... : C#3 29 C ... : ... .. . ... : E-# 2D . ... : ... .. . ...
ROW 27 : ... .. . ... : C-3 29 6 ... : --- .. . ... : ... .. . ... : ... .. . ...
ROW 28 : ... .. . ... : C#3 29 C ... : ... .. . ... : E-# 2D . ... : ... .. . ...
ROW 29 : ... .. . ... : C#3 29 6 ... : ... .. . ... : ... .. . ... : ... .. . ...
ROW 2A : ... .. . ... : C-3 29 C ... : C#3 00 . ... : 0-# 2B . J10 : ... .. . ...
ROW 2B : ... .. . ... : C#3 29 6 ... : --- 00 . ... : ... .. . ... : ... .. . ...
ROW 2C : C#4 2A . ... : F-3 29 C ... : C#3 00 . ... : 1-# 2C . J15 : ... .. . ...
ROW 2D : ... .. . ... : C-3 29 6 ... : ... .. . ... : ... .. . ... : ... .. . ...
ROW 2E : ... .. . ... : D#3 29 C ... : C#4 00 . ... : E-# 2D . ... : ... .. . ...
ROW 2F : ... .. . ... : F-3 29 6 ... : --- .. . ... : ... .. . ... : ... .. . ...
ROW 30 : C-4 2A . ... : F-3 29 C ... : C#3 00 . ... : 0-# 2B . J10 : ... .. . ...
ROW 31 : ... .. . ... : D#3 29 6 ... : --- .. . ... : ... .. . ... : ... .. . ...
ROW 32 : C#4 2A . ... : D#3 29 C ... : C-3 00 . ... : 0-# 2B . J10 : ... .. . ...
ROW 33 : ... .. . ... : F-3 29 6 ... : ... .. . ... : ... .. . ... : ... .. . ...
ROW 34 : ... .. . ... : C#3 29 C ... : C#3 05 . ... : 1-# 2C . J15 : ... .. . ...
ROW 35 : ... .. . ... : D#3 29 6 ... : ... .. . ... : ... .. . ... : ... .. . ...
ROW 36 : C#4 2A . ... : D#3 29 C ... : --- 10 . ... : 0-# 2B . J10 : ... .. . ...
ROW 37 : ... .. . ... : C#3 29 6 ... : ... .. . ... : ... .. . ... : ... .. . ...
ROW 38 : C#5 0D C Q22 : C#3 29 C ... : D#3 00 . ... : 2-# 05 . J04 : ... .. . ...
ROW 39 : ... .. . ... : D#3 29 6 ... : ... .. . ... : ... .. . ... : ... .. . ...
ROW 3A : C#5 0D 6 Q22 : D#3 29 C ... : C#3 00 . ... : 2-# 05 . J04 : ... .. . ...
ROW 3B : ... .. . ... : C#3 29 6 ... : --- 00 . ... : ... .. . ... : ... .. . ...
ROW 3C : C#5 0D C ... : C#3 29 C ... : C#3 00 . ... : 2-# 05 . J01 : ... .. . ...
ROW 3D : C#5 0D 6 ... : D#3 29 6 ... : ... .. . ... : ... .. . ... : ... .. . ...
ROW 3E : C-5 0D C ... : C-3 29 C ... : C-3 00 . ... : 2-# 05 . J01 : ... .. . ...
ROW 3F : C-5 0D 6 ... : C#3 29 6 ... : --- .. . ... : ... .. . B01 : ... .. . ...

PATTERN 04
ROW 00 : ... .. . ... : ... .. . ... : C#3 00 . ... : ... .. . ... : ... .. . ...
ROW 01 : ... .. . ... : ... .. . ... : ... .. . ... : ... .. . ... : ... .. . ...
ROW 02 : ... .. . ... : ... .. . ... : C-3 00 . ... : ... .. . ... : ... .. . ...
ROW 03 : ... .. . ... : ... .. . ... : --- .. . ... : ... .. . ... : ... .. . ...
ROW 04 : ... .. . ... : ... .. . ... : C#3 00 . ... : ... .. . ... : ... .. . ...
ROW 05 : ... .. . ... : ... .. . ... : ... .. . ... : ... .. . ... : ... .. . ...
ROW 06 : ... .. . ... : ... .. . ... : ... .. . ... : ... .. . ... : ... .. . ...
ROW 07 : ... .. . ... : ... .. . ... : --- .. . ... : ... .. . ... : ... .. . ...
ROW 08 : ... .. . ... : ... .. . ... : ... .. . ... : ... .. . ... : ... .. . ...
ROW 09 : ... .. . ... : ... .. . ... : ... .. . ... : ... .. . ... : ... .. . ...
ROW 0A : ... .. . ... : ... .. . ... : C#3 00 . ... : ... .. . ... : ... .. . ...
ROW 0B : ... .. . ... : ... .. . ... : --- 00 . ... : ... .. . ... : ... .. . ...
ROW 0C : ... .. . ... : ... .. . ... : C#3 00 . ... : ... .. . ... : ... .. . ...
ROW 0D : ... .. . ... : ... .. . ... : ... .. . ... : ... .. . ... : ... .. . ...
ROW 0E : ... .. . ... : ... .. . ... : C#4 00 . ... : ... .. . ... : ... .. . ...
ROW 0F : ... .. . ... : ... .. . ... : --- .. . ... : ... .. . ... : ... .. . ...
ROW 10 : ... .. . ... : ... .. . ... : C#3 00 . ... : ... .. . ... : ... .. . ...
ROW 11 : ... .. . ... : ... .. . ... : --- .. . ... : ... .. . ... : ... .. . ...
ROW 12 : ... .. . ... : ... .. . ... : C-3 00 . ... : ... .. . ... : ... .. . ...
ROW 13 : ... .. . ... : ... .. . ... : ... .. . ... : ... .. . ... : ... .. . ...
ROW 14 : ... .. . ... : ... .. . ... : C#3 00 . ... : ... .. . ... : ... .. . ...
ROW 15 : ... .. . ... : ... .. . ... : ... .. . ... : ... .. . ... : ... .. . ...
ROW 16 : ... .. . ... : ... .. . ... : --- 10 . ... : ... .. . ... : ... .. . ...
ROW 17 : ... .. . ... : ... .. . ... : ... .. . ... : ... .. . ... : ... .. . ...
ROW 18 : ... .. . ... : ... .. . ... : D#3 00 . ... : ... .. . ... : ... .. . ...
ROW 19 : ... .. . ... : ... .. . ... : ... .. . ... : ... .. . ... : ... .. . ...
ROW 1A : ... .. . ... : ... .. . ... : C#3 00 . ... : ... .. . ... : ... .. . ...
ROW 1B : ... .. . ... : ... .. . ... : --- 00 . ... : ... .. . ... : ... .. . ...
ROW 1C : ... .. . ... : ... .. . ... : C#3 00 . ... : ... .. . ... : ... .. . ...
ROW 1D : ... .. . ... : ... .. . ... : ... .. . ... : ... .. . ... : ... .. . ...
ROW 1E : ... .. . ... : ... .. . ... : C-4 00 . ... : ... .. . ... : ... .. . ...
ROW 1F : ... .. . ... : ... .. . ... : --- .. . ... : ... .. . ... : ... .. . ...
ROW 20 : ... .. . ... : ... .. . ... : C#3 00 . ... : ... .. . ... : ... .. . ...
ROW 21 : ... .. . ... : ... .. . ... : ... .. . ... : ... .. . ... : ... .. . ...
ROW 22 : ... .. . ... : ... .. . ... : C-3 00 . ... : ... .. . ... : ... .. . ...
ROW 23 : ... .. . ... : ... .. . ... : --- .. . ... : ... .. . ... : ... .. . ...
ROW 24 : ... .. . ... : ... .. . ... : C#3 00 . ... : ... .. . ... : ... .. . ...
ROW 25 : ... .. . ... : ... .. . ... : ... .. . ... : ... .. . ... : ... .. . ...
ROW 26 : ... .. . ... : ... .. . ... : ... .. . ... : ... .. . ... : ... .. . ...
ROW 27 : ... .. . ... : ... .. . ... : --- .. . ... : ... .. . ... : ... .. . ...
ROW 28 : ... .. . ... : ... .. . ... : ... .. . ... : ... .. . ... : ... .. . ...
ROW 29 : ... .. . ... : ... .. . ... : ... .. . ... : ... .. . ... : ... .. . ...
ROW 2A : ... .. . ... : ... .. . ... : C#3 00 . ... : ... .. . ... : ... .. . ...
ROW 2B : ... .. . ... : ... .. . ... : --- 00 . ... : ... .. . ... : ... .. . ...
ROW 2C : ... .. . ... : ... .. . ... : C#3 00 . ... : ... .. . ... : ... .. . ...
ROW 2D : ... .. . ... : ... .. . ... : ... .. . ... : ... .. . ... : ... .. . ...
ROW 2E : ... .. . ... : ... .. . ... : C#4 00 . ... : ... .. . ... : ... .. . ...
ROW 2F : ... .. . ... : ... .. . ... : --- .. . ... : ... .. . ... : ... .. . ...
ROW 30 : ... .. . ... : ... .. . ... : C#3 00 . ... : ... .. . ... : ... .. . ...
ROW 31 : ... .. . ... : ... .. . ... : --- .. . ... : ... .. . ... : ... .. . ...
ROW 32 : ... .. . ... : ... .. . ... : C-3 00 . ... : ... .. . ... : ... .. . ...
ROW 33 : ... .. . ... : ... .. . ... : ... .. . ... : ... .. . ... : ... .. . ...
ROW 34 : ... .. . ... : ... .. . ... : C#3 05 . ... : ... .. . ... : ... .. . ...
ROW 35 : ... .. . ... : ... .. . ... : ... .. . ... : ... .. . ... : ... .. . ...
ROW 36 : ... .. . ... : ... .. . ... : --- 00 . ... : ... .. . ... : ... .. . ...
ROW 37 : ... .. . ... : ... .. . ... : ... .. . ... : ... .. . ... : ... .. . ...
ROW 38 : ... .. . ... : ... .. . ... : ... .. . ... : ... .. . ... : ... .. . ...
ROW 39 : ... .. . ... : ... .. . ... : ... .. . ... : ... .. . ... : ... .. . ...
ROW 3A : ... .. . ... : ... .. . ... : ... .. . ... : ... .. . ... : ... .. . ...
ROW 3B : ... .. . ... : ... .. . ... : ... .. . ... : ... .. . ... : ... .. . ...
ROW 3C : ... .. . ... : ... .. . ... : ... .. . ... : ... .. . ... : ... .. . ...
ROW 3D : ... .. . ... : ... .. . ... : ... .. . ... : ... .. . ... : ... .. . ...
ROW 3E : ... .. . ... : ... .. . ... : ... .. . ... : ... .. . ... : ... .. . ...
ROW 3F : ... .. . ... : ... .. . ... : ... .. . ... : ... .. . ... : ... .. . ...

TRACK  64   8 150 "World Select 1"
COLUMNS : 1 1 1 1 1

ORDER 00 : 00 00 00 00 00

PATTERN 00
ROW 00 : C-2 26 F ... : ... .. . ... : C-3 00 . ... : 0-# 11 . J10 : ... .. . ...
ROW 01 : ... .. . ... : C-2 26 6 ... : ... .. . ... : ... .. . ... : ... .. . ...
ROW 02 : G-2 26 . ... : ... .. . ... : --- .. . ... : E-# 13 . ... : ... .. . ...
ROW 03 : ... .. . ... : G-2 26 . ... : C-3 20 . ... : ... .. . ... : ... .. . ...
ROW 04 : C-3 26 . ... : ... .. . ... : ... .. . ... : ... .. . ... : ... .. . ...
ROW 05 : C-3 26 6 ... : C-3 26 . ... : --- .. . ... : ... .. . ... : ... .. . ...
ROW 06 : --- .. . ... : C-3 26 . ... : C-3 20 . ... : E-# 13 . ... : ... .. . ...
ROW 07 : D-4 27 F ... : --- .. . ... : ... .. . ... : ... .. . ... : ... .. . ...
ROW 08 : ... .. . ... : D-4 27 . ... : A-2 00 . ... : 0-# 11 . J10 : ... .. . ...
ROW 09 : ... .. . ... : ... .. . ... : ... .. . ... : ... .. . ... : ... .. . ...
ROW 0A : E-4 27 . ... : ... .. . ... : A-2 20 . ... : ... .. . ... : ... .. . ...
ROW 0B : ... .. . ... : E-4 27 . ... : ... .. . ... : ... .. . ... : ... .. . ...
ROW 0C : C-4 27 . ... : ... .. . ... : C-3 20 . ... : D-# 14 . ... : ... .. . ...
ROW 0D : ... .. . ... : C-4 27 . ... : --- .. . ... : ... .. . ... : ... .. . ...
ROW 0E : ... .. . ... : ... .. . ... : C-3 20 . ... : ... .. . ... : ... .. . ...
ROW 0F : ... .. . ... : ... .. . ... : ... .. . ... : ... .. . ... : ... .. . ...
ROW 10 : C-2 26 . ... : ... .. . ... : C-3 00 . ... : 0-# 11 . J10 : ... .. . ...
ROW 11 : ... .. . ... : C-2 26 . ... : ... .. . ... : ... .. . ... : ... .. . ...
ROW 12 : G-2 26 . ... : ... .. . ... : --- .. . ... : E-# 13 . ... : ... .. . ...
ROW 13 : ... .. . ... : G-2 26 . ... : C-3 20 . ... : ... .. . ... : ... .. . ...
ROW 14 : C-3 26 . ... : ... .. . ... : ... .. . ... : ... .. . ... : ... .. . ...
ROW 15 : C-3 26 6 ... : C-3 26 . ... : --- .. . ... : ... .. . ... : ... .. . ...
ROW 16 : --- .. . ... : C-3 26 . ... : C-3 20 . ... : E-# 13 . ... : ... .. . ...
ROW 17 : F-4 27 F ... : --- .. . ... : ... .. . ... : ... .. . ... : ... .. . ...
ROW 18 : ... .. . ... : F-4 27 . ... : D-3 00 . ... : 0-# 11 . J10 : ... .. . ...
ROW 19 : ... .. . ... : ... .. . ... : ... .. . ... : ... .. . ... : ... .. . ...
ROW 1A : A-4 27 . ... : ... .. . ... : D-3 20 . ... : ... .. . ... : ... .. . ...
ROW 1B : ... .. . ... : A-4 27 . ... : ... .. . ... : ... .. . ... : ... .. . ...
ROW 1C : G-4 27 . ... : ... .. . ... : E-3 20 . ... : D-# 14 . ... : ... .. . ...
ROW 1D : ... .. . ... : G-4 27 . ... : --- .. . ... : ... .. . ... : ... .. . ...
ROW 1E : --- .. . ... : ... .. . ... : E-3 20 . ... : ... .. . ... : ... .. . ...
ROW 1F : ... .. . ... : --- .. . ... : ... .. . ... : ... .. . ... : ... .. . ...
ROW 20 : C-2 26 . ... : ... .. . ... : C-3 00 . ... : 0-# 11 . J10 : ... .. . ...
ROW 21 : ... .. . ... : C-2 26 . ... : ... .. . ... : ... .. . ... : ... .. . ...
ROW 22 : C-3 26 . ... : ... .. . ... : --- .. . ... : E-# 13 . ... : ... .. . ...
ROW 23 : ... .. . ... : C-3 26 . ... : C-3 20 . ... : ... .. . ... : ... .. . ...
ROW 24 : G-2 26 . ... : ... .. . ... : ... .. . ... : ... .. . ... : ... .. . ...
ROW 25 : G-2 26 6 ... : G-2 26 . ... : --- .. . ... : ... .. . ... : ... .. . ...
ROW 26 : --- .. . ... : G-2 26 . ... : C-3 20 . ... : E-# 13 . ... : ... .. . ...
ROW 27 : D-4 27 F ... : --- .. . ... : ... .. . ... : ... .. . ... : ... .. . ...
ROW 28 : ... .. . ... : D-4 27 . ... : A-2 00 . ... : 0-# 11 . J10 : ... .. . ...
ROW 29 : ... .. . ... : ... .. . ... : ... .. . ... : ... .. . ... : ... .. . ...
ROW 2A : E-4 27 . ... : ... .. . ... : A-2 20 . ... : ... .. . ... : ... .. . ...
ROW 2B : ... .. . ... : E-4 27 . ... : ... .. . ... : ... .. . ... : ... .. . ...
ROW 2C : F-4 27 . ... : ... .. . ... : C-3 20 . ... : D-# 14 . ... : ... .. . ...
ROW 2D : ... .. . ... : F-4 27 . ... : --- .. . ... : ... .. . ... : ... .. . ...
ROW 2E : ... .. . ... : ... .. . ... : C-3 20 . ... : ... .. . ... : ... .. . ...
ROW 2F : ... .. . ... : ... .. . ... : ... .. . ... : ... .. . ... : ... .. . ...
ROW 30 : C-3 26 . ... : ... .. . ... : C-3 10 . ... : 0-# 11 . J10 : ... .. . ...
ROW 31 : ... .. . ... : C-3 26 . ... : ... .. . ... : ... .. . ... : ... .. . ...
ROW 32 : G-2 26 . ... : ... .. . ... : --- .. . ... : E-# 13 . ... : ... .. . ...
ROW 33 : ... .. . ... : G-2 26 . ... : C-3 20 . ... : ... .. . ... : ... .. . ...
ROW 34 : C-2 26 . ... : ... .. . ... : ... .. . ... : ... .. . ... : ... .. . ...
ROW 35 : C-2 26 6 ... : C-2 26 . ... : --- .. . ... : ... .. . ... : ... .. . ...
ROW 36 : E-4 27 F ... : C-2 26 . ... : C-3 20 . ... : E-# 13 . ... : ... .. . ...
ROW 37 : F-4 27 . ... : E-4 27 . ... : ... .. . ... : ... .. . ... : ... .. . ...
ROW 38 : G-4 27 . ... : F-4 27 . ... : D-3 10 . ... : 0-# 11 . J10 : ... .. . ...
ROW 39 : F-4 27 . ... : G-4 27 . ... : ... .. . ... : ... .. . ... : ... .. . ...
ROW 3A : D-4 27 . ... : F-4 27 . ... : D-3 20 . ... : D-# 14 . ... : ... .. . ...
ROW 3B : E-4 27 . ... : D-4 27 . ... : ... .. . ... : ... .. . ... : ... .. . ...
ROW 3C : A-4 27 . ... : E-4 27 . ... : E-3 20 . ... : E-# 13 . ... : ... .. . ...
ROW 3D : ... .. . ... : A-4 27 . ... : --- .. . ... : ... .. . ... : ... .. . ...
ROW 3E : B-4 27 . ... : ... .. . ... : G-3 20 . ... : D-# 14 . ... : ... .. . ...
ROW 3F : ... .. . ... : B-4 27 . ... : ... .. . ... : ... .. . ... : ... .. . ...

TRACK  64   8 150 "World Select 2"
COLUMNS : 1 1 1 1 1

ORDER 00 : 00 00 00 00 00

PATTERN 00
ROW 00 : C-2 26 F ... : ... .. . ... : C-3 00 . ... : 0-# 11 . J10 : ... .. . ...
ROW 01 : ... .. . ... : C-2 26 6 451 : ... .. . ... : ... .. . ... : ... .. . ...
ROW 02 : G-2 26 . ... : ... .. . ... : --- .. . ... : E-# 13 . ... : ... .. . ...
ROW 03 : ... .. . ... : G-2 26 . ... : C-3 20 . ... : E-# 13 . ... : ... .. . ...
ROW 04 : C-3 26 . ... : ... .. . ... : ... 00 . ... : 1-# 16 . J15 : ... .. . ...
ROW 05 : C-3 26 6 ... : C-3 26 . ... : --- .. . ... : ... .. . ... : ... .. . ...
ROW 06 : --- .. . ... : C-3 26 . ... : C-3 20 . ... : E-# 13 . ... : ... .. . ...
ROW 07 : D-4 27 F ... : --- .. . ... : ... .. . ... : ... .. . ... : ... .. . ...
ROW 08 : ... .. . ... : D-4 27 . ... : A-2 00 . ... : 0-# 11 . J10 : ... .. . ...
ROW 09 : C-4 27 . ... : ... .. . ... : ... .. . ... : E-# 13 . ... : ... .. . ...
ROW 0A : E-4 27 . ... : C-4 27 . ... : A-2 20 . ... : E-# 13 . ... : ... .. . ...
ROW 0B : ... .. . ... : E-4 27 . ... : ... .. . ... : ... .. . ... : ... .. . ...
ROW 0C : C-4 27 . ... : ... .. . ... : C-3 20 . ... : D-# 14 . ... : ... .. . ...
ROW 0D : ... .. . ... : C-4 27 . ... : --- .. . ... : ... .. . ... : ... .. . ...
ROW 0E : ... .. . ... : ... .. . ... : C-3 00 . ... : 1-# 16 . J15 : ... .. . ...
ROW 0F : ... .. . ... : ... .. . ... : ... .. . ... : ... .. . ... : ... .. . ...
ROW 10 : C-2 26 . ... : ... .. . ... : C-3 00 . ... : 0-# 11 . J10 : ... .. . ...
ROW 11 : ... .. . ... : C-2 26 . ... : ... .. . ... : ... .. . ... : ... .. . ...
ROW 12 : G-2 26 . ... : ... .. . ... : --- .. . ... : E-# 13 . ... : ... .. . ...
ROW 13 : ... .. . ... : G-2 26 . ... : C-3 20 . ... : E-# 13 . ... : ... .. . ...
ROW 14 : C-3 26 . ... : ... .. . ... : ... 00 . ... : 1-# 16 . J15 : ... .. . ...
ROW 15 : C-3 26 6 ... : C-3 26 . ... : --- .. . ... : ... .. . ... : ... .. . ...
ROW 16 : --- .. . ... : C-3 26 . ... : C-3 20 . ... : E-# 13 . ... : ... .. . ...
ROW 17 : F-4 27 F ... : --- .. . ... : ... .. . ... : ... .. . ... : ... .. . ...
ROW 18 : ... .. . ... : F-4 27 . ... : D-3 00 . ... : 0-# 11 . J10 : ... .. . ...
ROW 19 : G-4 27 . ... : ... .. . ... : ... .. . ... : E-# 13 . ... : ... .. . ...
ROW 1A : A-4 27 . ... : G-4 27 . ... : D-3 20 . ... : E-# 13 . ... : ... .. . ...
ROW 1B : ... .. . ... : A-4 27 . ... : ... .. . ... : ... .. . ... : ... .. . ...
ROW 1C : G-4 27 . ... : ... .. . ... : E-3 20 . ... : D-# 14 . ... : ... .. . ...
ROW 1D : ... .. . ... : G-4 27 . ... : --- .. . ... : ... .. . ... : ... .. . ...
ROW 1E : --- .. . ... : ... .. . ... : E-3 00 . ... : 1-# 16 . J15 : ... .. . ...
ROW 1F : ... .. . ... : --- .. . ... : ... .. . ... : ... .. . ... : ... .. . ...
ROW 20 : C-2 26 . ... : ... .. . ... : C-3 00 . ... : 0-# 11 . J10 : ... .. . ...
ROW 21 : ... .. . ... : C-2 26 . ... : ... .. . ... : ... .. . ... : ... .. . ...
ROW 22 : C-3 26 . ... : ... .. . ... : --- .. . ... : E-# 13 . ... : ... .. . ...
ROW 23 : ... .. . ... : C-3 26 . ... : C-3 20 . ... : E-# 13 . ... : ... .. . ...
ROW 24 : G-2 26 . ... : ... .. . ... : ... 00 . ... : 1-# 16 . J15 : ... .. . ...
ROW 25 : G-2 26 6 ... : G-2 26 . ... : --- .. . ... : ... .. . ... : ... .. . ...
ROW 26 : --- .. . ... : G-2 26 . ... : C-3 20 . ... : E-# 13 . ... : ... .. . ...
ROW 27 : D-4 27 F ... : --- .. . ... : ... .. . ... : ... .. . ... : ... .. . ...
ROW 28 : ... .. . ... : D-4 27 . ... : A-2 00 . ... : 0-# 11 . J10 : ... .. . ...
ROW 29 : F-4 27 . ... : ... .. . ... : ... .. . ... : E-# 13 . ... : ... .. . ...
ROW 2A : E-4 27 . ... : E-4 27 . ... : A-2 20 . ... : E-# 13 . ... : ... .. . ...
ROW 2B : ... .. . ... : E-4 27 . ... : ... .. . ... : ... .. . ... : ... .. . ...
ROW 2C : G-4 27 . ... : ... .. . ... : C-3 20 . ... : D-# 14 . ... : ... .. . ...
ROW 2D : ... .. . ... : G-4 27 . ... : --- .. . ... : ... .. . ... : ... .. . ...
ROW 2E : ... .. . ... : ... .. . ... : C-3 00 . ... : 1-# 16 . J15 : ... .. . ...
ROW 2F : ... .. . ... : ... .. . ... : ... .. . ... : ... .. . ... : ... .. . ...
ROW 30 : C-3 26 . ... : ... .. . ... : C-3 00 . ... : 0-# 11 . J10 : ... .. . ...
ROW 31 : ... .. . ... : C-3 26 . ... : ... .. . ... : ... .. . ... : ... .. . ...
ROW 32 : G-2 26 . ... : ... .. . ... : --- .. . ... : E-# 13 . ... : ... .. . ...
ROW 33 : ... .. . ... : G-2 26 . ... : C-3 20 . ... : E-# 13 . ... : ... .. . ...
ROW 34 : C-2 26 . ... : ... .. . ... : ... 00 . ... : 1-# 16 . J15 : ... .. . ...
ROW 35 : C-2 26 6 ... : C-2 26 . ... : --- .. . ... : ... .. . ... : ... .. . ...
ROW 36 : E-4 27 F ... : C-2 26 . ... : C-3 20 . ... : E-# 13 . ... : ... .. . ...
ROW 37 : F-4 27 . ... : E-4 27 . ... : ... .. . ... : ... .. . ... : ... .. . ...
ROW 38 : G-4 27 . ... : F-4 27 . ... : D-3 00 . ... : 0-# 11 . J10 : ... .. . ...
ROW 39 : F-4 27 . ... : G-4 27 . ... : ... .. . ... : E-# 13 . ... : ... .. . ...
ROW 3A : D-4 27 . ... : F-4 27 . ... : D-3 20 . ... : E-# 13 . ... : ... .. . ...
ROW 3B : E-4 27 . ... : D-4 27 . ... : ... .. . ... : ... .. . ... : ... .. . ...
ROW 3C : A-4 27 . ... : E-4 27 . ... : E-3 00 . ... : 1-# 16 . J15 : ... .. . ...
ROW 3D : G-4 27 . ... : A-4 27 . ... : --- .. . ... : E-# 13 . ... : ... .. . ...
ROW 3E : B-4 27 . ... : G-4 27 . ... : G-3 00 . ... : 1-# 16 . J15 : ... .. . ...
ROW 3F : ... .. . ... : B-4 27 . ... : G-3 00 . ... : 1-# 16 . J15 : ... .. . ...

TRACK  64   8 150 "World Select 3"
COLUMNS : 1 1 1 1 1

ORDER 00 : 00 00 00 00 00

PATTERN 00
ROW 00 : C-2 28 F ... : C-4 28 F 400 : C-3 00 . 453 : A-# 19 . J10 : ... .. . ...
ROW 01 : ... .. . ... : ... .. . ... : ... .. . ... : ... .. . ... : ... .. . ...
ROW 02 : G-2 26 . ... : ... .. . ... : --- .. . ... : ... .. . ... : ... .. . ...
ROW 03 : ... .. . ... : G-2 26 6 451 : C-3 20 . ... : ... .. . ... : ... .. . ...
ROW 04 : C-3 26 . ... : ... .. . ... : ... 00 . ... : 1-# 16 . J15 : ... .. . ...
ROW 05 : C-3 26 6 ... : C-3 26 . ... : --- .. . ... : E-# 13 . ... : ... .. . ...
ROW 06 : --- .. . ... : C-3 26 . ... : C-3 20 . ... : D-# 14 . ... : ... .. . ...
ROW 07 : D-4 27 F ... : --- .. . ... : ... .. . ... : ... .. . ... : ... .. . ...
ROW 08 : ... .. . ... : D-4 27 . ... : A-2 00 . ... : 0-# 11 . J10 : ... .. . ...
ROW 09 : C-4 27 . ... : ... .. . ... : ... .. . ... : E-# 13 . ... : ... .. . ...
ROW 0A : E-4 27 . ... : C-4 27 . ... : A-2 20 . ... : D-# 14 . ... : ... .. . ...
ROW 0B : ... .. . ... : E-4 27 . ... : ... .. . ... : E-# 13 . ... : ... .. . ...
ROW 0C : C-4 27 . ... : ... .. . ... : C-3 00 . ... : 1-# 16 . J15 : ... .. . ...
ROW 0D : ... .. . ... : C-4 27 . ... : --- .. . ... : E-# 13 . ... : ... .. . ...
ROW 0E : ... .. . ... : ... .. . ... : C-3 00 . ... : 1-# 16 . J15 : ... .. . ...
ROW 0F : ... .. . ... : ... .. . ... : ... .. . ... : ... .. . ... : ... .. . ...
ROW 10 : G-1 28 . ... : G-3 28 F 400 : C-3 00 . ... : 0-# 11 . J10 : ... .. . ...
ROW 11 : ... .. . ... : ... .. . ... : ... .. . ... : E-# 13 . ... : ... .. . ...
ROW 12 : G-2 26 . ... : ... .. . ... : --- .. . ... : D-# 14 . ... : ... .. . ...
ROW 13 : ... .. . ... : G-2 26 6 451 : C-3 20 . ... : ... .. . ... : ... .. . ...
ROW 14 : C-3 26 . ... : ... .. . ... : ... 00 . ... : 1-# 16 . J15 : ... .. . ...
ROW 15 : C-3 26 6 ... : C-3 26 . ... : --- .. . ... : E-# 13 . ... : ... .. . ...
ROW 16 : --- .. . ... : C-3 26 . ... : C-3 20 . ... : D-# 14 . ... : ... .. . ...
ROW 17 : F-4 27 F ... : --- .. . ... : ... .. . ... : ... .. . ... : ... .. . ...
ROW 18 : ... .. . ... : F-4 27 . ... : D-3 00 . ... : 0-# 11 . J10 : ... .. . ...
ROW 19 : G-4 27 . ... : ... .. . ... : ... .. . ... : E-# 13 . ... : ... .. . ...
ROW 1A : A-4 27 . ... : G-4 27 . ... : D-3 20 . ... : D-# 14 . ... : ... .. . ...
ROW 1B : ... .. . ... : A-4 27 . ... : ... .. . ... : E-# 13 . ... : ... .. . ...
ROW 1C : G-4 27 . ... : ... .. . ... : E-3 00 . ... : 1-# 16 . J15 : ... .. . ...
ROW 1D : ... .. . ... : G-4 27 . ... : --- .. . ... : E-# 13 . ... : ... .. . ...
ROW 1E : ... .. . ... : ... .. . ... : E-3 00 . ... : 1-# 16 . J15 : ... .. . ...
ROW 1F : ... .. . ... : ... .. . ... : ... .. . ... : ... .. . ... : ... .. . ...
ROW 20 : F-1 28 . ... : F-3 28 F 400 : C-3 00 . ... : 0-# 11 . J10 : ... .. . ...
ROW 21 : ... .. . ... : ... .. . ... : ... .. . ... : E-# 13 . ... : ... .. . ...
ROW 22 : C-3 26 . ... : ... .. . ... : --- .. . ... : D-# 14 . ... : ... .. . ...
ROW 23 : ... .. . ... : C-3 26 6 451 : C-3 20 . ... : ... .. . ... : ... .. . ...
ROW 24 : G-2 26 . ... : ... .. . ... : ... 00 . ... : 1-# 16 . J15 : ... .. . ...
ROW 25 : G-2 26 6 ... : G-2 26 . ... : --- .. . ... : E-# 13 . ... : ... .. . ...
ROW 26 : --- .. . ... : G-2 26 . ... : C-3 20 . ... : D-# 14 . ... : ... .. . ...
ROW 27 : D-4 27 F ... : --- .. . ... : ... .. . ... : ... .. . ... : ... .. . ...
ROW 28 : ... .. . ... : D-4 27 . ... : A-2 00 . ... : 0-# 11 . J10 : ... .. . ...
ROW 29 : F-4 27 . ... : ... .. . ... : ... .. . ... : E-# 13 . ... : ... .. . ...
ROW 2A : E-4 27 . ... : E-4 27 . ... : A-2 20 . ... : D-# 14 . ... : ... .. . ...
ROW 2B : ... .. . ... : E-4 27 . ... : ... .. . ... : E-# 13 . ... : ... .. . ...
ROW 2C : G-4 27 . ... : ... .. . ... : C-3 00 . ... : 1-# 16 . J15 : ... .. . ...
ROW 2D : ... .. . ... : G-4 27 . ... : --- .. . ... : E-# 13 . ... : ... .. . ...
ROW 2E : ... .. . ... : ... .. . ... : C-3 00 . ... : 1-# 16 . J15 : ... .. . ...
ROW 2F : ... .. . ... : ... .. . ... : ... .. . ... : ... .. . ... : ... .. . ...
ROW 30 : C-1 28 . ... : C-3 28 F 400 : C-3 00 . ... : 0-# 11 . J10 : ... .. . ...
ROW 31 : ... .. . ... : ... .. . ... : ... .. . ... : E-# 13 . ... : ... .. . ...
ROW 32 : G-2 26 . ... : ... .. . ... : --- .. . ... : D-# 14 . ... : ... .. . ...
ROW 33 : ... .. . ... : G-2 26 6 451 : C-3 20 . ... : ... .. . ... : ... .. . ...
ROW 34 : C-2 26 . ... : ... .. . ... : ... 00 . ... : 1-# 16 . J15 : ... .. . ...
ROW 35 : C-2 26 6 ... : C-2 26 . ... : --- .. . ... : E-# 13 . ... : ... .. . ...
ROW 36 : E-4 27 F ... : C-2 26 . ... : C-3 20 . ... : D-# 14 . ... : ... .. . ...
ROW 37 : F-4 27 . ... : E-4 27 . ... : ... .. . ... : ... .. . ... : ... .. . ...
ROW 38 : G-4 27 . ... : F-4 27 . ... : D-3 00 . ... : 0-# 11 . J10 : ... .. . ...
ROW 39 : F-4 27 . ... : G-4 27 . ... : ... .. . ... : E-# 13 . ... : ... .. . ...
ROW 3A : D-4 27 . ... : F-4 27 . ... : D-3 20 . ... : D-# 14 . ... : ... .. . ...
ROW 3B : E-4 27 . ... : D-4 27 . ... : --- .. . ... : E-# 13 . ... : ... .. . ...
ROW 3C : A-4 27 . ... : E-4 27 . ... : ... .. . ... : 2-# 05 . J04 : ... .. . ...
ROW 3D : G-4 27 . ... : A-4 27 . ... : ... .. . ... : 2-# 05 . J04 : ... .. . ...
ROW 3E : B-4 27 . ... : G-4 27 . ... : ... .. . ... : 2-# 05 . J01 : ... .. . ...
ROW 3F : ... .. . ... : B-4 27 . ... : ... .. . ... : 2-# 05 . J01 : ... .. . ...

TRACK  64   8 150 "World Select 4"
COLUMNS : 1 1 1 1 1

ORDER 00 : 00 00 00 00 00

PATTERN 00
ROW 00 : C-2 28 F ... : C-4 28 F 400 : C-3 00 . 453 : A-# 19 . J10 : ... .. . ...
ROW 01 : ... .. . ... : ... .. . ... : ... .. . ... : ... .. . ... : ... .. . ...
ROW 02 : G-2 26 . ... : ... .. . ... : --- .. . ... : ... .. . ... : ... .. . ...
ROW 03 : ... .. . ... : G-2 26 6 451 : C-3 20 . ... : ... .. . ... : ... .. . ...
ROW 04 : C-3 26 . ... : ... .. . ... : ... 00 . ... : 1-# 16 . J15 : ... .. . ...
ROW 05 : C-3 26 6 ... : C-3 26 . ... : --- .. . ... : E-# 13 . ... : ... .. . ...
ROW 06 : --- .. . ... : C-3 26 . ... : C-3 20 . ... : D-# 14 . ... : ... .. . ...
ROW 07 : D-4 27 F ... : --- .. . ... : ... 00 . ... : 1-# 16 . J15 : ... .. . ...
ROW 08 : ... .. . ... : D-4 27 . ... : A-2 00 . ... : 0-# 11 . J10 : ... .. . ...
ROW 09 : C-4 27 . ... : ... .. . ... : ... .. . ... : E-# 13 . ... : ... .. . ...
ROW 0A : E-4 27 . ... : C-4 27 . ... : A-2 20 . ... : D-# 14 . ... : ... .. . ...
ROW 0B : ... .. . ... : E-4 27 . ... : ... .. . ... : E-# 13 . ... : ... .. . ...
ROW 0C : C-4 27 . ... : C-3 2F C ... : C-3 00 . ... : 1-# 16 . J15 : ... .. . ...
ROW 0D : ... .. . ... : E-3 2F . ... : --- .. . ... : E-# 13 . ... : ... .. . ...
ROW 0E : ... .. . ... : C-3 2F . ... : C-3 00 . ... : 1-# 16 . J15 : ... .. . ...
ROW 0F : ... .. . ... : G-2 2F . ... : ... .. . ... : ... .. . ... : ... .. . ...
ROW 10 : G-1 28 . ... : G-3 28 F 400 : C-3 00 . ... : 0-# 11 . J10 : ... .. . ...
ROW 11 : ... .. . ... : ... .. . ... : ... .. . ... : E-# 13 . ... : ... .. . ...
ROW 12 : G-2 26 . ... : ... .. . ... : --- .. . ... : D-# 14 . ... : ... .. . ...
ROW 13 : ... .. . ... : G-2 26 6 451 : C-3 20 . ... : ... .. . ... : ... .. . ...
ROW 14 : C-3 26 . ... : ... .. . ... : ... 00 . ... : 1-# 16 . J15 : ... .. . ...
ROW 15 : C-3 26 6 ... : C-3 26 . ... : --- .. . ... : E-# 13 . ... : ... .. . ...
ROW 16 : --- .. . ... : C-3 26 . ... : C-3 20 . ... : D-# 14 . ... : ... .. . ...
ROW 17 : F-4 27 F ... : --- .. . ... : ... 00 . ... : 1-# 16 . J15 : ... .. . ...
ROW 18 : ... .. . ... : F-4 27 . ... : D-3 00 . ... : 0-# 11 . J10 : ... .. . ...
ROW 19 : G-4 27 . ... : ... .. . ... : ... .. . ... : E-# 13 . ... : ... .. . ...
ROW 1A : A-4 27 . ... : G-4 27 . ... : D-3 20 . ... : D-# 14 . ... : ... .. . ...
ROW 1B : ... .. . ... : A-4 27 . ... : ... .. . ... : E-# 13 . ... : ... .. . ...
ROW 1C : G-4 27 . ... : G-3 2F C ... : E-3 00 . ... : 1-# 16 . J15 : ... .. . ...
ROW 1D : ... .. . ... : F-3 2F . ... : --- .. . ... : E-# 13 . ... : ... .. . ...
ROW 1E : ... .. . ... : E-3 2F . ... : E-3 00 . ... : 1-# 16 . J15 : ... .. . ...
ROW 1F : ... .. . ... : C-3 2F . ... : ... .. . ... : ... .. . ... : ... .. . ...
ROW 20 : F-1 28 . ... : F-3 28 F 400 : C-3 00 . ... : 0-# 11 . J10 : ... .. . ...
ROW 21 : ... .. . ... : ... .. . ... : ... .. . ... : E-# 13 . ... : ... .. . ...
ROW 22 : C-3 26 . ... : ... .. . ... : --- .. . ... : D-# 14 . ... : ... .. . ...
ROW 23 : ... .. . ... : C-3 26 6 451 : C-3 20 . ... : ... .. . ... : ... .. . ...
ROW 24 : G-2 26 . ... : ... .. . ... : ... 00 . ... : 1-# 16 . J15 : ... .. . ...
ROW 25 : G-2 26 6 ... : G-2 26 . ... : --- .. . ... : E-# 13 . ... : ... .. . ...
ROW 26 : --- .. . ... : G-2 26 . ... : C-3 20 . ... : D-# 14 . ... : ... .. . ...
ROW 27 : D-4 27 F ... : --- .. . ... : ... 00 . ... : 1-# 16 . J15 : ... .. . ...
ROW 28 : ... .. . ... : G-3 2F C ... : A-2 00 . ... : 0-# 11 . J10 : ... .. . ...
ROW 29 : F-4 27 . ... : ... .. . ... : ... .. . ... : E-# 13 . ... : ... .. . ...
ROW 2A : E-4 27 . ... : E-4 27 6 ... : A-2 20 . ... : D-# 14 . ... : ... .. . ...
ROW 2B : ... .. . ... : F-3 2F C ... : ... .. . ... : E-# 13 . ... : ... .. . ...
ROW 2C : G-4 27 . ... : ... .. . ... : C-3 00 . ... : 1-# 16 . J15 : ... .. . ...
ROW 2D : ... .. . ... : ... .. . ... : --- .. . ... : E-# 13 . ... : ... .. . ...
ROW 2E : ... .. . ... : E-3 2F . ... : C-3 00 . ... : 1-# 16 . J15 : ... .. . ...
ROW 2F : ... .. . ... : ... .. . ... : ... .. . ... : ... .. . ... : ... .. . ...
ROW 30 : C-1 28 . ... : C-3 28 F 400 : C-3 00 . ... : 0-# 11 . J10 : ... .. . ...
ROW 31 : ... .. . ... : ... .. . ... : ... .. . ... : E-# 13 . ... : ... .. . ...
ROW 32 : G-2 26 . ... : ... .. . ... : --- .. . ... : D-# 14 . ... : ... .. . ...
ROW 33 : ... .. . ... : G-2 26 6 451 : C-3 20 . ... : ... .. . ... : ... .. . ...
ROW 34 : C-2 26 . ... : ... .. . ... : ... 00 . ... : 1-# 16 . J15 : ... .. . ...
ROW 35 : C-2 26 6 ... : C-2 26 . ... : --- .. . ... : E-# 13 . ... : ... .. . ...
ROW 36 : E-4 27 F ... : C-2 26 . ... : C-3 20 . ... : D-# 14 . ... : ... .. . ...
ROW 37 : F-4 27 . ... : E-4 27 . ... : ... 00 . ... : 1-# 16 . J15 : ... .. . ...
ROW 38 : G-4 27 . ... : G-3 2F C ... : D-3 00 . ... : 0-# 11 . J10 : ... .. . ...
ROW 39 : F-4 27 . ... : F-3 2F . ... : ... .. . ... : E-# 13 . ... : ... .. . ...
ROW 3A : D-4 27 . ... : D-3 2F . ... : D-3 20 . ... : D-# 14 . ... : ... .. . ...
ROW 3B : E-4 27 . ... : E-3 2F . ... : --- .. . ... : E-# 13 . ... : ... .. . ...
ROW 3C : A-4 27 . ... : A-3 2F . ... : ... .. . ... : 2-# 05 . J04 : ... .. . ...
ROW 3D : G-4 27 . ... : G-3 2F . ... : ... .. . ... : 2-# 05 . J04 : ... .. . ...
ROW 3E : B-4 27 . ... : B-3 2F . ... : ... .. . ... : 2-# 05 . J01 : ... .. . ...
ROW 3F : ... .. . ... : D-4 2F . ... : ... .. . ... : 2-# 05 . J01 : ... .. . ...

TRACK  64   8 150 "World Select 5"
COLUMNS : 1 1 1 1 1

ORDER 00 : 00 00 00 00 00

PATTERN 00
ROW 00 : C-2 28 F 000 : C-4 28 F 400 : C-3 00 . 453 : A-# 19 . J10 : ... .. . ...
ROW 01 : ... .. . ... : ... .. . ... : ... .. . ... : ... .. . ... : ... .. . ...
ROW 02 : G-2 0D . ... : ... .. . ... : --- .. . ... : ... .. . ... : ... .. . ...
ROW 03 : ... .. . ... : G-2 0D 6 451 : C-3 20 . ... : ... .. . ... : ... .. . ...
ROW 04 : C-3 0D . ... : ... .. . ... : ... 00 . ... : 1-# 2C . J15 : ... .. . ...
ROW 05 : C-3 0D 6 ... : C-3 0D . ... : --- .. . ... : E-# 13 . ... : ... .. . ...
ROW 06 : --- .. . ... : C-3 0D . ... : C-3 20 . ... : D-# 14 . ... : ... .. . ...
ROW 07 : D-4 17 F ... : --- .. . ... : ... 00 . ... : 1-# 2C . J15 : ... .. . ...
ROW 08 : ... .. . ... : D-4 17 . ... : A-2 00 . ... : 0-# 11 . J10 : ... .. . ...
ROW 09 : C-4 17 . ... : ... .. . ... : ... .. . ... : E-# 13 . ... : ... .. . ...
ROW 0A : D-4 17 . ... : C-4 17 . ... : A-2 20 . ... : D-# 14 . ... : ... .. . ...
ROW 0B : E-4 17 . ... : E-4 17 . ... : ... .. . ... : E-# 13 . ... : ... .. . ...
ROW 0C : C-4 17 . ... : C-3 2F C ... : C-3 00 . ... : 1-# 2C . J15 : ... .. . ...
ROW 0D : ... .. . ... : E-3 2F . ... : --- .. . ... : E-# 13 . ... : ... .. . ...
ROW 0E : ... .. . ... : C-3 2F . ... : C-3 00 . ... : 1-# 2C . J15 : ... .. . ...
ROW 0F : ... .. . ... : G-2 2F . ... : ... .. . ... : ... .. . ... : ... .. . ...
ROW 10 : G-1 28 . ... : G-3 28 F 400 : C-3 00 . ... : 0-# 11 . J10 : ... .. . ...
ROW 11 : ... .. . ... : ... .. . ... : ... .. . ... : E-# 13 . ... : ... .. . ...
ROW 12 : G-2 0D . ... : ... .. . ... : --- .. . ... : D-# 14 . ... : ... .. . ...
ROW 13 : ... .. . ... : G-2 0D 6 451 : C-3 20 . ... : ... .. . ... : ... .. . ...
ROW 14 : C-3 0D . ... : ... .. . ... : ... 00 . ... : 1-# 2C . J15 : ... .. . ...
ROW 15 : C-3 0D 6 ... : C-3 0D . ... : --- .. . ... : E-# 13 . ... : ... .. . ...
ROW 16 : --- .. . ... : C-3 0D . ... : C-3 20 . ... : D-# 14 . ... : ... .. . ...
ROW 17 : F-4 17 F ... : --- .. . ... : ... 00 . ... : 1-# 2C . J15 : ... .. . ...
ROW 18 : ... .. . ... : F-4 17 . ... : D-3 00 . ... : 0-# 11 . J10 : ... .. . ...
ROW 19 : G-4 17 . ... : ... .. . ... : ... .. . ... : E-# 13 . ... : ... .. . ...
ROW 1A : A-4 17 . ... : G-4 17 . ... : D-3 20 . ... : D-# 14 . ... : ... .. . ...
ROW 1B : ... .. . ... : A-4 17 . ... : ... .. . ... : E-# 13 . ... : ... .. . ...
ROW 1C : G-4 17 . ... : G-3 2F C ... : E-3 00 . ... : 1-# 2C . J15 : ... .. . ...
ROW 1D : ... .. . ... : F-3 2F . ... : --- .. . ... : E-# 13 . ... : ... .. . ...
ROW 1E : E-4 17 . ... : E-3 2F . ... : E-3 00 . ... : 1-# 2C . J15 : ... .. . ...
ROW 1F : ... .. . ... : C-3 2F . ... : ... .. . ... : ... .. . ... : ... .. . ...
ROW 20 : F-1 28 . ... : F-3 28 F 400 : C-3 00 . ... : 0-# 11 . J10 : ... .. . ...
ROW 21 : ... .. . ... : ... .. . ... : ... .. . ... : E-# 13 . ... : ... .. . ...
ROW 22 : C-3 0D . ... : ... .. . ... : --- .. . ... : D-# 14 . ... : ... .. . ...
ROW 23 : ... .. . ... : C-3 0D 6 451 : C-3 20 . ... : ... .. . ... : ... .. . ...
ROW 24 : G-2 0D . ... : ... .. . ... : ... 00 . ... : 1-# 2C . J15 : ... .. . ...
ROW 25 : G-2 0D 6 ... : G-2 0D . ... : --- .. . ... : E-# 13 . ... : ... .. . ...
ROW 26 : --- .. . ... : G-2 0D . ... : C-3 20 . ... : D-# 14 . ... : ... .. . ...
ROW 27 : D-4 17 F ... : --- .. . ... : ... 00 . ... : 1-# 2C . J15 : ... .. . ...
ROW 28 : ... .. . ... : G-3 2F C ... : A-2 00 . ... : 0-# 11 . J10 : ... .. . ...
ROW 29 : F-4 17 . ... : ... .. . ... : ... .. . ... : E-# 13 . ... : ... .. . ...
ROW 2A : E-4 17 . ... : E-4 17 6 ... : A-2 20 . ... : D-# 14 . ... : ... .. . ...
ROW 2B : ... .. . ... : F-3 2F C ... : ... .. . ... : E-# 13 . ... : ... .. . ...
ROW 2C : G-4 17 . ... : ... .. . ... : C-3 00 . ... : 1-# 2C . J15 : ... .. . ...
ROW 2D : ... .. . ... : ... .. . ... : --- .. . ... : E-# 13 . ... : ... .. . ...
ROW 2E : E-4 17 . ... : E-3 2F . ... : C-3 00 . ... : 1-# 2C . J15 : ... .. . ...
ROW 2F : ... .. . ... : ... .. . ... : ... .. . ... : ... .. . ... : ... .. . ...
ROW 30 : C-1 28 . ... : C-3 28 F 400 : C-3 00 . ... : 0-# 11 . J10 : ... .. . ...
ROW 31 : ... .. . ... : ... .. . ... : ... .. . ... : E-# 13 . ... : ... .. . ...
ROW 32 : G-2 0D . ... : ... .. . ... : --- .. . ... : D-# 14 . ... : ... .. . ...
ROW 33 : ... .. . ... : G-2 0D 6 451 : C-3 20 . ... : ... .. . ... : ... .. . ...
ROW 34 : C-2 0D . ... : ... .. . ... : ... 00 . ... : 1-# 2C . J15 : ... .. . ...
ROW 35 : C-2 0D 6 ... : C-2 0D . ... : --- .. . ... : E-# 13 . ... : ... .. . ...
ROW 36 : E-4 22 F ... : C-2 0D . ... : C-3 20 . ... : D-# 14 . ... : ... .. . ...
ROW 37 : F-4 22 . ... : E-4 12 . ... : ... 00 . ... : 1-# 2C . J15 : ... .. . ...
ROW 38 : G-4 22 . ... : G-3 2F C ... : D-3 00 . ... : 0-# 11 . J10 : ... .. . ...
ROW 39 : F-4 22 . ... : F-3 2F . ... : ... .. . ... : E-# 13 . ... : ... .. . ...
ROW 3A : D-4 22 . ... : D-3 2F . ... : D-3 20 . ... : D-# 14 . ... : ... .. . ...
ROW 3B : E-4 22 . ... : E-3 2F . ... : --- .. . ... : E-# 13 . ... : ... .. . ...
ROW 3C : A-4 22 . ... : A-3 2F . ... : ... .. . ... : 2-# 05 . J04 : ... .. . ...
ROW 3D : G-4 22 . ... : G-3 2F . ... : ... .. . ... : 2-# 05 . J04 : ... .. . ...
ROW 3E : B-4 22 . ... : B-3 2F . ... : ... .. . ... : 2-# 05 . J01 : ... .. . ...
ROW 3F : ... .. 6 ... : D-4 2F . ... : ... .. . ... : 2-# 05 . J01 : ... .. . ...

# End of export
